<svg width="34" height="33" viewBox="0 0 34 33" fill="none" xmlns="http://www.w3.org/2000/svg">
<g id="heroicons-outline/adjustments-horizontal">
<path id="Vector" d="M14.9375 8.25L28.3438 8.25M14.9375 8.25C14.9375 9.38909 14.0141 10.3125 12.875 10.3125C11.7359 10.3125 10.8125 9.38909 10.8125 8.25M14.9375 8.25C14.9375 7.11091 14.0141 6.1875 12.875 6.1875C11.7359 6.1875 10.8125 7.11091 10.8125 8.25M5.65625 8.25H10.8125M14.9375 24.75H28.3438M14.9375 24.75C14.9375 25.8891 14.0141 26.8125 12.875 26.8125C11.7359 26.8125 10.8125 25.8891 10.8125 24.75M14.9375 24.75C14.9375 23.6109 14.0141 22.6875 12.875 22.6875C11.7359 22.6875 10.8125 23.6109 10.8125 24.75M5.65625 24.75L10.8125 24.75M23.1875 16.5L28.3438 16.5M23.1875 16.5C23.1875 17.6391 22.2641 18.5625 21.125 18.5625C19.9859 18.5625 19.0625 17.6391 19.0625 16.5M23.1875 16.5C23.1875 15.3609 22.2641 14.4375 21.125 14.4375C19.9859 14.4375 19.0625 15.3609 19.0625 16.5M5.65625 16.5H19.0625" stroke="#B1B1B1" stroke-width="1.5" stroke-linecap="round" stroke-linejoin="round"/>
</g>
</svg>
