<svg width="34" height="33" viewBox="0 0 34 33" fill="none" xmlns="http://www.w3.org/2000/svg">
<g id="Chats">
<path id="Vector" d="M9.99702 18.5625L4.89453 22.6875V6.1875C4.89453 5.914 5.00318 5.65169 5.19658 5.4583C5.38997 5.2649 5.65228 5.15625 5.92578 5.15625H22.4258C22.6993 5.15625 22.9616 5.2649 23.155 5.4583C23.3484 5.65169 23.457 5.914 23.457 6.1875V17.5312C23.457 17.8048 23.3484 18.0671 23.155 18.2605C22.9616 18.4539 22.6993 18.5625 22.4258 18.5625H9.99702Z" stroke="#FFF500" stroke-width="2" stroke-linecap="round" stroke-linejoin="round"/>
<path id="Vector_2" d="M11.082 18.5625V23.7187C11.082 23.9923 11.1907 24.2546 11.3841 24.448C11.5775 24.6414 11.8398 24.75 12.1133 24.75H24.542L29.6445 28.875V12.375C29.6445 12.1015 29.5359 11.8392 29.3425 11.6458C29.1491 11.4524 28.8868 11.3438 28.6133 11.3438H23.457" stroke="#FFF500" stroke-width="2" stroke-linecap="round" stroke-linejoin="round"/>
</g>
</svg>
