<svg width="20" height="20" viewBox="0 0 20 20" fill="none" xmlns="http://www.w3.org/2000/svg">
<g id="Icon/Chevron">
<path id="Vector" fill-rule="evenodd" clip-rule="evenodd" d="M15.5886 5.5886C15.914 5.26317 15.914 4.73553 15.5886 4.41009C15.2632 4.08466 14.7355 4.08466 14.4101 4.41009L9.99935 8.82084L5.5886 4.41009C5.26317 4.08466 4.73553 4.08466 4.41009 4.41009C4.08466 4.73553 4.08466 5.26317 4.41009 5.5886L8.82084 9.99935L4.41009 14.4101C4.08466 14.7355 4.08466 15.2632 4.41009 15.5886C4.73553 15.914 5.26317 15.914 5.5886 15.5886L9.99935 11.1779L14.4101 15.5886C14.7355 15.914 15.2632 15.914 15.5886 15.5886C15.914 15.2632 15.914 14.7355 15.5886 14.4101L11.1779 9.99935L15.5886 5.5886Z" fill="white" fill-opacity="0.5"/>
</g>
</svg>
