<svg width="34" height="33" viewBox="0 0 34 33" fill="none" xmlns="http://www.w3.org/2000/svg">
<g id="heroicons-outline/cloud">
<path id="Union" d="M3.59375 20.625C3.59375 24.0423 6.36399 26.8125 9.78125 26.8125H25.25C28.0977 26.8125 30.4062 24.504 30.4062 21.6562C30.4062 19.4534 29.0248 17.5731 27.081 16.8346C27.231 16.4071 27.3125 15.9474 27.3125 15.4688C27.3125 13.1906 25.4657 11.3438 23.1875 11.3438C22.743 11.3438 22.3149 11.4141 21.9138 11.5442C21.0926 8.45983 18.2804 6.1875 14.9375 6.1875C10.9507 6.1875 7.71875 9.41944 7.71875 13.4062C7.71875 13.8644 7.76144 14.3127 7.84305 14.7471C5.37513 15.5605 3.59375 17.8847 3.59375 20.625Z" stroke="#B1B1B1" stroke-width="1.5" stroke-linecap="round" stroke-linejoin="round"/>
</g>
</svg>
