<svg width="34" height="33" viewBox="0 0 34 33" fill="none" xmlns="http://www.w3.org/2000/svg">
<g id="heroicons-outline/cube-transparent">
<path id="Vector" d="M29.375 10.3125L26.2812 8.50781M29.375 10.3125V13.4062M29.375 10.3125L26.2812 12.1172M4.625 10.3125L7.71875 8.50781M4.625 10.3125L7.71875 12.1172M4.625 10.3125V13.4062M17 17.5312L20.0938 15.7266M17 17.5312L13.9062 15.7266M17 17.5312V20.625M17 29.9062L20.0938 28.1016M17 29.9062V26.8125M17 29.9062L13.9062 28.1016M13.9062 4.89844L17 3.09375L20.0938 4.89844M29.375 19.5938V22.6875L26.2812 24.4922M7.71875 24.4922L4.625 22.6875V19.5938" stroke="#B1B1B1" stroke-width="1.5" stroke-linecap="round" stroke-linejoin="round"/>
</g>
</svg>
