<svg width="23" height="23" viewBox="0 0 23 23" fill="none" xmlns="http://www.w3.org/2000/svg">
<g id="heroicons-mini/currency-dollar">
<g id="Union">
<path d="M12.3632 12.441V15.448C12.8596 15.3563 13.3115 15.1861 13.6715 14.9506C14.2261 14.5881 14.3757 14.2056 14.3757 13.9445C14.3757 13.6834 14.2261 13.301 13.6715 12.9384C13.3115 12.703 12.8596 12.5327 12.3632 12.441Z" fill="#0DD244"/>
<path d="M9.57983 9.91317C9.64166 9.97753 9.71211 10.0409 9.79193 10.1026C10.0311 10.2873 10.3204 10.4287 10.6383 10.5197V7.5944C10.5526 7.61894 10.4689 7.64715 10.3878 7.67888C10.3361 7.69908 10.2854 7.72072 10.2359 7.74375C10.0747 7.81867 9.9255 7.90834 9.79193 8.01155C9.35784 8.34698 9.20078 8.73219 9.20078 9.05706C9.20078 9.26848 9.2673 9.50546 9.4334 9.73764C9.4756 9.79662 9.52423 9.8553 9.57983 9.91317Z" fill="#0DD244"/>
<path fill-rule="evenodd" clip-rule="evenodd" d="M20.7008 11.5008C20.7008 16.5818 16.5818 20.7008 11.5008 20.7008C6.41976 20.7008 2.30078 16.5818 2.30078 11.5008C2.30078 6.41976 6.41976 2.30078 11.5008 2.30078C16.5818 2.30078 20.7008 6.41976 20.7008 11.5008ZM11.5007 4.60078C11.9771 4.60078 12.3632 4.98694 12.3632 5.46328V5.8265C13.0444 5.9475 13.7067 6.21569 14.2643 6.64656C14.7545 7.02531 15.1194 7.4969 15.3282 8.02659C15.5029 8.46975 15.2852 8.97061 14.8421 9.14528C14.3989 9.31996 13.8981 9.1023 13.7234 8.65914C13.6397 8.44681 13.4788 8.21954 13.2096 8.01152C12.9704 7.82675 12.6811 7.68537 12.3632 7.59437V10.6951C13.166 10.802 13.9534 11.0617 14.6155 11.4947C15.5206 12.0864 16.1007 12.9548 16.1007 13.9445C16.1007 14.9343 15.5206 15.8026 14.6155 16.3944C13.9534 16.8274 13.166 17.0871 12.3632 17.1939V17.5383C12.3632 18.0146 11.9771 18.4008 11.5007 18.4008C11.0244 18.4008 10.6382 18.0146 10.6382 17.5383V17.1939C9.83542 17.0871 9.04806 16.8274 8.38591 16.3944C7.83099 16.0316 7.39953 15.569 7.14616 15.028C6.94413 14.5966 7.13006 14.0831 7.56144 13.8811C7.99282 13.6791 8.5063 13.865 8.70833 14.2964C8.80125 14.4948 8.99024 14.7285 9.32991 14.9506C9.68995 15.186 10.1418 15.3563 10.6382 15.448V12.2876C9.95705 12.1666 9.2947 11.8984 8.73711 11.4675C7.93617 10.8486 7.47571 9.98298 7.47571 9.05703C7.47571 8.13108 7.93617 7.26547 8.73711 6.64656C9.2947 6.21569 9.95705 5.9475 10.6382 5.8265V5.46328C10.6382 4.98694 11.0244 4.60078 11.5007 4.60078Z" fill="#0DD244"/>
</g>
</g>
</svg>
