<svg width="25" height="25" viewBox="0 0 25 25" fill="none" xmlns="http://www.w3.org/2000/svg">
<path d="M12.5 8.75C12.5 7.95435 12.8161 7.19129 13.3787 6.62868C13.9413 6.06607 14.7044 5.75 15.5 5.75H21.5C21.6989 5.75 21.8897 5.82902 22.0303 5.96967C22.171 6.11032 22.25 6.30109 22.25 6.5V18.5C22.25 18.6989 22.171 18.8897 22.0303 19.0303C21.8897 19.171 21.6989 19.25 21.5 19.25H15.5C14.7044 19.25 13.9413 19.5661 13.3787 20.1287C12.8161 20.6913 12.5 21.4544 12.5 22.25" stroke="white" stroke-width="2" stroke-linecap="round" stroke-linejoin="round"/>
<path d="M2.75 18.5C2.75 18.6989 2.82902 18.8897 2.96967 19.0303C3.11032 19.171 3.30109 19.25 3.5 19.25H9.5C10.2956 19.25 11.0587 19.5661 11.6213 20.1287C12.1839 20.6913 12.5 21.4544 12.5 22.25V8.75C12.5 7.95435 12.1839 7.19129 11.6213 6.62868C11.0587 6.06607 10.2956 5.75 9.5 5.75H3.5C3.30109 5.75 3.11032 5.82902 2.96967 5.96967C2.82902 6.11032 2.75 6.30109 2.75 6.5V18.5Z" stroke="white" stroke-width="2" stroke-linecap="round" stroke-linejoin="round"/>
</svg>
