<svg width="34" height="33" viewBox="0 0 34 33" fill="none" xmlns="http://www.w3.org/2000/svg">
<g id="heroicons-outline/fire">
<g id="Vector">
<path d="M21.623 7.1671C25.5837 8.93683 28.3438 12.9107 28.3438 17.5292C28.3438 23.7941 23.265 28.8729 17 28.8729C10.735 28.8729 5.65625 23.7941 5.65625 17.5292C5.65625 14.4876 6.8533 11.7256 8.80199 9.68863C9.85592 11.1604 11.2532 12.3697 12.8767 13.1993C12.9387 9.38272 14.7285 5.98621 17.4979 3.75781C18.5476 5.16547 19.9396 6.34842 21.623 7.1671Z" stroke="#B1B1B1" stroke-width="1.5" stroke-linecap="round" stroke-linejoin="round"/>
<path d="M17 24.7484C19.8477 24.7484 22.1562 22.4399 22.1562 19.5922C22.1562 16.9752 20.2066 14.8135 17.6805 14.4804C16.294 15.7242 15.331 17.4305 15.0342 19.3565C13.9581 19.0935 12.9648 18.6194 12.1006 17.9805C11.9339 18.4876 11.8438 19.0294 11.8438 19.5922C11.8438 22.4399 14.1523 24.7484 17 24.7484Z" stroke="#B1B1B1" stroke-width="1.5" stroke-linecap="round" stroke-linejoin="round"/>
</g>
</g>
</svg>
