<svg width="33" height="33" viewBox="0 0 33 33" fill="none" xmlns="http://www.w3.org/2000/svg">
<g id="House">
<path id="Vector" d="M19.593 26.8115V20.6238C19.593 20.3503 19.4843 20.088 19.2909 19.8946C19.0976 19.7012 18.8352 19.5926 18.5617 19.5926H14.4367C14.1632 19.5926 13.9009 19.7012 13.7075 19.8946C13.5141 20.088 13.4055 20.3503 13.4055 20.6238V26.8115C13.4055 27.0849 13.2969 27.3472 13.1035 27.5406C12.9101 27.734 12.6479 27.8427 12.3744 27.8427L6.18763 27.8435C6.05219 27.8435 5.91808 27.8169 5.79295 27.7651C5.66781 27.7132 5.55412 27.6373 5.45834 27.5415C5.36257 27.4458 5.28659 27.3321 5.23476 27.2069C5.18293 27.0818 5.15625 26.9477 5.15625 26.8123V14.8935C5.15625 14.7499 5.18627 14.6078 5.24439 14.4764C5.30251 14.345 5.38744 14.2272 5.49374 14.1305L15.8055 4.75457C15.9954 4.58198 16.2427 4.48634 16.4993 4.48633C16.7558 4.48632 17.0032 4.58194 17.193 4.75453L27.5062 14.1305C27.6125 14.2272 27.6975 14.345 27.7556 14.4764C27.8137 14.6078 27.8438 14.7499 27.8438 14.8936V26.8123C27.8438 26.9477 27.8171 27.0818 27.7652 27.2069C27.7134 27.3321 27.6374 27.4458 27.5417 27.5415C27.4459 27.6373 27.3322 27.7132 27.2071 27.7651C27.0819 27.8169 26.9478 27.8435 26.8124 27.8435L20.6241 27.8427C20.3506 27.8427 20.0884 27.734 19.895 27.5406C19.7016 27.3472 19.593 27.0849 19.593 26.8115V26.8115Z" stroke="white" stroke-width="2" stroke-linecap="round" stroke-linejoin="round"/>
</g>
</svg>
