<svg width="34" height="33" viewBox="0 0 34 33" fill="none" xmlns="http://www.w3.org/2000/svg">
<g id="heroicons-outline/light-bulb">
<path id="Vector" d="M17 24.75V17.5313M17 17.5313C17.7122 17.5313 18.4033 17.4411 19.0625 17.2714M17 17.5313C16.2878 17.5313 15.5967 17.4411 14.9375 17.2714M20.0938 27.5542C19.0916 27.7443 18.0574 27.8438 17 27.8438C15.9426 27.8438 14.9084 27.7443 13.9062 27.5542M19.0625 30.8302C18.3847 30.9012 17.6966 30.9375 17 30.9375C16.3034 30.9375 15.6153 30.9012 14.9375 30.8302M20.0938 24.75V24.4865C20.0938 23.1349 20.9989 21.9794 22.1679 21.3011C25.2439 19.5164 27.3125 16.1873 27.3125 12.375C27.3125 6.67956 22.6954 2.0625 17 2.0625C11.3046 2.0625 6.6875 6.67956 6.6875 12.375C6.6875 16.1873 8.75613 19.5164 11.8321 21.3011C13.0011 21.9794 13.9063 23.1349 13.9063 24.4865V24.75" stroke="#B1B1B1" stroke-width="1.5" stroke-linecap="round" stroke-linejoin="round"/>
</g>
</svg>
