<svg width="34" height="33" viewBox="0 0 34 33" fill="none" xmlns="http://www.w3.org/2000/svg">
<path d="M13.6015 22.1683C12.9886 20.6584 11.5075 19.5938 9.77777 19.5938C7.4996 19.5938 5.65277 21.4406 5.65277 23.7188C5.65277 25.4274 4.26762 26.8125 2.55899 26.8125C2.48928 26.8125 2.42012 26.8102 2.35156 26.8057C3.42043 28.6589 5.42216 29.9062 7.71524 29.9062C11.1228 29.9062 13.887 27.1517 13.9027 23.7478C13.9027 23.7381 13.9028 23.7284 13.9028 23.7188C13.9028 23.1703 13.7958 22.6469 13.6015 22.1683ZM13.6015 22.1683C15.2436 21.6086 16.8056 20.8594 18.2581 19.9413M11.3246 19.9057C11.8847 18.2596 12.6352 16.694 13.5552 15.2385M18.2581 19.9413C20.8437 18.3069 23.0821 16.1373 24.8074 13.5493L30.1369 5.55509C30.3103 5.29502 30.4028 4.98946 30.4028 4.67691C30.4028 3.80255 29.694 3.09375 28.8196 3.09375C28.5071 3.09375 28.2015 3.18627 27.9414 3.35964L19.9472 8.68913C17.3593 10.4144 15.1897 12.6528 13.5552 15.2385M18.2581 19.9413C17.326 17.852 15.6445 16.1705 13.5552 15.2385" stroke="#B1B1B1" stroke-width="1.5" stroke-linecap="round" stroke-linejoin="round"/>
</svg>
