<svg width="34" height="33" viewBox="0 0 34 33" fill="none" xmlns="http://www.w3.org/2000/svg">
<g id="heroicons-outline/photo">
<path id="Vector" d="M3.59375 21.6562L10.6874 14.5626C11.8956 13.3544 13.8544 13.3544 15.0626 14.5626L22.1562 21.6562M20.0938 19.5938L22.0311 17.6564C23.2393 16.4482 25.1982 16.4482 26.4064 17.6564L30.4062 21.6562M5.65625 26.8125H28.3438C29.4828 26.8125 30.4062 25.8891 30.4062 24.75V8.25C30.4062 7.11091 29.4828 6.1875 28.3438 6.1875H5.65625C4.51716 6.1875 3.59375 7.11091 3.59375 8.25V24.75C3.59375 25.8891 4.51716 26.8125 5.65625 26.8125ZM20.0938 11.3438H20.1041V11.3541H20.0938V11.3438ZM20.6094 11.3438C20.6094 11.6285 20.3785 11.8594 20.0938 11.8594C19.809 11.8594 19.5781 11.6285 19.5781 11.3438C19.5781 11.059 19.809 10.8281 20.0938 10.8281C20.3785 10.8281 20.6094 11.059 20.6094 11.3438Z" stroke="#B1B1B1" stroke-width="1.5" stroke-linecap="round" stroke-linejoin="round"/>
</g>
</svg>
