<svg width="27" height="27" viewBox="0 0 27 27" fill="none" xmlns="http://www.w3.org/2000/svg">
<path d="M23.6713 12.8068L9.04869 3.87044C8.92552 3.79517 8.78453 3.75407 8.64021 3.75136C8.49589 3.74866 8.35346 3.78445 8.22756 3.85506C8.10167 3.92566 7.99685 4.02853 7.9239 4.15309C7.85095 4.27764 7.8125 4.41938 7.8125 4.56372V22.4364C7.8125 22.5808 7.85095 22.7225 7.9239 22.847C7.99685 22.9716 8.10167 23.0745 8.22756 23.1451C8.35346 23.2157 8.49589 23.2515 8.64021 23.2488C8.78453 23.2461 8.92552 23.205 9.04869 23.1297L23.6713 14.1934C23.7901 14.1208 23.8882 14.0189 23.9563 13.8975C24.0244 13.7761 24.0601 13.6393 24.0601 13.5001C24.0601 13.3609 24.0244 13.224 23.9563 13.1026C23.8882 12.9812 23.7901 12.8794 23.6713 12.8068Z" stroke="white" stroke-width="2" stroke-linecap="round" stroke-linejoin="round"/>
</svg>
