<svg width="34" height="33" viewBox="0 0 34 33" fill="none" xmlns="http://www.w3.org/2000/svg">
<g id="heroicons-outline/puzzle-piece">
<path id="Union" d="M20.0938 8.36954C20.0938 7.8812 20.3496 7.4398 20.6454 7.05127C20.9491 6.65239 21.125 6.17925 21.125 5.67188C21.125 4.24802 19.7399 3.09375 18.0313 3.09375C16.3226 3.09375 14.9375 4.24802 14.9375 5.67188C14.9375 6.17925 15.1134 6.65239 15.4171 7.05127C15.7129 7.4398 15.9688 7.8812 15.9688 8.36954V8.36954C15.9688 8.8663 15.562 9.26745 15.0654 9.25315C13.1354 9.19756 11.2262 9.05912 9.34111 8.84124C9.59736 11.0588 9.7437 13.3098 9.77453 15.5887C9.78134 16.0919 9.37277 16.4999 8.86954 16.5V16.5C8.3812 16.5 7.9398 16.2442 7.55127 15.9483C7.15239 15.6446 6.67925 15.4688 6.17188 15.4688C4.74802 15.4688 3.59375 16.8539 3.59375 18.5625C3.59375 20.2711 4.74802 21.6563 6.17188 21.6563C6.67925 21.6563 7.15239 21.4804 7.55127 21.1767C7.9398 20.8808 8.3812 20.625 8.86954 20.625V20.625C9.29468 20.625 9.63215 20.9836 9.60099 21.4076C9.42796 23.7616 9.13145 26.0813 8.71793 28.3602C10.805 28.6215 12.9225 28.7854 15.0655 28.8471C15.5621 28.8614 15.9689 28.4602 15.9689 27.9634V27.9634C15.9689 27.475 15.7131 27.0336 15.4173 26.6451C15.1135 26.2462 14.9377 25.7731 14.9377 25.2657C14.9377 23.8418 16.3228 22.6876 18.0314 22.6876C19.74 22.6876 21.1252 23.8418 21.1252 25.2657C21.1252 25.7731 20.9493 26.2462 20.6456 26.6451C20.3497 27.0336 20.0939 27.475 20.0939 27.9634V27.9634C20.0939 28.4211 20.4762 28.7866 20.9331 28.7597C23.4615 28.6111 25.9515 28.3202 28.3954 27.8949C28.7659 25.766 29.0344 23.6022 29.1957 21.4085C29.2269 20.984 28.8891 20.6251 28.4634 20.6251V20.6251C27.9751 20.6251 27.5337 20.8809 27.1452 21.1767C26.7463 21.4804 26.2732 21.6563 25.7658 21.6563C24.3419 21.6563 23.1877 20.2712 23.1877 18.5626C23.1877 16.8539 24.3419 15.4688 25.7658 15.4688C26.2732 15.4688 26.7463 15.6447 27.1452 15.9484C27.5337 16.2442 27.9751 16.5001 28.4634 16.5001V16.5001C28.9672 16.5001 29.3761 16.0917 29.3693 15.588C29.3356 13.0957 29.1637 10.6366 28.8609 8.21834C26.2679 8.68884 23.622 9.00783 20.9329 9.16582C20.476 9.19267 20.0938 8.82722 20.0938 8.36954V8.36954Z" stroke="#B1B1B1" stroke-width="1.5" stroke-linecap="round" stroke-linejoin="round"/>
</g>
</svg>
