<svg width="34" height="33" viewBox="0 0 34 33" fill="none" xmlns="http://www.w3.org/2000/svg">
<g id="heroicons-outline/rectangle-group">
<g id="Vector">
<path d="M3.59375 9.79688C3.59375 8.94256 4.28631 8.25 5.14062 8.25H13.3906C14.2449 8.25 14.9375 8.94256 14.9375 9.79688V14.9531C14.9375 15.8074 14.2449 16.5 13.3906 16.5H5.14062C4.28631 16.5 3.59375 15.8074 3.59375 14.9531V9.79688Z" stroke="#B1B1B1" stroke-width="1.5" stroke-linecap="round" stroke-linejoin="round"/>
<path d="M20.0938 11.8594C20.0938 11.0051 20.7863 10.3125 21.6406 10.3125H28.8594C29.7137 10.3125 30.4062 11.0051 30.4062 11.8594V23.2031C30.4062 24.0574 29.7137 24.75 28.8594 24.75H21.6406C20.7863 24.75 20.0938 24.0574 20.0938 23.2031V11.8594Z" stroke="#B1B1B1" stroke-width="1.5" stroke-linecap="round" stroke-linejoin="round"/>
<path d="M5.65625 22.1719C5.65625 21.3176 6.34881 20.625 7.20312 20.625H14.4219C15.2762 20.625 15.9688 21.3176 15.9688 22.1719V25.2656C15.9688 26.1199 15.2762 26.8125 14.4219 26.8125H7.20312C6.34881 26.8125 5.65625 26.1199 5.65625 25.2656V22.1719Z" stroke="#B1B1B1" stroke-width="1.5" stroke-linecap="round" stroke-linejoin="round"/>
</g>
</g>
</svg>
