<svg width="30" height="31" viewBox="0 0 30 31" fill="none" xmlns="http://www.w3.org/2000/svg">
<g id="heroicons-mini/magnifying-glass">
<path id="Vector (Stroke)" fill-rule="evenodd" clip-rule="evenodd" d="M13.5 5.75C8.94365 5.75 5.25 9.44365 5.25 14C5.25 18.5563 8.94365 22.25 13.5 22.25C15.7785 22.25 17.8394 21.3278 19.3336 19.8336C20.8278 18.3394 21.75 16.2785 21.75 14C21.75 9.44365 18.0563 5.75 13.5 5.75ZM3 14C3 8.20101 7.70101 3.5 13.5 3.5C19.299 3.5 24 8.20101 24 14C24 16.4938 23.1295 18.7858 21.6776 20.5866L26.6705 25.5795C27.1098 26.0188 27.1098 26.7312 26.6705 27.1705C26.2312 27.6098 25.5188 27.6098 25.0795 27.1705L20.0866 22.1776C18.2858 23.6295 15.9938 24.5 13.5 24.5C7.70101 24.5 3 19.799 3 14Z" fill="#B1B1B1"/>
</g>
</svg>
