<svg width="34" height="33" viewBox="0 0 34 33" fill="none" xmlns="http://www.w3.org/2000/svg">
<g id="heroicons-outline/sparkles">
<g id="Vector">
<path d="M13.9931 21.8677L12.875 25.7812L11.7569 21.8677C11.1696 19.8122 9.5628 18.2054 7.50726 17.6181L3.59375 16.5L7.50726 15.3819C9.5628 14.7946 11.1696 13.1878 11.7569 11.1323L12.875 7.21875L13.9931 11.1323C14.5804 13.1878 16.1872 14.7946 18.2427 15.3819L22.1562 16.5L18.2427 17.6181C16.1872 18.2054 14.5804 19.8122 13.9931 21.8677Z" stroke="#B1B1B1" stroke-width="1.5" stroke-linecap="round" stroke-linejoin="round"/>
<path d="M25.6059 11.9825L25.25 13.4062L24.8941 11.9825C24.4784 10.3198 23.1802 9.02161 21.5175 8.60594L20.0938 8.25L21.5175 7.89406C23.1802 7.47839 24.4784 6.18018 24.8941 4.51751L25.25 3.09375L25.6059 4.51751C26.0216 6.18018 27.3198 7.47839 28.9825 7.89406L30.4062 8.25L28.9825 8.60594C27.3198 9.02161 26.0216 10.3198 25.6059 11.9825Z" stroke="#B1B1B1" stroke-width="1.5" stroke-linecap="round" stroke-linejoin="round"/>
<path d="M23.7296 28.28L23.1875 29.9062L22.6454 28.28C22.3375 27.3562 21.6126 26.6313 20.6888 26.3233L19.0625 25.7812L20.6888 25.2392C21.6126 24.9312 22.3375 24.2063 22.6454 23.2825L23.1875 21.6562L23.7296 23.2825C24.0375 24.2063 24.7624 24.9312 25.6862 25.2392L27.3125 25.7812L25.6862 26.3233C24.7624 26.6313 24.0375 27.3562 23.7296 28.28Z" stroke="#B1B1B1" stroke-width="1.5" stroke-linecap="round" stroke-linejoin="round"/>
</g>
</g>
</svg>
