<svg width="34" height="33" viewBox="0 0 34 33" fill="none" xmlns="http://www.w3.org/2000/svg">
<g id="heroicons-outline/swatch">
<path id="Vector" d="M6.13523 27.3648C8.14887 29.3784 11.4136 29.3784 13.4273 27.3648L22.2295 18.5625M9.78125 28.875C6.93353 28.875 4.625 26.5665 4.625 23.7188V5.67188C4.625 4.81756 5.31756 4.125 6.17188 4.125H13.3906C14.2449 4.125 14.9375 4.81756 14.9375 5.67188V11.2705M9.78125 28.875C12.629 28.875 14.9375 26.5665 14.9375 23.7188V11.2705M9.78125 28.875H27.8281C28.6824 28.875 29.375 28.1824 29.375 27.3281V20.1094C29.375 19.2551 28.6824 18.5625 27.8281 18.5625H22.2295M14.9375 11.2705L18.8963 7.31166C19.5004 6.70757 20.4798 6.70757 21.0839 7.31166L26.1883 12.4161C26.7924 13.0202 26.7924 13.9996 26.1883 14.6037L22.2295 18.5625M9.78125 23.7188H9.79156V23.7291H9.78125V23.7188Z" stroke="#B1B1B1" stroke-width="1.5" stroke-linecap="round" stroke-linejoin="round"/>
</g>
</svg>
