<svg width="37" height="37" viewBox="0 0 37 37" fill="none" xmlns="http://www.w3.org/2000/svg">
<g id="heroicons-mini/x-mark" clip-path="url(#clip0_10_15242)">
<path id="Union" d="M10.5722 17.4098C10.0337 17.4098 9.59722 17.8463 9.59722 18.3848C9.59722 18.9232 10.0337 19.3598 10.5722 19.3598L17.4107 19.3598L17.4107 26.1983C17.4107 26.7368 17.8473 27.1733 18.3857 27.1733C18.9242 27.1733 19.3607 26.7368 19.3607 26.1983L19.3607 19.3598L26.1993 19.3598C26.7378 19.3598 27.1743 18.9232 27.1743 18.3848C27.1743 17.8463 26.7378 17.4098 26.1993 17.4098L19.3607 17.4098L19.3607 10.5712C19.3607 10.0328 18.9242 9.59624 18.3857 9.59624C17.8473 9.59623 17.4107 10.0328 17.4107 10.5712L17.4107 17.4098L10.5722 17.4098Z" fill="white"/>
</g>
<defs>
<clipPath id="clip0_10_15242">
<rect width="26" height="26" fill="white" transform="translate(0 18.3848) rotate(-45)"/>
</clipPath>
</defs>
</svg>
