<svg width="21" height="20" viewBox="0 0 21 20" fill="none" xmlns="http://www.w3.org/2000/svg">
<path fill-rule="evenodd" clip-rule="evenodd" d="M15 10C17.4853 10 19.5 7.98528 19.5 5.5C19.5 5.01783 19.4242 4.55338 19.2838 4.11791C19.1792 3.79367 18.7734 3.72683 18.5325 3.96772L15.8402 6.66002C15.7098 6.79041 15.5168 6.84163 15.3466 6.77074C14.6172 6.46695 14.0334 5.88351 13.7292 5.15431C13.6582 4.98403 13.7094 4.79088 13.8398 4.66042L16.5327 1.9676C16.7735 1.72672 16.7067 1.32092 16.3825 1.21636C15.9469 1.07588 15.4823 1 15 1C12.5147 1 10.5 3.01472 10.5 5.5C10.5 5.59783 10.5031 5.69494 10.5093 5.79122C10.565 6.66418 10.3817 7.59855 9.70974 8.15855L2.48017 14.1832C1.8591 14.7008 1.5 15.4674 1.5 16.2759C1.5 17.7804 2.71962 19 4.2241 19C5.03256 19 5.79925 18.6409 6.31681 18.0198L12.3414 10.7903C12.9014 10.1183 13.8358 9.93497 14.7088 9.99073C14.8051 9.99688 14.9022 10 15 10ZM5.5 16C5.5 16.5523 5.05228 17 4.5 17C3.94772 17 3.5 16.5523 3.5 16C3.5 15.4477 3.94772 15 4.5 15C5.05228 15 5.5 15.4477 5.5 16Z" fill="#757575"/>
<path d="M15 11.5C15.1731 11.5 15.3445 11.4927 15.5138 11.4783L19.2678 15.2323C20.2441 16.2086 20.2441 17.7915 19.2678 18.7678C18.2915 19.7441 16.7086 19.7441 15.7323 18.7678L11.3216 14.3571L13.4938 11.7505C13.5455 11.6885 13.6413 11.6131 13.8357 11.5552C14.0378 11.4951 14.305 11.468 14.6132 11.4877C14.7413 11.4959 14.8702 11.5 15 11.5Z" fill="#757575"/>
<path d="M6.50003 4.58582L8.83056 6.91635C8.8027 6.95627 8.77496 6.98497 8.74946 7.00622L7.29994 8.21415L5.08582 6.00003H3.80905C3.61966 6.00003 3.44653 5.89303 3.36184 5.72364L1.6612 2.32237C1.56495 2.12987 1.60268 1.89739 1.75486 1.74521L2.24521 1.25486C2.39739 1.10268 2.62987 1.06495 2.82237 1.1612L6.22364 2.86184C6.39303 2.94653 6.50003 3.11966 6.50003 3.30905V4.58582Z" fill="#757575"/>
</svg>
