<svg width="19" height="21" viewBox="0 0 19 21" fill="none" xmlns="http://www.w3.org/2000/svg">
<path d="M12.6245 5.68751L4.48891 13.9582C4.19588 14.2512 4.03126 14.6486 4.03126 15.063C4.03126 15.4774 4.19588 15.8748 4.48891 16.1679C4.78193 16.4609 5.17936 16.6255 5.59376 16.6255C6.00817 16.6255 6.40559 16.4609 6.69862 16.1679L16.3967 6.33472C16.6869 6.04454 16.917 5.70004 17.0741 5.3209C17.2311 4.94175 17.312 4.53539 17.312 4.12501C17.312 3.71463 17.2311 3.30826 17.0741 2.92912C16.917 2.54998 16.6869 2.20548 16.3967 1.91529C16.1065 1.62511 15.762 1.39492 15.3829 1.23788C15.0037 1.08083 14.5973 1 14.187 1C13.7766 1 13.3702 1.08083 12.9911 1.23788C12.6119 1.39492 12.2674 1.62511 11.9772 1.91529L2.27919 11.7484C1.40011 12.6275 0.90625 13.8198 0.90625 15.063C0.90625 16.3062 1.40011 17.4985 2.27919 18.3776C3.15827 19.2567 4.35056 19.7505 5.59376 19.7505C6.83697 19.7505 8.02926 19.2567 8.90834 18.3776L16.9213 10.375" stroke="white" stroke-width="1.5625" stroke-linecap="round" stroke-linejoin="round"/>
</svg>
