<svg width="262" height="132" viewBox="0 0 262 132" fill="none" xmlns="http://www.w3.org/2000/svg">
<rect width="262" height="132" rx="21" fill="#1E1E1E"/>
<rect x="21" y="23" width="91" height="85" rx="10" fill="#353535"/>
<rect x="21" y="23" width="91" height="85" rx="10" stroke="#939393"/>
<rect x="52.4134" y="33.6712" width="28.1747" height="39.843" rx="3.51351" stroke="white" stroke-width="2.34234"/>
<path d="M46.3775 94.6854C46.0168 94.6854 45.738 94.5925 45.5413 94.4066C45.3554 94.2099 45.2625 93.9311 45.2625 93.5704V84.2409C45.2625 83.8801 45.3554 83.6069 45.5413 83.421C45.738 83.2243 46.0168 83.1259 46.3775 83.1259H50.3126C51.1215 83.1259 51.8102 83.2461 52.3786 83.4866C52.947 83.7271 53.3787 84.0714 53.6739 84.5196C53.9799 84.9678 54.133 85.5034 54.133 86.1264C54.133 86.826 53.9308 87.4163 53.5263 87.8973C53.1219 88.3782 52.5699 88.7007 51.8703 88.8646V88.6187C52.6792 88.7389 53.3077 89.045 53.7559 89.5369C54.204 90.0288 54.4281 90.6682 54.4281 91.4553C54.4281 92.4828 54.0783 93.2807 53.3787 93.8491C52.6901 94.4066 51.7282 94.6854 50.493 94.6854H46.3775ZM47.2793 93.0949H50.2306C50.9739 93.0949 51.5205 92.9528 51.8703 92.6686C52.2201 92.3735 52.395 91.9362 52.395 91.3569C52.395 90.7666 52.2201 90.3294 51.8703 90.0452C51.5205 89.761 50.9739 89.6189 50.2306 89.6189H47.2793V93.0949ZM47.2793 88.0284H49.9519C50.6733 88.0284 51.2089 87.8918 51.5587 87.6185C51.9195 87.3343 52.0998 86.9189 52.0998 86.3724C52.0998 85.8258 51.9195 85.4159 51.5587 85.1427C51.2089 84.8585 50.6733 84.7164 49.9519 84.7164H47.2793V88.0284ZM59.2565 94.8493C58.3492 94.8493 57.666 94.5925 57.2069 94.0787C56.7478 93.554 56.5183 92.7888 56.5183 91.7832V84.0277C56.5183 83.6888 56.6057 83.432 56.7806 83.2571C56.9555 83.0822 57.2069 82.9947 57.5348 82.9947C57.8628 82.9947 58.1142 83.0822 58.2891 83.2571C58.4749 83.432 58.5678 83.6888 58.5678 84.0277V91.6848C58.5678 92.1876 58.6717 92.5593 58.8793 92.7998C59.098 93.0403 59.404 93.1605 59.7975 93.1605C59.885 93.1605 59.967 93.1605 60.0435 93.1605C60.12 93.1496 60.1965 93.1386 60.273 93.1277C60.4261 93.1058 60.5299 93.1496 60.5846 93.2589C60.6392 93.3573 60.6666 93.5649 60.6666 93.8819C60.6666 94.1552 60.6119 94.3684 60.5026 94.5214C60.3933 94.6744 60.2129 94.7673 59.9615 94.8001C59.8522 94.8111 59.7374 94.822 59.6172 94.8329C59.4969 94.8439 59.3767 94.8493 59.2565 94.8493ZM64.558 94.8493C63.9787 94.8493 63.4594 94.74 63.0003 94.5214C62.5522 94.2919 62.1969 93.9858 61.9346 93.6032C61.6832 93.2206 61.5575 92.7888 61.5575 92.3079C61.5575 91.7176 61.7105 91.2531 62.0166 90.9142C62.3226 90.5644 62.82 90.313 63.5086 90.16C64.1973 90.0069 65.1209 89.9304 66.2796 89.9304H67.0994V91.1109H66.296C65.6183 91.1109 65.0772 91.1437 64.6728 91.2093C64.2683 91.2749 63.9787 91.3897 63.8038 91.5537C63.6398 91.7067 63.5578 91.9253 63.5578 92.2095C63.5578 92.5702 63.6835 92.8654 63.9349 93.0949C64.1864 93.3245 64.5361 93.4392 64.9843 93.4392C65.345 93.4392 65.662 93.3573 65.9353 93.1933C66.2195 93.0184 66.4436 92.7834 66.6076 92.4882C66.7715 92.1931 66.8535 91.8543 66.8535 91.4717V89.5861C66.8535 89.0395 66.7333 88.646 66.4928 88.4055C66.2523 88.1651 65.8479 88.0448 65.2794 88.0448C64.9625 88.0448 64.6181 88.0831 64.2465 88.1596C63.8858 88.2361 63.5032 88.3673 63.0987 88.5531C62.891 88.6515 62.7052 88.6788 62.5412 88.6351C62.3882 88.5914 62.268 88.5039 62.1805 88.3728C62.0931 88.2306 62.0494 88.0776 62.0494 87.9137C62.0494 87.7497 62.0931 87.5912 62.1805 87.4382C62.268 87.2742 62.4155 87.154 62.6232 87.0774C63.1261 86.8697 63.607 86.7222 64.0661 86.6347C64.5361 86.5473 64.9625 86.5036 65.345 86.5036C66.1321 86.5036 66.777 86.6238 67.2798 86.8643C67.7936 87.1048 68.1761 87.4709 68.4276 87.9628C68.679 88.4438 68.8047 89.0669 68.8047 89.832V93.7672C68.8047 94.106 68.7227 94.3684 68.5587 94.5542C68.3948 94.7291 68.1597 94.8165 67.8537 94.8165C67.5476 94.8165 67.3071 94.7291 67.1322 94.5542C66.9683 94.3684 66.8863 94.106 66.8863 93.7672V92.9801H67.0175C66.9409 93.3627 66.7879 93.6961 66.5584 93.9803C66.3397 94.2536 66.061 94.4667 65.7222 94.6198C65.3833 94.7728 64.9952 94.8493 64.558 94.8493ZM72.0655 94.8165C71.7376 94.8165 71.4862 94.7291 71.3113 94.5542C71.1364 94.3684 71.0489 94.106 71.0489 93.7672V87.5693C71.0489 87.2305 71.1364 86.9736 71.3113 86.7987C71.4862 86.6238 71.7321 86.5364 72.0491 86.5364C72.3661 86.5364 72.6121 86.6238 72.7869 86.7987C72.9618 86.9736 73.0493 87.2305 73.0493 87.5693V88.6843L72.8689 88.2744C73.1094 87.695 73.4811 87.2578 73.9839 86.9627C74.4976 86.6566 75.077 86.5036 75.7219 86.5036C76.3668 86.5036 76.897 86.6238 77.3124 86.8643C77.7277 87.1048 78.0393 87.4709 78.2469 87.9628C78.4546 88.4438 78.5585 89.0559 78.5585 89.7992V93.7672C78.5585 94.106 78.471 94.3684 78.2961 94.5542C78.1212 94.7291 77.8698 94.8165 77.5419 94.8165C77.214 94.8165 76.9571 94.7291 76.7713 94.5542C76.5964 94.3684 76.5089 94.106 76.5089 93.7672V89.8976C76.5089 89.2746 76.3887 88.8209 76.1482 88.5367C75.9187 88.2525 75.5579 88.1104 75.066 88.1104C74.4648 88.1104 73.9839 88.3017 73.6232 88.6843C73.2734 89.0559 73.0985 89.5533 73.0985 90.1764V93.7672C73.0985 94.4667 72.7542 94.8165 72.0655 94.8165ZM81.8207 94.8165C81.4928 94.8165 81.2414 94.7291 81.0665 94.5542C80.8916 94.3684 80.8041 94.106 80.8041 93.7672V84.0277C80.8041 83.6888 80.8916 83.432 81.0665 83.2571C81.2414 83.0822 81.4928 82.9947 81.8207 82.9947C82.1487 82.9947 82.4001 83.0822 82.575 83.2571C82.7608 83.432 82.8537 83.6888 82.8537 84.0277V90.078H82.8865L85.5919 87.225C85.8105 87.0064 86.0018 86.837 86.1658 86.7167C86.3297 86.5965 86.5538 86.5364 86.838 86.5364C87.1222 86.5364 87.3354 86.6129 87.4775 86.7659C87.6305 86.908 87.707 87.0829 87.707 87.2906C87.707 87.4983 87.6087 87.706 87.4119 87.9137L84.5589 90.9306V90.078L87.6906 93.4556C87.8874 93.6633 87.9748 93.8765 87.953 94.0951C87.942 94.3028 87.8546 94.4777 87.6906 94.6198C87.5267 94.7509 87.319 94.8165 87.0676 94.8165C86.7615 94.8165 86.5156 94.7564 86.3297 94.6362C86.1548 94.5159 85.9581 94.3356 85.7395 94.0951L82.8865 91.1109H82.8537V93.7672C82.8537 94.4667 82.5094 94.8165 81.8207 94.8165Z" fill="white"/>
<path d="M129.025 72C128.785 72 128.6 71.935 128.47 71.805C128.34 71.675 128.275 71.49 128.275 71.25V62.175C128.275 61.935 128.34 61.75 128.47 61.62C128.6 61.49 128.785 61.425 129.025 61.425H132.58C133.31 61.425 133.93 61.535 134.44 61.755C134.96 61.975 135.355 62.29 135.625 62.7C135.895 63.11 136.03 63.605 136.03 64.185C136.03 64.835 135.84 65.38 135.46 65.82C135.08 66.26 134.56 66.555 133.9 66.705V66.48C134.64 66.57 135.22 66.845 135.64 67.305C136.07 67.755 136.285 68.345 136.285 69.075C136.285 70.015 135.975 70.74 135.355 71.25C134.745 71.75 133.88 72 132.76 72H129.025ZM129.625 70.905H132.61C133.39 70.905 133.97 70.755 134.35 70.455C134.73 70.145 134.92 69.675 134.92 69.045C134.92 68.415 134.73 67.95 134.35 67.65C133.97 67.35 133.39 67.2 132.61 67.2H129.625V70.905ZM129.625 66.09H132.37C133.13 66.09 133.7 65.94 134.08 65.64C134.47 65.33 134.665 64.885 134.665 64.305C134.665 63.725 134.47 63.285 134.08 62.985C133.7 62.675 133.13 62.52 132.37 62.52H129.625V66.09ZM140.721 72.135C139.971 72.135 139.401 71.915 139.011 71.475C138.621 71.025 138.426 70.38 138.426 69.54V62.01C138.426 61.78 138.486 61.61 138.606 61.5C138.726 61.38 138.891 61.32 139.101 61.32C139.321 61.32 139.491 61.38 139.611 61.5C139.731 61.61 139.791 61.78 139.791 62.01V69.435C139.791 69.955 139.896 70.345 140.106 70.605C140.326 70.855 140.636 70.98 141.036 70.98C141.126 70.98 141.206 70.98 141.276 70.98C141.346 70.97 141.416 70.96 141.486 70.95C141.596 70.94 141.676 70.97 141.726 71.04C141.776 71.11 141.801 71.25 141.801 71.46C141.801 71.65 141.756 71.8 141.666 71.91C141.586 72.01 141.451 72.075 141.261 72.105C141.171 72.115 141.081 72.12 140.991 72.12C140.901 72.13 140.811 72.135 140.721 72.135ZM145.412 72.135C144.912 72.135 144.457 72.035 144.047 71.835C143.647 71.635 143.332 71.365 143.102 71.025C142.882 70.685 142.772 70.305 142.772 69.885C142.772 69.345 142.907 68.92 143.177 68.61C143.447 68.3 143.902 68.08 144.542 67.95C145.182 67.81 146.042 67.74 147.122 67.74H147.827V68.61H147.152C146.382 68.61 145.772 68.645 145.322 68.715C144.882 68.785 144.572 68.91 144.392 69.09C144.212 69.26 144.122 69.5 144.122 69.81C144.122 70.2 144.257 70.52 144.527 70.77C144.807 71.02 145.187 71.145 145.667 71.145C146.047 71.145 146.382 71.055 146.672 70.875C146.962 70.685 147.192 70.435 147.362 70.125C147.532 69.805 147.617 69.44 147.617 69.03V67.305C147.617 66.715 147.497 66.29 147.257 66.03C147.017 65.76 146.612 65.625 146.042 65.625C145.712 65.625 145.372 65.67 145.022 65.76C144.672 65.85 144.307 65.99 143.927 66.18C143.777 66.25 143.647 66.275 143.537 66.255C143.427 66.225 143.337 66.165 143.267 66.075C143.207 65.975 143.172 65.87 143.162 65.76C143.162 65.64 143.187 65.525 143.237 65.415C143.297 65.305 143.397 65.225 143.537 65.175C143.977 64.955 144.412 64.8 144.842 64.71C145.282 64.61 145.692 64.56 146.072 64.56C146.722 64.56 147.257 64.665 147.677 64.875C148.097 65.075 148.412 65.39 148.622 65.82C148.832 66.24 148.937 66.78 148.937 67.44V71.4C148.937 71.63 148.882 71.805 148.772 71.925C148.662 72.045 148.502 72.105 148.292 72.105C148.092 72.105 147.932 72.045 147.812 71.925C147.702 71.805 147.647 71.63 147.647 71.4V70.335H147.782C147.702 70.705 147.552 71.025 147.332 71.295C147.112 71.565 146.837 71.775 146.507 71.925C146.187 72.065 145.822 72.135 145.412 72.135ZM151.91 72.105C151.7 72.105 151.535 72.045 151.415 71.925C151.295 71.805 151.235 71.63 151.235 71.4V65.28C151.235 65.05 151.295 64.88 151.415 64.77C151.535 64.65 151.7 64.59 151.91 64.59C152.12 64.59 152.28 64.65 152.39 64.77C152.51 64.88 152.57 65.05 152.57 65.28V66.51L152.405 66.285C152.615 65.715 152.955 65.285 153.425 64.995C153.905 64.705 154.45 64.56 155.06 64.56C155.65 64.56 156.135 64.665 156.515 64.875C156.895 65.085 157.18 65.405 157.37 65.835C157.56 66.265 157.655 66.81 157.655 67.47V71.4C157.655 71.63 157.595 71.805 157.475 71.925C157.365 72.045 157.2 72.105 156.98 72.105C156.76 72.105 156.59 72.045 156.47 71.925C156.35 71.805 156.29 71.63 156.29 71.4V67.545C156.29 66.895 156.165 66.42 155.915 66.12C155.665 65.82 155.265 65.67 154.715 65.67C154.075 65.67 153.56 65.87 153.17 66.27C152.79 66.66 152.6 67.19 152.6 67.86V71.4C152.6 71.87 152.37 72.105 151.91 72.105ZM160.644 72.105C160.434 72.105 160.269 72.045 160.149 71.925C160.029 71.805 159.969 71.63 159.969 71.4V62.01C159.969 61.78 160.029 61.61 160.149 61.5C160.269 61.38 160.434 61.32 160.644 61.32C160.864 61.32 161.034 61.38 161.154 61.5C161.274 61.61 161.334 61.78 161.334 62.01V67.92H161.364L164.304 65.055C164.454 64.905 164.589 64.79 164.709 64.71C164.829 64.63 164.984 64.59 165.174 64.59C165.364 64.59 165.509 64.64 165.609 64.74C165.709 64.83 165.759 64.95 165.759 65.1C165.759 65.24 165.689 65.38 165.549 65.52L162.429 68.55V67.875L165.834 71.16C165.974 71.3 166.039 71.445 166.029 71.595C166.029 71.745 165.974 71.87 165.864 71.97C165.764 72.06 165.629 72.105 165.459 72.105C165.259 72.105 165.094 72.065 164.964 71.985C164.844 71.905 164.704 71.78 164.544 71.61L161.364 68.61H161.334V71.4C161.334 71.87 161.104 72.105 160.644 72.105ZM175.623 72.135C174.963 72.135 174.398 71.97 173.928 71.64C173.458 71.31 173.143 70.865 172.983 70.305L173.148 70.08V71.4C173.148 71.63 173.088 71.805 172.968 71.925C172.858 72.045 172.693 72.105 172.473 72.105C172.263 72.105 172.098 72.045 171.978 71.925C171.858 71.805 171.798 71.63 171.798 71.4V62.01C171.798 61.78 171.858 61.61 171.978 61.5C172.098 61.38 172.263 61.32 172.473 61.32C172.693 61.32 172.863 61.38 172.983 61.5C173.103 61.61 173.163 61.78 173.163 62.01V66.345H172.998C173.158 65.805 173.473 65.375 173.943 65.055C174.413 64.725 174.973 64.56 175.623 64.56C176.273 64.56 176.838 64.715 177.318 65.025C177.808 65.325 178.183 65.76 178.443 66.33C178.713 66.89 178.848 67.56 178.848 68.34C178.848 69.11 178.713 69.785 178.443 70.365C178.173 70.935 177.798 71.375 177.318 71.685C176.838 71.985 176.273 72.135 175.623 72.135ZM175.308 71.055C175.738 71.055 176.113 70.95 176.433 70.74C176.763 70.53 177.018 70.225 177.198 69.825C177.378 69.425 177.468 68.93 177.468 68.34C177.468 67.46 177.273 66.79 176.883 66.33C176.493 65.87 175.968 65.64 175.308 65.64C174.868 65.64 174.483 65.745 174.153 65.955C173.833 66.155 173.583 66.455 173.403 66.855C173.233 67.255 173.148 67.75 173.148 68.34C173.148 69.22 173.343 69.895 173.733 70.365C174.123 70.825 174.648 71.055 175.308 71.055ZM183.856 72.135C183.136 72.135 182.511 71.98 181.981 71.67C181.451 71.36 181.041 70.92 180.751 70.35C180.461 69.78 180.316 69.11 180.316 68.34C180.316 67.76 180.396 67.24 180.556 66.78C180.726 66.31 180.966 65.91 181.276 65.58C181.586 65.25 181.956 65 182.386 64.83C182.826 64.65 183.316 64.56 183.856 64.56C184.576 64.56 185.201 64.715 185.731 65.025C186.261 65.335 186.671 65.775 186.961 66.345C187.251 66.905 187.396 67.57 187.396 68.34C187.396 68.92 187.311 69.445 187.141 69.915C186.981 70.385 186.746 70.785 186.436 71.115C186.126 71.445 185.751 71.7 185.311 71.88C184.881 72.05 184.396 72.135 183.856 72.135ZM183.856 71.055C184.296 71.055 184.676 70.95 184.996 70.74C185.326 70.53 185.576 70.225 185.746 69.825C185.926 69.425 186.016 68.93 186.016 68.34C186.016 67.46 185.821 66.79 185.431 66.33C185.041 65.87 184.516 65.64 183.856 65.64C183.426 65.64 183.046 65.745 182.716 65.955C182.396 66.155 182.146 66.455 181.966 66.855C181.786 67.255 181.696 67.75 181.696 68.34C181.696 69.22 181.891 69.895 182.281 70.365C182.681 70.825 183.206 71.055 183.856 71.055ZM191.62 72.135C191.12 72.135 190.665 72.035 190.255 71.835C189.855 71.635 189.54 71.365 189.31 71.025C189.09 70.685 188.98 70.305 188.98 69.885C188.98 69.345 189.115 68.92 189.385 68.61C189.655 68.3 190.11 68.08 190.75 67.95C191.39 67.81 192.25 67.74 193.33 67.74H194.035V68.61H193.36C192.59 68.61 191.98 68.645 191.53 68.715C191.09 68.785 190.78 68.91 190.6 69.09C190.42 69.26 190.33 69.5 190.33 69.81C190.33 70.2 190.465 70.52 190.735 70.77C191.015 71.02 191.395 71.145 191.875 71.145C192.255 71.145 192.59 71.055 192.88 70.875C193.17 70.685 193.4 70.435 193.57 70.125C193.74 69.805 193.825 69.44 193.825 69.03V67.305C193.825 66.715 193.705 66.29 193.465 66.03C193.225 65.76 192.82 65.625 192.25 65.625C191.92 65.625 191.58 65.67 191.23 65.76C190.88 65.85 190.515 65.99 190.135 66.18C189.985 66.25 189.855 66.275 189.745 66.255C189.635 66.225 189.545 66.165 189.475 66.075C189.415 65.975 189.38 65.87 189.37 65.76C189.37 65.64 189.395 65.525 189.445 65.415C189.505 65.305 189.605 65.225 189.745 65.175C190.185 64.955 190.62 64.8 191.05 64.71C191.49 64.61 191.9 64.56 192.28 64.56C192.93 64.56 193.465 64.665 193.885 64.875C194.305 65.075 194.62 65.39 194.83 65.82C195.04 66.24 195.145 66.78 195.145 67.44V71.4C195.145 71.63 195.09 71.805 194.98 71.925C194.87 72.045 194.71 72.105 194.5 72.105C194.3 72.105 194.14 72.045 194.02 71.925C193.91 71.805 193.855 71.63 193.855 71.4V70.335H193.99C193.91 70.705 193.76 71.025 193.54 71.295C193.32 71.565 193.045 71.775 192.715 71.925C192.395 72.065 192.03 72.135 191.62 72.135ZM198.148 72.105C197.918 72.105 197.743 72.045 197.623 71.925C197.503 71.805 197.443 71.63 197.443 71.4V65.28C197.443 65.05 197.503 64.88 197.623 64.77C197.743 64.65 197.908 64.59 198.118 64.59C198.328 64.59 198.488 64.65 198.598 64.77C198.718 64.88 198.778 65.05 198.778 65.28V66.435H198.628C198.788 65.835 199.088 65.38 199.528 65.07C199.968 64.76 200.523 64.585 201.193 64.545C201.353 64.535 201.483 64.575 201.583 64.665C201.683 64.745 201.738 64.885 201.748 65.085C201.758 65.275 201.713 65.43 201.613 65.55C201.513 65.66 201.358 65.725 201.148 65.745L200.878 65.76C200.218 65.83 199.708 66.045 199.348 66.405C198.998 66.765 198.823 67.26 198.823 67.89V71.4C198.823 71.63 198.763 71.805 198.643 71.925C198.533 72.045 198.368 72.105 198.148 72.105ZM205.759 72.135C205.119 72.135 204.554 71.985 204.064 71.685C203.584 71.375 203.209 70.935 202.939 70.365C202.669 69.785 202.534 69.11 202.534 68.34C202.534 67.56 202.664 66.89 202.924 66.33C203.194 65.76 203.569 65.325 204.049 65.025C204.539 64.715 205.109 64.56 205.759 64.56C206.409 64.56 206.969 64.725 207.439 65.055C207.909 65.375 208.224 65.805 208.384 66.345H208.219V62.01C208.219 61.78 208.274 61.61 208.384 61.5C208.504 61.38 208.674 61.32 208.894 61.32C209.114 61.32 209.284 61.38 209.404 61.5C209.524 61.61 209.584 61.78 209.584 62.01V71.4C209.584 71.63 209.524 71.805 209.404 71.925C209.284 72.045 209.114 72.105 208.894 72.105C208.684 72.105 208.519 72.045 208.399 71.925C208.279 71.805 208.219 71.63 208.219 71.4V70.035L208.384 70.305C208.234 70.865 207.919 71.31 207.439 71.64C206.969 71.97 206.409 72.135 205.759 72.135ZM206.074 71.055C206.514 71.055 206.894 70.95 207.214 70.74C207.544 70.53 207.794 70.225 207.964 69.825C208.144 69.425 208.234 68.93 208.234 68.34C208.234 67.46 208.039 66.79 207.649 66.33C207.259 65.87 206.734 65.64 206.074 65.64C205.644 65.64 205.264 65.745 204.934 65.955C204.614 66.155 204.364 66.455 204.184 66.855C204.004 67.255 203.914 67.75 203.914 68.34C203.914 69.22 204.109 69.895 204.499 70.365C204.899 70.825 205.424 71.055 206.074 71.055Z" fill="white" fill-opacity="0.7"/>
</svg>
