<svg width="21" height="21" viewBox="0 0 21 21" fill="none" xmlns="http://www.w3.org/2000/svg">
<path fill-rule="evenodd" clip-rule="evenodd" d="M4.68855 3.59717L16.8751 15.8553C19.7124 12.436 19.5353 7.34181 16.3438 4.13155C13.1523 0.921294 8.0879 0.743168 4.68855 3.59717ZM15.7627 16.9743L3.57615 4.71611C0.738828 8.13543 0.915915 13.2296 4.10741 16.4399C7.29891 19.6501 12.3633 19.8283 15.7627 16.9743ZM2.99501 3.01262C6.98836 -1.00421 13.4629 -1.00421 17.4562 3.01261C21.4496 7.02943 21.4496 13.542 17.4562 17.5588C13.4629 21.5756 6.98837 21.5756 2.99502 17.5588C-0.998335 13.542 -0.998336 7.02944 2.99501 3.01262Z" fill="#FF0000"/>
</svg>
