<svg width="136" height="24" viewBox="0 0 136 24" fill="none" xmlns="http://www.w3.org/2000/svg">
<g filter="url(#filter0_d_9149_62365)">
<path d="M5.9 15C5.46 15 5.12 14.8867 4.88 14.66C4.65333 14.42 4.54 14.08 4.54 13.64V2.26C4.54 1.82 4.65333 1.48667 4.88 1.26C5.12 1.02 5.46 0.899999 5.9 0.899999H10.7C11.6867 0.899999 12.5267 1.04667 13.22 1.34C13.9133 1.63333 14.44 2.05333 14.8 2.6C15.1733 3.14667 15.36 3.8 15.36 4.56C15.36 5.41333 15.1133 6.13333 14.62 6.72C14.1267 7.30667 13.4533 7.7 12.6 7.9V7.6C13.5867 7.74667 14.3533 8.12 14.9 8.72C15.4467 9.32 15.72 10.1 15.72 11.06C15.72 12.3133 15.2933 13.2867 14.44 13.98C13.6 14.66 12.4267 15 10.92 15H5.9ZM7 13.06H10.6C11.5067 13.06 12.1733 12.8867 12.6 12.54C13.0267 12.18 13.24 11.6467 13.24 10.94C13.24 10.22 13.0267 9.68667 12.6 9.34C12.1733 8.99333 11.5067 8.82 10.6 8.82H7V13.06ZM7 6.88H10.26C11.14 6.88 11.7933 6.71333 12.22 6.38C12.66 6.03333 12.88 5.52667 12.88 4.86C12.88 4.19333 12.66 3.69333 12.22 3.36C11.7933 3.01333 11.14 2.84 10.26 2.84H7V6.88ZM22.5295 15.2C21.5162 15.2 20.6362 14.9933 19.8895 14.58C19.1429 14.1667 18.5629 13.58 18.1495 12.82C17.7362 12.0467 17.5295 11.14 17.5295 10.1C17.5295 9.31333 17.6429 8.61333 17.8695 8C18.1095 7.37333 18.4495 6.84 18.8895 6.4C19.3295 5.94667 19.8562 5.60667 20.4695 5.38C21.0829 5.14 21.7695 5.02 22.5295 5.02C23.5429 5.02 24.4229 5.22667 25.1695 5.64C25.9162 6.05333 26.4962 6.64 26.9095 7.4C27.3229 8.16 27.5295 9.06 27.5295 10.1C27.5295 10.8867 27.4095 11.5933 27.1695 12.22C26.9429 12.8467 26.6095 13.3867 26.1695 13.84C25.7295 14.28 25.2029 14.62 24.5895 14.86C23.9762 15.0867 23.2895 15.2 22.5295 15.2ZM22.5295 13.3C23.0229 13.3 23.4562 13.18 23.8295 12.94C24.2029 12.7 24.4895 12.3467 24.6895 11.88C24.9029 11.4 25.0095 10.8067 25.0095 10.1C25.0095 9.03333 24.7829 8.24 24.3295 7.72C23.8762 7.18667 23.2762 6.92 22.5295 6.92C22.0362 6.92 21.6029 7.04 21.2295 7.28C20.8562 7.50667 20.5629 7.86 20.3495 8.34C20.1495 8.80667 20.0495 9.39333 20.0495 10.1C20.0495 11.1533 20.2762 11.9533 20.7295 12.5C21.1829 13.0333 21.7829 13.3 22.5295 13.3ZM32.813 15.2C32.1063 15.2 31.473 15.0667 30.913 14.8C30.3663 14.52 29.933 14.1467 29.613 13.68C29.3063 13.2133 29.153 12.6867 29.153 12.1C29.153 11.38 29.3396 10.8133 29.713 10.4C30.0863 9.97333 30.693 9.66667 31.533 9.48C32.373 9.29333 33.4996 9.2 34.913 9.2H35.913V10.64H34.933C34.1063 10.64 33.4463 10.68 32.953 10.76C32.4596 10.84 32.1063 10.98 31.893 11.18C31.693 11.3667 31.593 11.6333 31.593 11.98C31.593 12.42 31.7463 12.78 32.053 13.06C32.3596 13.34 32.7863 13.48 33.333 13.48C33.773 13.48 34.1596 13.38 34.493 13.18C34.8396 12.9667 35.113 12.68 35.313 12.32C35.513 11.96 35.613 11.5467 35.613 11.08V8.78C35.613 8.11333 35.4663 7.63333 35.173 7.34C34.8796 7.04667 34.3863 6.9 33.693 6.9C33.3063 6.9 32.8863 6.94667 32.433 7.04C31.993 7.13333 31.5263 7.29333 31.033 7.52C30.7796 7.64 30.553 7.67333 30.353 7.62C30.1663 7.56667 30.0196 7.46 29.913 7.3C29.8063 7.12667 29.753 6.94 29.753 6.74C29.753 6.54 29.8063 6.34667 29.913 6.16C30.0196 5.96 30.1996 5.81333 30.453 5.72C31.0663 5.46667 31.653 5.28667 32.213 5.18C32.7863 5.07333 33.3063 5.02 33.773 5.02C34.733 5.02 35.5196 5.16667 36.133 5.46C36.7596 5.75333 37.2263 6.2 37.533 6.8C37.8396 7.38667 37.993 8.14667 37.993 9.08V13.88C37.993 14.2933 37.893 14.6133 37.693 14.84C37.493 15.0533 37.2063 15.16 36.833 15.16C36.4596 15.16 36.1663 15.0533 35.953 14.84C35.753 14.6133 35.653 14.2933 35.653 13.88V12.92H35.813C35.7196 13.3867 35.533 13.7933 35.253 14.14C34.9863 14.4733 34.6463 14.7333 34.233 14.92C33.8196 15.1067 33.3463 15.2 32.813 15.2ZM41.8105 15.16C41.3971 15.16 41.0771 15.0533 40.8505 14.84C40.6371 14.6133 40.5305 14.2933 40.5305 13.88V6.32C40.5305 5.90667 40.6371 5.59333 40.8505 5.38C41.0638 5.16667 41.3638 5.06 41.7505 5.06C42.1371 5.06 42.4371 5.16667 42.6505 5.38C42.8638 5.59333 42.9705 5.90667 42.9705 6.32V7.58H42.7705C42.9571 6.78 43.3238 6.17333 43.8705 5.76C44.4171 5.34667 45.1438 5.1 46.0505 5.02C46.3305 4.99333 46.5505 5.06667 46.7105 5.24C46.8838 5.4 46.9838 5.65333 47.0105 6C47.0371 6.33333 46.9571 6.60667 46.7705 6.82C46.5971 7.02 46.3305 7.14 45.9705 7.18L45.5305 7.22C44.7171 7.3 44.1038 7.55333 43.6905 7.98C43.2771 8.39333 43.0705 8.98 43.0705 9.74V13.88C43.0705 14.2933 42.9638 14.6133 42.7505 14.84C42.5371 15.0533 42.2238 15.16 41.8105 15.16ZM51.9663 15.2C51.1129 15.2 50.3596 14.9933 49.7063 14.58C49.0663 14.1667 48.5663 13.58 48.2063 12.82C47.8463 12.0467 47.6663 11.14 47.6663 10.1C47.6663 9.04667 47.8463 8.14667 48.2063 7.4C48.5663 6.64 49.0663 6.05333 49.7063 5.64C50.3596 5.22667 51.1129 5.02 51.9663 5.02C52.7796 5.02 53.4863 5.22 54.0863 5.62C54.6996 6.02 55.1129 6.54667 55.3263 7.2H55.1063V2C55.1063 1.58667 55.2129 1.27333 55.4263 1.06C55.6396 0.846666 55.9463 0.739999 56.3463 0.739999C56.7463 0.739999 57.0529 0.846666 57.2663 1.06C57.4929 1.27333 57.6063 1.58667 57.6063 2V13.88C57.6063 14.2933 57.4996 14.6133 57.2863 14.84C57.0729 15.0533 56.7663 15.16 56.3663 15.16C55.9663 15.16 55.6596 15.0533 55.4463 14.84C55.2329 14.6133 55.1263 14.2933 55.1263 13.88V12.32L55.3463 12.92C55.1463 13.6133 54.7396 14.1667 54.1263 14.58C53.5129 14.9933 52.7929 15.2 51.9663 15.2ZM52.6663 13.3C53.1596 13.3 53.5929 13.18 53.9663 12.94C54.3396 12.7 54.6263 12.3467 54.8263 11.88C55.0396 11.4 55.1463 10.8067 55.1463 10.1C55.1463 9.03333 54.9196 8.24 54.4663 7.72C54.0129 7.18667 53.4129 6.92 52.6663 6.92C52.1729 6.92 51.7396 7.04 51.3663 7.28C50.9929 7.50667 50.6996 7.86 50.4863 8.34C50.2863 8.80667 50.1863 9.39333 50.1863 10.1C50.1863 11.1533 50.4129 11.9533 50.8663 12.5C51.3196 13.0333 51.9196 13.3 52.6663 13.3ZM67.2281 15C66.7881 15 66.4481 14.8867 66.2081 14.66C65.9815 14.42 65.8681 14.08 65.8681 13.64V2.26C65.8681 1.82 65.9815 1.48667 66.2081 1.26C66.4481 1.02 66.7881 0.899999 67.2281 0.899999H72.0281C73.0148 0.899999 73.8548 1.04667 74.5481 1.34C75.2415 1.63333 75.7681 2.05333 76.1281 2.6C76.5015 3.14667 76.6881 3.8 76.6881 4.56C76.6881 5.41333 76.4415 6.13333 75.9481 6.72C75.4548 7.30667 74.7815 7.7 73.9281 7.9V7.6C74.9148 7.74667 75.6815 8.12 76.2281 8.72C76.7748 9.32 77.0481 10.1 77.0481 11.06C77.0481 12.3133 76.6215 13.2867 75.7681 13.98C74.9281 14.66 73.7548 15 72.2481 15H67.2281ZM68.3281 13.06H71.9281C72.8348 13.06 73.5015 12.8867 73.9281 12.54C74.3548 12.18 74.5681 11.6467 74.5681 10.94C74.5681 10.22 74.3548 9.68667 73.9281 9.34C73.5015 8.99333 72.8348 8.82 71.9281 8.82H68.3281V13.06ZM68.3281 6.88H71.5881C72.4681 6.88 73.1215 6.71333 73.5481 6.38C73.9881 6.03333 74.2081 5.52667 74.2081 4.86C74.2081 4.19333 73.9881 3.69333 73.5481 3.36C73.1215 3.01333 72.4681 2.84 71.5881 2.84H68.3281V6.88ZM82.9377 15.2C82.1243 15.2 81.451 15.0533 80.9177 14.76C80.3843 14.4533 79.9843 14 79.7177 13.4C79.4643 12.8 79.3377 12.0533 79.3377 11.16V6.32C79.3377 5.89333 79.4443 5.58 79.6577 5.38C79.871 5.16667 80.1777 5.06 80.5777 5.06C80.9777 5.06 81.2843 5.16667 81.4977 5.38C81.7243 5.58 81.8377 5.89333 81.8377 6.32V11.2C81.8377 11.8933 81.9777 12.4067 82.2577 12.74C82.5377 13.0733 82.9843 13.24 83.5977 13.24C84.2643 13.24 84.811 13.0133 85.2377 12.56C85.6643 12.0933 85.8777 11.48 85.8777 10.72V6.32C85.8777 5.89333 85.9843 5.58 86.1977 5.38C86.411 5.16667 86.7177 5.06 87.1177 5.06C87.5177 5.06 87.8243 5.16667 88.0377 5.38C88.2643 5.58 88.3777 5.89333 88.3777 6.32V13.88C88.3777 14.7333 87.971 15.16 87.1577 15.16C86.771 15.16 86.471 15.0533 86.2577 14.84C86.0443 14.6133 85.9377 14.2933 85.9377 13.88V12.36L86.2177 12.96C85.9377 13.68 85.511 14.2333 84.9377 14.62C84.3777 15.0067 83.711 15.2 82.9377 15.2ZM92.2197 15.14C91.8197 15.14 91.513 15.02 91.2997 14.78C91.0864 14.54 90.9797 14.2067 90.9797 13.78V6.44C90.9797 6 91.0864 5.66667 91.2997 5.44C91.513 5.2 91.8197 5.08 92.2197 5.08C92.6197 5.08 92.9264 5.2 93.1397 5.44C93.3664 5.66667 93.4797 6 93.4797 6.44V13.78C93.4797 14.2067 93.373 14.54 93.1597 14.78C92.9464 15.02 92.633 15.14 92.2197 15.14ZM92.2197 3.22C91.753 3.22 91.3864 3.10667 91.1197 2.88C90.8664 2.64 90.7397 2.31333 90.7397 1.9C90.7397 1.47333 90.8664 1.14667 91.1197 0.919999C91.3864 0.693333 91.753 0.58 92.2197 0.58C92.6997 0.58 93.0664 0.693333 93.3197 0.919999C93.573 1.14667 93.6997 1.47333 93.6997 1.9C93.6997 2.31333 93.573 2.64 93.3197 2.88C93.0664 3.10667 92.6997 3.22 92.2197 3.22ZM99.4173 15.2C98.3107 15.2 97.4773 14.8867 96.9173 14.26C96.3573 13.62 96.0773 12.6867 96.0773 11.46V2C96.0773 1.58667 96.184 1.27333 96.3973 1.06C96.6107 0.846666 96.9173 0.739999 97.3173 0.739999C97.7173 0.739999 98.024 0.846666 98.2373 1.06C98.464 1.27333 98.5773 1.58667 98.5773 2V11.34C98.5773 11.9533 98.704 12.4067 98.9573 12.7C99.224 12.9933 99.5973 13.14 100.077 13.14C100.184 13.14 100.284 13.14 100.377 13.14C100.471 13.1267 100.564 13.1133 100.657 13.1C100.844 13.0733 100.971 13.1267 101.037 13.26C101.104 13.38 101.137 13.6333 101.137 14.02C101.137 14.3533 101.071 14.6133 100.937 14.8C100.804 14.9867 100.584 15.1 100.277 15.14C100.144 15.1533 100.004 15.1667 99.8573 15.18C99.7107 15.1933 99.564 15.2 99.4173 15.2ZM106.126 15.2C105.273 15.2 104.52 14.9933 103.866 14.58C103.226 14.1667 102.726 13.58 102.366 12.82C102.006 12.0467 101.826 11.14 101.826 10.1C101.826 9.04667 102.006 8.14667 102.366 7.4C102.726 6.64 103.226 6.05333 103.866 5.64C104.52 5.22667 105.273 5.02 106.126 5.02C106.94 5.02 107.646 5.22 108.246 5.62C108.86 6.02 109.273 6.54667 109.486 7.2H109.266V2C109.266 1.58667 109.373 1.27333 109.586 1.06C109.8 0.846666 110.106 0.739999 110.506 0.739999C110.906 0.739999 111.213 0.846666 111.426 1.06C111.653 1.27333 111.766 1.58667 111.766 2V13.88C111.766 14.2933 111.66 14.6133 111.446 14.84C111.233 15.0533 110.926 15.16 110.526 15.16C110.126 15.16 109.82 15.0533 109.606 14.84C109.393 14.6133 109.286 14.2933 109.286 13.88V12.32L109.506 12.92C109.306 13.6133 108.9 14.1667 108.286 14.58C107.673 14.9933 106.953 15.2 106.126 15.2ZM106.826 13.3C107.32 13.3 107.753 13.18 108.126 12.94C108.5 12.7 108.786 12.3467 108.986 11.88C109.2 11.4 109.306 10.8067 109.306 10.1C109.306 9.03333 109.08 8.24 108.626 7.72C108.173 7.18667 107.573 6.92 106.826 6.92C106.333 6.92 105.9 7.04 105.526 7.28C105.153 7.50667 104.86 7.86 104.646 8.34C104.446 8.80667 104.346 9.39333 104.346 10.1C104.346 11.1533 104.573 11.9533 105.026 12.5C105.48 13.0333 106.08 13.3 106.826 13.3ZM119.179 15.2C118.072 15.2 117.119 14.9933 116.319 14.58C115.519 14.1667 114.899 13.58 114.459 12.82C114.032 12.06 113.819 11.16 113.819 10.12C113.819 9.10667 114.025 8.22 114.439 7.46C114.865 6.7 115.445 6.10667 116.179 5.68C116.925 5.24 117.772 5.02 118.719 5.02C119.412 5.02 120.032 5.13333 120.579 5.36C121.139 5.58667 121.612 5.91333 121.999 6.34C122.399 6.76667 122.699 7.28667 122.899 7.9C123.112 8.5 123.219 9.18 123.219 9.94C123.219 10.18 123.132 10.3667 122.959 10.5C122.799 10.62 122.565 10.68 122.259 10.68H115.839V9.24H121.459L121.139 9.54C121.139 8.92667 121.045 8.41333 120.859 8C120.685 7.58667 120.425 7.27333 120.079 7.06C119.745 6.83333 119.325 6.72 118.819 6.72C118.259 6.72 117.779 6.85333 117.379 7.12C116.992 7.37333 116.692 7.74 116.479 8.22C116.279 8.68667 116.179 9.24667 116.179 9.9V10.04C116.179 11.1333 116.432 11.9533 116.939 12.5C117.459 13.0333 118.219 13.3 119.219 13.3C119.565 13.3 119.952 13.26 120.379 13.18C120.819 13.0867 121.232 12.9333 121.619 12.72C121.899 12.56 122.145 12.4933 122.359 12.52C122.572 12.5333 122.739 12.6067 122.859 12.74C122.992 12.8733 123.072 13.04 123.099 13.24C123.125 13.4267 123.085 13.62 122.979 13.82C122.885 14.02 122.719 14.1933 122.479 14.34C122.012 14.6333 121.472 14.8533 120.859 15C120.259 15.1333 119.699 15.2 119.179 15.2ZM126.478 15.16C126.065 15.16 125.745 15.0533 125.518 14.84C125.305 14.6133 125.198 14.2933 125.198 13.88V6.32C125.198 5.90667 125.305 5.59333 125.518 5.38C125.732 5.16667 126.032 5.06 126.418 5.06C126.805 5.06 127.105 5.16667 127.318 5.38C127.532 5.59333 127.638 5.90667 127.638 6.32V7.58H127.438C127.625 6.78 127.992 6.17333 128.538 5.76C129.085 5.34667 129.812 5.1 130.718 5.02C130.998 4.99333 131.218 5.06667 131.378 5.24C131.552 5.4 131.652 5.65333 131.678 6C131.705 6.33333 131.625 6.60667 131.438 6.82C131.265 7.02 130.998 7.14 130.638 7.18L130.198 7.22C129.385 7.3 128.772 7.55333 128.358 7.98C127.945 8.39333 127.738 8.98 127.738 9.74V13.88C127.738 14.2933 127.632 14.6133 127.418 14.84C127.205 15.0533 126.892 15.16 126.478 15.16Z" fill="#757575"/>
</g>
<defs>
<filter id="filter0_d_9149_62365" x="0.540039" y="0.580078" width="135.178" height="22.6191" filterUnits="userSpaceOnUse" color-interpolation-filters="sRGB">
<feFlood flood-opacity="0" result="BackgroundImageFix"/>
<feColorMatrix in="SourceAlpha" type="matrix" values="0 0 0 0 0 0 0 0 0 0 0 0 0 0 0 0 0 0 127 0" result="hardAlpha"/>
<feOffset dy="4"/>
<feGaussianBlur stdDeviation="2"/>
<feComposite in2="hardAlpha" operator="out"/>
<feColorMatrix type="matrix" values="0 0 0 0 0 0 0 0 0 0 0 0 0 0 0 0 0 0 0.25 0"/>
<feBlend mode="normal" in2="BackgroundImageFix" result="effect1_dropShadow_9149_62365"/>
<feBlend mode="normal" in="SourceGraphic" in2="effect1_dropShadow_9149_62365" result="shape"/>
</filter>
</defs>
</svg>
