<svg width="262" height="132" viewBox="0 0 262 132" fill="none" xmlns="http://www.w3.org/2000/svg">
<rect width="262" height="132" rx="21" fill="#1E1E1E"/>
<path d="M131.56 65.105C131.33 65.105 131.155 65.045 131.035 64.925C130.915 64.795 130.855 64.615 130.855 64.385V55.61H127.57C127.38 55.61 127.23 55.56 127.12 55.46C127.01 55.35 126.955 55.2 126.955 55.01C126.955 54.82 127.01 54.675 127.12 54.575C127.23 54.475 127.38 54.425 127.57 54.425H135.535C135.735 54.425 135.885 54.475 135.985 54.575C136.095 54.675 136.15 54.82 136.15 55.01C136.15 55.2 136.095 55.35 135.985 55.46C135.885 55.56 135.735 55.61 135.535 55.61H132.25V64.385C132.25 64.615 132.19 64.795 132.07 64.925C131.96 65.045 131.79 65.105 131.56 65.105ZM138.524 65.135C138.024 65.135 137.569 65.035 137.159 64.835C136.759 64.635 136.444 64.365 136.214 64.025C135.994 63.685 135.884 63.305 135.884 62.885C135.884 62.345 136.019 61.92 136.289 61.61C136.559 61.3 137.014 61.08 137.654 60.95C138.294 60.81 139.154 60.74 140.234 60.74H140.939V61.61H140.264C139.494 61.61 138.884 61.645 138.434 61.715C137.994 61.785 137.684 61.91 137.504 62.09C137.324 62.26 137.234 62.5 137.234 62.81C137.234 63.2 137.369 63.52 137.639 63.77C137.919 64.02 138.299 64.145 138.779 64.145C139.159 64.145 139.494 64.055 139.784 63.875C140.074 63.685 140.304 63.435 140.474 63.125C140.644 62.805 140.729 62.44 140.729 62.03V60.305C140.729 59.715 140.609 59.29 140.369 59.03C140.129 58.76 139.724 58.625 139.154 58.625C138.824 58.625 138.484 58.67 138.134 58.76C137.784 58.85 137.419 58.99 137.039 59.18C136.889 59.25 136.759 59.275 136.649 59.255C136.539 59.225 136.449 59.165 136.379 59.075C136.319 58.975 136.284 58.87 136.274 58.76C136.274 58.64 136.299 58.525 136.349 58.415C136.409 58.305 136.509 58.225 136.649 58.175C137.089 57.955 137.524 57.8 137.954 57.71C138.394 57.61 138.804 57.56 139.184 57.56C139.834 57.56 140.369 57.665 140.789 57.875C141.209 58.075 141.524 58.39 141.734 58.82C141.944 59.24 142.049 59.78 142.049 60.44V64.4C142.049 64.63 141.994 64.805 141.884 64.925C141.774 65.045 141.614 65.105 141.404 65.105C141.204 65.105 141.044 65.045 140.924 64.925C140.814 64.805 140.759 64.63 140.759 64.4V63.335H140.894C140.814 63.705 140.664 64.025 140.444 64.295C140.224 64.565 139.949 64.775 139.619 64.925C139.299 65.065 138.934 65.135 138.524 65.135ZM145.022 65.105C144.812 65.105 144.647 65.045 144.527 64.925C144.407 64.805 144.347 64.63 144.347 64.4V55.01C144.347 54.78 144.407 54.61 144.527 54.5C144.647 54.38 144.812 54.32 145.022 54.32C145.242 54.32 145.412 54.38 145.532 54.5C145.652 54.61 145.712 54.78 145.712 55.01V60.92H145.742L148.682 58.055C148.832 57.905 148.967 57.79 149.087 57.71C149.207 57.63 149.362 57.59 149.552 57.59C149.742 57.59 149.887 57.64 149.987 57.74C150.087 57.83 150.137 57.95 150.137 58.1C150.137 58.24 150.067 58.38 149.927 58.52L146.807 61.55V60.875L150.212 64.16C150.352 64.3 150.417 64.445 150.407 64.595C150.407 64.745 150.352 64.87 150.242 64.97C150.142 65.06 150.007 65.105 149.837 65.105C149.637 65.105 149.472 65.065 149.342 64.985C149.222 64.905 149.082 64.78 148.922 64.61L145.742 61.61H145.712V64.4C145.712 64.87 145.482 65.105 145.022 65.105ZM155.314 65.135C154.524 65.135 153.844 64.985 153.274 64.685C152.714 64.375 152.279 63.94 151.969 63.38C151.659 62.81 151.504 62.14 151.504 61.37C151.504 60.61 151.654 59.945 151.954 59.375C152.264 58.805 152.684 58.36 153.214 58.04C153.754 57.72 154.369 57.56 155.059 57.56C155.549 57.56 155.989 57.645 156.379 57.815C156.779 57.975 157.119 58.21 157.399 58.52C157.679 58.83 157.889 59.21 158.029 59.66C158.179 60.1 158.254 60.6 158.254 61.16C158.254 61.32 158.204 61.445 158.104 61.535C158.014 61.615 157.879 61.655 157.699 61.655H152.569V60.785H157.354L157.099 60.995C157.099 60.475 157.019 60.035 156.859 59.675C156.709 59.305 156.484 59.025 156.184 58.835C155.894 58.645 155.529 58.55 155.089 58.55C154.609 58.55 154.199 58.665 153.859 58.895C153.519 59.115 153.259 59.43 153.079 59.84C152.899 60.24 152.809 60.705 152.809 61.235V61.325C152.809 62.225 153.024 62.905 153.454 63.365C153.884 63.825 154.504 64.055 155.314 64.055C155.634 64.055 155.959 64.015 156.289 63.935C156.629 63.855 156.954 63.71 157.264 63.5C157.414 63.41 157.549 63.37 157.669 63.38C157.799 63.38 157.904 63.42 157.984 63.5C158.064 63.57 158.114 63.66 158.134 63.77C158.154 63.87 158.139 63.98 158.089 64.1C158.039 64.22 157.944 64.325 157.804 64.415C157.474 64.645 157.079 64.825 156.619 64.955C156.169 65.075 155.734 65.135 155.314 65.135ZM166.487 65.135C165.987 65.135 165.532 65.035 165.122 64.835C164.722 64.635 164.407 64.365 164.177 64.025C163.957 63.685 163.847 63.305 163.847 62.885C163.847 62.345 163.982 61.92 164.252 61.61C164.522 61.3 164.977 61.08 165.617 60.95C166.257 60.81 167.117 60.74 168.197 60.74H168.902V61.61H168.227C167.457 61.61 166.847 61.645 166.397 61.715C165.957 61.785 165.647 61.91 165.467 62.09C165.287 62.26 165.197 62.5 165.197 62.81C165.197 63.2 165.332 63.52 165.602 63.77C165.882 64.02 166.262 64.145 166.742 64.145C167.122 64.145 167.457 64.055 167.747 63.875C168.037 63.685 168.267 63.435 168.437 63.125C168.607 62.805 168.692 62.44 168.692 62.03V60.305C168.692 59.715 168.572 59.29 168.332 59.03C168.092 58.76 167.687 58.625 167.117 58.625C166.787 58.625 166.447 58.67 166.097 58.76C165.747 58.85 165.382 58.99 165.002 59.18C164.852 59.25 164.722 59.275 164.612 59.255C164.502 59.225 164.412 59.165 164.342 59.075C164.282 58.975 164.247 58.87 164.237 58.76C164.237 58.64 164.262 58.525 164.312 58.415C164.372 58.305 164.472 58.225 164.612 58.175C165.052 57.955 165.487 57.8 165.917 57.71C166.357 57.61 166.767 57.56 167.147 57.56C167.797 57.56 168.332 57.665 168.752 57.875C169.172 58.075 169.487 58.39 169.697 58.82C169.907 59.24 170.012 59.78 170.012 60.44V64.4C170.012 64.63 169.957 64.805 169.847 64.925C169.737 65.045 169.577 65.105 169.367 65.105C169.167 65.105 169.007 65.045 168.887 64.925C168.777 64.805 168.722 64.63 168.722 64.4V63.335H168.857C168.777 63.705 168.627 64.025 168.407 64.295C168.187 64.565 167.912 64.775 167.582 64.925C167.262 65.065 166.897 65.135 166.487 65.135ZM177.047 67.805C176.837 67.805 176.672 67.745 176.552 67.625C176.432 67.505 176.372 67.335 176.372 67.115V58.28C176.372 58.05 176.432 57.88 176.552 57.77C176.672 57.65 176.837 57.59 177.047 57.59C177.267 57.59 177.432 57.65 177.542 57.77C177.662 57.88 177.722 58.05 177.722 58.28V59.645L177.557 59.375C177.717 58.825 178.032 58.385 178.502 58.055C178.972 57.725 179.537 57.56 180.197 57.56C180.847 57.56 181.412 57.715 181.892 58.025C182.372 58.325 182.747 58.76 183.017 59.33C183.287 59.89 183.422 60.56 183.422 61.34C183.422 62.11 183.287 62.785 183.017 63.365C182.757 63.935 182.382 64.375 181.892 64.685C181.412 64.985 180.847 65.135 180.197 65.135C179.547 65.135 178.987 64.97 178.517 64.64C178.047 64.31 177.732 63.875 177.572 63.335H177.737V67.115C177.737 67.335 177.677 67.505 177.557 67.625C177.437 67.745 177.267 67.805 177.047 67.805ZM179.882 64.055C180.312 64.055 180.687 63.95 181.007 63.74C181.337 63.53 181.592 63.225 181.772 62.825C181.952 62.425 182.042 61.93 182.042 61.34C182.042 60.46 181.847 59.79 181.457 59.33C181.067 58.87 180.542 58.64 179.882 58.64C179.442 58.64 179.057 58.745 178.727 58.955C178.407 59.155 178.157 59.455 177.977 59.855C177.807 60.255 177.722 60.75 177.722 61.34C177.722 62.22 177.917 62.895 178.307 63.365C178.697 63.825 179.222 64.055 179.882 64.055ZM186 65.105C185.79 65.105 185.625 65.045 185.505 64.925C185.385 64.805 185.325 64.63 185.325 64.4V55.01C185.325 54.78 185.385 54.61 185.505 54.5C185.625 54.38 185.79 54.32 186 54.32C186.22 54.32 186.39 54.38 186.51 54.5C186.63 54.61 186.69 54.78 186.69 55.01V59.285H186.495C186.705 58.715 187.045 58.285 187.515 57.995C187.995 57.705 188.54 57.56 189.15 57.56C189.74 57.56 190.225 57.67 190.605 57.89C190.985 58.1 191.27 58.42 191.46 58.85C191.65 59.28 191.745 59.82 191.745 60.47V64.4C191.745 64.63 191.685 64.805 191.565 64.925C191.455 65.045 191.29 65.105 191.07 65.105C190.85 65.105 190.68 65.045 190.56 64.925C190.44 64.805 190.38 64.63 190.38 64.4V60.545C190.38 59.895 190.255 59.42 190.005 59.12C189.755 58.82 189.355 58.67 188.805 58.67C188.165 58.67 187.65 58.87 187.26 59.27C186.88 59.66 186.69 60.19 186.69 60.86V64.4C186.69 64.87 186.46 65.105 186 65.105ZM197.164 65.135C196.444 65.135 195.819 64.98 195.289 64.67C194.759 64.36 194.349 63.92 194.059 63.35C193.769 62.78 193.624 62.11 193.624 61.34C193.624 60.76 193.704 60.24 193.864 59.78C194.034 59.31 194.274 58.91 194.584 58.58C194.894 58.25 195.264 58 195.694 57.83C196.134 57.65 196.624 57.56 197.164 57.56C197.884 57.56 198.509 57.715 199.039 58.025C199.569 58.335 199.979 58.775 200.269 59.345C200.559 59.905 200.704 60.57 200.704 61.34C200.704 61.92 200.619 62.445 200.449 62.915C200.289 63.385 200.054 63.785 199.744 64.115C199.434 64.445 199.059 64.7 198.619 64.88C198.189 65.05 197.704 65.135 197.164 65.135ZM197.164 64.055C197.604 64.055 197.984 63.95 198.304 63.74C198.634 63.53 198.884 63.225 199.054 62.825C199.234 62.425 199.324 61.93 199.324 61.34C199.324 60.46 199.129 59.79 198.739 59.33C198.349 58.87 197.824 58.64 197.164 58.64C196.734 58.64 196.354 58.745 196.024 58.955C195.704 59.155 195.454 59.455 195.274 59.855C195.094 60.255 195.004 60.75 195.004 61.34C195.004 62.22 195.199 62.895 195.589 63.365C195.989 63.825 196.514 64.055 197.164 64.055ZM205.56 65.135C204.97 65.135 204.475 65.03 204.075 64.82C203.685 64.61 203.39 64.305 203.19 63.905C203 63.505 202.905 63.015 202.905 62.435V58.745H201.945C201.765 58.745 201.625 58.7 201.525 58.61C201.425 58.51 201.375 58.38 201.375 58.22C201.375 58.05 201.425 57.92 201.525 57.83C201.625 57.74 201.765 57.695 201.945 57.695H202.905V56.06C202.905 55.83 202.965 55.66 203.085 55.55C203.205 55.43 203.375 55.37 203.595 55.37C203.815 55.37 203.98 55.43 204.09 55.55C204.21 55.66 204.27 55.83 204.27 56.06V57.695H206.085C206.275 57.695 206.42 57.74 206.52 57.83C206.62 57.92 206.67 58.05 206.67 58.22C206.67 58.38 206.62 58.51 206.52 58.61C206.42 58.7 206.275 58.745 206.085 58.745H204.27V62.315C204.27 62.865 204.385 63.28 204.615 63.56C204.845 63.84 205.225 63.98 205.755 63.98C205.945 63.98 206.105 63.965 206.235 63.935C206.365 63.895 206.48 63.875 206.58 63.875C206.67 63.865 206.745 63.895 206.805 63.965C206.875 64.035 206.91 64.165 206.91 64.355C206.91 64.495 206.885 64.625 206.835 64.745C206.795 64.855 206.71 64.93 206.58 64.97C206.46 65.01 206.3 65.045 206.1 65.075C205.9 65.115 205.72 65.135 205.56 65.135ZM211.087 65.135C210.367 65.135 209.742 64.98 209.212 64.67C208.682 64.36 208.272 63.92 207.982 63.35C207.692 62.78 207.547 62.11 207.547 61.34C207.547 60.76 207.627 60.24 207.787 59.78C207.957 59.31 208.197 58.91 208.507 58.58C208.817 58.25 209.187 58 209.617 57.83C210.057 57.65 210.547 57.56 211.087 57.56C211.807 57.56 212.432 57.715 212.962 58.025C213.492 58.335 213.902 58.775 214.192 59.345C214.482 59.905 214.627 60.57 214.627 61.34C214.627 61.92 214.542 62.445 214.372 62.915C214.212 63.385 213.977 63.785 213.667 64.115C213.357 64.445 212.982 64.7 212.542 64.88C212.112 65.05 211.627 65.135 211.087 65.135ZM211.087 64.055C211.527 64.055 211.907 63.95 212.227 63.74C212.557 63.53 212.807 63.225 212.977 62.825C213.157 62.425 213.247 61.93 213.247 61.34C213.247 60.46 213.052 59.79 212.662 59.33C212.272 58.87 211.747 58.64 211.087 58.64C210.657 58.64 210.277 58.745 209.947 58.955C209.627 59.155 209.377 59.455 209.197 59.855C209.017 60.255 208.927 60.75 208.927 61.34C208.927 62.22 209.122 62.895 209.512 63.365C209.912 63.825 210.437 64.055 211.087 64.055ZM129.01 85.105C128.78 85.105 128.6 85.04 128.47 84.91C128.34 84.78 128.275 84.595 128.275 84.355V75.175C128.275 74.935 128.34 74.75 128.47 74.62C128.6 74.49 128.785 74.425 129.025 74.425H134.41C134.61 74.425 134.76 74.475 134.86 74.575C134.96 74.665 135.01 74.8 135.01 74.98C135.01 75.17 134.96 75.315 134.86 75.415C134.76 75.515 134.61 75.565 134.41 75.565H129.67V79.105H134.11C134.3 79.105 134.445 79.155 134.545 79.255C134.645 79.355 134.695 79.49 134.695 79.66C134.695 79.85 134.645 79.995 134.545 80.095C134.445 80.195 134.3 80.245 134.11 80.245H129.67V84.355C129.67 84.855 129.45 85.105 129.01 85.105ZM137.065 85.105C136.835 85.105 136.66 85.045 136.54 84.925C136.42 84.805 136.36 84.63 136.36 84.4V78.28C136.36 78.05 136.42 77.88 136.54 77.77C136.66 77.65 136.825 77.59 137.035 77.59C137.245 77.59 137.405 77.65 137.515 77.77C137.635 77.88 137.695 78.05 137.695 78.28V79.435H137.545C137.705 78.835 138.005 78.38 138.445 78.07C138.885 77.76 139.44 77.585 140.11 77.545C140.27 77.535 140.4 77.575 140.5 77.665C140.6 77.745 140.655 77.885 140.665 78.085C140.675 78.275 140.63 78.43 140.53 78.55C140.43 78.66 140.275 78.725 140.065 78.745L139.795 78.76C139.135 78.83 138.625 79.045 138.265 79.405C137.915 79.765 137.74 80.26 137.74 80.89V84.4C137.74 84.63 137.68 84.805 137.56 84.925C137.45 85.045 137.285 85.105 137.065 85.105ZM144.991 85.135C144.271 85.135 143.646 84.98 143.116 84.67C142.586 84.36 142.176 83.92 141.886 83.35C141.596 82.78 141.451 82.11 141.451 81.34C141.451 80.76 141.531 80.24 141.691 79.78C141.861 79.31 142.101 78.91 142.411 78.58C142.721 78.25 143.091 78 143.521 77.83C143.961 77.65 144.451 77.56 144.991 77.56C145.711 77.56 146.336 77.715 146.866 78.025C147.396 78.335 147.806 78.775 148.096 79.345C148.386 79.905 148.531 80.57 148.531 81.34C148.531 81.92 148.446 82.445 148.276 82.915C148.116 83.385 147.881 83.785 147.571 84.115C147.261 84.445 146.886 84.7 146.446 84.88C146.016 85.05 145.531 85.135 144.991 85.135ZM144.991 84.055C145.431 84.055 145.811 83.95 146.131 83.74C146.461 83.53 146.711 83.225 146.881 82.825C147.061 82.425 147.151 81.93 147.151 81.34C147.151 80.46 146.956 79.79 146.566 79.33C146.176 78.87 145.651 78.64 144.991 78.64C144.561 78.64 144.181 78.745 143.851 78.955C143.531 79.155 143.281 79.455 143.101 79.855C142.921 80.255 142.831 80.75 142.831 81.34C142.831 82.22 143.026 82.895 143.416 83.365C143.816 83.825 144.341 84.055 144.991 84.055ZM151.135 85.105C150.925 85.105 150.76 85.045 150.64 84.925C150.52 84.805 150.46 84.63 150.46 84.4V78.28C150.46 78.05 150.52 77.88 150.64 77.77C150.76 77.65 150.925 77.59 151.135 77.59C151.345 77.59 151.505 77.65 151.615 77.77C151.735 77.88 151.795 78.05 151.795 78.28V79.555L151.63 79.285C151.82 78.735 152.125 78.31 152.545 78.01C152.975 77.71 153.485 77.56 154.075 77.56C154.695 77.56 155.195 77.71 155.575 78.01C155.955 78.3 156.21 78.745 156.34 79.345H156.13C156.31 78.795 156.63 78.36 157.09 78.04C157.56 77.72 158.105 77.56 158.725 77.56C159.275 77.56 159.725 77.67 160.075 77.89C160.435 78.1 160.705 78.42 160.885 78.85C161.065 79.27 161.155 79.81 161.155 80.47V84.4C161.155 84.63 161.095 84.805 160.975 84.925C160.855 85.045 160.69 85.105 160.48 85.105C160.26 85.105 160.09 85.045 159.97 84.925C159.85 84.805 159.79 84.63 159.79 84.4V80.53C159.79 79.89 159.68 79.42 159.46 79.12C159.24 78.82 158.87 78.67 158.35 78.67C157.78 78.67 157.325 78.87 156.985 79.27C156.655 79.66 156.49 80.2 156.49 80.89V84.4C156.49 84.63 156.43 84.805 156.31 84.925C156.2 85.045 156.035 85.105 155.815 85.105C155.595 85.105 155.425 85.045 155.305 84.925C155.185 84.805 155.125 84.63 155.125 84.4V80.53C155.125 79.89 155.015 79.42 154.795 79.12C154.575 78.82 154.205 78.67 153.685 78.67C153.115 78.67 152.66 78.87 152.32 79.27C151.99 79.66 151.825 80.2 151.825 80.89V84.4C151.825 84.87 151.595 85.105 151.135 85.105ZM172.391 85.135C171.341 85.135 170.441 84.915 169.691 84.475C168.941 84.035 168.361 83.41 167.951 82.6C167.551 81.78 167.351 80.815 167.351 79.705C167.351 78.875 167.466 78.13 167.696 77.47C167.926 76.8 168.256 76.23 168.686 75.76C169.116 75.28 169.641 74.915 170.261 74.665C170.891 74.415 171.601 74.29 172.391 74.29C172.991 74.29 173.566 74.375 174.116 74.545C174.676 74.715 175.156 74.955 175.556 75.265C175.716 75.375 175.821 75.5 175.871 75.64C175.921 75.78 175.926 75.915 175.886 76.045C175.856 76.165 175.791 76.27 175.691 76.36C175.601 76.44 175.486 76.485 175.346 76.495C175.206 76.495 175.056 76.44 174.896 76.33C174.546 76.06 174.161 75.865 173.741 75.745C173.331 75.615 172.891 75.55 172.421 75.55C171.651 75.55 170.996 75.715 170.456 76.045C169.926 76.365 169.521 76.835 169.241 77.455C168.971 78.065 168.836 78.815 168.836 79.705C168.836 80.585 168.971 81.34 169.241 81.97C169.521 82.59 169.926 83.065 170.456 83.395C170.996 83.715 171.651 83.875 172.421 83.875C172.891 83.875 173.336 83.81 173.756 83.68C174.186 83.55 174.581 83.35 174.941 83.08C175.101 82.97 175.246 82.92 175.376 82.93C175.516 82.94 175.631 82.985 175.721 83.065C175.811 83.135 175.871 83.235 175.901 83.365C175.941 83.485 175.941 83.61 175.901 83.74C175.861 83.87 175.771 83.985 175.631 84.085C175.221 84.435 174.731 84.7 174.161 84.88C173.601 85.05 173.011 85.135 172.391 85.135ZM179.909 85.135C179.409 85.135 178.954 85.035 178.544 84.835C178.144 84.635 177.829 84.365 177.599 84.025C177.379 83.685 177.269 83.305 177.269 82.885C177.269 82.345 177.404 81.92 177.674 81.61C177.944 81.3 178.399 81.08 179.039 80.95C179.679 80.81 180.539 80.74 181.619 80.74H182.324V81.61H181.649C180.879 81.61 180.269 81.645 179.819 81.715C179.379 81.785 179.069 81.91 178.889 82.09C178.709 82.26 178.619 82.5 178.619 82.81C178.619 83.2 178.754 83.52 179.024 83.77C179.304 84.02 179.684 84.145 180.164 84.145C180.544 84.145 180.879 84.055 181.169 83.875C181.459 83.685 181.689 83.435 181.859 83.125C182.029 82.805 182.114 82.44 182.114 82.03V80.305C182.114 79.715 181.994 79.29 181.754 79.03C181.514 78.76 181.109 78.625 180.539 78.625C180.209 78.625 179.869 78.67 179.519 78.76C179.169 78.85 178.804 78.99 178.424 79.18C178.274 79.25 178.144 79.275 178.034 79.255C177.924 79.225 177.834 79.165 177.764 79.075C177.704 78.975 177.669 78.87 177.659 78.76C177.659 78.64 177.684 78.525 177.734 78.415C177.794 78.305 177.894 78.225 178.034 78.175C178.474 77.955 178.909 77.8 179.339 77.71C179.779 77.61 180.189 77.56 180.569 77.56C181.219 77.56 181.754 77.665 182.174 77.875C182.594 78.075 182.909 78.39 183.119 78.82C183.329 79.24 183.434 79.78 183.434 80.44V84.4C183.434 84.63 183.379 84.805 183.269 84.925C183.159 85.045 182.999 85.105 182.789 85.105C182.589 85.105 182.429 85.045 182.309 84.925C182.199 84.805 182.144 84.63 182.144 84.4V83.335H182.279C182.199 83.705 182.049 84.025 181.829 84.295C181.609 84.565 181.334 84.775 181.004 84.925C180.684 85.065 180.319 85.135 179.909 85.135ZM186.437 85.105C186.227 85.105 186.062 85.045 185.942 84.925C185.822 84.805 185.762 84.63 185.762 84.4V78.28C185.762 78.05 185.822 77.88 185.942 77.77C186.062 77.65 186.227 77.59 186.437 77.59C186.647 77.59 186.807 77.65 186.917 77.77C187.037 77.88 187.097 78.05 187.097 78.28V79.555L186.932 79.285C187.122 78.735 187.427 78.31 187.847 78.01C188.277 77.71 188.787 77.56 189.377 77.56C189.997 77.56 190.497 77.71 190.877 78.01C191.257 78.3 191.512 78.745 191.642 79.345H191.432C191.612 78.795 191.932 78.36 192.392 78.04C192.862 77.72 193.407 77.56 194.027 77.56C194.577 77.56 195.027 77.67 195.377 77.89C195.737 78.1 196.007 78.42 196.187 78.85C196.367 79.27 196.457 79.81 196.457 80.47V84.4C196.457 84.63 196.397 84.805 196.277 84.925C196.157 85.045 195.992 85.105 195.782 85.105C195.562 85.105 195.392 85.045 195.272 84.925C195.152 84.805 195.092 84.63 195.092 84.4V80.53C195.092 79.89 194.982 79.42 194.762 79.12C194.542 78.82 194.172 78.67 193.652 78.67C193.082 78.67 192.627 78.87 192.287 79.27C191.957 79.66 191.792 80.2 191.792 80.89V84.4C191.792 84.63 191.732 84.805 191.612 84.925C191.502 85.045 191.337 85.105 191.117 85.105C190.897 85.105 190.727 85.045 190.607 84.925C190.487 84.805 190.427 84.63 190.427 84.4V80.53C190.427 79.89 190.317 79.42 190.097 79.12C189.877 78.82 189.507 78.67 188.987 78.67C188.417 78.67 187.962 78.87 187.622 79.27C187.292 79.66 187.127 80.2 187.127 80.89V84.4C187.127 84.87 186.897 85.105 186.437 85.105ZM202.177 85.135C201.387 85.135 200.707 84.985 200.137 84.685C199.577 84.375 199.142 83.94 198.832 83.38C198.522 82.81 198.367 82.14 198.367 81.37C198.367 80.61 198.517 79.945 198.817 79.375C199.127 78.805 199.547 78.36 200.077 78.04C200.617 77.72 201.232 77.56 201.922 77.56C202.412 77.56 202.852 77.645 203.242 77.815C203.642 77.975 203.982 78.21 204.262 78.52C204.542 78.83 204.752 79.21 204.892 79.66C205.042 80.1 205.117 80.6 205.117 81.16C205.117 81.32 205.067 81.445 204.967 81.535C204.877 81.615 204.742 81.655 204.562 81.655H199.432V80.785H204.217L203.962 80.995C203.962 80.475 203.882 80.035 203.722 79.675C203.572 79.305 203.347 79.025 203.047 78.835C202.757 78.645 202.392 78.55 201.952 78.55C201.472 78.55 201.062 78.665 200.722 78.895C200.382 79.115 200.122 79.43 199.942 79.84C199.762 80.24 199.672 80.705 199.672 81.235V81.325C199.672 82.225 199.887 82.905 200.317 83.365C200.747 83.825 201.367 84.055 202.177 84.055C202.497 84.055 202.822 84.015 203.152 83.935C203.492 83.855 203.817 83.71 204.127 83.5C204.277 83.41 204.412 83.37 204.532 83.38C204.662 83.38 204.767 83.42 204.847 83.5C204.927 83.57 204.977 83.66 204.997 83.77C205.017 83.87 205.002 83.98 204.952 84.1C204.902 84.22 204.807 84.325 204.667 84.415C204.337 84.645 203.942 84.825 203.482 84.955C203.032 85.075 202.597 85.135 202.177 85.135ZM207.67 85.105C207.44 85.105 207.265 85.045 207.145 84.925C207.025 84.805 206.965 84.63 206.965 84.4V78.28C206.965 78.05 207.025 77.88 207.145 77.77C207.265 77.65 207.43 77.59 207.64 77.59C207.85 77.59 208.01 77.65 208.12 77.77C208.24 77.88 208.3 78.05 208.3 78.28V79.435H208.15C208.31 78.835 208.61 78.38 209.05 78.07C209.49 77.76 210.045 77.585 210.715 77.545C210.875 77.535 211.005 77.575 211.105 77.665C211.205 77.745 211.26 77.885 211.27 78.085C211.28 78.275 211.235 78.43 211.135 78.55C211.035 78.66 210.88 78.725 210.67 78.745L210.4 78.76C209.74 78.83 209.23 79.045 208.87 79.405C208.52 79.765 208.345 80.26 208.345 80.89V84.4C208.345 84.63 208.285 84.805 208.165 84.925C208.055 85.045 207.89 85.105 207.67 85.105ZM214.845 85.135C214.345 85.135 213.89 85.035 213.48 84.835C213.08 84.635 212.765 84.365 212.535 84.025C212.315 83.685 212.205 83.305 212.205 82.885C212.205 82.345 212.34 81.92 212.61 81.61C212.88 81.3 213.335 81.08 213.975 80.95C214.615 80.81 215.475 80.74 216.555 80.74H217.26V81.61H216.585C215.815 81.61 215.205 81.645 214.755 81.715C214.315 81.785 214.005 81.91 213.825 82.09C213.645 82.26 213.555 82.5 213.555 82.81C213.555 83.2 213.69 83.52 213.96 83.77C214.24 84.02 214.62 84.145 215.1 84.145C215.48 84.145 215.815 84.055 216.105 83.875C216.395 83.685 216.625 83.435 216.795 83.125C216.965 82.805 217.05 82.44 217.05 82.03V80.305C217.05 79.715 216.93 79.29 216.69 79.03C216.45 78.76 216.045 78.625 215.475 78.625C215.145 78.625 214.805 78.67 214.455 78.76C214.105 78.85 213.74 78.99 213.36 79.18C213.21 79.25 213.08 79.275 212.97 79.255C212.86 79.225 212.77 79.165 212.7 79.075C212.64 78.975 212.605 78.87 212.595 78.76C212.595 78.64 212.62 78.525 212.67 78.415C212.73 78.305 212.83 78.225 212.97 78.175C213.41 77.955 213.845 77.8 214.275 77.71C214.715 77.61 215.125 77.56 215.505 77.56C216.155 77.56 216.69 77.665 217.11 77.875C217.53 78.075 217.845 78.39 218.055 78.82C218.265 79.24 218.37 79.78 218.37 80.44V84.4C218.37 84.63 218.315 84.805 218.205 84.925C218.095 85.045 217.935 85.105 217.725 85.105C217.525 85.105 217.365 85.045 217.245 84.925C217.135 84.805 217.08 84.63 217.08 84.4V83.335H217.215C217.135 83.705 216.985 84.025 216.765 84.295C216.545 84.565 216.27 84.775 215.94 84.925C215.62 85.065 215.255 85.135 214.845 85.135Z" fill="white" fill-opacity="0.7"/>
<rect x="21" y="23" width="91" height="85" rx="10" fill="#353535"/>
<rect x="21" y="23" width="91" height="85" rx="10" stroke="#939393"/>
<path d="M81.625 69.625H50.375C49.5462 69.625 48.7513 69.2958 48.1653 68.7097C47.5792 68.1237 47.25 67.3288 47.25 66.5V44.625C47.25 43.7962 47.5792 43.0013 48.1653 42.4153C48.7513 41.8292 49.5462 41.5 50.375 41.5H56.6239L59.7489 36.8125H72.2489L75.3739 41.5H81.625C82.4538 41.5 83.2487 41.8292 83.8347 42.4153C84.4208 43.0013 84.75 43.7962 84.75 44.625V66.5C84.75 67.3288 84.4208 68.1237 83.8347 68.7097C83.2487 69.2958 82.4538 69.625 81.625 69.625Z" stroke="white" stroke-width="2.5" stroke-linecap="round" stroke-linejoin="round"/>
<path d="M66 61.8125C69.8833 61.8125 73.0312 58.6645 73.0312 54.7812C73.0312 50.898 69.8833 47.75 66 47.75C62.1167 47.75 58.9688 50.898 58.9688 54.7812C58.9688 58.6645 62.1167 61.8125 66 61.8125Z" stroke="white" stroke-width="2" stroke-linecap="round" stroke-linejoin="round"/>
<path d="M43.0326 95.164C41.8302 95.164 40.7972 94.9235 39.9336 94.4425C39.081 93.9506 38.4252 93.262 37.9661 92.3766C37.507 91.4802 37.2774 90.4254 37.2774 89.2121C37.2774 88.3048 37.4086 87.4904 37.6709 86.769C37.9333 86.0366 38.3104 85.4136 38.8023 84.8998C39.2942 84.3751 39.8954 83.9762 40.6059 83.7029C41.3273 83.4187 42.1362 83.2766 43.0326 83.2766C43.6338 83.2766 44.224 83.3531 44.8034 83.5061C45.3827 83.6592 45.891 83.8778 46.3282 84.162C46.5578 84.3041 46.7108 84.479 46.7873 84.6867C46.8638 84.8834 46.8802 85.0802 46.8365 85.2769C46.7928 85.4628 46.6999 85.6213 46.5578 85.7524C46.4266 85.8836 46.2572 85.9601 46.0495 85.982C45.8527 85.9929 45.6341 85.9219 45.3936 85.7688C45.0548 85.5502 44.6886 85.3917 44.2951 85.2933C43.9016 85.195 43.5026 85.1458 43.0981 85.1458C42.322 85.1458 41.6662 85.3043 41.1306 85.6213C40.595 85.9383 40.1905 86.3974 39.9172 86.9986C39.644 87.5998 39.5073 88.3376 39.5073 89.2121C39.5073 90.0756 39.644 90.8135 39.9172 91.4256C40.1905 92.0377 40.595 92.5023 41.1306 92.8193C41.6662 93.1363 42.322 93.2948 43.0981 93.2948C43.5135 93.2948 43.9234 93.2456 44.3279 93.1472C44.7323 93.0379 45.1149 92.8739 45.4756 92.6553C45.7161 92.5132 45.9293 92.4531 46.1151 92.475C46.3118 92.4859 46.4758 92.5515 46.607 92.6717C46.7381 92.792 46.8256 92.945 46.8693 93.1308C46.913 93.3057 46.9021 93.4915 46.8365 93.6883C46.7709 93.8741 46.6398 94.0381 46.443 94.1802C46.0058 94.4972 45.4811 94.7431 44.869 94.918C44.2678 95.082 43.6556 95.164 43.0326 95.164ZM51.1178 95.164C50.5384 95.164 50.0192 95.0547 49.5601 94.836C49.1119 94.6065 48.7567 94.3004 48.4943 93.9178C48.2429 93.5353 48.1172 93.1035 48.1172 92.6225C48.1172 92.0323 48.2703 91.5677 48.5763 91.2288C48.8824 90.879 49.3798 90.6276 50.0684 90.4746C50.7571 90.3216 51.6807 90.245 52.8394 90.245H53.6592V91.4256H52.8558C52.1781 91.4256 51.637 91.4584 51.2325 91.524C50.8281 91.5895 50.5384 91.7043 50.3635 91.8683C50.1996 92.0213 50.1176 92.2399 50.1176 92.5241C50.1176 92.8849 50.2433 93.18 50.4947 93.4095C50.7461 93.6391 51.0959 93.7539 51.5441 93.7539C51.9048 93.7539 52.2218 93.6719 52.4951 93.5079C52.7793 93.333 53.0034 93.098 53.1673 92.8029C53.3313 92.5077 53.4133 92.1689 53.4133 91.7863V89.9007C53.4133 89.3542 53.293 88.9607 53.0525 88.7202C52.8121 88.4797 52.4076 88.3595 51.8392 88.3595C51.5222 88.3595 51.1779 88.3977 50.8062 88.4742C50.4455 88.5508 50.0629 88.6819 49.6585 88.8677C49.4508 88.9661 49.265 88.9935 49.101 88.9497C48.948 88.906 48.8277 88.8186 48.7403 88.6874C48.6528 88.5453 48.6091 88.3923 48.6091 88.2283C48.6091 88.0643 48.6528 87.9058 48.7403 87.7528C48.8277 87.5888 48.9753 87.4686 49.183 87.3921C49.6858 87.1844 50.1668 87.0368 50.6259 86.9494C51.0959 86.8619 51.5222 86.8182 51.9048 86.8182C52.6918 86.8182 53.3368 86.9384 53.8396 87.1789C54.3533 87.4194 54.7359 87.7856 54.9873 88.2775C55.2387 88.7584 55.3644 89.3815 55.3644 90.1467V94.0818C55.3644 94.4207 55.2825 94.683 55.1185 94.8688C54.9545 95.0437 54.7195 95.1312 54.4134 95.1312C54.1074 95.1312 53.8669 95.0437 53.692 94.8688C53.528 94.683 53.4461 94.4207 53.4461 94.0818V93.2948H53.5772C53.5007 93.6774 53.3477 94.0108 53.1181 94.295C52.8995 94.5682 52.6208 94.7814 52.2819 94.9344C51.9431 95.0874 51.555 95.164 51.1178 95.164ZM58.6581 95.1312C58.3301 95.1312 58.0787 95.0437 57.9038 94.8688C57.7289 94.683 57.6415 94.4207 57.6415 94.0818V87.884C57.6415 87.5451 57.7289 87.2882 57.9038 87.1133C58.0787 86.9384 58.3247 86.851 58.6417 86.851C58.9587 86.851 59.2046 86.9384 59.3795 87.1133C59.5544 87.2882 59.6418 87.5451 59.6418 87.884V89.0809L59.4615 88.589C59.6801 88.0425 60.019 87.6107 60.4781 87.2937C60.9372 86.9767 61.4837 86.8182 62.1177 86.8182C62.7626 86.8182 63.2928 86.9712 63.7082 87.2773C64.1235 87.5834 64.4132 88.0534 64.5772 88.6874H64.3476C64.5662 88.108 64.927 87.6544 65.4298 87.3265C65.9326 86.9876 66.5119 86.8182 67.1678 86.8182C67.7799 86.8182 68.2828 86.9384 68.6763 87.1789C69.0807 87.4194 69.3813 87.7856 69.5781 88.2775C69.7748 88.7584 69.8732 89.3706 69.8732 90.1139V94.0818C69.8732 94.4207 69.7803 94.683 69.5945 94.8688C69.4196 95.0437 69.1682 95.1312 68.8402 95.1312C68.5123 95.1312 68.2609 95.0437 68.086 94.8688C67.9111 94.683 67.8237 94.4207 67.8237 94.0818V90.1959C67.8237 89.5837 67.7198 89.1356 67.5121 88.8514C67.3154 88.5671 66.9765 88.425 66.4955 88.425C65.9599 88.425 65.5391 88.6163 65.233 88.9989C64.927 89.3706 64.7739 89.8898 64.7739 90.5566V94.0818C64.7739 94.4207 64.6865 94.683 64.5116 94.8688C64.3367 95.0437 64.0853 95.1312 63.7573 95.1312C63.4294 95.1312 63.1725 95.0437 62.9867 94.8688C62.8118 94.683 62.7244 94.4207 62.7244 94.0818V90.1959C62.7244 89.5837 62.6205 89.1356 62.4128 88.8514C62.2161 88.5671 61.8827 88.425 61.4127 88.425C60.877 88.425 60.4562 88.6163 60.1501 88.9989C59.8441 89.3706 59.691 89.8898 59.691 90.5566V94.0818C59.691 94.7814 59.3467 95.1312 58.6581 95.1312ZM76.1031 95.164C75.1958 95.164 74.4142 94.9945 73.7584 94.6557C73.1025 94.3168 72.5942 93.8359 72.2335 93.2128C71.8837 92.5897 71.7088 91.8519 71.7088 90.9993C71.7088 90.1685 71.8783 89.4416 72.2171 88.8186C72.5669 88.1955 73.0424 87.7091 73.6436 87.3593C74.2557 86.9986 74.9499 86.8182 75.726 86.8182C76.2944 86.8182 76.8026 86.9111 77.2508 87.0969C77.7099 87.2828 78.098 87.5506 78.415 87.9004C78.7429 88.2501 78.9888 88.6765 79.1528 89.1793C79.3277 89.6712 79.4151 90.2286 79.4151 90.8517C79.4151 91.0485 79.3441 91.2015 79.202 91.3108C79.0708 91.4092 78.8795 91.4584 78.6281 91.4584H73.3649V90.2778H77.9723L77.7099 90.5238C77.7099 90.021 77.6334 89.6001 77.4804 89.2613C77.3383 88.9224 77.1251 88.6655 76.8409 88.4906C76.5676 88.3048 76.2233 88.2119 75.8079 88.2119C75.3488 88.2119 74.9553 88.3212 74.6274 88.5398C74.3104 88.7475 74.0644 89.0481 73.8896 89.4416C73.7256 89.8242 73.6436 90.2833 73.6436 90.8189V90.9337C73.6436 91.83 73.8513 92.5023 74.2667 92.9505C74.693 93.3877 75.316 93.6063 76.1359 93.6063C76.4201 93.6063 76.7371 93.5735 77.0869 93.5079C77.4476 93.4314 77.7864 93.3057 78.1034 93.1308C78.333 92.9996 78.5352 92.945 78.7101 92.9668C78.885 92.9778 79.0216 93.0379 79.12 93.1472C79.2293 93.2565 79.2949 93.3932 79.3168 93.5571C79.3386 93.7102 79.3058 93.8686 79.2184 94.0326C79.1419 94.1966 79.0052 94.3387 78.8085 94.4589C78.4259 94.6994 77.9832 94.8798 77.4804 95C76.9885 95.1093 76.5294 95.164 76.1031 95.164ZM82.2516 95.1312C81.9127 95.1312 81.6504 95.0437 81.4646 94.8688C81.2897 94.683 81.2022 94.4207 81.2022 94.0818V87.884C81.2022 87.5451 81.2897 87.2882 81.4646 87.1133C81.6395 86.9384 81.8854 86.851 82.2024 86.851C82.5194 86.851 82.7653 86.9384 82.9402 87.1133C83.1151 87.2882 83.2026 87.5451 83.2026 87.884V88.9169H83.0386C83.1916 88.2611 83.4922 87.7637 83.9404 87.4249C84.3886 87.086 84.9843 86.8838 85.7276 86.8182C85.9572 86.7963 86.1375 86.8565 86.2687 86.9986C86.4108 87.1297 86.4928 87.3374 86.5147 87.6216C86.5365 87.8949 86.4709 88.119 86.3179 88.2939C86.1758 88.4578 85.9572 88.5562 85.662 88.589L85.3013 88.6218C84.6345 88.6874 84.1317 88.8951 83.7928 89.2449C83.454 89.5837 83.2846 90.0647 83.2846 90.6877V94.0818C83.2846 94.4207 83.1971 94.683 83.0222 94.8688C82.8473 95.0437 82.5904 95.1312 82.2516 95.1312ZM90.3468 95.164C89.7675 95.164 89.2482 95.0547 88.7891 94.836C88.341 94.6065 87.9857 94.3004 87.7234 93.9178C87.472 93.5353 87.3462 93.1035 87.3462 92.6225C87.3462 92.0323 87.4993 91.5677 87.8053 91.2288C88.1114 90.879 88.6088 90.6276 89.2974 90.4746C89.9861 90.3216 90.9097 90.245 92.0684 90.245H92.8882V91.4256H92.0848C91.4071 91.4256 90.866 91.4584 90.4616 91.524C90.0571 91.5895 89.7675 91.7043 89.5926 91.8683C89.4286 92.0213 89.3466 92.2399 89.3466 92.5241C89.3466 92.8849 89.4723 93.18 89.7237 93.4095C89.9751 93.6391 90.3249 93.7539 90.7731 93.7539C91.1338 93.7539 91.4508 93.6719 91.7241 93.5079C92.0083 93.333 92.2324 93.098 92.3963 92.8029C92.5603 92.5077 92.6423 92.1689 92.6423 91.7863V89.9007C92.6423 89.3542 92.522 88.9607 92.2816 88.7202C92.0411 88.4797 91.6366 88.3595 91.0682 88.3595C90.7512 88.3595 90.4069 88.3977 90.0353 88.4742C89.6745 88.5508 89.292 88.6819 88.8875 88.8677C88.6798 88.9661 88.494 88.9935 88.33 88.9497C88.177 88.906 88.0568 88.8186 87.9693 88.6874C87.8819 88.5453 87.8381 88.3923 87.8381 88.2283C87.8381 88.0643 87.8819 87.9058 87.9693 87.7528C88.0568 87.5888 88.2043 87.4686 88.412 87.3921C88.9148 87.1844 89.3958 87.0368 89.8549 86.9494C90.3249 86.8619 90.7512 86.8182 91.1338 86.8182C91.9208 86.8182 92.5658 86.9384 93.0686 87.1789C93.5823 87.4194 93.9649 87.7856 94.2163 88.2775C94.4678 88.7584 94.5935 89.3815 94.5935 90.1467V94.0818C94.5935 94.4207 94.5115 94.683 94.3475 94.8688C94.1835 95.0437 93.9485 95.1312 93.6425 95.1312C93.3364 95.1312 93.0959 95.0437 92.921 94.8688C92.7571 94.683 92.6751 94.4207 92.6751 94.0818V93.2948H92.8063C92.7297 93.6774 92.5767 94.0108 92.3472 94.295C92.1285 94.5682 91.8498 94.7814 91.5109 94.9344C91.1721 95.0874 90.784 95.164 90.3468 95.164Z" fill="white"/>
</svg>
