<svg width="33" height="33" viewBox="0 0 33 33" fill="none" xmlns="http://www.w3.org/2000/svg">
<path d="M9.22748 18.5626L4.125 22.6876V6.18762C4.125 5.91412 4.23365 5.65182 4.42705 5.45842C4.62044 5.26502 4.88275 5.15637 5.15625 5.15637H21.6562C21.9298 5.15637 22.1921 5.26502 22.3855 5.45842C22.5789 5.65182 22.6875 5.91412 22.6875 6.18762V17.5314C22.6875 17.8049 22.5789 18.0672 22.3855 18.2606C22.1921 18.454 21.9298 18.5626 21.6562 18.5626H9.22748Z" stroke="#6B6B6B" stroke-width="2.5" stroke-linecap="round" stroke-linejoin="round"/>
<path d="M10.3125 18.5626V23.7189C10.3125 23.9924 10.4211 24.2547 10.6145 24.4481C10.8079 24.6415 11.0702 24.7501 11.3438 24.7501H23.7725L28.875 28.8751V12.3751C28.875 12.1016 28.7664 11.8393 28.573 11.6459C28.3796 11.4525 28.1173 11.3439 27.8438 11.3439H22.6875" stroke="#6B6B6B" stroke-width="2.5" stroke-linecap="round" stroke-linejoin="round"/>
</svg>
