<svg width="26" height="26" viewBox="0 0 26 26" fill="none" xmlns="http://www.w3.org/2000/svg">
<path d="M13.4063 21.9366H4.84115C4.63464 21.9366 4.43658 21.8546 4.29056 21.7086C4.14454 21.5626 4.0625 21.3645 4.0625 21.158V12.5929C4.0625 11.3658 4.30418 10.1508 4.77375 9.01719C5.24332 7.88355 5.93157 6.85351 6.79922 5.98586C7.66686 5.11822 8.69691 4.42996 9.83054 3.96039C10.9642 3.49083 12.1792 3.24915 13.4062 3.24915H13.4063C14.6333 3.24915 15.8483 3.49083 16.9819 3.9604C18.1156 4.42996 19.1456 5.11822 20.0133 5.98587C20.8809 6.85351 21.5692 7.88356 22.0388 9.0172C22.5083 10.1508 22.75 11.3659 22.75 12.5929V12.5929C22.75 15.071 21.7656 17.4476 20.0133 19.1999C18.261 20.9522 15.8844 21.9366 13.4063 21.9366Z" stroke="white" stroke-width="2.10255" stroke-linecap="round" stroke-linejoin="round"/>
</svg>
