<svg width="41" height="41" viewBox="0 0 41 41" fill="none" xmlns="http://www.w3.org/2000/svg">
<rect width="40.4235" height="40.4235" rx="7.35362" fill="#0085FF"/>
<path d="M29.875 27.9375H11.1538C10.9475 27.9369 10.7497 27.8546 10.6038 27.7087C10.4579 27.5628 10.3756 27.365 10.375 27.1587V14.4375H29.7812C30.005 14.4375 30.2196 14.5264 30.3779 14.6846C30.5361 14.8429 30.625 15.0575 30.625 15.2812V27.1875C30.625 27.3864 30.546 27.5772 30.4053 27.7178C30.2647 27.8585 30.0739 27.9375 29.875 27.9375V27.9375Z" stroke="white" stroke-width="1.6875" stroke-linecap="round" stroke-linejoin="round"/>
<path d="M10.375 14.4375V11.9062C10.375 11.6825 10.4639 11.4679 10.6221 11.3096C10.7804 11.1514 10.995 11.0625 11.2188 11.0625H16.7755C16.8863 11.0625 16.996 11.0843 17.0984 11.1267C17.2008 11.1691 17.2938 11.2313 17.3721 11.3096L20.5 14.4375" stroke="white" stroke-width="1.6875" stroke-linecap="round" stroke-linejoin="round"/>
<path d="M17.9688 21.1875H23.0312" stroke="white" stroke-width="1.6875" stroke-linecap="round" stroke-linejoin="round"/>
<path d="M20.5 18.6562V23.7188" stroke="white" stroke-width="1.6875" stroke-linecap="round" stroke-linejoin="round"/>
</svg>
