<svg width="30" height="30" viewBox="0 0 30 30" fill="none" xmlns="http://www.w3.org/2000/svg">
<path d="M24.7485 6.48438L4.81104 6.48438" stroke="#A8A8A8" stroke-width="2" stroke-linecap="round" stroke-linejoin="round"/>
<path d="M12.0615 11.9219V19.1719" stroke="#A8A8A8" stroke-width="2" stroke-linecap="round" stroke-linejoin="round"/>
<path d="M17.499 11.9219V19.1719" stroke="#A8A8A8" stroke-width="2" stroke-linecap="round" stroke-linejoin="round"/>
<path d="M22.9365 6.48438V23.7031C22.9365 23.9435 22.841 24.174 22.6711 24.3439C22.5011 24.5139 22.2706 24.6094 22.0303 24.6094H7.53027C7.28992 24.6094 7.05941 24.5139 6.88946 24.3439C6.7195 24.174 6.62402 23.9435 6.62402 23.7031V6.48438" stroke="#A8A8A8" stroke-width="2" stroke-linecap="round" stroke-linejoin="round"/>
<path d="M19.3115 6.48438V4.67188C19.3115 4.19117 19.1206 3.73015 18.7807 3.39024C18.4407 3.05033 17.9797 2.85938 17.499 2.85938H12.0615C11.5808 2.85938 11.1198 3.05033 10.7799 3.39024C10.44 3.73015 10.249 4.19117 10.249 4.67188V6.48438" stroke="#A8A8A8" stroke-width="2" stroke-linecap="round" stroke-linejoin="round"/>
</svg>
