<svg width="23" height="23" viewBox="0 0 23 23" fill="none" xmlns="http://www.w3.org/2000/svg">
<path d="M9.75 5.625L18.6875 5.625M9.75 5.625C9.75 6.38439 9.13439 7 8.375 7C7.61561 7 7 6.38439 7 5.625M9.75 5.625C9.75 4.86561 9.13439 4.25 8.375 4.25C7.61561 4.25 7 4.86561 7 5.625M3.5625 5.625H7M9.75 16.625H18.6875M9.75 16.625C9.75 17.3844 9.13439 18 8.375 18C7.61561 18 7 17.3844 7 16.625M9.75 16.625C9.75 15.8656 9.13439 15.25 8.375 15.25C7.61561 15.25 7 15.8656 7 16.625M3.5625 16.625L7 16.625M15.25 11.125L18.6875 11.125M15.25 11.125C15.25 11.8844 14.6344 12.5 13.875 12.5C13.1156 12.5 12.5 11.8844 12.5 11.125M15.25 11.125C15.25 10.3656 14.6344 9.75 13.875 9.75C13.1156 9.75 12.5 10.3656 12.5 11.125M3.5625 11.125H12.5" stroke="white" stroke-width="1.5" stroke-linecap="round" stroke-linejoin="round"/>
</svg>
