<svg width="262" height="133" viewBox="0 0 262 133" fill="none" xmlns="http://www.w3.org/2000/svg">
<rect width="262" height="133" rx="21" fill="#1E1E1E"/>
<rect x="23" y="24" width="85" height="85" rx="10" fill="#353535"/>
<rect x="23" y="24" width="85" height="85" rx="10" stroke="#232527"/>
<path d="M83.5675 39.3555H47.4325C46.5254 39.3555 45.79 40.0908 45.79 40.998V70.5629C45.79 71.47 46.5254 72.2054 47.4325 72.2054H83.5675C84.4746 72.2054 85.2099 71.47 85.2099 70.5629V40.998C85.2099 40.0908 84.4746 39.3555 83.5675 39.3555Z" stroke="white" stroke-width="2.34234" stroke-linecap="round" stroke-linejoin="round"/>
<path d="M45.79 63.9919L56.1261 53.6559C56.2786 53.5034 56.4597 53.3824 56.6589 53.2998C56.8582 53.2173 57.0718 53.1748 57.2875 53.1748C57.5032 53.1748 57.7168 53.2173 57.916 53.2998C58.1153 53.3824 58.2964 53.5034 58.4489 53.6559L67.6235 62.8305C67.7761 62.983 67.9571 63.104 68.1564 63.1866C68.3557 63.2691 68.5693 63.3116 68.785 63.3116C69.0007 63.3116 69.2142 63.2691 69.4135 63.1866C69.6128 63.104 69.7939 62.983 69.9464 62.8305L74.1935 58.5834C74.346 58.4308 74.5271 58.3099 74.7264 58.2273C74.9257 58.1448 75.1392 58.1023 75.3549 58.1023C75.5706 58.1023 75.7842 58.1448 75.9835 58.2273C76.1828 58.3099 76.3638 58.4308 76.5164 58.5834L85.2099 67.2769" stroke="white" stroke-width="2.34234" stroke-linecap="round" stroke-linejoin="round"/>
<path d="M73.6393 50.0311C73.6393 51.3514 72.569 52.4217 71.2487 52.4217C69.9285 52.4217 68.8582 51.3514 68.8582 50.0311C68.8582 48.7109 69.9285 47.6406 71.2487 47.6406C72.569 47.6406 73.6393 48.7109 73.6393 50.0311Z" fill="white" stroke="white" stroke-width="0.146396"/>
<path d="M47.2014 96.2235C46.7204 96.2235 46.2394 96.1853 45.7585 96.1088C45.2775 96.0432 44.8239 95.9393 44.3976 95.7972C43.9713 95.6442 43.5887 95.4584 43.2498 95.2398C43.0531 95.1086 42.9164 94.9501 42.8399 94.7643C42.7634 94.5784 42.7361 94.3981 42.7579 94.2232C42.7907 94.0373 42.8618 93.8788 42.9711 93.7477C43.0913 93.6056 43.2389 93.5181 43.4138 93.4853C43.5887 93.4525 43.78 93.5017 43.9877 93.6329C44.4686 93.9171 44.9769 94.1248 45.5125 94.256C46.0482 94.3871 46.6111 94.4527 47.2014 94.4527C48.0649 94.4527 48.6934 94.3106 49.087 94.0264C49.4805 93.7313 49.6772 93.3542 49.6772 92.8951C49.6772 92.5125 49.5351 92.2119 49.2509 91.9933C48.9776 91.7746 48.5021 91.5943 47.8244 91.4522L46.0208 91.0751C44.9824 90.8564 44.2063 90.4903 43.6925 89.9765C43.1897 89.4518 42.9383 88.7632 42.9383 87.9106C42.9383 87.3749 43.0476 86.8885 43.2662 86.4513C43.4848 86.014 43.7909 85.6369 44.1844 85.3199C44.5889 85.0029 45.0644 84.7625 45.6109 84.5985C46.1684 84.4236 46.7805 84.3361 47.4473 84.3361C48.1032 84.3361 48.7262 84.4181 49.3165 84.5821C49.9068 84.7461 50.4369 84.9865 50.907 85.3035C51.0818 85.4238 51.1966 85.5713 51.2513 85.7462C51.3169 85.9211 51.3333 86.096 51.3005 86.2709C51.2677 86.4349 51.1912 86.577 51.0709 86.6972C50.9507 86.8175 50.7976 86.8885 50.6118 86.9104C50.4369 86.9322 50.2347 86.8776 50.0052 86.7464C49.6007 86.5169 49.1908 86.3529 48.7754 86.2545C48.36 86.1561 47.9119 86.107 47.4309 86.107C46.9281 86.107 46.4963 86.178 46.1356 86.3201C45.7749 86.4622 45.4961 86.6644 45.2994 86.9268C45.1136 87.1782 45.0206 87.4788 45.0206 87.8286C45.0206 88.2221 45.1518 88.5391 45.4142 88.7796C45.6765 89.0091 46.1247 89.1895 46.7587 89.3207L48.5459 89.6978C49.628 89.9273 50.4315 90.288 50.9561 90.7799C51.4918 91.2718 51.7596 91.9277 51.7596 92.7475C51.7596 93.2722 51.6503 93.7477 51.4316 94.174C51.2239 94.6003 50.9179 94.9665 50.5134 95.2725C50.1199 95.5786 49.6444 95.8136 49.087 95.9776C48.5295 96.1416 47.9009 96.2235 47.2014 96.2235ZM56.1679 96.2235C55.5886 96.2235 55.0693 96.1142 54.6102 95.8956C54.1621 95.6661 53.8068 95.36 53.5445 94.9774C53.2931 94.5948 53.1673 94.1631 53.1673 93.6821C53.1673 93.0918 53.3204 92.6273 53.6264 92.2884C53.9325 91.9386 54.4299 91.6872 55.1185 91.5342C55.8072 91.3811 56.7308 91.3046 57.8895 91.3046H58.7093V92.4852H57.9059C57.2282 92.4852 56.6871 92.5179 56.2827 92.5835C55.8782 92.6491 55.5886 92.7639 55.4137 92.9279C55.2497 93.0809 55.1677 93.2995 55.1677 93.5837C55.1677 93.9444 55.2934 94.2396 55.5448 94.4691C55.7962 94.6987 56.146 94.8134 56.5942 94.8134C56.9549 94.8134 57.2719 94.7315 57.5452 94.5675C57.8294 94.3926 58.0535 94.1576 58.2174 93.8625C58.3814 93.5673 58.4634 93.2285 58.4634 92.8459V90.9603C58.4634 90.4137 58.3431 90.0202 58.1027 89.7798C57.8622 89.5393 57.4577 89.419 56.8893 89.419C56.5723 89.419 56.228 89.4573 55.8564 89.5338C55.4956 89.6103 55.1131 89.7415 54.7086 89.9273C54.5009 90.0257 54.3151 90.053 54.1511 90.0093C53.9981 89.9656 53.8779 89.8781 53.7904 89.747C53.703 89.6049 53.6592 89.4518 53.6592 89.2879C53.6592 89.1239 53.703 88.9654 53.7904 88.8124C53.8779 88.6484 54.0254 88.5282 54.2331 88.4516C54.7359 88.244 55.2169 88.0964 55.676 88.0089C56.146 87.9215 56.5723 87.8778 56.9549 87.8778C57.7419 87.8778 58.3869 87.998 58.8897 88.2385C59.4034 88.479 59.786 88.8452 60.0374 89.337C60.2889 89.818 60.4146 90.4411 60.4146 91.2062V95.1414C60.4146 95.4802 60.3326 95.7426 60.1686 95.9284C60.0046 96.1033 59.7696 96.1907 59.4636 96.1907C59.1575 96.1907 58.917 96.1033 58.7421 95.9284C58.5782 95.7426 58.4962 95.4802 58.4962 95.1414V94.3543H58.6273C58.5508 94.7369 58.3978 95.0703 58.1683 95.3545C57.9496 95.6278 57.6709 95.841 57.332 95.994C56.9932 96.147 56.6051 96.2235 56.1679 96.2235ZM65.8252 96.1907C65.552 96.1907 65.3115 96.1197 65.1038 95.9776C64.907 95.8355 64.7431 95.6169 64.6119 95.3217L62.0049 89.2715C61.9065 89.031 61.8682 88.8069 61.8901 88.5992C61.9229 88.3915 62.0213 88.2276 62.1852 88.1073C62.3601 87.9761 62.5951 87.9106 62.8903 87.9106C63.1417 87.9106 63.3439 87.9707 63.497 88.0909C63.65 88.2002 63.7866 88.4134 63.9069 88.7304L66.1204 94.256H65.6285L67.9076 88.714C68.0278 88.4079 68.1645 88.2002 68.3175 88.0909C68.4815 87.9707 68.7001 87.9106 68.9733 87.9106C69.2138 87.9106 69.4051 87.9761 69.5472 88.1073C69.6893 88.2276 69.7768 88.3915 69.8096 88.5992C69.8424 88.796 69.8041 89.0146 69.6948 89.2551L67.0386 95.3217C66.9183 95.6169 66.7544 95.8355 66.5467 95.9776C66.3499 96.1197 66.1094 96.1907 65.8252 96.1907ZM75.1807 96.2235C74.2734 96.2235 73.4918 96.0541 72.836 95.7152C72.1801 95.3764 71.6718 94.8954 71.3111 94.2724C70.9613 93.6493 70.7864 92.9115 70.7864 92.0588C70.7864 91.2281 70.9559 90.5012 71.2947 89.8781C71.6445 89.2551 72.12 88.7686 72.7212 88.4188C73.3333 88.0581 74.0275 87.8778 74.8035 87.8778C75.372 87.8778 75.8802 87.9707 76.3284 88.1565C76.7875 88.3423 77.1756 88.6101 77.4926 88.9599C77.8205 89.3097 78.0664 89.736 78.2304 90.2388C78.4053 90.7307 78.4927 91.2882 78.4927 91.9113C78.4927 92.108 78.4217 92.2611 78.2796 92.3704C78.1484 92.4688 77.9571 92.5179 77.7057 92.5179H72.4425V91.3374H77.0499L76.7875 91.5834C76.7875 91.0805 76.711 90.6597 76.558 90.3208C76.4159 89.982 76.2027 89.7251 75.9185 89.5502C75.6452 89.3644 75.3009 89.2715 74.8855 89.2715C74.4264 89.2715 74.0329 89.3808 73.705 89.5994C73.388 89.8071 73.142 90.1077 72.9672 90.5012C72.8032 90.8838 72.7212 91.3429 72.7212 91.8785V91.9933C72.7212 92.8896 72.9289 93.5619 73.3443 94.01C73.7706 94.4473 74.3936 94.6659 75.2135 94.6659C75.4977 94.6659 75.8147 94.6331 76.1644 94.5675C76.5252 94.491 76.864 94.3653 77.181 94.1904C77.4106 94.0592 77.6128 94.0046 77.7877 94.0264C77.9626 94.0373 78.0992 94.0975 78.1976 94.2068C78.3069 94.3161 78.3725 94.4527 78.3944 94.6167C78.4162 94.7697 78.3834 94.9282 78.296 95.0922C78.2195 95.2561 78.0828 95.3982 77.8861 95.5185C77.5035 95.759 77.0608 95.9393 76.558 96.0596C76.0661 96.1689 75.607 96.2235 75.1807 96.2235ZM83.3623 96.2235C82.6628 96.2235 82.0452 96.0541 81.5095 95.7152C80.9849 95.3764 80.575 94.8954 80.2798 94.2724C79.9847 93.6384 79.8371 92.8951 79.8371 92.0425C79.8371 91.1789 79.9847 90.4411 80.2798 89.8289C80.575 89.2059 80.9849 88.7249 81.5095 88.3861C82.0452 88.0472 82.6628 87.8778 83.3623 87.8778C84.0291 87.8778 84.6085 88.0417 85.1004 88.3697C85.6032 88.6976 85.942 89.1294 86.1169 89.665H85.9366V85.4019C85.9366 85.0631 86.024 84.8062 86.1989 84.6313C86.3738 84.4564 86.6252 84.3689 86.9532 84.3689C87.2811 84.3689 87.5325 84.4564 87.7074 84.6313C87.8932 84.8062 87.9861 85.0631 87.9861 85.4019V95.1414C87.9861 95.4802 87.8987 95.7426 87.7238 95.9284C87.5489 96.1033 87.2975 96.1907 86.9695 96.1907C86.6416 96.1907 86.3902 96.1033 86.2153 95.9284C86.0404 95.7426 85.953 95.4802 85.953 95.1414V93.8625L86.1333 94.3543C85.9694 94.9228 85.636 95.3764 85.1331 95.7152C84.6303 96.0541 84.0401 96.2235 83.3623 96.2235ZM83.9362 94.6659C84.3407 94.6659 84.6959 94.5675 85.002 94.3707C85.308 94.174 85.5431 93.8843 85.707 93.5017C85.8819 93.1082 85.9694 92.6218 85.9694 92.0425C85.9694 91.168 85.7835 90.5176 85.4119 90.0913C85.0402 89.654 84.5483 89.4354 83.9362 89.4354C83.5318 89.4354 83.1765 89.5338 82.8704 89.7306C82.5644 89.9164 82.3239 90.2061 82.149 90.5996C81.985 90.9822 81.9031 91.4631 81.9031 92.0425C81.9031 92.906 82.0889 93.5619 82.4605 94.01C82.8322 94.4473 83.3241 94.6659 83.9362 94.6659Z" fill="white"/>
<path d="M129.53 52.126C128.55 52.126 127.71 51.9207 127.01 51.51C126.31 51.0993 125.769 50.516 125.386 49.76C125.013 48.9947 124.826 48.094 124.826 47.058C124.826 46.2833 124.933 45.588 125.148 44.972C125.363 44.3467 125.671 43.8147 126.072 43.376C126.473 42.928 126.963 42.5873 127.542 42.354C128.13 42.1207 128.793 42.004 129.53 42.004C130.09 42.004 130.627 42.0833 131.14 42.242C131.663 42.4007 132.111 42.6247 132.484 42.914C132.633 43.0167 132.731 43.1333 132.778 43.264C132.825 43.3947 132.829 43.5207 132.792 43.642C132.764 43.754 132.703 43.852 132.61 43.936C132.526 44.0107 132.419 44.0527 132.288 44.062C132.157 44.062 132.017 44.0107 131.868 43.908C131.541 43.656 131.182 43.474 130.79 43.362C130.407 43.2407 129.997 43.18 129.558 43.18C128.839 43.18 128.228 43.334 127.724 43.642C127.229 43.9407 126.851 44.3793 126.59 44.958C126.338 45.5273 126.212 46.2273 126.212 47.058C126.212 47.8793 126.338 48.584 126.59 49.172C126.851 49.7507 127.229 50.194 127.724 50.502C128.228 50.8007 128.839 50.95 129.558 50.95C129.997 50.95 130.412 50.8893 130.804 50.768C131.205 50.6467 131.574 50.46 131.91 50.208C132.059 50.1053 132.195 50.0587 132.316 50.068C132.447 50.0773 132.554 50.1193 132.638 50.194C132.722 50.2593 132.778 50.3527 132.806 50.474C132.843 50.586 132.843 50.7027 132.806 50.824C132.769 50.9453 132.685 51.0527 132.554 51.146C132.171 51.4727 131.714 51.72 131.182 51.888C130.659 52.0467 130.109 52.126 129.53 52.126ZM137.015 52.126C136.343 52.126 135.76 51.9813 135.265 51.692C134.77 51.4027 134.388 50.992 134.117 50.46C133.846 49.928 133.711 49.3027 133.711 48.584C133.711 48.0427 133.786 47.5573 133.935 47.128C134.094 46.6893 134.318 46.316 134.607 46.008C134.896 45.7 135.242 45.4667 135.643 45.308C136.054 45.14 136.511 45.056 137.015 45.056C137.687 45.056 138.27 45.2007 138.765 45.49C139.26 45.7793 139.642 46.19 139.913 46.722C140.184 47.2447 140.319 47.8653 140.319 48.584C140.319 49.1253 140.24 49.6153 140.081 50.054C139.932 50.4927 139.712 50.866 139.423 51.174C139.134 51.482 138.784 51.72 138.373 51.888C137.972 52.0467 137.519 52.126 137.015 52.126ZM137.015 51.118C137.426 51.118 137.78 51.02 138.079 50.824C138.387 50.628 138.62 50.3433 138.779 49.97C138.947 49.5967 139.031 49.1347 139.031 48.584C139.031 47.7627 138.849 47.1373 138.485 46.708C138.121 46.2787 137.631 46.064 137.015 46.064C136.614 46.064 136.259 46.162 135.951 46.358C135.652 46.5447 135.419 46.8247 135.251 47.198C135.083 47.5713 134.999 48.0333 134.999 48.584C134.999 49.4053 135.181 50.0353 135.545 50.474C135.918 50.9033 136.408 51.118 137.015 51.118ZM142.721 52.098C142.525 52.098 142.371 52.042 142.259 51.93C142.147 51.818 142.091 51.6547 142.091 51.44V45.728C142.091 45.5133 142.147 45.3547 142.259 45.252C142.371 45.14 142.525 45.084 142.721 45.084C142.917 45.084 143.066 45.14 143.169 45.252C143.281 45.3547 143.337 45.5133 143.337 45.728V46.876L143.183 46.666C143.379 46.134 143.696 45.7327 144.135 45.462C144.583 45.1913 145.092 45.056 145.661 45.056C146.212 45.056 146.664 45.154 147.019 45.35C147.374 45.546 147.64 45.8447 147.817 46.246C147.994 46.6473 148.083 47.156 148.083 47.772V51.44C148.083 51.6547 148.027 51.818 147.915 51.93C147.812 52.042 147.658 52.098 147.453 52.098C147.248 52.098 147.089 52.042 146.977 51.93C146.865 51.818 146.809 51.6547 146.809 51.44V47.842C146.809 47.2353 146.692 46.792 146.459 46.512C146.226 46.232 145.852 46.092 145.339 46.092C144.742 46.092 144.261 46.2787 143.897 46.652C143.542 47.016 143.365 47.5107 143.365 48.136V51.44C143.365 51.8787 143.15 52.098 142.721 52.098ZM153.071 52.126C152.52 52.126 152.058 52.028 151.685 51.832C151.321 51.636 151.045 51.3513 150.859 50.978C150.681 50.6047 150.593 50.1473 150.593 49.606V46.162H149.697C149.529 46.162 149.398 46.12 149.305 46.036C149.211 45.9427 149.165 45.8213 149.165 45.672C149.165 45.5133 149.211 45.392 149.305 45.308C149.398 45.224 149.529 45.182 149.697 45.182H150.593V43.656C150.593 43.4413 150.649 43.2827 150.761 43.18C150.873 43.068 151.031 43.012 151.237 43.012C151.442 43.012 151.596 43.068 151.699 43.18C151.811 43.2827 151.867 43.4413 151.867 43.656V45.182H153.561C153.738 45.182 153.873 45.224 153.967 45.308C154.06 45.392 154.107 45.5133 154.107 45.672C154.107 45.8213 154.06 45.9427 153.967 46.036C153.873 46.12 153.738 46.162 153.561 46.162H151.867V49.494C151.867 50.0073 151.974 50.3947 152.189 50.656C152.403 50.9173 152.758 51.048 153.253 51.048C153.43 51.048 153.579 51.034 153.701 51.006C153.822 50.9687 153.929 50.95 154.023 50.95C154.107 50.9407 154.177 50.9687 154.233 51.034C154.298 51.0993 154.331 51.2207 154.331 51.398C154.331 51.5287 154.307 51.65 154.261 51.762C154.223 51.8647 154.144 51.9347 154.023 51.972C153.911 52.0093 153.761 52.042 153.575 52.07C153.388 52.1073 153.22 52.126 153.071 52.126ZM156.14 52.07C155.944 52.07 155.79 52.0093 155.678 51.888C155.566 51.7667 155.51 51.5987 155.51 51.384V45.798C155.51 45.574 155.566 45.406 155.678 45.294C155.79 45.1727 155.944 45.112 156.14 45.112C156.345 45.112 156.504 45.1727 156.616 45.294C156.728 45.406 156.784 45.574 156.784 45.798V51.384C156.784 51.5987 156.728 51.7667 156.616 51.888C156.513 52.0093 156.354 52.07 156.14 52.07ZM156.14 43.6C155.888 43.6 155.687 43.5347 155.538 43.404C155.398 43.264 155.328 43.082 155.328 42.858C155.328 42.6153 155.398 42.4333 155.538 42.312C155.687 42.1813 155.888 42.116 156.14 42.116C156.41 42.116 156.611 42.1813 156.742 42.312C156.882 42.4333 156.952 42.6153 156.952 42.858C156.952 43.082 156.882 43.264 156.742 43.404C156.611 43.5347 156.41 43.6 156.14 43.6ZM159.602 52.098C159.406 52.098 159.252 52.042 159.14 51.93C159.028 51.818 158.972 51.6547 158.972 51.44V45.728C158.972 45.5133 159.028 45.3547 159.14 45.252C159.252 45.14 159.406 45.084 159.602 45.084C159.798 45.084 159.947 45.14 160.05 45.252C160.162 45.3547 160.218 45.5133 160.218 45.728V46.876L160.064 46.666C160.26 46.134 160.577 45.7327 161.016 45.462C161.464 45.1913 161.973 45.056 162.542 45.056C163.093 45.056 163.545 45.154 163.9 45.35C164.255 45.546 164.521 45.8447 164.698 46.246C164.875 46.6473 164.964 47.156 164.964 47.772V51.44C164.964 51.6547 164.908 51.818 164.796 51.93C164.693 52.042 164.539 52.098 164.334 52.098C164.129 52.098 163.97 52.042 163.858 51.93C163.746 51.818 163.69 51.6547 163.69 51.44V47.842C163.69 47.2353 163.573 46.792 163.34 46.512C163.107 46.232 162.733 46.092 162.22 46.092C161.623 46.092 161.142 46.2787 160.778 46.652C160.423 47.016 160.246 47.5107 160.246 48.136V51.44C160.246 51.8787 160.031 52.098 159.602 52.098ZM169.56 52.126C169.009 52.126 168.547 52.0233 168.174 51.818C167.81 51.6127 167.539 51.3093 167.362 50.908C167.184 50.5067 167.096 50.0027 167.096 49.396V45.728C167.096 45.5133 167.147 45.3547 167.25 45.252C167.362 45.14 167.52 45.084 167.726 45.084C167.931 45.084 168.09 45.14 168.202 45.252C168.314 45.3547 168.37 45.5133 168.37 45.728V49.396C168.37 49.9747 168.486 50.404 168.72 50.684C168.953 50.9547 169.322 51.09 169.826 51.09C170.386 51.09 170.838 50.9033 171.184 50.53C171.538 50.1567 171.716 49.662 171.716 49.046V45.728C171.716 45.5133 171.767 45.3547 171.87 45.252C171.982 45.14 172.14 45.084 172.346 45.084C172.551 45.084 172.71 45.14 172.822 45.252C172.934 45.3547 172.99 45.5133 172.99 45.728V51.44C172.99 51.8787 172.784 52.098 172.374 52.098C172.168 52.098 172.01 52.042 171.898 51.93C171.795 51.818 171.744 51.6547 171.744 51.44V50.222L171.926 50.46C171.739 51.0013 171.436 51.4167 171.016 51.706C170.605 51.986 170.12 52.126 169.56 52.126ZM178.33 52.126C177.592 52.126 176.958 51.986 176.426 51.706C175.903 51.4167 175.497 51.0107 175.208 50.488C174.918 49.956 174.774 49.3307 174.774 48.612C174.774 47.9027 174.914 47.282 175.194 46.75C175.483 46.218 175.875 45.8027 176.37 45.504C176.874 45.2053 177.448 45.056 178.092 45.056C178.549 45.056 178.96 45.1353 179.324 45.294C179.697 45.4433 180.014 45.6627 180.276 45.952C180.537 46.2413 180.733 46.596 180.864 47.016C181.004 47.4267 181.074 47.8933 181.074 48.416C181.074 48.5653 181.027 48.682 180.934 48.766C180.85 48.8407 180.724 48.878 180.556 48.878H175.768V48.066H180.234L179.996 48.262C179.996 47.7767 179.921 47.366 179.772 47.03C179.632 46.6847 179.422 46.4233 179.142 46.246C178.871 46.0687 178.53 45.98 178.12 45.98C177.672 45.98 177.289 46.0873 176.972 46.302C176.654 46.5073 176.412 46.8013 176.244 47.184C176.076 47.5573 175.992 47.9913 175.992 48.486V48.57C175.992 49.41 176.192 50.0447 176.594 50.474C176.995 50.9033 177.574 51.118 178.33 51.118C178.628 51.118 178.932 51.0807 179.24 51.006C179.557 50.9313 179.86 50.796 180.15 50.6C180.29 50.516 180.416 50.4787 180.528 50.488C180.649 50.488 180.747 50.5253 180.822 50.6C180.896 50.6653 180.943 50.7493 180.962 50.852C180.98 50.9453 180.966 51.048 180.92 51.16C180.873 51.272 180.784 51.37 180.654 51.454C180.346 51.6687 179.977 51.8367 179.548 51.958C179.128 52.07 178.722 52.126 178.33 52.126ZM189.011 52.098C188.833 52.098 188.679 52.056 188.549 51.972C188.418 51.8787 188.315 51.7293 188.241 51.524L186.155 45.966C186.089 45.7887 186.071 45.6347 186.099 45.504C186.127 45.3733 186.192 45.2707 186.295 45.196C186.397 45.1213 186.533 45.084 186.701 45.084C186.859 45.084 186.985 45.1213 187.079 45.196C187.172 45.2707 187.251 45.406 187.317 45.602L189.221 50.978H188.885L190.845 45.574C190.91 45.406 190.994 45.2847 191.097 45.21C191.209 45.126 191.344 45.084 191.503 45.084C191.671 45.084 191.811 45.126 191.923 45.21C192.035 45.2847 192.114 45.406 192.161 45.574L194.093 50.978H193.771L195.703 45.574C195.768 45.3873 195.852 45.2613 195.955 45.196C196.057 45.1213 196.183 45.084 196.333 45.084C196.501 45.084 196.627 45.126 196.711 45.21C196.795 45.294 196.841 45.406 196.851 45.546C196.869 45.6767 196.851 45.8167 196.795 45.966L194.709 51.524C194.643 51.72 194.541 51.8647 194.401 51.958C194.27 52.0513 194.116 52.098 193.939 52.098C193.761 52.098 193.603 52.0513 193.463 51.958C193.332 51.8647 193.229 51.72 193.155 51.524L191.153 46.036H191.797L189.795 51.524C189.72 51.72 189.617 51.8647 189.487 51.958C189.356 52.0513 189.197 52.098 189.011 52.098ZM201.33 52.126C200.658 52.126 200.074 51.9813 199.58 51.692C199.085 51.4027 198.702 50.992 198.432 50.46C198.161 49.928 198.026 49.3027 198.026 48.584C198.026 48.0427 198.1 47.5573 198.25 47.128C198.408 46.6893 198.632 46.316 198.922 46.008C199.211 45.7 199.556 45.4667 199.958 45.308C200.368 45.14 200.826 45.056 201.33 45.056C202.002 45.056 202.585 45.2007 203.08 45.49C203.574 45.7793 203.957 46.19 204.228 46.722C204.498 47.2447 204.634 47.8653 204.634 48.584C204.634 49.1253 204.554 49.6153 204.396 50.054C204.246 50.4927 204.027 50.866 203.738 51.174C203.448 51.482 203.098 51.72 202.688 51.888C202.286 52.0467 201.834 52.126 201.33 52.126ZM201.33 51.118C201.74 51.118 202.095 51.02 202.394 50.824C202.702 50.628 202.935 50.3433 203.094 49.97C203.262 49.5967 203.346 49.1347 203.346 48.584C203.346 47.7627 203.164 47.1373 202.8 46.708C202.436 46.2787 201.946 46.064 201.33 46.064C200.928 46.064 200.574 46.162 200.266 46.358C199.967 46.5447 199.734 46.8247 199.566 47.198C199.398 47.5713 199.314 48.0333 199.314 48.584C199.314 49.4053 199.496 50.0353 199.86 50.474C200.233 50.9033 200.723 51.118 201.33 51.118ZM207.064 52.098C206.849 52.098 206.686 52.042 206.574 51.93C206.462 51.818 206.406 51.6547 206.406 51.44V45.728C206.406 45.5133 206.462 45.3547 206.574 45.252C206.686 45.14 206.84 45.084 207.036 45.084C207.232 45.084 207.381 45.14 207.484 45.252C207.596 45.3547 207.652 45.5133 207.652 45.728V46.806H207.512C207.661 46.246 207.941 45.8213 208.352 45.532C208.762 45.2427 209.28 45.0793 209.906 45.042C210.055 45.0327 210.176 45.07 210.27 45.154C210.363 45.2287 210.414 45.3593 210.424 45.546C210.433 45.7233 210.391 45.868 210.298 45.98C210.204 46.0827 210.06 46.1433 209.864 46.162L209.612 46.176C208.996 46.2413 208.52 46.442 208.184 46.778C207.857 47.114 207.694 47.576 207.694 48.164V51.44C207.694 51.6547 207.638 51.818 207.526 51.93C207.423 52.042 207.269 52.098 207.064 52.098ZM212.289 52.098C212.093 52.098 211.939 52.042 211.827 51.93C211.715 51.818 211.659 51.6547 211.659 51.44V42.676C211.659 42.4613 211.715 42.3027 211.827 42.2C211.939 42.088 212.093 42.032 212.289 42.032C212.494 42.032 212.653 42.088 212.765 42.2C212.877 42.3027 212.933 42.4613 212.933 42.676V48.192H212.961L215.705 45.518C215.845 45.378 215.971 45.2707 216.083 45.196C216.195 45.1213 216.34 45.084 216.517 45.084C216.694 45.084 216.83 45.1307 216.923 45.224C217.016 45.308 217.063 45.42 217.063 45.56C217.063 45.6907 216.998 45.8213 216.867 45.952L213.955 48.78V48.15L217.133 51.216C217.264 51.3467 217.324 51.482 217.315 51.622C217.315 51.762 217.264 51.8787 217.161 51.972C217.068 52.056 216.942 52.098 216.783 52.098C216.596 52.098 216.442 52.0607 216.321 51.986C216.209 51.9113 216.078 51.7947 215.929 51.636L212.961 48.836H212.933V51.44C212.933 51.8787 212.718 52.098 212.289 52.098ZM219.538 52.07C219.342 52.07 219.188 52.0093 219.076 51.888C218.964 51.7667 218.908 51.5987 218.908 51.384V45.798C218.908 45.574 218.964 45.406 219.076 45.294C219.188 45.1727 219.342 45.112 219.538 45.112C219.744 45.112 219.902 45.1727 220.014 45.294C220.126 45.406 220.182 45.574 220.182 45.798V51.384C220.182 51.5987 220.126 51.7667 220.014 51.888C219.912 52.0093 219.753 52.07 219.538 52.07ZM219.538 43.6C219.286 43.6 219.086 43.5347 218.936 43.404C218.796 43.264 218.726 43.082 218.726 42.858C218.726 42.6153 218.796 42.4333 218.936 42.312C219.086 42.1813 219.286 42.116 219.538 42.116C219.809 42.116 220.01 42.1813 220.14 42.312C220.28 42.4333 220.35 42.6153 220.35 42.858C220.35 43.082 220.28 43.264 220.14 43.404C220.01 43.5347 219.809 43.6 219.538 43.6ZM223.001 52.098C222.805 52.098 222.651 52.042 222.539 51.93C222.427 51.818 222.371 51.6547 222.371 51.44V45.728C222.371 45.5133 222.427 45.3547 222.539 45.252C222.651 45.14 222.805 45.084 223.001 45.084C223.197 45.084 223.346 45.14 223.449 45.252C223.561 45.3547 223.617 45.5133 223.617 45.728V46.876L223.463 46.666C223.659 46.134 223.976 45.7327 224.415 45.462C224.863 45.1913 225.371 45.056 225.941 45.056C226.491 45.056 226.944 45.154 227.299 45.35C227.653 45.546 227.919 45.8447 228.097 46.246C228.274 46.6473 228.363 47.156 228.363 47.772V51.44C228.363 51.6547 228.307 51.818 228.195 51.93C228.092 52.042 227.938 52.098 227.733 52.098C227.527 52.098 227.369 52.042 227.257 51.93C227.145 51.818 227.089 51.6547 227.089 51.44V47.842C227.089 47.2353 226.972 46.792 226.739 46.512C226.505 46.232 226.132 46.092 225.619 46.092C225.021 46.092 224.541 46.2787 224.177 46.652C223.822 47.016 223.645 47.5107 223.645 48.136V51.44C223.645 51.8787 223.43 52.098 223.001 52.098ZM233.588 54.646C233.084 54.646 232.594 54.59 232.118 54.478C231.652 54.366 231.227 54.1933 230.844 53.96C230.723 53.8853 230.639 53.7967 230.592 53.694C230.555 53.6007 230.546 53.5027 230.564 53.4C230.592 53.2973 230.639 53.204 230.704 53.12C230.779 53.0453 230.863 52.994 230.956 52.966C231.059 52.9473 231.162 52.9707 231.264 53.036C231.675 53.2693 232.067 53.428 232.44 53.512C232.814 53.596 233.168 53.638 233.504 53.638C234.167 53.638 234.662 53.4653 234.988 53.12C235.324 52.784 235.492 52.2893 235.492 51.636V50.124H235.618C235.488 50.6467 235.194 51.062 234.736 51.37C234.288 51.678 233.766 51.832 233.168 51.832C232.552 51.832 232.016 51.692 231.558 51.412C231.101 51.1227 230.746 50.726 230.494 50.222C230.242 49.7087 230.116 49.116 230.116 48.444C230.116 47.9307 230.186 47.4687 230.326 47.058C230.476 46.638 230.681 46.2833 230.942 45.994C231.213 45.6953 231.535 45.4667 231.908 45.308C232.282 45.14 232.702 45.056 233.168 45.056C233.775 45.056 234.302 45.21 234.75 45.518C235.198 45.826 235.488 46.2413 235.618 46.764L235.464 46.96V45.728C235.464 45.5133 235.52 45.3547 235.632 45.252C235.744 45.14 235.903 45.084 236.108 45.084C236.304 45.084 236.458 45.14 236.57 45.252C236.682 45.3547 236.738 45.5133 236.738 45.728V51.468C236.738 52.5227 236.468 53.316 235.926 53.848C235.394 54.38 234.615 54.646 233.588 54.646ZM233.448 50.824C233.868 50.824 234.228 50.7307 234.526 50.544C234.834 50.348 235.068 50.0727 235.226 49.718C235.394 49.354 235.478 48.9293 235.478 48.444C235.478 47.7067 235.296 47.128 234.932 46.708C234.568 46.2787 234.074 46.064 233.448 46.064C233.028 46.064 232.664 46.162 232.356 46.358C232.058 46.5447 231.824 46.8153 231.656 47.17C231.488 47.5247 231.404 47.9493 231.404 48.444C231.404 49.172 231.586 49.7507 231.95 50.18C232.324 50.6093 232.823 50.824 233.448 50.824ZM239.536 52.056C239.294 52.056 239.093 51.9767 238.934 51.818C238.776 51.6593 238.696 51.4587 238.696 51.216C238.696 50.9733 238.776 50.7773 238.934 50.628C239.093 50.4787 239.294 50.404 239.536 50.404C239.798 50.404 239.998 50.4787 240.138 50.628C240.288 50.7773 240.362 50.9733 240.362 51.216C240.362 51.4587 240.288 51.6593 240.138 51.818C239.998 51.9767 239.798 52.056 239.536 52.056ZM129.404 71.126C128.471 71.126 127.663 70.9207 126.982 70.51C126.301 70.09 125.769 69.502 125.386 68.746C125.013 67.9807 124.826 67.0847 124.826 66.058C124.826 65.2833 124.933 64.588 125.148 63.972C125.363 63.3467 125.666 62.8147 126.058 62.376C126.459 61.928 126.94 61.5873 127.5 61.354C128.069 61.1207 128.704 61.004 129.404 61.004C130.337 61.004 131.145 61.2093 131.826 61.62C132.507 62.0307 133.035 62.614 133.408 63.37C133.781 64.126 133.968 65.0173 133.968 66.044C133.968 66.8187 133.861 67.5187 133.646 68.144C133.431 68.7693 133.123 69.306 132.722 69.754C132.33 70.202 131.854 70.5427 131.294 70.776C130.734 71.0093 130.104 71.126 129.404 71.126ZM129.404 69.978C130.076 69.978 130.65 69.824 131.126 69.516C131.602 69.208 131.966 68.76 132.218 68.172C132.479 67.584 132.61 66.8793 132.61 66.058C132.61 64.8167 132.33 63.8553 131.77 63.174C131.219 62.4927 130.431 62.152 129.404 62.152C128.732 62.152 128.153 62.306 127.668 62.614C127.192 62.9127 126.828 63.356 126.576 63.944C126.324 64.5227 126.198 65.2273 126.198 66.058C126.198 67.29 126.478 68.2513 127.038 68.942C127.598 69.6327 128.387 69.978 129.404 69.978ZM136.593 73.618C136.397 73.618 136.243 73.562 136.131 73.45C136.019 73.338 135.963 73.1793 135.963 72.974V64.728C135.963 64.5133 136.019 64.3547 136.131 64.252C136.243 64.14 136.397 64.084 136.593 64.084C136.798 64.084 136.952 64.14 137.055 64.252C137.167 64.3547 137.223 64.5133 137.223 64.728V66.002L137.069 65.75C137.218 65.2367 137.512 64.826 137.951 64.518C138.389 64.21 138.917 64.056 139.533 64.056C140.139 64.056 140.667 64.2007 141.115 64.49C141.563 64.77 141.913 65.176 142.165 65.708C142.417 66.2307 142.543 66.856 142.543 67.584C142.543 68.3027 142.417 68.9327 142.165 69.474C141.922 70.006 141.572 70.4167 141.115 70.706C140.667 70.986 140.139 71.126 139.533 71.126C138.926 71.126 138.403 70.972 137.965 70.664C137.526 70.356 137.232 69.95 137.083 69.446H137.237V72.974C137.237 73.1793 137.181 73.338 137.069 73.45C136.957 73.562 136.798 73.618 136.593 73.618ZM139.239 70.118C139.64 70.118 139.99 70.02 140.289 69.824C140.597 69.628 140.835 69.3433 141.003 68.97C141.171 68.5967 141.255 68.1347 141.255 67.584C141.255 66.7627 141.073 66.1373 140.709 65.708C140.345 65.2787 139.855 65.064 139.239 65.064C138.828 65.064 138.469 65.162 138.161 65.358C137.862 65.5447 137.629 65.8247 137.461 66.198C137.302 66.5713 137.223 67.0333 137.223 67.584C137.223 68.4053 137.405 69.0353 137.769 69.474C138.133 69.9033 138.623 70.118 139.239 70.118ZM147.47 71.126C146.732 71.126 146.098 70.986 145.566 70.706C145.043 70.4167 144.637 70.0107 144.348 69.488C144.058 68.956 143.914 68.3307 143.914 67.612C143.914 66.9027 144.054 66.282 144.334 65.75C144.623 65.218 145.015 64.8027 145.51 64.504C146.014 64.2053 146.588 64.056 147.232 64.056C147.689 64.056 148.1 64.1353 148.464 64.294C148.837 64.4433 149.154 64.6627 149.416 64.952C149.677 65.2413 149.873 65.596 150.004 66.016C150.144 66.4267 150.214 66.8933 150.214 67.416C150.214 67.5653 150.167 67.682 150.074 67.766C149.99 67.8407 149.864 67.878 149.696 67.878H144.908V67.066H149.374L149.136 67.262C149.136 66.7767 149.061 66.366 148.912 66.03C148.772 65.6847 148.562 65.4233 148.282 65.246C148.011 65.0687 147.67 64.98 147.26 64.98C146.812 64.98 146.429 65.0873 146.112 65.302C145.794 65.5073 145.552 65.8013 145.384 66.184C145.216 66.5573 145.132 66.9913 145.132 67.486V67.57C145.132 68.41 145.332 69.0447 145.734 69.474C146.135 69.9033 146.714 70.118 147.47 70.118C147.768 70.118 148.072 70.0807 148.38 70.006C148.697 69.9313 149 69.796 149.29 69.6C149.43 69.516 149.556 69.4787 149.668 69.488C149.789 69.488 149.887 69.5253 149.962 69.6C150.036 69.6653 150.083 69.7493 150.102 69.852C150.12 69.9453 150.106 70.048 150.06 70.16C150.013 70.272 149.924 70.37 149.794 70.454C149.486 70.6687 149.117 70.8367 148.688 70.958C148.268 71.07 147.862 71.126 147.47 71.126ZM152.568 71.098C152.372 71.098 152.218 71.042 152.106 70.93C151.994 70.818 151.938 70.6547 151.938 70.44V64.728C151.938 64.5133 151.994 64.3547 152.106 64.252C152.218 64.14 152.372 64.084 152.568 64.084C152.764 64.084 152.913 64.14 153.016 64.252C153.128 64.3547 153.184 64.5133 153.184 64.728V65.876L153.03 65.666C153.226 65.134 153.543 64.7327 153.982 64.462C154.43 64.1913 154.939 64.056 155.508 64.056C156.059 64.056 156.511 64.154 156.866 64.35C157.221 64.546 157.487 64.8447 157.664 65.246C157.841 65.6473 157.93 66.156 157.93 66.772V70.44C157.93 70.6547 157.874 70.818 157.762 70.93C157.659 71.042 157.505 71.098 157.3 71.098C157.095 71.098 156.936 71.042 156.824 70.93C156.712 70.818 156.656 70.6547 156.656 70.44V66.842C156.656 66.2353 156.539 65.792 156.306 65.512C156.073 65.232 155.699 65.092 155.186 65.092C154.589 65.092 154.108 65.2787 153.744 65.652C153.389 66.016 153.212 66.5107 153.212 67.136V70.44C153.212 70.8787 152.997 71.098 152.568 71.098ZM166.05 71.126C165.584 71.126 165.159 71.0327 164.776 70.846C164.403 70.6593 164.109 70.4073 163.894 70.09C163.689 69.7727 163.586 69.418 163.586 69.026C163.586 68.522 163.712 68.1253 163.964 67.836C164.216 67.5467 164.641 67.3413 165.238 67.22C165.836 67.0893 166.638 67.024 167.646 67.024H168.304V67.836H167.674C166.956 67.836 166.386 67.8687 165.966 67.934C165.556 67.9993 165.266 68.116 165.098 68.284C164.93 68.4427 164.846 68.6667 164.846 68.956C164.846 69.32 164.972 69.6187 165.224 69.852C165.486 70.0853 165.84 70.202 166.288 70.202C166.643 70.202 166.956 70.118 167.226 69.95C167.497 69.7727 167.712 69.5393 167.87 69.25C168.029 68.9513 168.108 68.6107 168.108 68.228V66.618C168.108 66.0673 167.996 65.6707 167.772 65.428C167.548 65.176 167.17 65.05 166.638 65.05C166.33 65.05 166.013 65.092 165.686 65.176C165.36 65.26 165.019 65.3907 164.664 65.568C164.524 65.6333 164.403 65.6567 164.3 65.638C164.198 65.61 164.114 65.554 164.048 65.47C163.992 65.3767 163.96 65.2787 163.95 65.176C163.95 65.064 163.974 64.9567 164.02 64.854C164.076 64.7513 164.17 64.6767 164.3 64.63C164.711 64.4247 165.117 64.28 165.518 64.196C165.929 64.1027 166.312 64.056 166.666 64.056C167.273 64.056 167.772 64.154 168.164 64.35C168.556 64.5367 168.85 64.8307 169.046 65.232C169.242 65.624 169.34 66.128 169.34 66.744V70.44C169.34 70.6547 169.289 70.818 169.186 70.93C169.084 71.042 168.934 71.098 168.738 71.098C168.552 71.098 168.402 71.042 168.29 70.93C168.188 70.818 168.136 70.6547 168.136 70.44V69.446H168.262C168.188 69.7913 168.048 70.09 167.842 70.342C167.637 70.594 167.38 70.79 167.072 70.93C166.774 71.0607 166.433 71.126 166.05 71.126ZM177.627 71.126C177.207 71.126 176.783 71.0793 176.353 70.986C175.933 70.8833 175.537 70.7107 175.163 70.468C175.061 70.4027 174.986 70.3233 174.939 70.23C174.902 70.1273 174.888 70.0293 174.897 69.936C174.916 69.8333 174.958 69.7447 175.023 69.67C175.089 69.5953 175.168 69.5533 175.261 69.544C175.364 69.5253 175.471 69.5487 175.583 69.614C175.947 69.8193 176.297 69.964 176.633 70.048C176.979 70.132 177.319 70.174 177.655 70.174C178.169 70.174 178.556 70.0807 178.817 69.894C179.079 69.7073 179.209 69.46 179.209 69.152C179.209 68.8907 179.121 68.69 178.943 68.55C178.775 68.4007 178.509 68.2887 178.145 68.214L176.843 67.948C176.265 67.8173 175.826 67.6027 175.527 67.304C175.238 66.996 175.093 66.604 175.093 66.128C175.093 65.708 175.205 65.344 175.429 65.036C175.663 64.7187 175.985 64.476 176.395 64.308C176.806 64.14 177.277 64.056 177.809 64.056C178.22 64.056 178.607 64.112 178.971 64.224C179.345 64.3267 179.681 64.4853 179.979 64.7C180.091 64.7653 180.161 64.8493 180.189 64.952C180.227 65.0453 180.231 65.1433 180.203 65.246C180.185 65.3393 180.143 65.4187 180.077 65.484C180.012 65.5493 179.928 65.5913 179.825 65.61C179.723 65.6193 179.611 65.5913 179.489 65.526C179.219 65.3393 178.939 65.2087 178.649 65.134C178.369 65.05 178.089 65.008 177.809 65.008C177.305 65.008 176.923 65.106 176.661 65.302C176.409 65.498 176.283 65.7547 176.283 66.072C176.283 66.3147 176.358 66.5153 176.507 66.674C176.666 66.8327 176.913 66.9493 177.249 67.024L178.551 67.29C179.158 67.4207 179.615 67.6307 179.923 67.92C180.231 68.2 180.385 68.5827 180.385 69.068C180.385 69.7027 180.133 70.2067 179.629 70.58C179.135 70.944 178.467 71.126 177.627 71.126ZM184.353 71.126C183.886 71.126 183.462 71.0327 183.079 70.846C182.706 70.6593 182.412 70.4073 182.197 70.09C181.992 69.7727 181.889 69.418 181.889 69.026C181.889 68.522 182.015 68.1253 182.267 67.836C182.519 67.5467 182.944 67.3413 183.541 67.22C184.138 67.0893 184.941 67.024 185.949 67.024H186.607V67.836H185.977C185.258 67.836 184.689 67.8687 184.269 67.934C183.858 67.9993 183.569 68.116 183.401 68.284C183.233 68.4427 183.149 68.6667 183.149 68.956C183.149 69.32 183.275 69.6187 183.527 69.852C183.788 70.0853 184.143 70.202 184.591 70.202C184.946 70.202 185.258 70.118 185.529 69.95C185.8 69.7727 186.014 69.5393 186.173 69.25C186.332 68.9513 186.411 68.6107 186.411 68.228V66.618C186.411 66.0673 186.299 65.6707 186.075 65.428C185.851 65.176 185.473 65.05 184.941 65.05C184.633 65.05 184.316 65.092 183.989 65.176C183.662 65.26 183.322 65.3907 182.967 65.568C182.827 65.6333 182.706 65.6567 182.603 65.638C182.5 65.61 182.416 65.554 182.351 65.47C182.295 65.3767 182.262 65.2787 182.253 65.176C182.253 65.064 182.276 64.9567 182.323 64.854C182.379 64.7513 182.472 64.6767 182.603 64.63C183.014 64.4247 183.42 64.28 183.821 64.196C184.232 64.1027 184.614 64.056 184.969 64.056C185.576 64.056 186.075 64.154 186.467 64.35C186.859 64.5367 187.153 64.8307 187.349 65.232C187.545 65.624 187.643 66.128 187.643 66.744V70.44C187.643 70.6547 187.592 70.818 187.489 70.93C187.386 71.042 187.237 71.098 187.041 71.098C186.854 71.098 186.705 71.042 186.593 70.93C186.49 70.818 186.439 70.6547 186.439 70.44V69.446H186.565C186.49 69.7913 186.35 70.09 186.145 70.342C185.94 70.594 185.683 70.79 185.375 70.93C185.076 71.0607 184.736 71.126 184.353 71.126ZM192.31 71.098C192.132 71.098 191.978 71.0513 191.848 70.958C191.717 70.8647 191.605 70.7153 191.512 70.51L189.132 64.966C189.066 64.8073 189.043 64.6627 189.062 64.532C189.08 64.4013 189.141 64.294 189.244 64.21C189.356 64.126 189.505 64.084 189.692 64.084C189.85 64.084 189.976 64.1213 190.07 64.196C190.163 64.2707 190.252 64.4013 190.336 64.588L192.534 70.006H192.142L194.396 64.588C194.47 64.4013 194.554 64.2707 194.648 64.196C194.75 64.1213 194.89 64.084 195.068 64.084C195.226 64.084 195.348 64.126 195.432 64.21C195.525 64.294 195.581 64.4013 195.6 64.532C195.618 64.6627 195.59 64.8027 195.516 64.952L193.122 70.51C193.038 70.7153 192.926 70.8647 192.786 70.958C192.655 71.0513 192.496 71.098 192.31 71.098ZM200.146 71.126C199.409 71.126 198.774 70.986 198.242 70.706C197.72 70.4167 197.314 70.0107 197.024 69.488C196.735 68.956 196.59 68.3307 196.59 67.612C196.59 66.9027 196.73 66.282 197.01 65.75C197.3 65.218 197.692 64.8027 198.186 64.504C198.69 64.2053 199.264 64.056 199.908 64.056C200.366 64.056 200.776 64.1353 201.14 64.294C201.514 64.4433 201.831 64.6627 202.092 64.952C202.354 65.2413 202.55 65.596 202.68 66.016C202.82 66.4267 202.89 66.8933 202.89 67.416C202.89 67.5653 202.844 67.682 202.75 67.766C202.666 67.8407 202.54 67.878 202.372 67.878H197.584V67.066H202.05L201.812 67.262C201.812 66.7767 201.738 66.366 201.588 66.03C201.448 65.6847 201.238 65.4233 200.958 65.246C200.688 65.0687 200.347 64.98 199.936 64.98C199.488 64.98 199.106 65.0873 198.788 65.302C198.471 65.5073 198.228 65.8013 198.06 66.184C197.892 66.5573 197.808 66.9913 197.808 67.486V67.57C197.808 68.41 198.009 69.0447 198.41 69.474C198.812 69.9033 199.39 70.118 200.146 70.118C200.445 70.118 200.748 70.0807 201.056 70.006C201.374 69.9313 201.677 69.796 201.966 69.6C202.106 69.516 202.232 69.4787 202.344 69.488C202.466 69.488 202.564 69.5253 202.638 69.6C202.713 69.6653 202.76 69.7493 202.778 69.852C202.797 69.9453 202.783 70.048 202.736 70.16C202.69 70.272 202.601 70.37 202.47 70.454C202.162 70.6687 201.794 70.8367 201.364 70.958C200.944 71.07 200.538 71.126 200.146 71.126ZM207.219 71.126C206.621 71.126 206.094 70.986 205.637 70.706C205.189 70.4167 204.839 70.006 204.587 69.474C204.335 68.9327 204.209 68.3027 204.209 67.584C204.209 66.856 204.33 66.2307 204.573 65.708C204.825 65.176 205.175 64.77 205.623 64.49C206.08 64.2007 206.612 64.056 207.219 64.056C207.825 64.056 208.348 64.21 208.787 64.518C209.225 64.8167 209.519 65.218 209.669 65.722H209.515V61.676C209.515 61.4613 209.566 61.3027 209.669 61.2C209.781 61.088 209.939 61.032 210.145 61.032C210.35 61.032 210.509 61.088 210.621 61.2C210.733 61.3027 210.789 61.4613 210.789 61.676V70.44C210.789 70.6547 210.733 70.818 210.621 70.93C210.509 71.042 210.35 71.098 210.145 71.098C209.949 71.098 209.795 71.042 209.683 70.93C209.571 70.818 209.515 70.6547 209.515 70.44V69.166L209.669 69.418C209.529 69.9407 209.235 70.356 208.787 70.664C208.348 70.972 207.825 71.126 207.219 71.126ZM207.513 70.118C207.923 70.118 208.278 70.02 208.577 69.824C208.885 69.628 209.118 69.3433 209.277 68.97C209.445 68.5967 209.529 68.1347 209.529 67.584C209.529 66.7627 209.347 66.1373 208.983 65.708C208.619 65.2787 208.129 65.064 207.513 65.064C207.111 65.064 206.757 65.162 206.449 65.358C206.15 65.5447 205.917 65.8247 205.749 66.198C205.581 66.5713 205.497 67.0333 205.497 67.584C205.497 68.4053 205.679 69.0353 206.043 69.474C206.416 69.9033 206.906 70.118 207.513 70.118ZM128.592 90.126C127.976 90.126 127.449 89.972 127.01 89.664C126.571 89.356 126.277 88.9407 126.128 88.418L126.282 88.208V89.44C126.282 89.6547 126.226 89.818 126.114 89.93C126.011 90.042 125.857 90.098 125.652 90.098C125.456 90.098 125.302 90.042 125.19 89.93C125.078 89.818 125.022 89.6547 125.022 89.44V80.676C125.022 80.4613 125.078 80.3027 125.19 80.2C125.302 80.088 125.456 80.032 125.652 80.032C125.857 80.032 126.016 80.088 126.128 80.2C126.24 80.3027 126.296 80.4613 126.296 80.676V84.722H126.142C126.291 84.218 126.585 83.8167 127.024 83.518C127.463 83.21 127.985 83.056 128.592 83.056C129.199 83.056 129.726 83.2007 130.174 83.49C130.631 83.77 130.981 84.176 131.224 84.708C131.476 85.2307 131.602 85.856 131.602 86.584C131.602 87.3027 131.476 87.9327 131.224 88.474C130.972 89.006 130.622 89.4167 130.174 89.706C129.726 89.986 129.199 90.126 128.592 90.126ZM128.298 89.118C128.699 89.118 129.049 89.02 129.348 88.824C129.656 88.628 129.894 88.3433 130.062 87.97C130.23 87.5967 130.314 87.1347 130.314 86.584C130.314 85.7627 130.132 85.1373 129.768 84.708C129.404 84.2787 128.914 84.064 128.298 84.064C127.887 84.064 127.528 84.162 127.22 84.358C126.921 84.5447 126.688 84.8247 126.52 85.198C126.361 85.5713 126.282 86.0333 126.282 86.584C126.282 87.4053 126.464 88.0353 126.828 88.474C127.192 88.9033 127.682 89.118 128.298 89.118ZM136.277 90.126C135.605 90.126 135.021 89.9813 134.527 89.692C134.032 89.4027 133.649 88.992 133.379 88.46C133.108 87.928 132.973 87.3027 132.973 86.584C132.973 86.0427 133.047 85.5573 133.197 85.128C133.355 84.6893 133.579 84.316 133.869 84.008C134.158 83.7 134.503 83.4667 134.905 83.308C135.315 83.14 135.773 83.056 136.277 83.056C136.949 83.056 137.532 83.2007 138.027 83.49C138.521 83.7793 138.904 84.19 139.175 84.722C139.445 85.2447 139.581 85.8653 139.581 86.584C139.581 87.1253 139.501 87.6153 139.343 88.054C139.193 88.4927 138.974 88.866 138.685 89.174C138.395 89.482 138.045 89.72 137.635 89.888C137.233 90.0467 136.781 90.126 136.277 90.126ZM136.277 89.118C136.687 89.118 137.042 89.02 137.341 88.824C137.649 88.628 137.882 88.3433 138.041 87.97C138.209 87.5967 138.293 87.1347 138.293 86.584C138.293 85.7627 138.111 85.1373 137.747 84.708C137.383 84.2787 136.893 84.064 136.277 84.064C135.875 84.064 135.521 84.162 135.213 84.358C134.914 84.5447 134.681 84.8247 134.513 85.198C134.345 85.5713 134.261 86.0333 134.261 86.584C134.261 87.4053 134.443 88.0353 134.807 88.474C135.18 88.9033 135.67 89.118 136.277 89.118ZM143.523 90.126C143.056 90.126 142.631 90.0327 142.249 89.846C141.875 89.6593 141.581 89.4073 141.367 89.09C141.161 88.7727 141.059 88.418 141.059 88.026C141.059 87.522 141.185 87.1253 141.437 86.836C141.689 86.5467 142.113 86.3413 142.711 86.22C143.308 86.0893 144.111 86.024 145.119 86.024H145.777V86.836H145.147C144.428 86.836 143.859 86.8687 143.439 86.934C143.028 86.9993 142.739 87.116 142.571 87.284C142.403 87.4427 142.319 87.6667 142.319 87.956C142.319 88.32 142.445 88.6187 142.697 88.852C142.958 89.0853 143.313 89.202 143.761 89.202C144.115 89.202 144.428 89.118 144.699 88.95C144.969 88.7727 145.184 88.5393 145.343 88.25C145.501 87.9513 145.581 87.6107 145.581 87.228V85.618C145.581 85.0673 145.469 84.6707 145.245 84.428C145.021 84.176 144.643 84.05 144.111 84.05C143.803 84.05 143.485 84.092 143.159 84.176C142.832 84.26 142.491 84.3907 142.137 84.568C141.997 84.6333 141.875 84.6567 141.773 84.638C141.67 84.61 141.586 84.554 141.521 84.47C141.465 84.3767 141.432 84.2787 141.423 84.176C141.423 84.064 141.446 83.9567 141.493 83.854C141.549 83.7513 141.642 83.6767 141.773 83.63C142.183 83.4247 142.589 83.28 142.991 83.196C143.401 83.1027 143.784 83.056 144.139 83.056C144.745 83.056 145.245 83.154 145.637 83.35C146.029 83.5367 146.323 83.8307 146.519 84.232C146.715 84.624 146.813 85.128 146.813 85.744V89.44C146.813 89.6547 146.761 89.818 146.659 89.93C146.556 90.042 146.407 90.098 146.211 90.098C146.024 90.098 145.875 90.042 145.763 89.93C145.66 89.818 145.609 89.6547 145.609 89.44V88.446H145.735C145.66 88.7913 145.52 89.09 145.315 89.342C145.109 89.594 144.853 89.79 144.545 89.93C144.246 90.0607 143.905 90.126 143.523 90.126ZM149.616 90.098C149.401 90.098 149.238 90.042 149.126 89.93C149.014 89.818 148.958 89.6547 148.958 89.44V83.728C148.958 83.5133 149.014 83.3547 149.126 83.252C149.238 83.14 149.392 83.084 149.588 83.084C149.784 83.084 149.933 83.14 150.036 83.252C150.148 83.3547 150.204 83.5133 150.204 83.728V84.806H150.064C150.213 84.246 150.493 83.8213 150.904 83.532C151.314 83.2427 151.832 83.0793 152.458 83.042C152.607 83.0327 152.728 83.07 152.822 83.154C152.915 83.2287 152.966 83.3593 152.976 83.546C152.985 83.7233 152.943 83.868 152.85 83.98C152.756 84.0827 152.612 84.1433 152.416 84.162L152.164 84.176C151.548 84.2413 151.072 84.442 150.736 84.778C150.409 85.114 150.246 85.576 150.246 86.164V89.44C150.246 89.6547 150.19 89.818 150.078 89.93C149.975 90.042 149.821 90.098 149.616 90.098ZM156.719 90.126C156.122 90.126 155.595 89.986 155.137 89.706C154.689 89.4167 154.339 89.006 154.087 88.474C153.835 87.9327 153.709 87.3027 153.709 86.584C153.709 85.856 153.831 85.2307 154.073 84.708C154.325 84.176 154.675 83.77 155.123 83.49C155.581 83.2007 156.113 83.056 156.719 83.056C157.326 83.056 157.849 83.21 158.287 83.518C158.726 83.8167 159.02 84.218 159.169 84.722H159.015V80.676C159.015 80.4613 159.067 80.3027 159.169 80.2C159.281 80.088 159.44 80.032 159.645 80.032C159.851 80.032 160.009 80.088 160.121 80.2C160.233 80.3027 160.289 80.4613 160.289 80.676V89.44C160.289 89.6547 160.233 89.818 160.121 89.93C160.009 90.042 159.851 90.098 159.645 90.098C159.449 90.098 159.295 90.042 159.183 89.93C159.071 89.818 159.015 89.6547 159.015 89.44V88.166L159.169 88.418C159.029 88.9407 158.735 89.356 158.287 89.664C157.849 89.972 157.326 90.126 156.719 90.126ZM157.013 89.118C157.424 89.118 157.779 89.02 158.077 88.824C158.385 88.628 158.619 88.3433 158.777 87.97C158.945 87.5967 159.029 87.1347 159.029 86.584C159.029 85.7627 158.847 85.1373 158.483 84.708C158.119 84.2787 157.629 84.064 157.013 84.064C156.612 84.064 156.257 84.162 155.949 84.358C155.651 84.5447 155.417 84.8247 155.249 85.198C155.081 85.5713 154.997 86.0333 154.997 86.584C154.997 87.4053 155.179 88.0353 155.543 88.474C155.917 88.9033 156.407 89.118 157.013 89.118ZM163.088 90.056C162.845 90.056 162.645 89.9767 162.486 89.818C162.327 89.6593 162.248 89.4587 162.248 89.216C162.248 88.9733 162.327 88.7773 162.486 88.628C162.645 88.4787 162.845 88.404 163.088 88.404C163.349 88.404 163.55 88.4787 163.69 88.628C163.839 88.7773 163.914 88.9733 163.914 89.216C163.914 89.4587 163.839 89.6593 163.69 89.818C163.55 89.9767 163.349 90.056 163.088 90.056Z" fill="white" fill-opacity="0.7"/>
</svg>
