<svg width="32" height="32" viewBox="0 0 32 32" fill="none" xmlns="http://www.w3.org/2000/svg">
<path d="M31.9504 0.634766H0.669922V31.9153H31.9504V0.634766Z" fill="#4B4B4B"/>
<path d="M16.3102 7.47656C6.53506 7.47656 2.625 16.2752 2.625 16.2752C2.625 16.2752 6.53506 25.0718 16.3102 25.0718C26.0854 25.0718 29.9954 16.2752 29.9954 16.2752C29.9954 16.2752 26.0854 7.47656 16.3102 7.47656Z" fill="#4B4B4B" stroke="#A8A8A8" stroke-width="2.31707" stroke-linecap="round" stroke-linejoin="round"/>
<path d="M16.3095 21.1628C19.0088 21.1628 21.197 18.9746 21.197 16.2753C21.197 13.5759 19.0088 11.3877 16.3095 11.3877C13.6101 11.3877 11.4219 13.5759 11.4219 16.2753C11.4219 18.9746 13.6101 21.1628 16.3095 21.1628Z" fill="#4B4B4B" stroke="#A8A8A8" stroke-width="2.31707" stroke-linecap="round" stroke-linejoin="round"/>
</svg>
