<svg width="18" height="18" viewBox="0 0 18 18" fill="none" xmlns="http://www.w3.org/2000/svg">
<path d="M12.3762 9C12.379 11.1993 11.9506 13.3778 11.1152 15.4123" stroke="white" stroke-width="1.5" stroke-linecap="round" stroke-linejoin="round"/>
<path d="M11.516 6.74979C11.0603 6.24038 10.4606 5.88134 9.7964 5.72017C9.13218 5.559 8.43467 5.60331 7.79617 5.84722C7.15767 6.09113 6.60828 6.52316 6.22069 7.08613C5.83309 7.64911 5.62556 8.3165 5.62555 9C5.62821 10.7153 5.19307 12.4029 4.36133 13.903" stroke="white" stroke-width="1.5" stroke-linecap="round" stroke-linejoin="round"/>
<path d="M6.75 2.63411C7.76827 2.27522 8.85774 2.16564 9.92708 2.31457C10.9964 2.4635 12.0145 2.8666 12.8959 3.49006C13.7774 4.11353 14.4966 4.93921 14.9931 5.8979C15.4897 6.85658 15.7493 7.92034 15.75 9C15.751 10.514 15.5827 12.0234 15.2483 13.5" stroke="white" stroke-width="1.5" stroke-linecap="round" stroke-linejoin="round"/>
<path d="M1.63867 11.8125C2.04327 10.9301 2.25207 9.97066 2.25072 8.99998C2.24965 8.05009 2.44957 7.11073 2.83735 6.24361C3.22513 5.37648 3.792 4.60122 4.5007 3.96875" stroke="white" stroke-width="1.5" stroke-linecap="round" stroke-linejoin="round"/>
<path d="M7.77608 14.625C7.63347 14.9357 7.4796 15.2399 7.31445 15.5375" stroke="white" stroke-width="1.5" stroke-linecap="round" stroke-linejoin="round"/>
<path d="M8.99953 9C9.00037 10.1384 8.85747 11.2724 8.57422 12.375" stroke="white" stroke-width="1.5" stroke-linecap="round" stroke-linejoin="round"/>
</svg>
