<svg width="32" height="37" viewBox="0 0 32 37" fill="none" xmlns="http://www.w3.org/2000/svg">
<path d="M9 10L9 11.5M9 28L9 22M9 22L11.7701 21.3075C13.8543 20.7864 16.0562 21.0281 17.9778 21.9889L18.0856 22.0428C19.9687 22.9844 22.1224 23.2359 24.1718 22.7537L27.2861 22.0209C27.097 20.2899 27 18.5313 27 16.75C27 14.9834 27.0954 13.2391 27.2814 11.522L24.1718 12.2537C22.1224 12.7359 19.9687 12.4844 18.0856 11.5428L17.9778 11.4889C16.0562 10.5281 13.8543 10.2864 11.7701 10.8075L9 11.5M9 22L9 11.5" stroke="#FF0000" stroke-width="1.5" stroke-linecap="round" stroke-linejoin="round"/>
</svg>
