<svg width="153" height="209" viewBox="0 0 153 209" fill="none" xmlns="http://www.w3.org/2000/svg">
<rect width="153" height="209" rx="21" fill="#1E1E1E"/>
<rect x="34" y="26" width="85" height="85" rx="10" fill="#353535"/>
<rect x="34" y="26" width="85" height="85" rx="10" stroke="#232527"/>
<path d="M94.5684 41.3535H58.4335C57.5264 41.3535 56.791 42.0889 56.791 42.996V72.5609C56.791 73.4681 57.5264 74.2034 58.4335 74.2034H94.5684C95.4756 74.2034 96.2109 73.4681 96.2109 72.5609V42.996C96.2109 42.0889 95.4756 41.3535 94.5684 41.3535Z" stroke="white" stroke-width="2.34234" stroke-linecap="round" stroke-linejoin="round"/>
<path d="M56.791 65.9929L67.127 55.6569C67.2796 55.5043 67.4606 55.3834 67.6599 55.3008C67.8592 55.2183 68.0728 55.1758 68.2885 55.1758C68.5042 55.1758 68.7177 55.2183 68.917 55.3008C69.1163 55.3834 69.2974 55.5043 69.4499 55.6569L78.6245 64.8315C78.777 64.984 78.9581 65.105 79.1574 65.1875C79.3567 65.2701 79.5702 65.3126 79.7859 65.3126C80.0016 65.3126 80.2152 65.2701 80.4145 65.1875C80.6138 65.105 80.7948 64.984 80.9474 64.8315L85.1945 60.5843C85.347 60.4318 85.5281 60.3108 85.7274 60.2283C85.9266 60.1458 86.1402 60.1033 86.3559 60.1033C86.5716 60.1033 86.7852 60.1458 86.9845 60.2283C87.1838 60.3108 87.3648 60.4318 87.5173 60.5843L96.2109 69.2779" stroke="white" stroke-width="2.34234" stroke-linecap="round" stroke-linejoin="round"/>
<path d="M84.6394 52.0321C84.6394 53.3524 83.5692 54.4226 82.2489 54.4226C80.9286 54.4226 79.8584 53.3524 79.8584 52.0321C79.8584 50.7118 80.9286 49.6416 82.2489 49.6416C83.5692 49.6416 84.6394 50.7118 84.6394 52.0321Z" fill="white" stroke="white" stroke-width="0.146396"/>
<path d="M58.2014 98.2245C57.7204 98.2245 57.2394 98.1863 56.7585 98.1097C56.2775 98.0442 55.8239 97.9403 55.3976 97.7982C54.9713 97.6452 54.5887 97.4593 54.2498 97.2407C54.0531 97.1096 53.9164 96.9511 53.8399 96.7652C53.7634 96.5794 53.7361 96.399 53.7579 96.2242C53.7907 96.0383 53.8618 95.8798 53.9711 95.7487C54.0913 95.6066 54.2389 95.5191 54.4138 95.4863C54.5887 95.4535 54.78 95.5027 54.9877 95.6339C55.4686 95.9181 55.9769 96.1258 56.5125 96.2569C57.0482 96.3881 57.6111 96.4537 58.2014 96.4537C59.0649 96.4537 59.6934 96.3116 60.087 96.0274C60.4805 95.7323 60.6772 95.3551 60.6772 94.896C60.6772 94.5135 60.5351 94.2129 60.2509 93.9942C59.9776 93.7756 59.5021 93.5953 58.8244 93.4532L57.0208 93.076C55.9824 92.8574 55.2063 92.4912 54.6925 91.9775C54.1897 91.4528 53.9383 90.7642 53.9383 89.9115C53.9383 89.3759 54.0476 88.8895 54.2662 88.4523C54.4848 88.015 54.7909 87.6379 55.1844 87.3209C55.5889 87.0039 56.0644 86.7634 56.6109 86.5995C57.1684 86.4246 57.7805 86.3371 58.4473 86.3371C59.1032 86.3371 59.7262 86.4191 60.3165 86.5831C60.9068 86.747 61.4369 86.9875 61.907 87.3045C62.0818 87.4248 62.1966 87.5723 62.2513 87.7472C62.3169 87.9221 62.3333 88.097 62.3005 88.2719C62.2677 88.4359 62.1912 88.578 62.0709 88.6982C61.9507 88.8184 61.7976 88.8895 61.6118 88.9114C61.4369 88.9332 61.2347 88.8786 61.0052 88.7474C60.6007 88.5178 60.1908 88.3539 59.7754 88.2555C59.36 88.1571 58.9119 88.1079 58.4309 88.1079C57.9281 88.1079 57.4963 88.179 57.1356 88.3211C56.7749 88.4632 56.4961 88.6654 56.2994 88.9278C56.1136 89.1792 56.0206 89.4798 56.0206 89.8296C56.0206 90.2231 56.1518 90.5401 56.4142 90.7805C56.6765 91.0101 57.1247 91.1905 57.7587 91.3216L59.5459 91.6987C60.628 91.9283 61.4315 92.289 61.9561 92.7809C62.4918 93.2728 62.7596 93.9287 62.7596 94.7485C62.7596 95.2732 62.6503 95.7487 62.4316 96.175C62.2239 96.6013 61.9179 96.9675 61.5134 97.2735C61.1199 97.5796 60.6444 97.8146 60.087 97.9786C59.5295 98.1425 58.9009 98.2245 58.2014 98.2245ZM67.1679 98.2245C66.5886 98.2245 66.0693 98.1152 65.6102 97.8966C65.1621 97.667 64.8068 97.361 64.5445 96.9784C64.2931 96.5958 64.1673 96.164 64.1673 95.6831C64.1673 95.0928 64.3204 94.6282 64.6264 94.2894C64.9325 93.9396 65.4299 93.6882 66.1185 93.5351C66.8072 93.3821 67.7308 93.3056 68.8895 93.3056H69.7093V94.4861H68.9059C68.2282 94.4861 67.6871 94.5189 67.2827 94.5845C66.8782 94.6501 66.5886 94.7649 66.4137 94.9288C66.2497 95.0819 66.1677 95.3005 66.1677 95.5847C66.1677 95.9454 66.2934 96.2405 66.5448 96.4701C66.7962 96.6996 67.146 96.8144 67.5942 96.8144C67.9549 96.8144 68.2719 96.7324 68.5452 96.5685C68.8294 96.3936 69.0535 96.1586 69.2174 95.8634C69.3814 95.5683 69.4634 95.2294 69.4634 94.8469V92.9613C69.4634 92.4147 69.3431 92.0212 69.1027 91.7807C68.8622 91.5402 68.4577 91.42 67.8893 91.42C67.5723 91.42 67.228 91.4583 66.8564 91.5348C66.4956 91.6113 66.1131 91.7425 65.7086 91.9283C65.5009 92.0267 65.3151 92.054 65.1511 92.0103C64.9981 91.9666 64.8779 91.8791 64.7904 91.7479C64.703 91.6058 64.6592 91.4528 64.6592 91.2888C64.6592 91.1249 64.703 90.9664 64.7904 90.8133C64.8779 90.6494 65.0254 90.5291 65.2331 90.4526C65.7359 90.2449 66.2169 90.0974 66.676 90.0099C67.146 89.9225 67.5723 89.8787 67.9549 89.8787C68.7419 89.8787 69.3869 89.999 69.8897 90.2395C70.4034 90.4799 70.786 90.8461 71.0374 91.338C71.2889 91.819 71.4146 92.442 71.4146 93.2072V97.1423C71.4146 97.4812 71.3326 97.7435 71.1686 97.9294C71.0046 98.1043 70.7696 98.1917 70.4636 98.1917C70.1575 98.1917 69.917 98.1043 69.7421 97.9294C69.5782 97.7435 69.4962 97.4812 69.4962 97.1423V96.3553H69.6273C69.5508 96.7379 69.3978 97.0713 69.1683 97.3555C68.9496 97.6288 68.6709 97.8419 68.332 97.995C67.9932 98.148 67.6051 98.2245 67.1679 98.2245ZM76.8252 98.1917C76.552 98.1917 76.3115 98.1207 76.1038 97.9786C75.907 97.8365 75.7431 97.6178 75.6119 97.3227L73.0049 91.2724C72.9065 91.032 72.8682 90.8079 72.8901 90.6002C72.9229 90.3925 73.0213 90.2285 73.1852 90.1083C73.3601 89.9771 73.5951 89.9115 73.8903 89.9115C74.1417 89.9115 74.3439 89.9717 74.497 90.0919C74.65 90.2012 74.7866 90.4144 74.9069 90.7314L77.1204 96.2569H76.6285L78.9076 90.715C79.0278 90.4089 79.1645 90.2012 79.3175 90.0919C79.4815 89.9717 79.7001 89.9115 79.9733 89.9115C80.2138 89.9115 80.4051 89.9771 80.5472 90.1083C80.6893 90.2285 80.7768 90.3925 80.8096 90.6002C80.8424 90.7969 80.8041 91.0156 80.6948 91.256L78.0386 97.3227C77.9183 97.6178 77.7544 97.8365 77.5467 97.9786C77.3499 98.1207 77.1094 98.1917 76.8252 98.1917ZM86.1807 98.2245C85.2734 98.2245 84.4918 98.0551 83.836 97.7162C83.1801 97.3774 82.6718 96.8964 82.3111 96.2733C81.9613 95.6503 81.7864 94.9124 81.7864 94.0598C81.7864 93.2291 81.9559 92.5022 82.2947 91.8791C82.6445 91.256 83.12 90.7696 83.7212 90.4198C84.3333 90.0591 85.0275 89.8787 85.8035 89.8787C86.372 89.8787 86.8802 89.9717 87.3284 90.1575C87.7875 90.3433 88.1756 90.6111 88.4926 90.9609C88.8205 91.3107 89.0664 91.737 89.2304 92.2398C89.4053 92.7317 89.4927 93.2892 89.4927 93.9123C89.4927 94.109 89.4217 94.262 89.2796 94.3714C89.1484 94.4697 88.9571 94.5189 88.7057 94.5189H83.4425V93.3384H88.0499L87.7875 93.5843C87.7875 93.0815 87.711 92.6607 87.558 92.3218C87.4159 91.9829 87.2027 91.7261 86.9185 91.5512C86.6452 91.3654 86.3009 91.2724 85.8855 91.2724C85.4264 91.2724 85.0329 91.3817 84.705 91.6004C84.388 91.8081 84.142 92.1087 83.9672 92.5022C83.8032 92.8848 83.7212 93.3438 83.7212 93.8795V93.9942C83.7212 94.8906 83.9289 95.5628 84.3443 96.011C84.7706 96.4482 85.3936 96.6669 86.2135 96.6669C86.4977 96.6669 86.8147 96.6341 87.1644 96.5685C87.5252 96.492 87.864 96.3663 88.181 96.1914C88.4106 96.0602 88.6128 96.0055 88.7877 96.0274C88.9626 96.0383 89.0992 96.0984 89.1976 96.2078C89.3069 96.3171 89.3725 96.4537 89.3944 96.6177C89.4162 96.7707 89.3834 96.9292 89.296 97.0932C89.2195 97.2571 89.0828 97.3992 88.8861 97.5195C88.5035 97.7599 88.0608 97.9403 87.558 98.0605C87.0661 98.1699 86.607 98.2245 86.1807 98.2245ZM94.3623 98.2245C93.6628 98.2245 93.0452 98.0551 92.5095 97.7162C91.9849 97.3774 91.575 96.8964 91.2798 96.2733C90.9847 95.6393 90.8371 94.896 90.8371 94.0434C90.8371 93.1799 90.9847 92.442 91.2798 91.8299C91.575 91.2069 91.9849 90.7259 92.5095 90.387C93.0452 90.0482 93.6628 89.8787 94.3623 89.8787C95.0291 89.8787 95.6085 90.0427 96.1004 90.3706C96.6032 90.6986 96.942 91.1303 97.1169 91.666H96.9366V87.4029C96.9366 87.064 97.024 86.8072 97.1989 86.6323C97.3738 86.4574 97.6252 86.3699 97.9532 86.3699C98.2811 86.3699 98.5325 86.4574 98.7074 86.6323C98.8932 86.8072 98.9861 87.064 98.9861 87.4029V97.1423C98.9861 97.4812 98.8987 97.7435 98.7238 97.9294C98.5489 98.1043 98.2975 98.1917 97.9695 98.1917C97.6416 98.1917 97.3902 98.1043 97.2153 97.9294C97.0404 97.7435 96.953 97.4812 96.953 97.1423V95.8634L97.1333 96.3553C96.9694 96.9237 96.636 97.3774 96.1331 97.7162C95.6303 98.0551 95.0401 98.2245 94.3623 98.2245ZM94.9362 96.6669C95.3407 96.6669 95.6959 96.5685 96.002 96.3717C96.308 96.175 96.5431 95.8853 96.707 95.5027C96.8819 95.1092 96.9694 94.6228 96.9694 94.0434C96.9694 93.169 96.7835 92.5186 96.4119 92.0923C96.0402 91.655 95.5483 91.4364 94.9362 91.4364C94.5318 91.4364 94.1765 91.5348 93.8704 91.7315C93.5644 91.9174 93.3239 92.207 93.149 92.6005C92.985 92.9831 92.9031 93.4641 92.9031 94.0434C92.9031 94.907 93.0889 95.5628 93.4605 96.011C93.8322 96.4482 94.3241 96.6669 94.9362 96.6669Z" fill="white"/>
<path d="M30.74 158.108C29.9 158.108 29.18 157.932 28.58 157.58C27.98 157.228 27.516 156.728 27.188 156.08C26.868 155.424 26.708 154.652 26.708 153.764C26.708 153.1 26.8 152.504 26.984 151.976C27.168 151.44 27.432 150.984 27.776 150.608C28.12 150.224 28.54 149.932 29.036 149.732C29.54 149.532 30.108 149.432 30.74 149.432C31.22 149.432 31.68 149.5 32.12 149.636C32.568 149.772 32.952 149.964 33.272 150.212C33.4 150.3 33.484 150.4 33.524 150.512C33.564 150.624 33.568 150.732 33.536 150.836C33.512 150.932 33.46 151.016 33.38 151.088C33.308 151.152 33.216 151.188 33.104 151.196C32.992 151.196 32.872 151.152 32.744 151.064C32.464 150.848 32.156 150.692 31.82 150.596C31.492 150.492 31.14 150.44 30.764 150.44C30.148 150.44 29.624 150.572 29.192 150.836C28.768 151.092 28.444 151.468 28.22 151.964C28.004 152.452 27.896 153.052 27.896 153.764C27.896 154.468 28.004 155.072 28.22 155.576C28.444 156.072 28.768 156.452 29.192 156.716C29.624 156.972 30.148 157.1 30.764 157.1C31.14 157.1 31.496 157.048 31.832 156.944C32.176 156.84 32.492 156.68 32.78 156.464C32.908 156.376 33.024 156.336 33.128 156.344C33.24 156.352 33.332 156.388 33.404 156.452C33.476 156.508 33.524 156.588 33.548 156.692C33.58 156.788 33.58 156.888 33.548 156.992C33.516 157.096 33.444 157.188 33.332 157.268C33.004 157.548 32.612 157.76 32.156 157.904C31.708 158.04 31.236 158.108 30.74 158.108ZM37.1558 158.108C36.5798 158.108 36.0798 157.984 35.6558 157.736C35.2318 157.488 34.9038 157.136 34.6718 156.68C34.4398 156.224 34.3238 155.688 34.3238 155.072C34.3238 154.608 34.3878 154.192 34.5158 153.824C34.6518 153.448 34.8438 153.128 35.0918 152.864C35.3398 152.6 35.6358 152.4 35.9798 152.264C36.3318 152.12 36.7238 152.048 37.1558 152.048C37.7318 152.048 38.2318 152.172 38.6558 152.42C39.0798 152.668 39.4078 153.02 39.6398 153.476C39.8718 153.924 39.9878 154.456 39.9878 155.072C39.9878 155.536 39.9198 155.956 39.7838 156.332C39.6558 156.708 39.4678 157.028 39.2198 157.292C38.9718 157.556 38.6718 157.76 38.3198 157.904C37.9758 158.04 37.5878 158.108 37.1558 158.108ZM37.1558 157.244C37.5078 157.244 37.8118 157.16 38.0678 156.992C38.3318 156.824 38.5318 156.58 38.6678 156.26C38.8118 155.94 38.8838 155.544 38.8838 155.072C38.8838 154.368 38.7278 153.832 38.4158 153.464C38.1038 153.096 37.6838 152.912 37.1558 152.912C36.8118 152.912 36.5078 152.996 36.2438 153.164C35.9878 153.324 35.7878 153.564 35.6438 153.884C35.4998 154.204 35.4278 154.6 35.4278 155.072C35.4278 155.776 35.5838 156.316 35.8958 156.692C36.2158 157.06 36.6358 157.244 37.1558 157.244ZM42.0466 158.084C41.8786 158.084 41.7466 158.036 41.6506 157.94C41.5546 157.844 41.5066 157.704 41.5066 157.52V152.624C41.5066 152.44 41.5546 152.304 41.6506 152.216C41.7466 152.12 41.8786 152.072 42.0466 152.072C42.2146 152.072 42.3426 152.12 42.4306 152.216C42.5266 152.304 42.5746 152.44 42.5746 152.624V153.608L42.4426 153.428C42.6106 152.972 42.8826 152.628 43.2586 152.396C43.6426 152.164 44.0786 152.048 44.5666 152.048C45.0386 152.048 45.4266 152.132 45.7306 152.3C46.0346 152.468 46.2626 152.724 46.4146 153.068C46.5666 153.412 46.6426 153.848 46.6426 154.376V157.52C46.6426 157.704 46.5946 157.844 46.4986 157.94C46.4106 158.036 46.2786 158.084 46.1026 158.084C45.9266 158.084 45.7906 158.036 45.6946 157.94C45.5986 157.844 45.5506 157.704 45.5506 157.52V154.436C45.5506 153.916 45.4506 153.536 45.2506 153.296C45.0506 153.056 44.7306 152.936 44.2906 152.936C43.7786 152.936 43.3666 153.096 43.0546 153.416C42.7506 153.728 42.5986 154.152 42.5986 154.688V157.52C42.5986 157.896 42.4146 158.084 42.0466 158.084ZM50.9178 158.108C50.4458 158.108 50.0498 158.024 49.7298 157.856C49.4178 157.688 49.1818 157.444 49.0218 157.124C48.8698 156.804 48.7938 156.412 48.7938 155.948V152.996H48.0258C47.8818 152.996 47.7698 152.96 47.6898 152.888C47.6098 152.808 47.5698 152.704 47.5698 152.576C47.5698 152.44 47.6098 152.336 47.6898 152.264C47.7698 152.192 47.8818 152.156 48.0258 152.156H48.7938V150.848C48.7938 150.664 48.8418 150.528 48.9378 150.44C49.0338 150.344 49.1698 150.296 49.3458 150.296C49.5218 150.296 49.6538 150.344 49.7418 150.44C49.8378 150.528 49.8858 150.664 49.8858 150.848V152.156H51.3378C51.4898 152.156 51.6058 152.192 51.6858 152.264C51.7658 152.336 51.8058 152.44 51.8058 152.576C51.8058 152.704 51.7658 152.808 51.6858 152.888C51.6058 152.96 51.4898 152.996 51.3378 152.996H49.8858V155.852C49.8858 156.292 49.9778 156.624 50.1618 156.848C50.3458 157.072 50.6498 157.184 51.0738 157.184C51.2258 157.184 51.3538 157.172 51.4578 157.148C51.5618 157.116 51.6538 157.1 51.7338 157.1C51.8058 157.092 51.8658 157.116 51.9138 157.172C51.9698 157.228 51.9978 157.332 51.9978 157.484C51.9978 157.596 51.9778 157.7 51.9378 157.796C51.9058 157.884 51.8378 157.944 51.7338 157.976C51.6378 158.008 51.5098 158.036 51.3498 158.06C51.1898 158.092 51.0458 158.108 50.9178 158.108ZM53.5483 158.06C53.3803 158.06 53.2483 158.008 53.1523 157.904C53.0563 157.8 53.0083 157.656 53.0083 157.472V152.684C53.0083 152.492 53.0563 152.348 53.1523 152.252C53.2483 152.148 53.3803 152.096 53.5483 152.096C53.7243 152.096 53.8603 152.148 53.9563 152.252C54.0523 152.348 54.1003 152.492 54.1003 152.684V157.472C54.1003 157.656 54.0523 157.8 53.9563 157.904C53.8683 158.008 53.7323 158.06 53.5483 158.06ZM53.5483 150.8C53.3323 150.8 53.1603 150.744 53.0323 150.632C52.9123 150.512 52.8523 150.356 52.8523 150.164C52.8523 149.956 52.9123 149.8 53.0323 149.696C53.1603 149.584 53.3323 149.528 53.5483 149.528C53.7803 149.528 53.9523 149.584 54.0643 149.696C54.1843 149.8 54.2443 149.956 54.2443 150.164C54.2443 150.356 54.1843 150.512 54.0643 150.632C53.9523 150.744 53.7803 150.8 53.5483 150.8ZM56.516 158.084C56.348 158.084 56.216 158.036 56.12 157.94C56.024 157.844 55.976 157.704 55.976 157.52V152.624C55.976 152.44 56.024 152.304 56.12 152.216C56.216 152.12 56.348 152.072 56.516 152.072C56.684 152.072 56.812 152.12 56.9 152.216C56.996 152.304 57.044 152.44 57.044 152.624V153.608L56.912 153.428C57.08 152.972 57.352 152.628 57.728 152.396C58.112 152.164 58.548 152.048 59.036 152.048C59.508 152.048 59.896 152.132 60.2 152.3C60.504 152.468 60.732 152.724 60.884 153.068C61.036 153.412 61.112 153.848 61.112 154.376V157.52C61.112 157.704 61.064 157.844 60.968 157.94C60.88 158.036 60.748 158.084 60.572 158.084C60.396 158.084 60.26 158.036 60.164 157.94C60.068 157.844 60.02 157.704 60.02 157.52V154.436C60.02 153.916 59.92 153.536 59.72 153.296C59.52 153.056 59.2 152.936 58.76 152.936C58.248 152.936 57.836 153.096 57.524 153.416C57.22 153.728 57.068 154.152 57.068 154.688V157.52C57.068 157.896 56.884 158.084 56.516 158.084ZM65.0512 158.108C64.5792 158.108 64.1832 158.02 63.8632 157.844C63.5512 157.668 63.3192 157.408 63.1672 157.064C63.0152 156.72 62.9392 156.288 62.9392 155.768V152.624C62.9392 152.44 62.9832 152.304 63.0712 152.216C63.1672 152.12 63.3032 152.072 63.4792 152.072C63.6552 152.072 63.7912 152.12 63.8872 152.216C63.9832 152.304 64.0312 152.44 64.0312 152.624V155.768C64.0312 156.264 64.1312 156.632 64.3312 156.872C64.5312 157.104 64.8472 157.22 65.2792 157.22C65.7592 157.22 66.1472 157.06 66.4432 156.74C66.7472 156.42 66.8992 155.996 66.8992 155.468V152.624C66.8992 152.44 66.9432 152.304 67.0312 152.216C67.1272 152.12 67.2632 152.072 67.4392 152.072C67.6152 152.072 67.7512 152.12 67.8472 152.216C67.9432 152.304 67.9912 152.44 67.9912 152.624V157.52C67.9912 157.896 67.8152 158.084 67.4632 158.084C67.2872 158.084 67.1512 158.036 67.0552 157.94C66.9672 157.844 66.9232 157.704 66.9232 157.52V156.476L67.0792 156.68C66.9192 157.144 66.6592 157.5 66.2992 157.748C65.9472 157.988 65.5312 158.108 65.0512 158.108ZM72.5683 158.108C71.9363 158.108 71.3923 157.988 70.9363 157.748C70.4883 157.5 70.1403 157.152 69.8923 156.704C69.6443 156.248 69.5203 155.712 69.5203 155.096C69.5203 154.488 69.6403 153.956 69.8803 153.5C70.1283 153.044 70.4643 152.688 70.8883 152.432C71.3203 152.176 71.8123 152.048 72.3643 152.048C72.7563 152.048 73.1083 152.116 73.4203 152.252C73.7403 152.38 74.0123 152.568 74.2363 152.816C74.4603 153.064 74.6283 153.368 74.7403 153.728C74.8603 154.08 74.9203 154.48 74.9203 154.928C74.9203 155.056 74.8803 155.156 74.8003 155.228C74.7283 155.292 74.6203 155.324 74.4763 155.324H70.3723V154.628H74.2003L73.9963 154.796C73.9963 154.38 73.9323 154.028 73.8043 153.74C73.6843 153.444 73.5043 153.22 73.2643 153.068C73.0323 152.916 72.7403 152.84 72.3883 152.84C72.0043 152.84 71.6763 152.932 71.4043 153.116C71.1323 153.292 70.9243 153.544 70.7803 153.872C70.6363 154.192 70.5643 154.564 70.5643 154.988V155.06C70.5643 155.78 70.7363 156.324 71.0803 156.692C71.4243 157.06 71.9203 157.244 72.5683 157.244C72.8243 157.244 73.0843 157.212 73.3483 157.148C73.6203 157.084 73.8803 156.968 74.1283 156.8C74.2483 156.728 74.3563 156.696 74.4523 156.704C74.5563 156.704 74.6403 156.736 74.7043 156.8C74.7683 156.856 74.8083 156.928 74.8243 157.016C74.8403 157.096 74.8283 157.184 74.7883 157.28C74.7483 157.376 74.6723 157.46 74.5603 157.532C74.2963 157.716 73.9803 157.86 73.6123 157.964C73.2523 158.06 72.9043 158.108 72.5683 158.108ZM81.7234 158.084C81.5714 158.084 81.4394 158.048 81.3274 157.976C81.2154 157.896 81.1274 157.768 81.0634 157.592L79.2754 152.828C79.2194 152.676 79.2034 152.544 79.2274 152.432C79.2514 152.32 79.3074 152.232 79.3954 152.168C79.4834 152.104 79.5994 152.072 79.7434 152.072C79.8794 152.072 79.9874 152.104 80.0674 152.168C80.1474 152.232 80.2154 152.348 80.2714 152.516L81.9034 157.124H81.6154L83.2954 152.492C83.3514 152.348 83.4234 152.244 83.5114 152.18C83.6074 152.108 83.7234 152.072 83.8594 152.072C84.0034 152.072 84.1234 152.108 84.2194 152.18C84.3154 152.244 84.3834 152.348 84.4234 152.492L86.0794 157.124H85.8034L87.4594 152.492C87.5154 152.332 87.5874 152.224 87.6754 152.168C87.7634 152.104 87.8714 152.072 87.9994 152.072C88.1434 152.072 88.2514 152.108 88.3234 152.18C88.3954 152.252 88.4354 152.348 88.4434 152.468C88.4594 152.58 88.4434 152.7 88.3954 152.828L86.6074 157.592C86.5514 157.76 86.4634 157.884 86.3434 157.964C86.2314 158.044 86.0994 158.084 85.9474 158.084C85.7954 158.084 85.6594 158.044 85.5394 157.964C85.4274 157.884 85.3394 157.76 85.2754 157.592L83.5594 152.888H84.1114L82.3954 157.592C82.3314 157.76 82.2434 157.884 82.1314 157.964C82.0194 158.044 81.8834 158.084 81.7234 158.084ZM92.2827 158.108C91.7067 158.108 91.2067 157.984 90.7827 157.736C90.3587 157.488 90.0307 157.136 89.7987 156.68C89.5667 156.224 89.4507 155.688 89.4507 155.072C89.4507 154.608 89.5147 154.192 89.6427 153.824C89.7787 153.448 89.9707 153.128 90.2187 152.864C90.4667 152.6 90.7627 152.4 91.1067 152.264C91.4587 152.12 91.8507 152.048 92.2827 152.048C92.8587 152.048 93.3587 152.172 93.7827 152.42C94.2067 152.668 94.5347 153.02 94.7667 153.476C94.9987 153.924 95.1147 154.456 95.1147 155.072C95.1147 155.536 95.0467 155.956 94.9107 156.332C94.7827 156.708 94.5947 157.028 94.3467 157.292C94.0987 157.556 93.7987 157.76 93.4467 157.904C93.1027 158.04 92.7147 158.108 92.2827 158.108ZM92.2827 157.244C92.6347 157.244 92.9387 157.16 93.1947 156.992C93.4587 156.824 93.6587 156.58 93.7947 156.26C93.9387 155.94 94.0107 155.544 94.0107 155.072C94.0107 154.368 93.8547 153.832 93.5427 153.464C93.2307 153.096 92.8107 152.912 92.2827 152.912C91.9387 152.912 91.6347 152.996 91.3707 153.164C91.1147 153.324 90.9147 153.564 90.7707 153.884C90.6267 154.204 90.5547 154.6 90.5547 155.072C90.5547 155.776 90.7107 156.316 91.0227 156.692C91.3427 157.06 91.7627 157.244 92.2827 157.244ZM97.1975 158.084C97.0135 158.084 96.8735 158.036 96.7775 157.94C96.6815 157.844 96.6335 157.704 96.6335 157.52V152.624C96.6335 152.44 96.6815 152.304 96.7775 152.216C96.8735 152.12 97.0055 152.072 97.1735 152.072C97.3415 152.072 97.4695 152.12 97.5575 152.216C97.6535 152.304 97.7015 152.44 97.7015 152.624V153.548H97.5815C97.7095 153.068 97.9495 152.704 98.3015 152.456C98.6535 152.208 99.0975 152.068 99.6335 152.036C99.7615 152.028 99.8655 152.06 99.9455 152.132C100.025 152.196 100.069 152.308 100.077 152.468C100.086 152.62 100.049 152.744 99.9695 152.84C99.8895 152.928 99.7655 152.98 99.5975 152.996L99.3815 153.008C98.8535 153.064 98.4455 153.236 98.1575 153.524C97.8775 153.812 97.7375 154.208 97.7375 154.712V157.52C97.7375 157.704 97.6895 157.844 97.5935 157.94C97.5055 158.036 97.3735 158.084 97.1975 158.084ZM101.676 158.084C101.508 158.084 101.376 158.036 101.28 157.94C101.184 157.844 101.136 157.704 101.136 157.52V150.008C101.136 149.824 101.184 149.688 101.28 149.6C101.376 149.504 101.508 149.456 101.676 149.456C101.852 149.456 101.988 149.504 102.084 149.6C102.18 149.688 102.228 149.824 102.228 150.008V154.736H102.252L104.604 152.444C104.724 152.324 104.832 152.232 104.928 152.168C105.024 152.104 105.148 152.072 105.3 152.072C105.452 152.072 105.568 152.112 105.648 152.192C105.728 152.264 105.768 152.36 105.768 152.48C105.768 152.592 105.712 152.704 105.6 152.816L103.104 155.24V154.7L105.828 157.328C105.94 157.44 105.992 157.556 105.984 157.676C105.984 157.796 105.94 157.896 105.852 157.976C105.772 158.048 105.664 158.084 105.528 158.084C105.368 158.084 105.236 158.052 105.132 157.988C105.036 157.924 104.924 157.824 104.796 157.688L102.252 155.288H102.228V157.52C102.228 157.896 102.044 158.084 101.676 158.084ZM107.89 158.06C107.722 158.06 107.59 158.008 107.494 157.904C107.398 157.8 107.35 157.656 107.35 157.472V152.684C107.35 152.492 107.398 152.348 107.494 152.252C107.59 152.148 107.722 152.096 107.89 152.096C108.066 152.096 108.202 152.148 108.298 152.252C108.394 152.348 108.442 152.492 108.442 152.684V157.472C108.442 157.656 108.394 157.8 108.298 157.904C108.21 158.008 108.074 158.06 107.89 158.06ZM107.89 150.8C107.674 150.8 107.502 150.744 107.374 150.632C107.254 150.512 107.194 150.356 107.194 150.164C107.194 149.956 107.254 149.8 107.374 149.696C107.502 149.584 107.674 149.528 107.89 149.528C108.122 149.528 108.294 149.584 108.406 149.696C108.526 149.8 108.586 149.956 108.586 150.164C108.586 150.356 108.526 150.512 108.406 150.632C108.294 150.744 108.122 150.8 107.89 150.8ZM110.858 158.084C110.69 158.084 110.558 158.036 110.462 157.94C110.366 157.844 110.318 157.704 110.318 157.52V152.624C110.318 152.44 110.366 152.304 110.462 152.216C110.558 152.12 110.69 152.072 110.858 152.072C111.026 152.072 111.154 152.12 111.242 152.216C111.338 152.304 111.386 152.44 111.386 152.624V153.608L111.254 153.428C111.422 152.972 111.694 152.628 112.07 152.396C112.454 152.164 112.89 152.048 113.378 152.048C113.85 152.048 114.238 152.132 114.542 152.3C114.846 152.468 115.074 152.724 115.226 153.068C115.378 153.412 115.454 153.848 115.454 154.376V157.52C115.454 157.704 115.406 157.844 115.31 157.94C115.222 158.036 115.09 158.084 114.914 158.084C114.738 158.084 114.602 158.036 114.506 157.94C114.41 157.844 114.362 157.704 114.362 157.52V154.436C114.362 153.916 114.262 153.536 114.062 153.296C113.862 153.056 113.542 152.936 113.102 152.936C112.59 152.936 112.178 153.096 111.866 153.416C111.562 153.728 111.41 154.152 111.41 154.688V157.52C111.41 157.896 111.226 158.084 110.858 158.084ZM119.933 160.268C119.501 160.268 119.081 160.22 118.673 160.124C118.273 160.028 117.909 159.88 117.581 159.68C117.477 159.616 117.405 159.54 117.365 159.452C117.333 159.372 117.325 159.288 117.341 159.2C117.365 159.112 117.405 159.032 117.461 158.96C117.525 158.896 117.597 158.852 117.677 158.828C117.765 158.812 117.853 158.832 117.941 158.888C118.293 159.088 118.629 159.224 118.949 159.296C119.269 159.368 119.573 159.404 119.861 159.404C120.429 159.404 120.853 159.256 121.133 158.96C121.421 158.672 121.565 158.248 121.565 157.688V156.392H121.673C121.561 156.84 121.309 157.196 120.917 157.46C120.533 157.724 120.085 157.856 119.573 157.856C119.045 157.856 118.585 157.736 118.193 157.496C117.801 157.248 117.497 156.908 117.281 156.476C117.065 156.036 116.957 155.528 116.957 154.952C116.957 154.512 117.017 154.116 117.137 153.764C117.265 153.404 117.441 153.1 117.665 152.852C117.897 152.596 118.173 152.4 118.493 152.264C118.813 152.12 119.173 152.048 119.573 152.048C120.093 152.048 120.545 152.18 120.929 152.444C121.313 152.708 121.561 153.064 121.673 153.512L121.541 153.68V152.624C121.541 152.44 121.589 152.304 121.685 152.216C121.781 152.12 121.917 152.072 122.093 152.072C122.261 152.072 122.393 152.12 122.489 152.216C122.585 152.304 122.633 152.44 122.633 152.624V157.544C122.633 158.448 122.401 159.128 121.937 159.584C121.481 160.04 120.813 160.268 119.933 160.268ZM119.813 156.992C120.173 156.992 120.481 156.912 120.737 156.752C121.001 156.584 121.201 156.348 121.337 156.044C121.481 155.732 121.553 155.368 121.553 154.952C121.553 154.32 121.397 153.824 121.085 153.464C120.773 153.096 120.349 152.912 119.813 152.912C119.453 152.912 119.141 152.996 118.877 153.164C118.621 153.324 118.421 153.556 118.277 153.86C118.133 154.164 118.061 154.528 118.061 154.952C118.061 155.576 118.217 156.072 118.529 156.44C118.849 156.808 119.277 156.992 119.813 156.992ZM29.36 174.108C28.784 174.108 28.284 173.984 27.86 173.736C27.436 173.488 27.108 173.136 26.876 172.68C26.644 172.224 26.528 171.688 26.528 171.072C26.528 170.608 26.592 170.192 26.72 169.824C26.856 169.448 27.048 169.128 27.296 168.864C27.544 168.6 27.84 168.4 28.184 168.264C28.536 168.12 28.928 168.048 29.36 168.048C29.936 168.048 30.436 168.172 30.86 168.42C31.284 168.668 31.612 169.02 31.844 169.476C32.076 169.924 32.192 170.456 32.192 171.072C32.192 171.536 32.124 171.956 31.988 172.332C31.86 172.708 31.672 173.028 31.424 173.292C31.176 173.556 30.876 173.76 30.524 173.904C30.18 174.04 29.792 174.108 29.36 174.108ZM29.36 173.244C29.712 173.244 30.016 173.16 30.272 172.992C30.536 172.824 30.736 172.58 30.872 172.26C31.016 171.94 31.088 171.544 31.088 171.072C31.088 170.368 30.932 169.832 30.62 169.464C30.308 169.096 29.888 168.912 29.36 168.912C29.016 168.912 28.712 168.996 28.448 169.164C28.192 169.324 27.992 169.564 27.848 169.884C27.704 170.204 27.632 170.6 27.632 171.072C27.632 171.776 27.788 172.316 28.1 172.692C28.42 173.06 28.84 173.244 29.36 173.244ZM34.2508 174.084C34.0828 174.084 33.9508 174.036 33.8548 173.94C33.7588 173.844 33.7108 173.704 33.7108 173.52V168.624C33.7108 168.44 33.7588 168.304 33.8548 168.216C33.9508 168.12 34.0828 168.072 34.2508 168.072C34.4188 168.072 34.5468 168.12 34.6348 168.216C34.7308 168.304 34.7788 168.44 34.7788 168.624V169.608L34.6468 169.428C34.8148 168.972 35.0868 168.628 35.4628 168.396C35.8468 168.164 36.2828 168.048 36.7708 168.048C37.2428 168.048 37.6308 168.132 37.9348 168.3C38.2388 168.468 38.4668 168.724 38.6188 169.068C38.7708 169.412 38.8468 169.848 38.8468 170.376V173.52C38.8468 173.704 38.7988 173.844 38.7028 173.94C38.6148 174.036 38.4828 174.084 38.3068 174.084C38.1308 174.084 37.9948 174.036 37.8988 173.94C37.8028 173.844 37.7548 173.704 37.7548 173.52V170.436C37.7548 169.916 37.6548 169.536 37.4548 169.296C37.2548 169.056 36.9348 168.936 36.4948 168.936C35.9828 168.936 35.5708 169.096 35.2588 169.416C34.9548 169.728 34.8028 170.152 34.8028 170.688V173.52C34.8028 173.896 34.6188 174.084 34.2508 174.084ZM45.8069 174.108C45.4069 174.108 45.0429 174.028 44.7149 173.868C44.3949 173.708 44.1429 173.492 43.9589 173.22C43.7829 172.948 43.6949 172.644 43.6949 172.308C43.6949 171.876 43.8029 171.536 44.0189 171.288C44.2349 171.04 44.5989 170.864 45.1109 170.76C45.6229 170.648 46.3109 170.592 47.1749 170.592H47.7389V171.288H47.1989C46.5829 171.288 46.0949 171.316 45.7349 171.372C45.3829 171.428 45.1349 171.528 44.9909 171.672C44.8469 171.808 44.7749 172 44.7749 172.248C44.7749 172.56 44.8829 172.816 45.0989 173.016C45.3229 173.216 45.6269 173.316 46.0109 173.316C46.3149 173.316 46.5829 173.244 46.8149 173.1C47.0469 172.948 47.2309 172.748 47.3669 172.5C47.5029 172.244 47.5709 171.952 47.5709 171.624V170.244C47.5709 169.772 47.4749 169.432 47.2829 169.224C47.0909 169.008 46.7669 168.9 46.3109 168.9C46.0469 168.9 45.7749 168.936 45.4949 169.008C45.2149 169.08 44.9229 169.192 44.6189 169.344C44.4989 169.4 44.3949 169.42 44.3069 169.404C44.2189 169.38 44.1469 169.332 44.0909 169.26C44.0429 169.18 44.0149 169.096 44.0069 169.008C44.0069 168.912 44.0269 168.82 44.0669 168.732C44.1149 168.644 44.1949 168.58 44.3069 168.54C44.6589 168.364 45.0069 168.24 45.3509 168.168C45.7029 168.088 46.0309 168.048 46.3349 168.048C46.8549 168.048 47.2829 168.132 47.6189 168.3C47.9549 168.46 48.2069 168.712 48.3749 169.056C48.5429 169.392 48.6269 169.824 48.6269 170.352V173.52C48.6269 173.704 48.5829 173.844 48.4949 173.94C48.4069 174.036 48.2789 174.084 48.1109 174.084C47.9509 174.084 47.8229 174.036 47.7269 173.94C47.6389 173.844 47.5949 173.704 47.5949 173.52V172.668H47.7029C47.6389 172.964 47.5189 173.22 47.3429 173.436C47.1669 173.652 46.9469 173.82 46.6829 173.94C46.4269 174.052 46.1349 174.108 45.8069 174.108ZM58.9792 174.108C58.6192 174.108 58.2552 174.068 57.8872 173.988C57.5272 173.9 57.1872 173.752 56.8672 173.544C56.7792 173.488 56.7152 173.42 56.6752 173.34C56.6432 173.252 56.6312 173.168 56.6392 173.088C56.6552 173 56.6912 172.924 56.7472 172.86C56.8032 172.796 56.8712 172.76 56.9512 172.752C57.0392 172.736 57.1312 172.756 57.2272 172.812C57.5392 172.988 57.8392 173.112 58.1272 173.184C58.4232 173.256 58.7152 173.292 59.0032 173.292C59.4432 173.292 59.7752 173.212 59.9992 173.052C60.2232 172.892 60.3352 172.68 60.3352 172.416C60.3352 172.192 60.2592 172.02 60.1072 171.9C59.9632 171.772 59.7352 171.676 59.4232 171.612L58.3072 171.384C57.8112 171.272 57.4352 171.088 57.1792 170.832C56.9312 170.568 56.8072 170.232 56.8072 169.824C56.8072 169.464 56.9032 169.152 57.0952 168.888C57.2952 168.616 57.5712 168.408 57.9232 168.264C58.2752 168.12 58.6792 168.048 59.1352 168.048C59.4872 168.048 59.8192 168.096 60.1312 168.192C60.4512 168.28 60.7392 168.416 60.9952 168.6C61.0912 168.656 61.1512 168.728 61.1752 168.816C61.2072 168.896 61.2112 168.98 61.1872 169.068C61.1712 169.148 61.1352 169.216 61.0792 169.272C61.0232 169.328 60.9512 169.364 60.8632 169.38C60.7752 169.388 60.6792 169.364 60.5752 169.308C60.3432 169.148 60.1032 169.036 59.8552 168.972C59.6152 168.9 59.3752 168.864 59.1352 168.864C58.7032 168.864 58.3752 168.948 58.1512 169.116C57.9352 169.284 57.8272 169.504 57.8272 169.776C57.8272 169.984 57.8912 170.156 58.0192 170.292C58.1552 170.428 58.3672 170.528 58.6552 170.592L59.7712 170.82C60.2912 170.932 60.6832 171.112 60.9472 171.36C61.2112 171.6 61.3432 171.928 61.3432 172.344C61.3432 172.888 61.1272 173.32 60.6952 173.64C60.2712 173.952 59.6992 174.108 58.9792 174.108ZM64.744 174.108C64.344 174.108 63.98 174.028 63.652 173.868C63.332 173.708 63.08 173.492 62.896 173.22C62.72 172.948 62.632 172.644 62.632 172.308C62.632 171.876 62.74 171.536 62.956 171.288C63.172 171.04 63.536 170.864 64.048 170.76C64.56 170.648 65.248 170.592 66.112 170.592H66.676V171.288H66.136C65.52 171.288 65.032 171.316 64.672 171.372C64.32 171.428 64.072 171.528 63.928 171.672C63.784 171.808 63.712 172 63.712 172.248C63.712 172.56 63.82 172.816 64.036 173.016C64.26 173.216 64.564 173.316 64.948 173.316C65.252 173.316 65.52 173.244 65.752 173.1C65.984 172.948 66.168 172.748 66.304 172.5C66.44 172.244 66.508 171.952 66.508 171.624V170.244C66.508 169.772 66.412 169.432 66.22 169.224C66.028 169.008 65.704 168.9 65.248 168.9C64.984 168.9 64.712 168.936 64.432 169.008C64.152 169.08 63.86 169.192 63.556 169.344C63.436 169.4 63.332 169.42 63.244 169.404C63.156 169.38 63.084 169.332 63.028 169.26C62.98 169.18 62.952 169.096 62.944 169.008C62.944 168.912 62.964 168.82 63.004 168.732C63.052 168.644 63.132 168.58 63.244 168.54C63.596 168.364 63.944 168.24 64.288 168.168C64.64 168.088 64.968 168.048 65.272 168.048C65.792 168.048 66.22 168.132 66.556 168.3C66.892 168.46 67.144 168.712 67.312 169.056C67.48 169.392 67.564 169.824 67.564 170.352V173.52C67.564 173.704 67.52 173.844 67.432 173.94C67.344 174.036 67.216 174.084 67.048 174.084C66.888 174.084 66.76 174.036 66.664 173.94C66.576 173.844 66.532 173.704 66.532 173.52V172.668H66.64C66.576 172.964 66.456 173.22 66.28 173.436C66.104 173.652 65.884 173.82 65.62 173.94C65.364 174.052 65.072 174.108 64.744 174.108ZM71.5638 174.084C71.4118 174.084 71.2798 174.044 71.1678 173.964C71.0558 173.884 70.9598 173.756 70.8798 173.58L68.8398 168.828C68.7838 168.692 68.7638 168.568 68.7798 168.456C68.7958 168.344 68.8478 168.252 68.9358 168.18C69.0318 168.108 69.1598 168.072 69.3198 168.072C69.4558 168.072 69.5638 168.104 69.6438 168.168C69.7238 168.232 69.7998 168.344 69.8718 168.504L71.7558 173.148H71.4198L73.3518 168.504C73.4158 168.344 73.4878 168.232 73.5678 168.168C73.6558 168.104 73.7758 168.072 73.9278 168.072C74.0638 168.072 74.1678 168.108 74.2398 168.18C74.3198 168.252 74.3678 168.344 74.3838 168.456C74.3998 168.568 74.3758 168.688 74.3118 168.816L72.2598 173.58C72.1878 173.756 72.0918 173.884 71.9718 173.964C71.8598 174.044 71.7238 174.084 71.5638 174.084ZM78.281 174.108C77.649 174.108 77.105 173.988 76.649 173.748C76.201 173.5 75.853 173.152 75.605 172.704C75.357 172.248 75.233 171.712 75.233 171.096C75.233 170.488 75.353 169.956 75.593 169.5C75.841 169.044 76.177 168.688 76.601 168.432C77.033 168.176 77.525 168.048 78.077 168.048C78.469 168.048 78.821 168.116 79.133 168.252C79.453 168.38 79.725 168.568 79.949 168.816C80.173 169.064 80.341 169.368 80.453 169.728C80.573 170.08 80.633 170.48 80.633 170.928C80.633 171.056 80.593 171.156 80.513 171.228C80.441 171.292 80.333 171.324 80.189 171.324H76.085V170.628H79.913L79.709 170.796C79.709 170.38 79.645 170.028 79.517 169.74C79.397 169.444 79.217 169.22 78.977 169.068C78.745 168.916 78.453 168.84 78.101 168.84C77.717 168.84 77.389 168.932 77.117 169.116C76.845 169.292 76.637 169.544 76.493 169.872C76.349 170.192 76.277 170.564 76.277 170.988V171.06C76.277 171.78 76.449 172.324 76.793 172.692C77.137 173.06 77.633 173.244 78.281 173.244C78.537 173.244 78.797 173.212 79.061 173.148C79.333 173.084 79.593 172.968 79.841 172.8C79.961 172.728 80.069 172.696 80.165 172.704C80.269 172.704 80.353 172.736 80.417 172.8C80.481 172.856 80.521 172.928 80.537 173.016C80.553 173.096 80.541 173.184 80.501 173.28C80.461 173.376 80.385 173.46 80.273 173.532C80.009 173.716 79.693 173.86 79.325 173.964C78.965 174.06 78.617 174.108 78.281 174.108ZM84.3432 174.108C83.8312 174.108 83.3792 173.988 82.9872 173.748C82.6032 173.5 82.3032 173.148 82.0872 172.692C81.8712 172.228 81.7632 171.688 81.7632 171.072C81.7632 170.448 81.8672 169.912 82.0752 169.464C82.2912 169.008 82.5912 168.66 82.9752 168.42C83.3672 168.172 83.8232 168.048 84.3432 168.048C84.8632 168.048 85.3112 168.18 85.6872 168.444C86.0632 168.7 86.3152 169.044 86.4432 169.476H86.3112V166.008C86.3112 165.824 86.3552 165.688 86.4432 165.6C86.5392 165.504 86.6752 165.456 86.8512 165.456C87.0272 165.456 87.1632 165.504 87.2592 165.6C87.3552 165.688 87.4032 165.824 87.4032 166.008V173.52C87.4032 173.704 87.3552 173.844 87.2592 173.94C87.1632 174.036 87.0272 174.084 86.8512 174.084C86.6832 174.084 86.5512 174.036 86.4552 173.94C86.3592 173.844 86.3112 173.704 86.3112 173.52V172.428L86.4432 172.644C86.3232 173.092 86.0712 173.448 85.6872 173.712C85.3112 173.976 84.8632 174.108 84.3432 174.108ZM84.5952 173.244C84.9472 173.244 85.2512 173.16 85.5072 172.992C85.7712 172.824 85.9712 172.58 86.1072 172.26C86.2512 171.94 86.3232 171.544 86.3232 171.072C86.3232 170.368 86.1672 169.832 85.8552 169.464C85.5432 169.096 85.1232 168.912 84.5952 168.912C84.2512 168.912 83.9472 168.996 83.6832 169.164C83.4272 169.324 83.2272 169.564 83.0832 169.884C82.9392 170.204 82.8672 170.6 82.8672 171.072C82.8672 171.776 83.0232 172.316 83.3352 172.692C83.6552 173.06 84.0752 173.244 84.5952 173.244ZM95.583 174.108C95.055 174.108 94.603 173.976 94.227 173.712C93.851 173.448 93.599 173.092 93.471 172.644L93.603 172.464V173.52C93.603 173.704 93.555 173.844 93.459 173.94C93.371 174.036 93.239 174.084 93.063 174.084C92.895 174.084 92.763 174.036 92.667 173.94C92.571 173.844 92.523 173.704 92.523 173.52V166.008C92.523 165.824 92.571 165.688 92.667 165.6C92.763 165.504 92.895 165.456 93.063 165.456C93.239 165.456 93.375 165.504 93.471 165.6C93.567 165.688 93.615 165.824 93.615 166.008V169.476H93.483C93.611 169.044 93.863 168.7 94.239 168.444C94.615 168.18 95.063 168.048 95.583 168.048C96.103 168.048 96.555 168.172 96.939 168.42C97.331 168.66 97.631 169.008 97.839 169.464C98.055 169.912 98.163 170.448 98.163 171.072C98.163 171.688 98.055 172.228 97.839 172.692C97.623 173.148 97.323 173.5 96.939 173.748C96.555 173.988 96.103 174.108 95.583 174.108ZM95.331 173.244C95.675 173.244 95.975 173.16 96.231 172.992C96.495 172.824 96.699 172.58 96.843 172.26C96.987 171.94 97.059 171.544 97.059 171.072C97.059 170.368 96.903 169.832 96.591 169.464C96.279 169.096 95.859 168.912 95.331 168.912C94.979 168.912 94.671 168.996 94.407 169.164C94.151 169.324 93.951 169.564 93.807 169.884C93.671 170.204 93.603 170.6 93.603 171.072C93.603 171.776 93.759 172.316 94.071 172.692C94.383 173.06 94.803 173.244 95.331 173.244ZM102.17 174.108C101.594 174.108 101.094 173.984 100.67 173.736C100.246 173.488 99.918 173.136 99.686 172.68C99.454 172.224 99.338 171.688 99.338 171.072C99.338 170.608 99.402 170.192 99.53 169.824C99.666 169.448 99.858 169.128 100.106 168.864C100.354 168.6 100.65 168.4 100.994 168.264C101.346 168.12 101.738 168.048 102.17 168.048C102.746 168.048 103.246 168.172 103.67 168.42C104.094 168.668 104.422 169.02 104.654 169.476C104.886 169.924 105.002 170.456 105.002 171.072C105.002 171.536 104.934 171.956 104.798 172.332C104.67 172.708 104.482 173.028 104.234 173.292C103.986 173.556 103.686 173.76 103.334 173.904C102.99 174.04 102.602 174.108 102.17 174.108ZM102.17 173.244C102.522 173.244 102.826 173.16 103.082 172.992C103.346 172.824 103.546 172.58 103.682 172.26C103.826 171.94 103.898 171.544 103.898 171.072C103.898 170.368 103.742 169.832 103.43 169.464C103.118 169.096 102.698 168.912 102.17 168.912C101.826 168.912 101.522 168.996 101.258 169.164C101.002 169.324 100.802 169.564 100.658 169.884C100.514 170.204 100.442 170.6 100.442 171.072C100.442 171.776 100.598 172.316 100.91 172.692C101.23 173.06 101.65 173.244 102.17 173.244ZM108.381 174.108C107.981 174.108 107.617 174.028 107.289 173.868C106.969 173.708 106.717 173.492 106.533 173.22C106.357 172.948 106.269 172.644 106.269 172.308C106.269 171.876 106.377 171.536 106.593 171.288C106.809 171.04 107.173 170.864 107.685 170.76C108.197 170.648 108.885 170.592 109.749 170.592H110.313V171.288H109.773C109.157 171.288 108.669 171.316 108.309 171.372C107.957 171.428 107.709 171.528 107.565 171.672C107.421 171.808 107.349 172 107.349 172.248C107.349 172.56 107.457 172.816 107.673 173.016C107.897 173.216 108.201 173.316 108.585 173.316C108.889 173.316 109.157 173.244 109.389 173.1C109.621 172.948 109.805 172.748 109.941 172.5C110.077 172.244 110.145 171.952 110.145 171.624V170.244C110.145 169.772 110.049 169.432 109.857 169.224C109.665 169.008 109.341 168.9 108.885 168.9C108.621 168.9 108.349 168.936 108.069 169.008C107.789 169.08 107.497 169.192 107.193 169.344C107.073 169.4 106.969 169.42 106.881 169.404C106.793 169.38 106.721 169.332 106.665 169.26C106.617 169.18 106.589 169.096 106.581 169.008C106.581 168.912 106.601 168.82 106.641 168.732C106.689 168.644 106.769 168.58 106.881 168.54C107.233 168.364 107.581 168.24 107.925 168.168C108.277 168.088 108.605 168.048 108.909 168.048C109.429 168.048 109.857 168.132 110.193 168.3C110.529 168.46 110.781 168.712 110.949 169.056C111.117 169.392 111.201 169.824 111.201 170.352V173.52C111.201 173.704 111.157 173.844 111.069 173.94C110.981 174.036 110.853 174.084 110.685 174.084C110.525 174.084 110.397 174.036 110.301 173.94C110.213 173.844 110.169 173.704 110.169 173.52V172.668H110.277C110.213 172.964 110.093 173.22 109.917 173.436C109.741 173.652 109.521 173.82 109.257 173.94C109.001 174.052 108.709 174.108 108.381 174.108ZM113.603 174.084C113.419 174.084 113.279 174.036 113.183 173.94C113.087 173.844 113.039 173.704 113.039 173.52V168.624C113.039 168.44 113.087 168.304 113.183 168.216C113.279 168.12 113.411 168.072 113.579 168.072C113.747 168.072 113.875 168.12 113.963 168.216C114.059 168.304 114.107 168.44 114.107 168.624V169.548H113.987C114.115 169.068 114.355 168.704 114.707 168.456C115.059 168.208 115.503 168.068 116.039 168.036C116.167 168.028 116.271 168.06 116.351 168.132C116.431 168.196 116.475 168.308 116.483 168.468C116.491 168.62 116.455 168.744 116.375 168.84C116.295 168.928 116.171 168.98 116.003 168.996L115.787 169.008C115.259 169.064 114.851 169.236 114.563 169.524C114.283 169.812 114.143 170.208 114.143 170.712V173.52C114.143 173.704 114.095 173.844 113.999 173.94C113.911 174.036 113.779 174.084 113.603 174.084ZM119.692 174.108C119.18 174.108 118.728 173.988 118.336 173.748C117.952 173.5 117.652 173.148 117.436 172.692C117.22 172.228 117.112 171.688 117.112 171.072C117.112 170.448 117.216 169.912 117.424 169.464C117.64 169.008 117.94 168.66 118.324 168.42C118.716 168.172 119.172 168.048 119.692 168.048C120.212 168.048 120.66 168.18 121.036 168.444C121.412 168.7 121.664 169.044 121.792 169.476H121.66V166.008C121.66 165.824 121.704 165.688 121.792 165.6C121.888 165.504 122.024 165.456 122.2 165.456C122.376 165.456 122.512 165.504 122.608 165.6C122.704 165.688 122.752 165.824 122.752 166.008V173.52C122.752 173.704 122.704 173.844 122.608 173.94C122.512 174.036 122.376 174.084 122.2 174.084C122.032 174.084 121.9 174.036 121.804 173.94C121.708 173.844 121.66 173.704 121.66 173.52V172.428L121.792 172.644C121.672 173.092 121.42 173.448 121.036 173.712C120.66 173.976 120.212 174.108 119.692 174.108ZM119.944 173.244C120.296 173.244 120.6 173.16 120.856 172.992C121.12 172.824 121.32 172.58 121.456 172.26C121.6 171.94 121.672 171.544 121.672 171.072C121.672 170.368 121.516 169.832 121.204 169.464C120.892 169.096 120.472 168.912 119.944 168.912C119.6 168.912 119.296 168.996 119.032 169.164C118.776 169.324 118.576 169.564 118.432 169.884C118.288 170.204 118.216 170.6 118.216 171.072C118.216 171.776 118.372 172.316 118.684 172.692C119.004 173.06 119.424 173.244 119.944 173.244ZM125.151 174.048C124.943 174.048 124.771 173.98 124.635 173.844C124.499 173.708 124.431 173.536 124.431 173.328C124.431 173.12 124.499 172.952 124.635 172.824C124.771 172.696 124.943 172.632 125.151 172.632C125.375 172.632 125.547 172.696 125.667 172.824C125.795 172.952 125.859 173.12 125.859 173.328C125.859 173.536 125.795 173.708 125.667 173.844C125.547 173.98 125.375 174.048 125.151 174.048Z" fill="white" fill-opacity="0.7"/>
</svg>
