<svg width="153" height="209" viewBox="0 0 153 209" fill="none" xmlns="http://www.w3.org/2000/svg">
<rect width="153" height="209" rx="21" fill="#1E1E1E"/>
<rect x="34.5" y="26" width="85" height="85" rx="10" fill="#353535"/>
<rect x="34.5" y="26" width="85" height="85" rx="10" stroke="#232527"/>
<path d="M95.0684 44.3535H58.9335C58.0264 44.3535 57.291 45.0889 57.291 45.996V75.5609C57.291 76.4681 58.0264 77.2034 58.9335 77.2034H95.0684C95.9756 77.2034 96.7109 76.4681 96.7109 75.5609V45.996C96.7109 45.0889 95.9756 44.3535 95.0684 44.3535Z" stroke="white" stroke-width="2.34234" stroke-linecap="round" stroke-linejoin="round"/>
<path d="M57.291 68.9929L67.627 58.6569C67.7796 58.5043 67.9606 58.3834 68.1599 58.3008C68.3592 58.2183 68.5728 58.1758 68.7885 58.1758C69.0042 58.1758 69.2177 58.2183 69.417 58.3008C69.6163 58.3834 69.7974 58.5043 69.9499 58.6569L79.1245 67.8315C79.277 67.984 79.4581 68.105 79.6574 68.1875C79.8567 68.2701 80.0702 68.3126 80.2859 68.3126C80.5016 68.3126 80.7152 68.2701 80.9145 68.1875C81.1138 68.105 81.2948 67.984 81.4474 67.8315L85.6945 63.5843C85.847 63.4318 86.0281 63.3108 86.2274 63.2283C86.4266 63.1458 86.6402 63.1033 86.8559 63.1033C87.0716 63.1033 87.2852 63.1458 87.4845 63.2283C87.6838 63.3108 87.8648 63.4318 88.0173 63.5843L96.7109 72.2779" stroke="white" stroke-width="2.34234" stroke-linecap="round" stroke-linejoin="round"/>
<path d="M85.1394 55.0321C85.1394 56.3524 84.0692 57.4226 82.7489 57.4226C81.4286 57.4226 80.3584 56.3524 80.3584 55.0321C80.3584 53.7118 81.4286 52.6416 82.7489 52.6416C84.0692 52.6416 85.1394 53.7118 85.1394 55.0321Z" fill="white" stroke="white" stroke-width="0.146396"/>
<path d="M55.6063 101.192C55.2674 101.192 55.0051 101.099 54.8193 100.913C54.6444 100.716 54.5569 100.448 54.5569 100.11V90.4521C54.5569 90.1023 54.6444 89.8345 54.8193 89.6487C55.0051 89.4628 55.2674 89.3699 55.6063 89.3699C55.9451 89.3699 56.202 89.4628 56.3769 89.6487C56.5627 89.8345 56.6557 90.1023 56.6557 90.4521V100.11C56.6557 100.448 56.5682 100.716 56.3933 100.913C56.2184 101.099 55.9561 101.192 55.6063 101.192ZM60.201 101.192C59.8731 101.192 59.6217 101.104 59.4468 100.929C59.2719 100.744 59.1844 100.481 59.1844 100.142V93.9445C59.1844 93.6057 59.2719 93.3488 59.4468 93.1739C59.6217 92.999 59.8676 92.9115 60.1846 92.9115C60.5016 92.9115 60.7475 92.999 60.9224 93.1739C61.0973 93.3488 61.1848 93.6057 61.1848 93.9445V95.1414L61.0044 94.6496C61.223 94.103 61.5619 93.6712 62.021 93.3542C62.4801 93.0372 63.0266 92.8787 63.6606 92.8787C64.3056 92.8787 64.8357 93.0318 65.2511 93.3378C65.6665 93.6439 65.9561 94.1139 66.1201 94.7479H65.8905C66.1092 94.1686 66.4699 93.715 66.9727 93.387C67.4755 93.0482 68.0549 92.8787 68.7107 92.8787C69.3229 92.8787 69.8257 92.999 70.2192 93.2395C70.6236 93.4799 70.9242 93.8461 71.121 94.338C71.3178 94.819 71.4161 95.4311 71.4161 96.1744V100.142C71.4161 100.481 71.3232 100.744 71.1374 100.929C70.9625 101.104 70.7111 101.192 70.3832 101.192C70.0552 101.192 69.8038 101.104 69.6289 100.929C69.454 100.744 69.3666 100.481 69.3666 100.142V96.2564C69.3666 95.6443 69.2627 95.1961 69.055 94.9119C68.8583 94.6277 68.5194 94.4856 68.0385 94.4856C67.5029 94.4856 67.082 94.6769 66.776 95.0595C66.4699 95.4311 66.3169 95.9503 66.3169 96.6171V100.142C66.3169 100.481 66.2294 100.744 66.0545 100.929C65.8796 101.104 65.6282 101.192 65.3003 101.192C64.9723 101.192 64.7155 101.104 64.5296 100.929C64.3547 100.744 64.2673 100.481 64.2673 100.142V96.2564C64.2673 95.6443 64.1635 95.1961 63.9558 94.9119C63.759 94.6277 63.4256 94.4856 62.9556 94.4856C62.42 94.4856 61.9991 94.6769 61.6931 95.0595C61.387 95.4311 61.234 95.9503 61.234 96.6171V100.142C61.234 100.842 60.8896 101.192 60.201 101.192ZM76.3343 101.225C75.7549 101.225 75.2357 101.115 74.7766 100.897C74.3285 100.667 73.9732 100.361 73.7109 99.9784C73.4594 99.5958 73.3337 99.164 73.3337 98.6831C73.3337 98.0928 73.4868 97.6282 73.7928 97.2894C74.0989 96.9396 74.5963 96.6882 75.2849 96.5351C75.9736 96.3821 76.8972 96.3056 78.0559 96.3056H78.8757V97.4861H78.0723C77.3946 97.4861 76.8535 97.5189 76.4491 97.5845C76.0446 97.6501 75.7549 97.7649 75.58 97.9288C75.4161 98.0819 75.3341 98.3005 75.3341 98.5847C75.3341 98.9454 75.4598 99.2405 75.7112 99.4701C75.9626 99.6996 76.3124 99.8144 76.7606 99.8144C77.1213 99.8144 77.4383 99.7324 77.7116 99.5685C77.9958 99.3936 78.2199 99.1586 78.3838 98.8634C78.5478 98.5683 78.6298 98.2294 78.6298 97.8469V95.9613C78.6298 95.4147 78.5095 95.0212 78.2691 94.7807C78.0286 94.5402 77.6241 94.42 77.0557 94.42C76.7387 94.42 76.3944 94.4583 76.0227 94.5348C75.662 94.6113 75.2794 94.7425 74.875 94.9283C74.6673 95.0267 74.4815 95.054 74.3175 95.0103C74.1645 94.9666 74.0443 94.8791 73.9568 94.7479C73.8694 94.6058 73.8256 94.4528 73.8256 94.2888C73.8256 94.1249 73.8694 93.9664 73.9568 93.8133C74.0443 93.6494 74.1918 93.5291 74.3995 93.4526C74.9023 93.2449 75.3833 93.0974 75.8424 93.0099C76.3124 92.9225 76.7387 92.8787 77.1213 92.8787C77.9083 92.8787 78.5533 92.999 79.0561 93.2395C79.5698 93.4799 79.9524 93.8461 80.2038 94.338C80.4552 94.819 80.5809 95.442 80.5809 96.2072V100.142C80.5809 100.481 80.499 100.744 80.335 100.929C80.171 101.104 79.936 101.192 79.63 101.192C79.3239 101.192 79.0834 101.104 78.9085 100.929C78.7446 100.744 78.6626 100.481 78.6626 100.142V99.3553H78.7937C78.7172 99.7379 78.5642 100.071 78.3346 100.356C78.116 100.629 77.8373 100.842 77.4984 100.995C77.1596 101.148 76.7715 101.225 76.3343 101.225ZM86.5636 104.176C85.9733 104.176 85.3994 104.121 84.842 104.012C84.2954 103.903 83.7981 103.733 83.3499 103.504C83.1422 103.394 83.0001 103.263 82.9236 103.11C82.858 102.957 82.8361 102.799 82.858 102.635C82.8908 102.482 82.9564 102.345 83.0548 102.225C83.1641 102.104 83.2952 102.022 83.4483 101.979C83.6013 101.935 83.7598 101.957 83.9238 102.044C84.4047 102.285 84.8584 102.438 85.2847 102.503C85.7219 102.58 86.0936 102.618 86.3996 102.618C87.132 102.618 87.6785 102.438 88.0393 102.077C88.4109 101.727 88.5967 101.203 88.5967 100.503V99.0274H88.7443C88.5803 99.5849 88.236 100.033 87.7113 100.372C87.1976 100.7 86.6128 100.864 85.9569 100.864C85.2355 100.864 84.6069 100.7 84.0713 100.372C83.5357 100.033 83.1203 99.563 82.8252 98.9618C82.5301 98.3606 82.3825 97.661 82.3825 96.8631C82.3825 96.2619 82.4645 95.7208 82.6284 95.2398C82.8033 94.7479 83.0438 94.3271 83.3499 93.9773C83.6669 93.6275 84.044 93.3597 84.4812 93.1739C84.9294 92.9771 85.4213 92.8787 85.9569 92.8787C86.6346 92.8787 87.2249 93.0482 87.7277 93.387C88.2415 93.715 88.5749 94.1522 88.7279 94.6987L88.5639 95.1087V93.9445C88.5639 93.6057 88.6514 93.3488 88.8263 93.1739C89.0121 92.999 89.2635 92.9115 89.5805 92.9115C89.9084 92.9115 90.1599 92.999 90.3348 93.1739C90.5097 93.3488 90.5971 93.6057 90.5971 93.9445V100.257C90.5971 101.558 90.2528 102.536 89.5641 103.192C88.8755 103.848 87.8753 104.176 86.5636 104.176ZM86.5144 99.3061C86.9407 99.3061 87.3069 99.2078 87.613 99.011C87.919 98.8142 88.154 98.5355 88.318 98.1748C88.4929 97.8031 88.5803 97.3659 88.5803 96.8631C88.5803 96.1088 88.3945 95.5186 88.0229 95.0923C87.6512 94.655 87.1484 94.4364 86.5144 94.4364C86.0881 94.4364 85.7219 94.5348 85.4158 94.7315C85.1098 94.9283 84.8693 95.207 84.6944 95.5678C84.5304 95.9285 84.4484 96.3602 84.4484 96.8631C84.4484 97.6173 84.6343 98.213 85.0059 98.6503C85.3776 99.0875 85.8804 99.3061 86.5144 99.3061ZM96.8362 101.225C95.9289 101.225 95.1474 101.055 94.4915 100.716C93.8356 100.377 93.3274 99.8964 92.9666 99.2733C92.6168 98.6503 92.4419 97.9124 92.4419 97.0598C92.4419 96.2291 92.6114 95.5022 92.9502 94.8791C93.3 94.256 93.7755 93.7696 94.3767 93.4198C94.9889 93.0591 95.683 92.8787 96.4591 92.8787C97.0275 92.8787 97.5358 92.9717 97.9839 93.1575C98.443 93.3433 98.8311 93.6111 99.1481 93.9609C99.476 94.3107 99.7219 94.737 99.8859 95.2398C100.061 95.7317 100.148 96.2892 100.148 96.9123C100.148 97.109 100.077 97.262 99.9351 97.3714C99.8039 97.4697 99.6126 97.5189 99.3612 97.5189H94.098V96.3384H98.7054L98.443 96.5843C98.443 96.0815 98.3665 95.6607 98.2135 95.3218C98.0714 94.9829 97.8582 94.7261 97.574 94.5512C97.3007 94.3654 96.9564 94.2724 96.541 94.2724C96.0819 94.2724 95.6884 94.3817 95.3605 94.6004C95.0435 94.8081 94.7976 95.1087 94.6227 95.5022C94.4587 95.8848 94.3767 96.3438 94.3767 96.8795V96.9942C94.3767 97.8906 94.5844 98.5628 94.9998 99.011C95.4261 99.4482 96.0492 99.6669 96.869 99.6669C97.1532 99.6669 97.4702 99.6341 97.82 99.5685C98.1807 99.492 98.5195 99.3663 98.8365 99.1914C99.0661 99.0602 99.2683 99.0055 99.4432 99.0274C99.6181 99.0383 99.7547 99.0984 99.8531 99.2078C99.9624 99.3171 100.028 99.4537 100.05 99.6177C100.072 99.7707 100.039 99.9292 99.9515 100.093C99.875 100.257 99.7383 100.399 99.5416 100.519C99.159 100.76 98.7163 100.94 98.2135 101.061C97.7216 101.17 97.2625 101.225 96.8362 101.225Z" fill="white"/>
<path d="M32.792 157.108C32.416 157.108 32.052 157.076 31.7 157.012C31.348 156.956 31.016 156.868 30.704 156.748C30.392 156.628 30.112 156.48 29.864 156.304C29.76 156.232 29.684 156.144 29.636 156.04C29.596 155.936 29.584 155.836 29.6 155.74C29.624 155.636 29.668 155.548 29.732 155.476C29.804 155.404 29.888 155.36 29.984 155.344C30.08 155.328 30.184 155.36 30.296 155.44C30.664 155.688 31.048 155.868 31.448 155.98C31.856 156.092 32.304 156.148 32.792 156.148C33.496 156.148 34.012 156.02 34.34 155.764C34.676 155.508 34.844 155.172 34.844 154.756C34.844 154.412 34.724 154.144 34.484 153.952C34.244 153.752 33.84 153.596 33.272 153.484L32 153.22C31.248 153.06 30.684 152.796 30.308 152.428C29.94 152.06 29.756 151.568 29.756 150.952C29.756 150.576 29.832 150.236 29.984 149.932C30.136 149.62 30.352 149.352 30.632 149.128C30.912 148.904 31.24 148.732 31.616 148.612C32 148.492 32.424 148.432 32.888 148.432C33.384 148.432 33.848 148.5 34.28 148.636C34.72 148.772 35.116 148.972 35.468 149.236C35.564 149.308 35.628 149.396 35.66 149.5C35.692 149.596 35.696 149.692 35.672 149.788C35.656 149.884 35.612 149.964 35.54 150.028C35.476 150.092 35.392 150.128 35.288 150.136C35.192 150.144 35.084 150.108 34.964 150.028C34.644 149.804 34.316 149.644 33.98 149.548C33.644 149.444 33.276 149.392 32.876 149.392C32.468 149.392 32.112 149.456 31.808 149.584C31.512 149.712 31.28 149.892 31.112 150.124C30.952 150.348 30.872 150.612 30.872 150.916C30.872 151.284 30.984 151.572 31.208 151.78C31.432 151.988 31.808 152.148 32.336 152.26L33.596 152.512C34.396 152.68 34.988 152.94 35.372 153.292C35.764 153.636 35.96 154.1 35.96 154.684C35.96 155.052 35.884 155.384 35.732 155.68C35.588 155.976 35.38 156.232 35.108 156.448C34.836 156.656 34.504 156.82 34.112 156.94C33.72 157.052 33.28 157.108 32.792 157.108ZM40.114 157.108C39.482 157.108 38.938 156.988 38.482 156.748C38.034 156.5 37.686 156.152 37.438 155.704C37.19 155.248 37.066 154.712 37.066 154.096C37.066 153.488 37.186 152.956 37.426 152.5C37.674 152.044 38.01 151.688 38.434 151.432C38.866 151.176 39.358 151.048 39.91 151.048C40.302 151.048 40.654 151.116 40.966 151.252C41.286 151.38 41.558 151.568 41.782 151.816C42.006 152.064 42.174 152.368 42.286 152.728C42.406 153.08 42.466 153.48 42.466 153.928C42.466 154.056 42.426 154.156 42.346 154.228C42.274 154.292 42.166 154.324 42.022 154.324H37.918V153.628H41.746L41.542 153.796C41.542 153.38 41.478 153.028 41.35 152.74C41.23 152.444 41.05 152.22 40.81 152.068C40.578 151.916 40.286 151.84 39.934 151.84C39.55 151.84 39.222 151.932 38.95 152.116C38.678 152.292 38.47 152.544 38.326 152.872C38.182 153.192 38.11 153.564 38.11 153.988V154.06C38.11 154.78 38.282 155.324 38.626 155.692C38.97 156.06 39.466 156.244 40.114 156.244C40.37 156.244 40.63 156.212 40.894 156.148C41.166 156.084 41.426 155.968 41.674 155.8C41.794 155.728 41.902 155.696 41.998 155.704C42.102 155.704 42.186 155.736 42.25 155.8C42.314 155.856 42.354 155.928 42.37 156.016C42.386 156.096 42.374 156.184 42.334 156.28C42.294 156.376 42.218 156.46 42.106 156.532C41.842 156.716 41.526 156.86 41.158 156.964C40.798 157.06 40.45 157.108 40.114 157.108ZM45.7801 157.108C45.1801 157.108 44.7241 156.932 44.4121 156.58C44.1001 156.22 43.9441 155.704 43.9441 155.032V149.008C43.9441 148.824 43.9921 148.688 44.0881 148.6C44.1841 148.504 44.3161 148.456 44.4841 148.456C44.6601 148.456 44.7961 148.504 44.8921 148.6C44.9881 148.688 45.0361 148.824 45.0361 149.008V154.948C45.0361 155.364 45.1201 155.676 45.2881 155.884C45.4641 156.084 45.7121 156.184 46.0321 156.184C46.1041 156.184 46.1681 156.184 46.2241 156.184C46.2801 156.176 46.3361 156.168 46.3921 156.16C46.4801 156.152 46.5441 156.176 46.5841 156.232C46.6241 156.288 46.6441 156.4 46.6441 156.568C46.6441 156.72 46.6081 156.84 46.5361 156.928C46.4721 157.008 46.3641 157.06 46.2121 157.084C46.1401 157.092 46.0681 157.096 45.9961 157.096C45.9241 157.104 45.8521 157.108 45.7801 157.108ZM50.3149 157.108C49.6829 157.108 49.1389 156.988 48.6829 156.748C48.2349 156.5 47.8869 156.152 47.6389 155.704C47.3909 155.248 47.2669 154.712 47.2669 154.096C47.2669 153.488 47.3869 152.956 47.6269 152.5C47.8749 152.044 48.2109 151.688 48.6349 151.432C49.0669 151.176 49.5589 151.048 50.1109 151.048C50.5029 151.048 50.8549 151.116 51.1669 151.252C51.4869 151.38 51.7589 151.568 51.9829 151.816C52.2069 152.064 52.3749 152.368 52.4869 152.728C52.6069 153.08 52.6669 153.48 52.6669 153.928C52.6669 154.056 52.6269 154.156 52.5469 154.228C52.4749 154.292 52.3669 154.324 52.2229 154.324H48.1189V153.628H51.9469L51.7429 153.796C51.7429 153.38 51.6789 153.028 51.5509 152.74C51.4309 152.444 51.2509 152.22 51.0109 152.068C50.7789 151.916 50.4869 151.84 50.1349 151.84C49.7509 151.84 49.4229 151.932 49.1509 152.116C48.8789 152.292 48.6709 152.544 48.5269 152.872C48.3829 153.192 48.3109 153.564 48.3109 153.988V154.06C48.3109 154.78 48.4829 155.324 48.8269 155.692C49.1709 156.06 49.6669 156.244 50.3149 156.244C50.5709 156.244 50.8309 156.212 51.0949 156.148C51.3669 156.084 51.6269 155.968 51.8749 155.8C51.9949 155.728 52.1029 155.696 52.1989 155.704C52.3029 155.704 52.3869 155.736 52.4509 155.8C52.5149 155.856 52.5549 155.928 52.5709 156.016C52.5869 156.096 52.5749 156.184 52.5349 156.28C52.4949 156.376 52.4189 156.46 52.3069 156.532C52.0429 156.716 51.7269 156.86 51.3589 156.964C50.9989 157.06 50.6509 157.108 50.3149 157.108ZM56.6771 157.108C56.0851 157.108 55.5731 156.984 55.1411 156.736C54.7091 156.48 54.3771 156.124 54.1451 155.668C53.9131 155.204 53.7971 154.66 53.7971 154.036C53.7971 153.572 53.8611 153.156 53.9891 152.788C54.1251 152.42 54.3171 152.108 54.5651 151.852C54.8131 151.588 55.1131 151.388 55.4651 151.252C55.8251 151.116 56.2291 151.048 56.6771 151.048C56.9571 151.048 57.2531 151.092 57.5651 151.18C57.8771 151.268 58.1651 151.412 58.4291 151.612C58.5171 151.676 58.5731 151.752 58.5971 151.84C58.6211 151.92 58.6211 152.004 58.5971 152.092C58.5811 152.18 58.5411 152.256 58.4771 152.32C58.4211 152.376 58.3451 152.408 58.2491 152.416C58.1611 152.424 58.0651 152.396 57.9611 152.332C57.7691 152.188 57.5651 152.084 57.3491 152.02C57.1411 151.956 56.9411 151.924 56.7491 151.924C56.4531 151.924 56.1891 151.972 55.9571 152.068C55.7331 152.164 55.5411 152.304 55.3811 152.488C55.2291 152.664 55.1131 152.884 55.0331 153.148C54.9531 153.404 54.9131 153.704 54.9131 154.048C54.9131 154.728 55.0731 155.264 55.3931 155.656C55.7131 156.04 56.1651 156.232 56.7491 156.232C56.9411 156.232 57.1411 156.204 57.3491 156.148C57.5571 156.084 57.7611 155.98 57.9611 155.836C58.0651 155.772 58.1611 155.748 58.2491 155.764C58.3371 155.772 58.4091 155.808 58.4651 155.872C58.5291 155.928 58.5691 156 58.5851 156.088C58.6011 156.168 58.5931 156.252 58.5611 156.34C58.5371 156.428 58.4811 156.5 58.3931 156.556C58.1371 156.748 57.8571 156.888 57.5531 156.976C57.2491 157.064 56.9571 157.108 56.6771 157.108ZM62.2789 157.108C61.8069 157.108 61.4109 157.024 61.0909 156.856C60.7789 156.688 60.5429 156.444 60.3829 156.124C60.2309 155.804 60.1549 155.412 60.1549 154.948V151.996H59.3869C59.2429 151.996 59.1309 151.96 59.0509 151.888C58.9709 151.808 58.9309 151.704 58.9309 151.576C58.9309 151.44 58.9709 151.336 59.0509 151.264C59.1309 151.192 59.2429 151.156 59.3869 151.156H60.1549V149.848C60.1549 149.664 60.2029 149.528 60.2989 149.44C60.3949 149.344 60.5309 149.296 60.7069 149.296C60.8829 149.296 61.0149 149.344 61.1029 149.44C61.1989 149.528 61.2469 149.664 61.2469 149.848V151.156H62.6989C62.8509 151.156 62.9669 151.192 63.0469 151.264C63.1269 151.336 63.1669 151.44 63.1669 151.576C63.1669 151.704 63.1269 151.808 63.0469 151.888C62.9669 151.96 62.8509 151.996 62.6989 151.996H61.2469V154.852C61.2469 155.292 61.3389 155.624 61.5229 155.848C61.7069 156.072 62.0109 156.184 62.4349 156.184C62.5869 156.184 62.7149 156.172 62.8189 156.148C62.9229 156.116 63.0149 156.1 63.0949 156.1C63.1669 156.092 63.2269 156.116 63.2749 156.172C63.3309 156.228 63.3589 156.332 63.3589 156.484C63.3589 156.596 63.3389 156.7 63.2989 156.796C63.2669 156.884 63.1989 156.944 63.0949 156.976C62.9989 157.008 62.8709 157.036 62.7109 157.06C62.5509 157.092 62.4069 157.108 62.2789 157.108ZM69.3846 157.108C68.9846 157.108 68.6206 157.028 68.2926 156.868C67.9726 156.708 67.7206 156.492 67.5366 156.22C67.3606 155.948 67.2726 155.644 67.2726 155.308C67.2726 154.876 67.3806 154.536 67.5966 154.288C67.8126 154.04 68.1766 153.864 68.6886 153.76C69.2006 153.648 69.8886 153.592 70.7526 153.592H71.3166V154.288H70.7766C70.1606 154.288 69.6726 154.316 69.3126 154.372C68.9606 154.428 68.7126 154.528 68.5686 154.672C68.4246 154.808 68.3526 155 68.3526 155.248C68.3526 155.56 68.4606 155.816 68.6766 156.016C68.9006 156.216 69.2046 156.316 69.5886 156.316C69.8926 156.316 70.1606 156.244 70.3926 156.1C70.6246 155.948 70.8086 155.748 70.9446 155.5C71.0806 155.244 71.1486 154.952 71.1486 154.624V153.244C71.1486 152.772 71.0526 152.432 70.8606 152.224C70.6686 152.008 70.3446 151.9 69.8886 151.9C69.6246 151.9 69.3526 151.936 69.0726 152.008C68.7926 152.08 68.5006 152.192 68.1966 152.344C68.0766 152.4 67.9726 152.42 67.8846 152.404C67.7966 152.38 67.7246 152.332 67.6686 152.26C67.6206 152.18 67.5926 152.096 67.5846 152.008C67.5846 151.912 67.6046 151.82 67.6446 151.732C67.6926 151.644 67.7726 151.58 67.8846 151.54C68.2366 151.364 68.5846 151.24 68.9286 151.168C69.2806 151.088 69.6086 151.048 69.9126 151.048C70.4326 151.048 70.8606 151.132 71.1966 151.3C71.5326 151.46 71.7846 151.712 71.9526 152.056C72.1206 152.392 72.2046 152.824 72.2046 153.352V156.52C72.2046 156.704 72.1606 156.844 72.0726 156.94C71.9846 157.036 71.8566 157.084 71.6886 157.084C71.5286 157.084 71.4006 157.036 71.3046 156.94C71.2166 156.844 71.1726 156.704 71.1726 156.52V155.668H71.2806C71.2166 155.964 71.0966 156.22 70.9206 156.436C70.7446 156.652 70.5246 156.82 70.2606 156.94C70.0046 157.052 69.7126 157.108 69.3846 157.108ZM74.583 157.084C74.415 157.084 74.283 157.036 74.187 156.94C74.091 156.844 74.043 156.704 74.043 156.52V151.624C74.043 151.44 74.091 151.304 74.187 151.216C74.283 151.12 74.415 151.072 74.583 151.072C74.751 151.072 74.879 151.12 74.967 151.216C75.063 151.304 75.111 151.44 75.111 151.624V152.608L74.979 152.428C75.147 151.972 75.419 151.628 75.795 151.396C76.179 151.164 76.615 151.048 77.103 151.048C77.575 151.048 77.963 151.132 78.267 151.3C78.571 151.468 78.799 151.724 78.951 152.068C79.103 152.412 79.179 152.848 79.179 153.376V156.52C79.179 156.704 79.131 156.844 79.035 156.94C78.947 157.036 78.815 157.084 78.639 157.084C78.463 157.084 78.327 157.036 78.231 156.94C78.135 156.844 78.087 156.704 78.087 156.52V153.436C78.087 152.916 77.987 152.536 77.787 152.296C77.587 152.056 77.267 151.936 76.827 151.936C76.315 151.936 75.903 152.096 75.591 152.416C75.287 152.728 75.135 153.152 75.135 153.688V156.52C75.135 156.896 74.951 157.084 74.583 157.084ZM84.8191 157.06C84.6511 157.06 84.5191 157.008 84.4231 156.904C84.3271 156.8 84.2791 156.656 84.2791 156.472V151.684C84.2791 151.492 84.3271 151.348 84.4231 151.252C84.5191 151.148 84.6511 151.096 84.8191 151.096C84.9951 151.096 85.1311 151.148 85.2271 151.252C85.3231 151.348 85.3711 151.492 85.3711 151.684V156.472C85.3711 156.656 85.3231 156.8 85.2271 156.904C85.1391 157.008 85.0031 157.06 84.8191 157.06ZM84.8191 149.8C84.6031 149.8 84.4311 149.744 84.3031 149.632C84.1831 149.512 84.1231 149.356 84.1231 149.164C84.1231 148.956 84.1831 148.8 84.3031 148.696C84.4311 148.584 84.6031 148.528 84.8191 148.528C85.0511 148.528 85.2231 148.584 85.3351 148.696C85.4551 148.8 85.5151 148.956 85.5151 149.164C85.5151 149.356 85.4551 149.512 85.3351 149.632C85.2231 149.744 85.0511 149.8 84.8191 149.8ZM87.8108 157.084C87.6428 157.084 87.5108 157.036 87.4148 156.94C87.3188 156.844 87.2708 156.704 87.2708 156.52V151.624C87.2708 151.44 87.3188 151.304 87.4148 151.216C87.5108 151.12 87.6428 151.072 87.8108 151.072C87.9788 151.072 88.1068 151.12 88.1948 151.216C88.2908 151.304 88.3388 151.44 88.3388 151.624V152.644L88.2068 152.428C88.3588 151.988 88.6028 151.648 88.9388 151.408C89.2828 151.168 89.6908 151.048 90.1628 151.048C90.6588 151.048 91.0588 151.168 91.3628 151.408C91.6668 151.64 91.8708 151.996 91.9748 152.476H91.8068C91.9508 152.036 92.2068 151.688 92.5748 151.432C92.9508 151.176 93.3868 151.048 93.8828 151.048C94.3228 151.048 94.6828 151.136 94.9628 151.312C95.2508 151.48 95.4668 151.736 95.6108 152.08C95.7548 152.416 95.8268 152.848 95.8268 153.376V156.52C95.8268 156.704 95.7788 156.844 95.6828 156.94C95.5868 157.036 95.4548 157.084 95.2868 157.084C95.1108 157.084 94.9748 157.036 94.8788 156.94C94.7828 156.844 94.7348 156.704 94.7348 156.52V153.424C94.7348 152.912 94.6468 152.536 94.4708 152.296C94.2948 152.056 93.9988 151.936 93.5828 151.936C93.1268 151.936 92.7628 152.096 92.4908 152.416C92.2268 152.728 92.0948 153.16 92.0948 153.712V156.52C92.0948 156.704 92.0468 156.844 91.9508 156.94C91.8628 157.036 91.7308 157.084 91.5548 157.084C91.3788 157.084 91.2428 157.036 91.1468 156.94C91.0508 156.844 91.0028 156.704 91.0028 156.52V153.424C91.0028 152.912 90.9148 152.536 90.7388 152.296C90.5628 152.056 90.2668 151.936 89.8508 151.936C89.3948 151.936 89.0308 152.096 88.7588 152.416C88.4948 152.728 88.3628 153.16 88.3628 153.712V156.52C88.3628 156.896 88.1788 157.084 87.8108 157.084ZM99.5627 157.108C99.1627 157.108 98.7987 157.028 98.4707 156.868C98.1507 156.708 97.8987 156.492 97.7147 156.22C97.5387 155.948 97.4507 155.644 97.4507 155.308C97.4507 154.876 97.5587 154.536 97.7747 154.288C97.9907 154.04 98.3547 153.864 98.8667 153.76C99.3787 153.648 100.067 153.592 100.931 153.592H101.495V154.288H100.955C100.339 154.288 99.8507 154.316 99.4907 154.372C99.1387 154.428 98.8907 154.528 98.7467 154.672C98.6027 154.808 98.5307 155 98.5307 155.248C98.5307 155.56 98.6387 155.816 98.8547 156.016C99.0787 156.216 99.3827 156.316 99.7667 156.316C100.071 156.316 100.339 156.244 100.571 156.1C100.803 155.948 100.987 155.748 101.123 155.5C101.259 155.244 101.327 154.952 101.327 154.624V153.244C101.327 152.772 101.231 152.432 101.039 152.224C100.847 152.008 100.523 151.9 100.067 151.9C99.8027 151.9 99.5307 151.936 99.2507 152.008C98.9707 152.08 98.6787 152.192 98.3747 152.344C98.2547 152.4 98.1507 152.42 98.0627 152.404C97.9747 152.38 97.9027 152.332 97.8467 152.26C97.7987 152.18 97.7707 152.096 97.7627 152.008C97.7627 151.912 97.7827 151.82 97.8227 151.732C97.8707 151.644 97.9507 151.58 98.0627 151.54C98.4147 151.364 98.7627 151.24 99.1067 151.168C99.4587 151.088 99.7867 151.048 100.091 151.048C100.611 151.048 101.039 151.132 101.375 151.3C101.711 151.46 101.963 151.712 102.131 152.056C102.299 152.392 102.383 152.824 102.383 153.352V156.52C102.383 156.704 102.339 156.844 102.251 156.94C102.163 157.036 102.035 157.084 101.867 157.084C101.707 157.084 101.579 157.036 101.483 156.94C101.395 156.844 101.351 156.704 101.351 156.52V155.668H101.459C101.395 155.964 101.275 156.22 101.099 156.436C100.923 156.652 100.703 156.82 100.439 156.94C100.183 157.052 99.8907 157.108 99.5627 157.108ZM106.849 159.268C106.417 159.268 105.997 159.22 105.589 159.124C105.189 159.028 104.825 158.88 104.497 158.68C104.393 158.616 104.321 158.54 104.281 158.452C104.249 158.372 104.241 158.288 104.257 158.2C104.281 158.112 104.321 158.032 104.377 157.96C104.441 157.896 104.513 157.852 104.593 157.828C104.681 157.812 104.769 157.832 104.857 157.888C105.209 158.088 105.545 158.224 105.865 158.296C106.185 158.368 106.489 158.404 106.777 158.404C107.345 158.404 107.769 158.256 108.049 157.96C108.337 157.672 108.481 157.248 108.481 156.688V155.392H108.589C108.477 155.84 108.225 156.196 107.833 156.46C107.449 156.724 107.001 156.856 106.489 156.856C105.961 156.856 105.501 156.736 105.109 156.496C104.717 156.248 104.413 155.908 104.197 155.476C103.981 155.036 103.873 154.528 103.873 153.952C103.873 153.512 103.933 153.116 104.053 152.764C104.181 152.404 104.357 152.1 104.581 151.852C104.813 151.596 105.089 151.4 105.409 151.264C105.729 151.12 106.089 151.048 106.489 151.048C107.009 151.048 107.461 151.18 107.845 151.444C108.229 151.708 108.477 152.064 108.589 152.512L108.457 152.68V151.624C108.457 151.44 108.505 151.304 108.601 151.216C108.697 151.12 108.833 151.072 109.009 151.072C109.177 151.072 109.309 151.12 109.405 151.216C109.501 151.304 109.549 151.44 109.549 151.624V156.544C109.549 157.448 109.317 158.128 108.853 158.584C108.397 159.04 107.729 159.268 106.849 159.268ZM106.729 155.992C107.089 155.992 107.397 155.912 107.653 155.752C107.917 155.584 108.117 155.348 108.253 155.044C108.397 154.732 108.469 154.368 108.469 153.952C108.469 153.32 108.313 152.824 108.001 152.464C107.689 152.096 107.265 151.912 106.729 151.912C106.369 151.912 106.057 151.996 105.793 152.164C105.537 152.324 105.337 152.556 105.193 152.86C105.049 153.164 104.977 153.528 104.977 153.952C104.977 154.576 105.133 155.072 105.445 155.44C105.765 155.808 106.193 155.992 106.729 155.992ZM114.119 157.108C113.487 157.108 112.943 156.988 112.487 156.748C112.039 156.5 111.691 156.152 111.443 155.704C111.195 155.248 111.071 154.712 111.071 154.096C111.071 153.488 111.191 152.956 111.431 152.5C111.679 152.044 112.015 151.688 112.439 151.432C112.871 151.176 113.363 151.048 113.915 151.048C114.307 151.048 114.659 151.116 114.971 151.252C115.291 151.38 115.563 151.568 115.787 151.816C116.011 152.064 116.179 152.368 116.291 152.728C116.411 153.08 116.471 153.48 116.471 153.928C116.471 154.056 116.431 154.156 116.351 154.228C116.279 154.292 116.171 154.324 116.027 154.324H111.923V153.628H115.751L115.547 153.796C115.547 153.38 115.483 153.028 115.355 152.74C115.235 152.444 115.055 152.22 114.815 152.068C114.583 151.916 114.291 151.84 113.939 151.84C113.555 151.84 113.227 151.932 112.955 152.116C112.683 152.292 112.475 152.544 112.331 152.872C112.187 153.192 112.115 153.564 112.115 153.988V154.06C112.115 154.78 112.287 155.324 112.631 155.692C112.975 156.06 113.471 156.244 114.119 156.244C114.375 156.244 114.635 156.212 114.899 156.148C115.171 156.084 115.431 155.968 115.679 155.8C115.799 155.728 115.907 155.696 116.003 155.704C116.107 155.704 116.191 155.736 116.255 155.8C116.319 155.856 116.359 155.928 116.375 156.016C116.391 156.096 116.379 156.184 116.339 156.28C116.299 156.376 116.223 156.46 116.111 156.532C115.847 156.716 115.531 156.86 115.163 156.964C114.803 157.06 114.455 157.108 114.119 157.108ZM30.764 173.084C30.588 173.084 30.452 173.036 30.356 172.94C30.26 172.844 30.212 172.704 30.212 172.52V167.996H29.492C29.348 167.996 29.236 167.96 29.156 167.888C29.076 167.808 29.036 167.704 29.036 167.576C29.036 167.44 29.076 167.336 29.156 167.264C29.236 167.192 29.348 167.156 29.492 167.156H30.512L30.212 167.444V167C30.212 166.224 30.4 165.636 30.776 165.236C31.16 164.828 31.72 164.592 32.456 164.528L32.828 164.504C32.948 164.488 33.044 164.508 33.116 164.564C33.188 164.612 33.236 164.676 33.26 164.756C33.284 164.836 33.284 164.92 33.26 165.008C33.244 165.088 33.208 165.16 33.152 165.224C33.096 165.288 33.024 165.324 32.936 165.332L32.672 165.344C32.192 165.384 31.844 165.528 31.628 165.776C31.412 166.016 31.304 166.376 31.304 166.856V167.336L31.148 167.156H32.528C32.68 167.156 32.796 167.192 32.876 167.264C32.956 167.336 32.996 167.44 32.996 167.576C32.996 167.704 32.956 167.808 32.876 167.888C32.796 167.96 32.68 167.996 32.528 167.996H31.304V172.52C31.304 172.896 31.124 173.084 30.764 173.084ZM34.6381 173.084C34.4541 173.084 34.3141 173.036 34.2181 172.94C34.1221 172.844 34.0741 172.704 34.0741 172.52V167.624C34.0741 167.44 34.1221 167.304 34.2181 167.216C34.3141 167.12 34.4461 167.072 34.6141 167.072C34.7821 167.072 34.9101 167.12 34.9981 167.216C35.0941 167.304 35.1421 167.44 35.1421 167.624V168.548H35.0221C35.1501 168.068 35.3901 167.704 35.7421 167.456C36.0941 167.208 36.5381 167.068 37.0741 167.036C37.2021 167.028 37.3061 167.06 37.3861 167.132C37.4661 167.196 37.5101 167.308 37.5181 167.468C37.5261 167.62 37.4901 167.744 37.4101 167.84C37.3301 167.928 37.2061 167.98 37.0381 167.996L36.8221 168.008C36.2941 168.064 35.8861 168.236 35.5981 168.524C35.3181 168.812 35.1781 169.208 35.1781 169.712V172.52C35.1781 172.704 35.1301 172.844 35.0341 172.94C34.9461 173.036 34.8141 173.084 34.6381 173.084ZM40.9789 173.108C40.4029 173.108 39.9029 172.984 39.4789 172.736C39.0549 172.488 38.7269 172.136 38.4949 171.68C38.2629 171.224 38.1469 170.688 38.1469 170.072C38.1469 169.608 38.2109 169.192 38.3389 168.824C38.4749 168.448 38.6669 168.128 38.9149 167.864C39.1629 167.6 39.4589 167.4 39.8029 167.264C40.1549 167.12 40.5469 167.048 40.9789 167.048C41.5549 167.048 42.0549 167.172 42.4789 167.42C42.9029 167.668 43.2309 168.02 43.4629 168.476C43.6949 168.924 43.8109 169.456 43.8109 170.072C43.8109 170.536 43.7429 170.956 43.6069 171.332C43.4789 171.708 43.2909 172.028 43.0429 172.292C42.7949 172.556 42.4949 172.76 42.1429 172.904C41.7989 173.04 41.4109 173.108 40.9789 173.108ZM40.9789 172.244C41.3309 172.244 41.6349 172.16 41.8909 171.992C42.1549 171.824 42.3549 171.58 42.4909 171.26C42.6349 170.94 42.7069 170.544 42.7069 170.072C42.7069 169.368 42.5509 168.832 42.2389 168.464C41.9269 168.096 41.5069 167.912 40.9789 167.912C40.6349 167.912 40.3309 167.996 40.0669 168.164C39.8109 168.324 39.6109 168.564 39.4669 168.884C39.3229 169.204 39.2509 169.6 39.2509 170.072C39.2509 170.776 39.4069 171.316 39.7189 171.692C40.0389 172.06 40.4589 172.244 40.9789 172.244ZM45.8937 173.084C45.7257 173.084 45.5937 173.036 45.4977 172.94C45.4017 172.844 45.3537 172.704 45.3537 172.52V167.624C45.3537 167.44 45.4017 167.304 45.4977 167.216C45.5937 167.12 45.7257 167.072 45.8937 167.072C46.0617 167.072 46.1897 167.12 46.2777 167.216C46.3737 167.304 46.4217 167.44 46.4217 167.624V168.644L46.2897 168.428C46.4417 167.988 46.6857 167.648 47.0217 167.408C47.3657 167.168 47.7737 167.048 48.2457 167.048C48.7417 167.048 49.1417 167.168 49.4457 167.408C49.7497 167.64 49.9537 167.996 50.0577 168.476H49.8897C50.0337 168.036 50.2897 167.688 50.6577 167.432C51.0337 167.176 51.4697 167.048 51.9658 167.048C52.4058 167.048 52.7658 167.136 53.0457 167.312C53.3338 167.48 53.5498 167.736 53.6938 168.08C53.8378 168.416 53.9098 168.848 53.9098 169.376V172.52C53.9098 172.704 53.8618 172.844 53.7657 172.94C53.6698 173.036 53.5378 173.084 53.3698 173.084C53.1937 173.084 53.0577 173.036 52.9618 172.94C52.8658 172.844 52.8177 172.704 52.8177 172.52V169.424C52.8177 168.912 52.7297 168.536 52.5537 168.296C52.3778 168.056 52.0818 167.936 51.6657 167.936C51.2097 167.936 50.8458 168.096 50.5738 168.416C50.3098 168.728 50.1777 169.16 50.1777 169.712V172.52C50.1777 172.704 50.1298 172.844 50.0338 172.94C49.9457 173.036 49.8137 173.084 49.6377 173.084C49.4617 173.084 49.3257 173.036 49.2298 172.94C49.1337 172.844 49.0857 172.704 49.0857 172.52V169.424C49.0857 168.912 48.9977 168.536 48.8217 168.296C48.6457 168.056 48.3497 167.936 47.9337 167.936C47.4777 167.936 47.1137 168.096 46.8417 168.416C46.5777 168.728 46.4457 169.16 46.4457 169.712V172.52C46.4457 172.896 46.2617 173.084 45.8937 173.084ZM60.3786 175.244C60.2506 175.244 60.1426 175.208 60.0546 175.136C59.9746 175.072 59.9266 174.98 59.9106 174.86C59.9026 174.748 59.9266 174.628 59.9826 174.5L60.7986 172.652V173.108L58.5306 167.828C58.4746 167.692 58.4546 167.568 58.4706 167.456C58.4866 167.344 58.5386 167.252 58.6266 167.18C58.7226 167.108 58.8506 167.072 59.0106 167.072C59.1466 167.072 59.2546 167.104 59.3346 167.168C59.4146 167.232 59.4906 167.344 59.5626 167.504L61.4466 172.148H61.1106L63.0306 167.504C63.0946 167.344 63.1706 167.232 63.2586 167.168C63.3466 167.104 63.4666 167.072 63.6186 167.072C63.7546 167.072 63.8586 167.108 63.9306 167.18C64.0106 167.252 64.0586 167.344 64.0746 167.456C64.0906 167.568 64.0666 167.688 64.0026 167.816L60.9786 174.812C60.8986 174.98 60.8146 175.092 60.7266 175.148C60.6466 175.212 60.5306 175.244 60.3786 175.244ZM67.7441 173.108C67.1681 173.108 66.6681 172.984 66.2441 172.736C65.8201 172.488 65.4921 172.136 65.2601 171.68C65.0281 171.224 64.9121 170.688 64.9121 170.072C64.9121 169.608 64.9761 169.192 65.1041 168.824C65.2401 168.448 65.4321 168.128 65.6801 167.864C65.9281 167.6 66.2241 167.4 66.5681 167.264C66.9201 167.12 67.3121 167.048 67.7441 167.048C68.3201 167.048 68.8201 167.172 69.2441 167.42C69.6681 167.668 69.9961 168.02 70.2281 168.476C70.4601 168.924 70.5761 169.456 70.5761 170.072C70.5761 170.536 70.5081 170.956 70.3721 171.332C70.2441 171.708 70.0561 172.028 69.8081 172.292C69.5601 172.556 69.2601 172.76 68.9081 172.904C68.5641 173.04 68.1761 173.108 67.7441 173.108ZM67.7441 172.244C68.0961 172.244 68.4001 172.16 68.6561 171.992C68.9201 171.824 69.1201 171.58 69.2561 171.26C69.4001 170.94 69.4721 170.544 69.4721 170.072C69.4721 169.368 69.3161 168.832 69.0041 168.464C68.6921 168.096 68.2721 167.912 67.7441 167.912C67.4001 167.912 67.0961 167.996 66.8321 168.164C66.5761 168.324 66.3761 168.564 66.2321 168.884C66.0881 169.204 66.0161 169.6 66.0161 170.072C66.0161 170.776 66.1721 171.316 66.4841 171.692C66.8041 172.06 67.2241 172.244 67.7441 172.244ZM74.1829 173.108C73.7109 173.108 73.3149 173.02 72.9949 172.844C72.6829 172.668 72.4509 172.408 72.2989 172.064C72.1469 171.72 72.0709 171.288 72.0709 170.768V167.624C72.0709 167.44 72.1149 167.304 72.2029 167.216C72.2989 167.12 72.4349 167.072 72.6109 167.072C72.7869 167.072 72.9229 167.12 73.0189 167.216C73.1149 167.304 73.1629 167.44 73.1629 167.624V170.768C73.1629 171.264 73.2629 171.632 73.4629 171.872C73.6629 172.104 73.9789 172.22 74.4109 172.22C74.8909 172.22 75.2789 172.06 75.5749 171.74C75.8789 171.42 76.0309 170.996 76.0309 170.468V167.624C76.0309 167.44 76.0749 167.304 76.1629 167.216C76.2589 167.12 76.3949 167.072 76.5709 167.072C76.7469 167.072 76.8829 167.12 76.9789 167.216C77.0749 167.304 77.1229 167.44 77.1229 167.624V172.52C77.1229 172.896 76.9469 173.084 76.5949 173.084C76.4189 173.084 76.2829 173.036 76.1869 172.94C76.0989 172.844 76.0549 172.704 76.0549 172.52V171.476L76.2109 171.68C76.0509 172.144 75.7909 172.5 75.4309 172.748C75.0789 172.988 74.6629 173.108 74.1829 173.108ZM79.5641 173.084C79.3801 173.084 79.2401 173.036 79.1441 172.94C79.0481 172.844 79.0001 172.704 79.0001 172.52V167.624C79.0001 167.44 79.0481 167.304 79.1441 167.216C79.2401 167.12 79.3721 167.072 79.5401 167.072C79.7081 167.072 79.8361 167.12 79.9241 167.216C80.0201 167.304 80.0681 167.44 80.0681 167.624V168.548H79.9481C80.0761 168.068 80.3161 167.704 80.6681 167.456C81.0201 167.208 81.4641 167.068 82.0001 167.036C82.1281 167.028 82.2321 167.06 82.3121 167.132C82.3921 167.196 82.4361 167.308 82.4441 167.468C82.4521 167.62 82.4161 167.744 82.3361 167.84C82.2561 167.928 82.1321 167.98 81.9641 167.996L81.7481 168.008C81.2201 168.064 80.8121 168.236 80.5241 168.524C80.2441 168.812 80.1041 169.208 80.1041 169.712V172.52C80.1041 172.704 80.0561 172.844 79.9601 172.94C79.8721 173.036 79.7401 173.084 79.5641 173.084ZM88.5878 173.108C87.9878 173.108 87.5318 172.932 87.2198 172.58C86.9078 172.22 86.7518 171.704 86.7518 171.032V165.008C86.7518 164.824 86.7998 164.688 86.8958 164.6C86.9918 164.504 87.1238 164.456 87.2918 164.456C87.4678 164.456 87.6038 164.504 87.6998 164.6C87.7958 164.688 87.8438 164.824 87.8438 165.008V170.948C87.8438 171.364 87.9278 171.676 88.0958 171.884C88.2718 172.084 88.5198 172.184 88.8398 172.184C88.9118 172.184 88.9758 172.184 89.0318 172.184C89.0878 172.176 89.1438 172.168 89.1998 172.16C89.2878 172.152 89.3518 172.176 89.3918 172.232C89.4318 172.288 89.4518 172.4 89.4518 172.568C89.4518 172.72 89.4158 172.84 89.3438 172.928C89.2798 173.008 89.1718 173.06 89.0198 173.084C88.9478 173.092 88.8758 173.096 88.8038 173.096C88.7318 173.104 88.6598 173.108 88.5878 173.108ZM91.0212 173.06C90.8532 173.06 90.7212 173.008 90.6252 172.904C90.5292 172.8 90.4812 172.656 90.4812 172.472V167.684C90.4812 167.492 90.5292 167.348 90.6252 167.252C90.7212 167.148 90.8532 167.096 91.0212 167.096C91.1972 167.096 91.3332 167.148 91.4292 167.252C91.5252 167.348 91.5732 167.492 91.5732 167.684V172.472C91.5732 172.656 91.5252 172.8 91.4292 172.904C91.3412 173.008 91.2052 173.06 91.0212 173.06ZM91.0212 165.8C90.8052 165.8 90.6332 165.744 90.5052 165.632C90.3852 165.512 90.3252 165.356 90.3252 165.164C90.3252 164.956 90.3852 164.8 90.5052 164.696C90.6332 164.584 90.8052 164.528 91.0212 164.528C91.2532 164.528 91.4252 164.584 91.5372 164.696C91.6572 164.8 91.7172 164.956 91.7172 165.164C91.7172 165.356 91.6572 165.512 91.5372 165.632C91.4252 165.744 91.2532 165.8 91.0212 165.8ZM96.5088 173.108C95.9808 173.108 95.5288 172.976 95.1528 172.712C94.7768 172.448 94.5248 172.092 94.3968 171.644L94.5288 171.464V172.52C94.5288 172.704 94.4808 172.844 94.3848 172.94C94.2968 173.036 94.1648 173.084 93.9888 173.084C93.8208 173.084 93.6888 173.036 93.5928 172.94C93.4968 172.844 93.4488 172.704 93.4488 172.52V165.008C93.4488 164.824 93.4968 164.688 93.5928 164.6C93.6888 164.504 93.8208 164.456 93.9888 164.456C94.1648 164.456 94.3008 164.504 94.3968 164.6C94.4928 164.688 94.5408 164.824 94.5408 165.008V168.476H94.4088C94.5368 168.044 94.7888 167.7 95.1648 167.444C95.5408 167.18 95.9888 167.048 96.5088 167.048C97.0288 167.048 97.4808 167.172 97.8648 167.42C98.2568 167.66 98.5568 168.008 98.7648 168.464C98.9808 168.912 99.0888 169.448 99.0888 170.072C99.0888 170.688 98.9808 171.228 98.7648 171.692C98.5488 172.148 98.2488 172.5 97.8648 172.748C97.4808 172.988 97.0288 173.108 96.5088 173.108ZM96.2568 172.244C96.6008 172.244 96.9008 172.16 97.1568 171.992C97.4208 171.824 97.6248 171.58 97.7688 171.26C97.9128 170.94 97.9848 170.544 97.9848 170.072C97.9848 169.368 97.8288 168.832 97.5168 168.464C97.2048 168.096 96.7848 167.912 96.2568 167.912C95.9048 167.912 95.5968 167.996 95.3328 168.164C95.0768 168.324 94.8768 168.564 94.7328 168.884C94.5968 169.204 94.5288 169.6 94.5288 170.072C94.5288 170.776 94.6848 171.316 94.9968 171.692C95.3088 172.06 95.7288 172.244 96.2568 172.244ZM101.176 173.084C100.992 173.084 100.852 173.036 100.756 172.94C100.66 172.844 100.612 172.704 100.612 172.52V167.624C100.612 167.44 100.66 167.304 100.756 167.216C100.852 167.12 100.984 167.072 101.152 167.072C101.32 167.072 101.448 167.12 101.536 167.216C101.632 167.304 101.68 167.44 101.68 167.624V168.548H101.56C101.688 168.068 101.928 167.704 102.28 167.456C102.632 167.208 103.076 167.068 103.612 167.036C103.74 167.028 103.844 167.06 103.924 167.132C104.004 167.196 104.048 167.308 104.056 167.468C104.064 167.62 104.028 167.744 103.948 167.84C103.868 167.928 103.744 167.98 103.576 167.996L103.36 168.008C102.832 168.064 102.424 168.236 102.136 168.524C101.856 168.812 101.716 169.208 101.716 169.712V172.52C101.716 172.704 101.668 172.844 101.572 172.94C101.484 173.036 101.352 173.084 101.176 173.084ZM106.916 173.108C106.516 173.108 106.152 173.028 105.824 172.868C105.504 172.708 105.252 172.492 105.068 172.22C104.892 171.948 104.804 171.644 104.804 171.308C104.804 170.876 104.912 170.536 105.128 170.288C105.344 170.04 105.708 169.864 106.22 169.76C106.732 169.648 107.42 169.592 108.284 169.592H108.848V170.288H108.308C107.692 170.288 107.204 170.316 106.844 170.372C106.492 170.428 106.244 170.528 106.1 170.672C105.956 170.808 105.884 171 105.884 171.248C105.884 171.56 105.992 171.816 106.208 172.016C106.432 172.216 106.736 172.316 107.12 172.316C107.424 172.316 107.692 172.244 107.924 172.1C108.156 171.948 108.34 171.748 108.476 171.5C108.612 171.244 108.68 170.952 108.68 170.624V169.244C108.68 168.772 108.584 168.432 108.392 168.224C108.2 168.008 107.876 167.9 107.42 167.9C107.156 167.9 106.884 167.936 106.604 168.008C106.324 168.08 106.032 168.192 105.728 168.344C105.608 168.4 105.504 168.42 105.416 168.404C105.328 168.38 105.256 168.332 105.2 168.26C105.152 168.18 105.124 168.096 105.116 168.008C105.116 167.912 105.136 167.82 105.176 167.732C105.224 167.644 105.304 167.58 105.416 167.54C105.768 167.364 106.116 167.24 106.46 167.168C106.812 167.088 107.14 167.048 107.444 167.048C107.964 167.048 108.392 167.132 108.728 167.3C109.064 167.46 109.316 167.712 109.484 168.056C109.652 168.392 109.736 168.824 109.736 169.352V172.52C109.736 172.704 109.692 172.844 109.604 172.94C109.516 173.036 109.388 173.084 109.22 173.084C109.06 173.084 108.932 173.036 108.836 172.94C108.748 172.844 108.704 172.704 108.704 172.52V171.668H108.812C108.748 171.964 108.628 172.22 108.452 172.436C108.276 172.652 108.056 172.82 107.792 172.94C107.536 173.052 107.244 173.108 106.916 173.108ZM112.138 173.084C111.954 173.084 111.814 173.036 111.718 172.94C111.622 172.844 111.574 172.704 111.574 172.52V167.624C111.574 167.44 111.622 167.304 111.718 167.216C111.814 167.12 111.946 167.072 112.114 167.072C112.282 167.072 112.41 167.12 112.498 167.216C112.594 167.304 112.642 167.44 112.642 167.624V168.548H112.522C112.65 168.068 112.89 167.704 113.242 167.456C113.594 167.208 114.038 167.068 114.574 167.036C114.702 167.028 114.806 167.06 114.886 167.132C114.966 167.196 115.01 167.308 115.018 167.468C115.026 167.62 114.99 167.744 114.91 167.84C114.83 167.928 114.706 167.98 114.538 167.996L114.322 168.008C113.794 168.064 113.386 168.236 113.098 168.524C112.818 168.812 112.678 169.208 112.678 169.712V172.52C112.678 172.704 112.63 172.844 112.534 172.94C112.446 173.036 112.314 173.084 112.138 173.084ZM117.785 175.244C117.657 175.244 117.549 175.208 117.461 175.136C117.381 175.072 117.333 174.98 117.317 174.86C117.309 174.748 117.333 174.628 117.389 174.5L118.205 172.652V173.108L115.937 167.828C115.881 167.692 115.861 167.568 115.877 167.456C115.893 167.344 115.945 167.252 116.033 167.18C116.129 167.108 116.257 167.072 116.417 167.072C116.553 167.072 116.661 167.104 116.741 167.168C116.821 167.232 116.897 167.344 116.969 167.504L118.853 172.148H118.517L120.437 167.504C120.501 167.344 120.577 167.232 120.665 167.168C120.753 167.104 120.873 167.072 121.025 167.072C121.161 167.072 121.265 167.108 121.337 167.18C121.417 167.252 121.465 167.344 121.481 167.456C121.497 167.568 121.473 167.688 121.409 167.816L118.385 174.812C118.305 174.98 118.221 175.092 118.133 175.148C118.053 175.212 117.937 175.244 117.785 175.244ZM122.702 173.048C122.494 173.048 122.322 172.98 122.186 172.844C122.05 172.708 121.982 172.536 121.982 172.328C121.982 172.12 122.05 171.952 122.186 171.824C122.322 171.696 122.494 171.632 122.702 171.632C122.926 171.632 123.098 171.696 123.218 171.824C123.346 171.952 123.41 172.12 123.41 172.328C123.41 172.536 123.346 172.708 123.218 172.844C123.098 172.98 122.926 173.048 122.702 173.048Z" fill="white" fill-opacity="0.7"/>
</svg>
