<svg width="153" height="209" viewBox="0 0 153 209" fill="none" xmlns="http://www.w3.org/2000/svg">
<rect width="153" height="209" rx="21" fill="#1E1E1E"/>
<rect x="31" y="26" width="91" height="85" rx="10" fill="#353535"/>
<rect x="31" y="26" width="91" height="85" rx="10" stroke="#939393"/>
<rect x="62.4134" y="36.6712" width="28.1747" height="39.843" rx="3.51351" stroke="white" stroke-width="2.34234"/>
<path d="M56.3775 97.6855C56.0168 97.6855 55.738 97.5926 55.5413 97.4068C55.3554 97.2101 55.2625 96.9313 55.2625 96.5706V87.241C55.2625 86.8803 55.3554 86.607 55.5413 86.4212C55.738 86.2245 56.0168 86.1261 56.3775 86.1261H60.3126C61.1215 86.1261 61.8102 86.2463 62.3786 86.4868C62.947 86.7273 63.3787 87.0716 63.6739 87.5198C63.9799 87.9679 64.133 88.5036 64.133 89.1266C64.133 89.8262 63.9308 90.4165 63.5263 90.8974C63.1219 91.3784 62.5699 91.7009 61.8703 91.8648V91.6189C62.6792 91.7391 63.3077 92.0452 63.7559 92.5371C64.204 93.029 64.4281 93.6684 64.4281 94.4555C64.4281 95.483 64.0783 96.2809 63.3787 96.8493C62.6901 97.4068 61.7282 97.6855 60.493 97.6855H56.3775ZM57.2793 96.0951H60.2306C60.9739 96.0951 61.5205 95.953 61.8703 95.6688C62.2201 95.3737 62.395 94.9364 62.395 94.3571C62.395 93.7668 62.2201 93.3296 61.8703 93.0454C61.5205 92.7612 60.9739 92.6191 60.2306 92.6191H57.2793V96.0951ZM57.2793 91.0286H59.9519C60.6733 91.0286 61.2089 90.892 61.5587 90.6187C61.9195 90.3345 62.0998 89.9191 62.0998 89.3726C62.0998 88.826 61.9195 88.4161 61.5587 88.1428C61.2089 87.8586 60.6733 87.7165 59.9519 87.7165H57.2793V91.0286ZM69.2565 97.8495C68.3492 97.8495 67.666 97.5926 67.2069 97.0789C66.7478 96.5542 66.5183 95.789 66.5183 94.7834V87.0279C66.5183 86.689 66.6057 86.4322 66.7806 86.2573C66.9555 86.0824 67.2069 85.9949 67.5348 85.9949C67.8628 85.9949 68.1142 86.0824 68.2891 86.2573C68.4749 86.4322 68.5678 86.689 68.5678 87.0279V94.685C68.5678 95.1878 68.6717 95.5595 68.8793 95.8C69.098 96.0404 69.404 96.1607 69.7975 96.1607C69.885 96.1607 69.967 96.1607 70.0435 96.1607C70.12 96.1498 70.1965 96.1388 70.273 96.1279C70.4261 96.106 70.5299 96.1498 70.5846 96.2591C70.6392 96.3574 70.6666 96.5651 70.6666 96.8821C70.6666 97.1554 70.6119 97.3685 70.5026 97.5216C70.3933 97.6746 70.2129 97.7675 69.9615 97.8003C69.8522 97.8113 69.7374 97.8222 69.6172 97.8331C69.4969 97.844 69.3767 97.8495 69.2565 97.8495ZM74.558 97.8495C73.9787 97.8495 73.4594 97.7402 73.0003 97.5216C72.5522 97.292 72.1969 96.986 71.9346 96.6034C71.6832 96.2208 71.5575 95.789 71.5575 95.3081C71.5575 94.7178 71.7105 94.2532 72.0166 93.9144C72.3226 93.5646 72.82 93.3132 73.5086 93.1601C74.1973 93.0071 75.1209 92.9306 76.2796 92.9306H77.0994V94.1111H76.296C75.6183 94.1111 75.0772 94.1439 74.6728 94.2095C74.2683 94.2751 73.9787 94.3899 73.8038 94.5538C73.6398 94.7069 73.5578 94.9255 73.5578 95.2097C73.5578 95.5704 73.6835 95.8655 73.9349 96.0951C74.1864 96.3246 74.5361 96.4394 74.9843 96.4394C75.345 96.4394 75.662 96.3574 75.9353 96.1935C76.2195 96.0186 76.4436 95.7836 76.6076 95.4884C76.7715 95.1933 76.8535 94.8544 76.8535 94.4719V92.5863C76.8535 92.0397 76.7333 91.6462 76.4928 91.4057C76.2523 91.1652 75.8479 91.045 75.2794 91.045C74.9625 91.045 74.6181 91.0833 74.2465 91.1598C73.8858 91.2363 73.5032 91.3675 73.0987 91.5533C72.891 91.6517 72.7052 91.679 72.5412 91.6353C72.3882 91.5916 72.268 91.5041 72.1805 91.3729C72.0931 91.2308 72.0494 91.0778 72.0494 90.9138C72.0494 90.7499 72.0931 90.5914 72.1805 90.4383C72.268 90.2744 72.4155 90.1541 72.6232 90.0776C73.1261 89.8699 73.607 89.7224 74.0661 89.6349C74.5361 89.5475 74.9625 89.5037 75.345 89.5037C76.1321 89.5037 76.777 89.624 77.2798 89.8645C77.7936 90.1049 78.1761 90.4711 78.4276 90.963C78.679 91.444 78.8047 92.067 78.8047 92.8322V96.7673C78.8047 97.1062 78.7227 97.3685 78.5587 97.5544C78.3948 97.7293 78.1597 97.8167 77.8537 97.8167C77.5476 97.8167 77.3071 97.7293 77.1322 97.5544C76.9683 97.3685 76.8863 97.1062 76.8863 96.7673V95.9803H77.0175C76.9409 96.3629 76.7879 96.6963 76.5584 96.9805C76.3397 97.2538 76.061 97.4669 75.7222 97.62C75.3833 97.773 74.9952 97.8495 74.558 97.8495ZM82.0655 97.8167C81.7376 97.8167 81.4862 97.7293 81.3113 97.5544C81.1364 97.3685 81.0489 97.1062 81.0489 96.7673V90.5695C81.0489 90.2307 81.1364 89.9738 81.3113 89.7989C81.4862 89.624 81.7321 89.5365 82.0491 89.5365C82.3661 89.5365 82.6121 89.624 82.7869 89.7989C82.9618 89.9738 83.0493 90.2307 83.0493 90.5695V91.6845L82.8689 91.2746C83.1094 90.6952 83.4811 90.258 83.9839 89.9628C84.4976 89.6568 85.077 89.5037 85.7219 89.5037C86.3668 89.5037 86.897 89.624 87.3124 89.8645C87.7277 90.1049 88.0393 90.4711 88.2469 90.963C88.4546 91.444 88.5585 92.0561 88.5585 92.7994V96.7673C88.5585 97.1062 88.471 97.3685 88.2961 97.5544C88.1212 97.7293 87.8698 97.8167 87.5419 97.8167C87.214 97.8167 86.9571 97.7293 86.7713 97.5544C86.5964 97.3685 86.5089 97.1062 86.5089 96.7673V92.8978C86.5089 92.2747 86.3887 91.8211 86.1482 91.5369C85.9187 91.2527 85.5579 91.1106 85.066 91.1106C84.4648 91.1106 83.9839 91.3019 83.6232 91.6845C83.2734 92.0561 83.0985 92.5535 83.0985 93.1765V96.7673C83.0985 97.4669 82.7542 97.8167 82.0655 97.8167ZM91.8207 97.8167C91.4928 97.8167 91.2414 97.7293 91.0665 97.5544C90.8916 97.3685 90.8041 97.1062 90.8041 96.7673V87.0279C90.8041 86.689 90.8916 86.4322 91.0665 86.2573C91.2414 86.0824 91.4928 85.9949 91.8207 85.9949C92.1487 85.9949 92.4001 86.0824 92.575 86.2573C92.7608 86.4322 92.8537 86.689 92.8537 87.0279V93.0782H92.8865L95.5919 90.2252C95.8105 90.0066 96.0018 89.8371 96.1658 89.7169C96.3297 89.5967 96.5538 89.5365 96.838 89.5365C97.1222 89.5365 97.3354 89.6131 97.4775 89.7661C97.6305 89.9082 97.707 90.0831 97.707 90.2908C97.707 90.4985 97.6087 90.7061 97.4119 90.9138L94.5589 93.9308V93.0782L97.6906 96.4558C97.8874 96.6635 97.9748 96.8767 97.953 97.0953C97.942 97.303 97.8546 97.4779 97.6906 97.62C97.5267 97.7511 97.319 97.8167 97.0676 97.8167C96.7615 97.8167 96.5156 97.7566 96.3297 97.6364C96.1548 97.5161 95.9581 97.3358 95.7395 97.0953L92.8865 94.1111H92.8537V96.7673C92.8537 97.4669 92.5094 97.8167 91.8207 97.8167Z" fill="white"/>
<path d="M46.292 158.108C45.916 158.108 45.552 158.076 45.2 158.012C44.848 157.956 44.516 157.868 44.204 157.748C43.892 157.628 43.612 157.48 43.364 157.304C43.26 157.232 43.184 157.144 43.136 157.04C43.096 156.936 43.084 156.836 43.1 156.74C43.124 156.636 43.168 156.548 43.232 156.476C43.304 156.404 43.388 156.36 43.484 156.344C43.58 156.328 43.684 156.36 43.796 156.44C44.164 156.688 44.548 156.868 44.948 156.98C45.356 157.092 45.804 157.148 46.292 157.148C46.996 157.148 47.512 157.02 47.84 156.764C48.176 156.508 48.344 156.172 48.344 155.756C48.344 155.412 48.224 155.144 47.984 154.952C47.744 154.752 47.34 154.596 46.772 154.484L45.5 154.22C44.748 154.06 44.184 153.796 43.808 153.428C43.44 153.06 43.256 152.568 43.256 151.952C43.256 151.576 43.332 151.236 43.484 150.932C43.636 150.62 43.852 150.352 44.132 150.128C44.412 149.904 44.74 149.732 45.116 149.612C45.5 149.492 45.924 149.432 46.388 149.432C46.884 149.432 47.348 149.5 47.78 149.636C48.22 149.772 48.616 149.972 48.968 150.236C49.064 150.308 49.128 150.396 49.16 150.5C49.192 150.596 49.196 150.692 49.172 150.788C49.156 150.884 49.112 150.964 49.04 151.028C48.976 151.092 48.892 151.128 48.788 151.136C48.692 151.144 48.584 151.108 48.464 151.028C48.144 150.804 47.816 150.644 47.48 150.548C47.144 150.444 46.776 150.392 46.376 150.392C45.968 150.392 45.612 150.456 45.308 150.584C45.012 150.712 44.78 150.892 44.612 151.124C44.452 151.348 44.372 151.612 44.372 151.916C44.372 152.284 44.484 152.572 44.708 152.78C44.932 152.988 45.308 153.148 45.836 153.26L47.096 153.512C47.896 153.68 48.488 153.94 48.872 154.292C49.264 154.636 49.46 155.1 49.46 155.684C49.46 156.052 49.384 156.384 49.232 156.68C49.088 156.976 48.88 157.232 48.608 157.448C48.336 157.656 48.004 157.82 47.612 157.94C47.22 158.052 46.78 158.108 46.292 158.108ZM53.3028 158.108C52.8308 158.108 52.4348 158.024 52.1148 157.856C51.8028 157.688 51.5668 157.444 51.4068 157.124C51.2548 156.804 51.1788 156.412 51.1788 155.948V152.996H50.4108C50.2668 152.996 50.1548 152.96 50.0748 152.888C49.9948 152.808 49.9548 152.704 49.9548 152.576C49.9548 152.44 49.9948 152.336 50.0748 152.264C50.1548 152.192 50.2668 152.156 50.4108 152.156H51.1788V150.848C51.1788 150.664 51.2268 150.528 51.3228 150.44C51.4188 150.344 51.5548 150.296 51.7308 150.296C51.9068 150.296 52.0388 150.344 52.1268 150.44C52.2228 150.528 52.2708 150.664 52.2708 150.848V152.156H53.7228C53.8748 152.156 53.9908 152.192 54.0708 152.264C54.1508 152.336 54.1908 152.44 54.1908 152.576C54.1908 152.704 54.1508 152.808 54.0708 152.888C53.9908 152.96 53.8748 152.996 53.7228 152.996H52.2708V155.852C52.2708 156.292 52.3628 156.624 52.5468 156.848C52.7308 157.072 53.0348 157.184 53.4588 157.184C53.6108 157.184 53.7388 157.172 53.8428 157.148C53.9468 157.116 54.0388 157.1 54.1188 157.1C54.1908 157.092 54.2508 157.116 54.2988 157.172C54.3548 157.228 54.3828 157.332 54.3828 157.484C54.3828 157.596 54.3628 157.7 54.3228 157.796C54.2908 157.884 54.2228 157.944 54.1188 157.976C54.0228 158.008 53.8948 158.036 53.7348 158.06C53.5748 158.092 53.4308 158.108 53.3028 158.108ZM57.1596 158.108C56.7596 158.108 56.3956 158.028 56.0676 157.868C55.7476 157.708 55.4956 157.492 55.3116 157.22C55.1356 156.948 55.0476 156.644 55.0476 156.308C55.0476 155.876 55.1556 155.536 55.3716 155.288C55.5876 155.04 55.9516 154.864 56.4636 154.76C56.9756 154.648 57.6636 154.592 58.5276 154.592H59.0916V155.288H58.5516C57.9356 155.288 57.4476 155.316 57.0876 155.372C56.7356 155.428 56.4876 155.528 56.3436 155.672C56.1996 155.808 56.1276 156 56.1276 156.248C56.1276 156.56 56.2356 156.816 56.4516 157.016C56.6756 157.216 56.9796 157.316 57.3636 157.316C57.6676 157.316 57.9356 157.244 58.1676 157.1C58.3996 156.948 58.5836 156.748 58.7196 156.5C58.8556 156.244 58.9236 155.952 58.9236 155.624V154.244C58.9236 153.772 58.8276 153.432 58.6356 153.224C58.4436 153.008 58.1196 152.9 57.6636 152.9C57.3996 152.9 57.1276 152.936 56.8476 153.008C56.5676 153.08 56.2756 153.192 55.9716 153.344C55.8516 153.4 55.7476 153.42 55.6596 153.404C55.5716 153.38 55.4996 153.332 55.4436 153.26C55.3956 153.18 55.3676 153.096 55.3596 153.008C55.3596 152.912 55.3796 152.82 55.4196 152.732C55.4676 152.644 55.5476 152.58 55.6596 152.54C56.0116 152.364 56.3596 152.24 56.7036 152.168C57.0556 152.088 57.3836 152.048 57.6876 152.048C58.2076 152.048 58.6356 152.132 58.9716 152.3C59.3076 152.46 59.5596 152.712 59.7276 153.056C59.8956 153.392 59.9796 153.824 59.9796 154.352V157.52C59.9796 157.704 59.9356 157.844 59.8476 157.94C59.7596 158.036 59.6316 158.084 59.4636 158.084C59.3036 158.084 59.1756 158.036 59.0796 157.94C58.9916 157.844 58.9476 157.704 58.9476 157.52V156.668H59.0556C58.9916 156.964 58.8716 157.22 58.6956 157.436C58.5196 157.652 58.2996 157.82 58.0356 157.94C57.7796 158.052 57.4876 158.108 57.1596 158.108ZM62.382 158.084C62.198 158.084 62.058 158.036 61.962 157.94C61.866 157.844 61.818 157.704 61.818 157.52V152.624C61.818 152.44 61.866 152.304 61.962 152.216C62.058 152.12 62.19 152.072 62.358 152.072C62.526 152.072 62.654 152.12 62.742 152.216C62.838 152.304 62.886 152.44 62.886 152.624V153.548H62.766C62.894 153.068 63.134 152.704 63.486 152.456C63.838 152.208 64.282 152.068 64.818 152.036C64.946 152.028 65.05 152.06 65.13 152.132C65.21 152.196 65.254 152.308 65.262 152.468C65.27 152.62 65.234 152.744 65.154 152.84C65.074 152.928 64.95 152.98 64.782 152.996L64.566 153.008C64.038 153.064 63.63 153.236 63.342 153.524C63.062 153.812 62.922 154.208 62.922 154.712V157.52C62.922 157.704 62.874 157.844 62.778 157.94C62.69 158.036 62.558 158.084 62.382 158.084ZM69.073 158.108C68.601 158.108 68.205 158.024 67.885 157.856C67.573 157.688 67.337 157.444 67.177 157.124C67.025 156.804 66.949 156.412 66.949 155.948V152.996H66.181C66.037 152.996 65.925 152.96 65.845 152.888C65.765 152.808 65.725 152.704 65.725 152.576C65.725 152.44 65.765 152.336 65.845 152.264C65.925 152.192 66.037 152.156 66.181 152.156H66.949V150.848C66.949 150.664 66.997 150.528 67.093 150.44C67.189 150.344 67.325 150.296 67.501 150.296C67.677 150.296 67.809 150.344 67.897 150.44C67.993 150.528 68.041 150.664 68.041 150.848V152.156H69.493C69.645 152.156 69.761 152.192 69.841 152.264C69.921 152.336 69.961 152.44 69.961 152.576C69.961 152.704 69.921 152.808 69.841 152.888C69.761 152.96 69.645 152.996 69.493 152.996H68.041V155.852C68.041 156.292 68.133 156.624 68.317 156.848C68.501 157.072 68.805 157.184 69.229 157.184C69.381 157.184 69.509 157.172 69.613 157.148C69.717 157.116 69.809 157.1 69.889 157.1C69.961 157.092 70.021 157.116 70.069 157.172C70.125 157.228 70.153 157.332 70.153 157.484C70.153 157.596 70.133 157.7 70.093 157.796C70.061 157.884 69.993 157.944 69.889 157.976C69.793 158.008 69.665 158.036 69.505 158.06C69.345 158.092 69.201 158.108 69.073 158.108ZM75.0507 158.084C74.8667 158.084 74.7227 158.032 74.6187 157.928C74.5147 157.824 74.4627 157.676 74.4627 157.484V150.14C74.4627 149.948 74.5147 149.8 74.6187 149.696C74.7227 149.592 74.8707 149.54 75.0627 149.54H79.3707C79.5307 149.54 79.6507 149.58 79.7307 149.66C79.8107 149.732 79.8507 149.84 79.8507 149.984C79.8507 150.136 79.8107 150.252 79.7307 150.332C79.6507 150.412 79.5307 150.452 79.3707 150.452H75.5787V153.284H79.1307C79.2827 153.284 79.3987 153.324 79.4787 153.404C79.5587 153.484 79.5987 153.592 79.5987 153.728C79.5987 153.88 79.5587 153.996 79.4787 154.076C79.3987 154.156 79.2827 154.196 79.1307 154.196H75.5787V157.484C75.5787 157.884 75.4027 158.084 75.0507 158.084ZM81.4948 158.084C81.3108 158.084 81.1708 158.036 81.0748 157.94C80.9788 157.844 80.9308 157.704 80.9308 157.52V152.624C80.9308 152.44 80.9788 152.304 81.0748 152.216C81.1708 152.12 81.3028 152.072 81.4708 152.072C81.6388 152.072 81.7668 152.12 81.8548 152.216C81.9508 152.304 81.9988 152.44 81.9988 152.624V153.548H81.8788C82.0068 153.068 82.2468 152.704 82.5988 152.456C82.9508 152.208 83.3948 152.068 83.9308 152.036C84.0588 152.028 84.1628 152.06 84.2428 152.132C84.3228 152.196 84.3668 152.308 84.3748 152.468C84.3828 152.62 84.3468 152.744 84.2668 152.84C84.1868 152.928 84.0628 152.98 83.8948 152.996L83.6788 153.008C83.1508 153.064 82.7428 153.236 82.4548 153.524C82.1748 153.812 82.0348 154.208 82.0348 154.712V157.52C82.0348 157.704 81.9868 157.844 81.8908 157.94C81.8028 158.036 81.6708 158.084 81.4948 158.084ZM88.0516 158.108C87.4196 158.108 86.8756 157.988 86.4196 157.748C85.9716 157.5 85.6236 157.152 85.3756 156.704C85.1276 156.248 85.0036 155.712 85.0036 155.096C85.0036 154.488 85.1236 153.956 85.3636 153.5C85.6116 153.044 85.9476 152.688 86.3716 152.432C86.8036 152.176 87.2956 152.048 87.8476 152.048C88.2396 152.048 88.5916 152.116 88.9036 152.252C89.2236 152.38 89.4956 152.568 89.7196 152.816C89.9436 153.064 90.1116 153.368 90.2236 153.728C90.3436 154.08 90.4036 154.48 90.4036 154.928C90.4036 155.056 90.3636 155.156 90.2836 155.228C90.2116 155.292 90.1036 155.324 89.9596 155.324H85.8556V154.628H89.6836L89.4796 154.796C89.4796 154.38 89.4156 154.028 89.2876 153.74C89.1676 153.444 88.9876 153.22 88.7476 153.068C88.5156 152.916 88.2236 152.84 87.8716 152.84C87.4876 152.84 87.1596 152.932 86.8876 153.116C86.6156 153.292 86.4076 153.544 86.2636 153.872C86.1196 154.192 86.0476 154.564 86.0476 154.988V155.06C86.0476 155.78 86.2196 156.324 86.5636 156.692C86.9076 157.06 87.4036 157.244 88.0516 157.244C88.3076 157.244 88.5676 157.212 88.8316 157.148C89.1036 157.084 89.3636 156.968 89.6116 156.8C89.7316 156.728 89.8396 156.696 89.9356 156.704C90.0396 156.704 90.1236 156.736 90.1876 156.8C90.2516 156.856 90.2916 156.928 90.3076 157.016C90.3236 157.096 90.3116 157.184 90.2716 157.28C90.2316 157.376 90.1556 157.46 90.0436 157.532C89.7796 157.716 89.4636 157.86 89.0956 157.964C88.7356 158.06 88.3876 158.108 88.0516 158.108ZM93.8978 158.108C93.5378 158.108 93.1738 158.068 92.8058 157.988C92.4458 157.9 92.1058 157.752 91.7858 157.544C91.6978 157.488 91.6338 157.42 91.5938 157.34C91.5618 157.252 91.5498 157.168 91.5578 157.088C91.5738 157 91.6098 156.924 91.6658 156.86C91.7218 156.796 91.7898 156.76 91.8698 156.752C91.9578 156.736 92.0498 156.756 92.1458 156.812C92.4578 156.988 92.7578 157.112 93.0458 157.184C93.3418 157.256 93.6338 157.292 93.9218 157.292C94.3618 157.292 94.6938 157.212 94.9178 157.052C95.1418 156.892 95.2538 156.68 95.2538 156.416C95.2538 156.192 95.1778 156.02 95.0258 155.9C94.8818 155.772 94.6538 155.676 94.3418 155.612L93.2258 155.384C92.7298 155.272 92.3538 155.088 92.0978 154.832C91.8498 154.568 91.7258 154.232 91.7258 153.824C91.7258 153.464 91.8218 153.152 92.0138 152.888C92.2138 152.616 92.4898 152.408 92.8418 152.264C93.1938 152.12 93.5978 152.048 94.0538 152.048C94.4058 152.048 94.7378 152.096 95.0498 152.192C95.3698 152.28 95.6578 152.416 95.9138 152.6C96.0098 152.656 96.0698 152.728 96.0938 152.816C96.1258 152.896 96.1298 152.98 96.1058 153.068C96.0898 153.148 96.0538 153.216 95.9978 153.272C95.9418 153.328 95.8698 153.364 95.7818 153.38C95.6938 153.388 95.5978 153.364 95.4938 153.308C95.2618 153.148 95.0218 153.036 94.7738 152.972C94.5338 152.9 94.2938 152.864 94.0538 152.864C93.6218 152.864 93.2938 152.948 93.0698 153.116C92.8538 153.284 92.7458 153.504 92.7458 153.776C92.7458 153.984 92.8098 154.156 92.9378 154.292C93.0738 154.428 93.2858 154.528 93.5738 154.592L94.6898 154.82C95.2098 154.932 95.6018 155.112 95.8658 155.36C96.1298 155.6 96.2618 155.928 96.2618 156.344C96.2618 156.888 96.0458 157.32 95.6138 157.64C95.1898 157.952 94.6178 158.108 93.8978 158.108ZM98.3426 158.084C98.1746 158.084 98.0426 158.036 97.9466 157.94C97.8506 157.844 97.8026 157.704 97.8026 157.52V150.008C97.8026 149.824 97.8506 149.688 97.9466 149.6C98.0426 149.504 98.1746 149.456 98.3426 149.456C98.5186 149.456 98.6546 149.504 98.7506 149.6C98.8466 149.688 98.8946 149.824 98.8946 150.008V153.428H98.7386C98.9066 152.972 99.1786 152.628 99.5546 152.396C99.9386 152.164 100.375 152.048 100.863 152.048C101.335 152.048 101.723 152.136 102.027 152.312C102.331 152.48 102.559 152.736 102.711 153.08C102.863 153.424 102.939 153.856 102.939 154.376V157.52C102.939 157.704 102.891 157.844 102.795 157.94C102.707 158.036 102.575 158.084 102.399 158.084C102.223 158.084 102.087 158.036 101.991 157.94C101.895 157.844 101.847 157.704 101.847 157.52V154.436C101.847 153.916 101.747 153.536 101.547 153.296C101.347 153.056 101.027 152.936 100.587 152.936C100.075 152.936 99.6626 153.096 99.3506 153.416C99.0466 153.728 98.8946 154.152 98.8946 154.688V157.52C98.8946 157.896 98.7106 158.084 98.3426 158.084ZM105.318 158.048C105.11 158.048 104.938 157.98 104.802 157.844C104.666 157.708 104.598 157.536 104.598 157.328C104.598 157.12 104.666 156.952 104.802 156.824C104.938 156.696 105.11 156.632 105.318 156.632C105.542 156.632 105.714 156.696 105.834 156.824C105.962 156.952 106.026 157.12 106.026 157.328C106.026 157.536 105.962 157.708 105.834 157.844C105.714 157.98 105.542 158.048 105.318 158.048ZM44.12 174C43.928 174 43.78 173.948 43.676 173.844C43.572 173.74 43.52 173.592 43.52 173.4V166.14C43.52 165.948 43.572 165.8 43.676 165.696C43.78 165.592 43.928 165.54 44.12 165.54H46.964C47.548 165.54 48.044 165.628 48.452 165.804C48.868 165.98 49.184 166.232 49.4 166.56C49.616 166.888 49.724 167.284 49.724 167.748C49.724 168.268 49.572 168.704 49.268 169.056C48.964 169.408 48.548 169.644 48.02 169.764V169.584C48.612 169.656 49.076 169.876 49.412 170.244C49.756 170.604 49.928 171.076 49.928 171.66C49.928 172.412 49.68 172.992 49.184 173.4C48.696 173.8 48.004 174 47.108 174H44.12ZM44.6 173.124H46.988C47.612 173.124 48.076 173.004 48.38 172.764C48.684 172.516 48.836 172.14 48.836 171.636C48.836 171.132 48.684 170.76 48.38 170.52C48.076 170.28 47.612 170.16 46.988 170.16H44.6V173.124ZM44.6 169.272H46.796C47.404 169.272 47.86 169.152 48.164 168.912C48.476 168.664 48.632 168.308 48.632 167.844C48.632 167.38 48.476 167.028 48.164 166.788C47.86 166.54 47.404 166.416 46.796 166.416H44.6V169.272ZM53.4765 174.108C52.8765 174.108 52.4205 173.932 52.1085 173.58C51.7965 173.22 51.6405 172.704 51.6405 172.032V166.008C51.6405 165.824 51.6885 165.688 51.7845 165.6C51.8805 165.504 52.0125 165.456 52.1805 165.456C52.3565 165.456 52.4925 165.504 52.5885 165.6C52.6845 165.688 52.7325 165.824 52.7325 166.008V171.948C52.7325 172.364 52.8165 172.676 52.9845 172.884C53.1605 173.084 53.4085 173.184 53.7285 173.184C53.8005 173.184 53.8645 173.184 53.9205 173.184C53.9765 173.176 54.0325 173.168 54.0885 173.16C54.1765 173.152 54.2405 173.176 54.2805 173.232C54.3205 173.288 54.3405 173.4 54.3405 173.568C54.3405 173.72 54.3045 173.84 54.2325 173.928C54.1685 174.008 54.0605 174.06 53.9085 174.084C53.8365 174.092 53.7645 174.096 53.6925 174.096C53.6205 174.104 53.5485 174.108 53.4765 174.108ZM57.2299 174.108C56.8299 174.108 56.4659 174.028 56.1379 173.868C55.8179 173.708 55.5659 173.492 55.3819 173.22C55.2059 172.948 55.1179 172.644 55.1179 172.308C55.1179 171.876 55.2259 171.536 55.4419 171.288C55.6579 171.04 56.0219 170.864 56.5339 170.76C57.0459 170.648 57.7339 170.592 58.5979 170.592H59.1619V171.288H58.6219C58.0059 171.288 57.5179 171.316 57.1579 171.372C56.8059 171.428 56.5579 171.528 56.4139 171.672C56.2699 171.808 56.1979 172 56.1979 172.248C56.1979 172.56 56.3059 172.816 56.5219 173.016C56.7459 173.216 57.0499 173.316 57.4339 173.316C57.7379 173.316 58.0059 173.244 58.2379 173.1C58.4699 172.948 58.6539 172.748 58.7899 172.5C58.9259 172.244 58.9939 171.952 58.9939 171.624V170.244C58.9939 169.772 58.8979 169.432 58.7059 169.224C58.5139 169.008 58.1899 168.9 57.7339 168.9C57.4699 168.9 57.1979 168.936 56.9179 169.008C56.6379 169.08 56.3459 169.192 56.0419 169.344C55.9219 169.4 55.8179 169.42 55.7299 169.404C55.6419 169.38 55.5699 169.332 55.5139 169.26C55.4659 169.18 55.4379 169.096 55.4299 169.008C55.4299 168.912 55.4499 168.82 55.4899 168.732C55.5379 168.644 55.6179 168.58 55.7299 168.54C56.0819 168.364 56.4299 168.24 56.7739 168.168C57.1259 168.088 57.4539 168.048 57.7579 168.048C58.2779 168.048 58.7059 168.132 59.0419 168.3C59.3779 168.46 59.6299 168.712 59.7979 169.056C59.9659 169.392 60.0499 169.824 60.0499 170.352V173.52C60.0499 173.704 60.0059 173.844 59.9179 173.94C59.8299 174.036 59.7019 174.084 59.5339 174.084C59.3739 174.084 59.2459 174.036 59.1499 173.94C59.0619 173.844 59.0179 173.704 59.0179 173.52V172.668H59.1259C59.0619 172.964 58.9419 173.22 58.7659 173.436C58.5899 173.652 58.3699 173.82 58.1059 173.94C57.8499 174.052 57.5579 174.108 57.2299 174.108ZM62.4283 174.084C62.2603 174.084 62.1283 174.036 62.0323 173.94C61.9363 173.844 61.8883 173.704 61.8883 173.52V168.624C61.8883 168.44 61.9363 168.304 62.0323 168.216C62.1283 168.12 62.2603 168.072 62.4283 168.072C62.5963 168.072 62.7243 168.12 62.8123 168.216C62.9083 168.304 62.9563 168.44 62.9563 168.624V169.608L62.8243 169.428C62.9923 168.972 63.2643 168.628 63.6403 168.396C64.0243 168.164 64.4603 168.048 64.9483 168.048C65.4203 168.048 65.8083 168.132 66.1123 168.3C66.4163 168.468 66.6443 168.724 66.7963 169.068C66.9483 169.412 67.0243 169.848 67.0243 170.376V173.52C67.0243 173.704 66.9763 173.844 66.8803 173.94C66.7923 174.036 66.6603 174.084 66.4843 174.084C66.3083 174.084 66.1723 174.036 66.0763 173.94C65.9803 173.844 65.9323 173.704 65.9323 173.52V170.436C65.9323 169.916 65.8323 169.536 65.6323 169.296C65.4323 169.056 65.1123 168.936 64.6723 168.936C64.1603 168.936 63.7483 169.096 63.4363 169.416C63.1323 169.728 62.9803 170.152 62.9803 170.688V173.52C62.9803 173.896 62.7963 174.084 62.4283 174.084ZM69.4155 174.084C69.2475 174.084 69.1155 174.036 69.0195 173.94C68.9235 173.844 68.8755 173.704 68.8755 173.52V166.008C68.8755 165.824 68.9235 165.688 69.0195 165.6C69.1155 165.504 69.2475 165.456 69.4155 165.456C69.5915 165.456 69.7275 165.504 69.8235 165.6C69.9195 165.688 69.9675 165.824 69.9675 166.008V170.736H69.9915L72.3435 168.444C72.4635 168.324 72.5715 168.232 72.6675 168.168C72.7635 168.104 72.8875 168.072 73.0395 168.072C73.1915 168.072 73.3075 168.112 73.3875 168.192C73.4675 168.264 73.5075 168.36 73.5075 168.48C73.5075 168.592 73.4515 168.704 73.3395 168.816L70.8435 171.24V170.7L73.5675 173.328C73.6795 173.44 73.7315 173.556 73.7235 173.676C73.7235 173.796 73.6795 173.896 73.5915 173.976C73.5115 174.048 73.4035 174.084 73.2675 174.084C73.1075 174.084 72.9755 174.052 72.8715 173.988C72.7755 173.924 72.6635 173.824 72.5355 173.688L69.9915 171.288H69.9675V173.52C69.9675 173.896 69.7835 174.084 69.4155 174.084ZM81.3982 174.108C80.8702 174.108 80.4182 173.976 80.0422 173.712C79.6662 173.448 79.4142 173.092 79.2862 172.644L79.4182 172.464V173.52C79.4182 173.704 79.3702 173.844 79.2742 173.94C79.1862 174.036 79.0542 174.084 78.8782 174.084C78.7102 174.084 78.5782 174.036 78.4822 173.94C78.3862 173.844 78.3382 173.704 78.3382 173.52V166.008C78.3382 165.824 78.3862 165.688 78.4822 165.6C78.5782 165.504 78.7102 165.456 78.8782 165.456C79.0542 165.456 79.1902 165.504 79.2862 165.6C79.3822 165.688 79.4302 165.824 79.4302 166.008V169.476H79.2982C79.4262 169.044 79.6782 168.7 80.0542 168.444C80.4302 168.18 80.8782 168.048 81.3982 168.048C81.9182 168.048 82.3702 168.172 82.7542 168.42C83.1462 168.66 83.4462 169.008 83.6542 169.464C83.8702 169.912 83.9782 170.448 83.9782 171.072C83.9782 171.688 83.8702 172.228 83.6542 172.692C83.4382 173.148 83.1382 173.5 82.7542 173.748C82.3702 173.988 81.9182 174.108 81.3982 174.108ZM81.1462 173.244C81.4902 173.244 81.7902 173.16 82.0462 172.992C82.3102 172.824 82.5142 172.58 82.6582 172.26C82.8022 171.94 82.8742 171.544 82.8742 171.072C82.8742 170.368 82.7182 169.832 82.4062 169.464C82.0942 169.096 81.6742 168.912 81.1462 168.912C80.7942 168.912 80.4862 168.996 80.2222 169.164C79.9662 169.324 79.7662 169.564 79.6222 169.884C79.4862 170.204 79.4182 170.6 79.4182 171.072C79.4182 171.776 79.5742 172.316 79.8862 172.692C80.1982 173.06 80.6182 173.244 81.1462 173.244ZM87.9852 174.108C87.4092 174.108 86.9092 173.984 86.4852 173.736C86.0612 173.488 85.7332 173.136 85.5012 172.68C85.2692 172.224 85.1532 171.688 85.1532 171.072C85.1532 170.608 85.2172 170.192 85.3452 169.824C85.4812 169.448 85.6732 169.128 85.9212 168.864C86.1692 168.6 86.4652 168.4 86.8092 168.264C87.1612 168.12 87.5532 168.048 87.9852 168.048C88.5612 168.048 89.0612 168.172 89.4852 168.42C89.9092 168.668 90.2372 169.02 90.4692 169.476C90.7012 169.924 90.8172 170.456 90.8172 171.072C90.8172 171.536 90.7492 171.956 90.6132 172.332C90.4852 172.708 90.2972 173.028 90.0492 173.292C89.8012 173.556 89.5012 173.76 89.1492 173.904C88.8052 174.04 88.4172 174.108 87.9852 174.108ZM87.9852 173.244C88.3372 173.244 88.6412 173.16 88.8972 172.992C89.1612 172.824 89.3612 172.58 89.4972 172.26C89.6412 171.94 89.7132 171.544 89.7132 171.072C89.7132 170.368 89.5572 169.832 89.2452 169.464C88.9332 169.096 88.5132 168.912 87.9852 168.912C87.6412 168.912 87.3372 168.996 87.0732 169.164C86.8172 169.324 86.6172 169.564 86.4732 169.884C86.3292 170.204 86.2572 170.6 86.2572 171.072C86.2572 171.776 86.4132 172.316 86.7252 172.692C87.0452 173.06 87.4652 173.244 87.9852 173.244ZM94.196 174.108C93.796 174.108 93.432 174.028 93.104 173.868C92.784 173.708 92.532 173.492 92.348 173.22C92.172 172.948 92.084 172.644 92.084 172.308C92.084 171.876 92.192 171.536 92.408 171.288C92.624 171.04 92.988 170.864 93.5 170.76C94.012 170.648 94.7 170.592 95.564 170.592H96.128V171.288H95.588C94.972 171.288 94.484 171.316 94.124 171.372C93.772 171.428 93.524 171.528 93.38 171.672C93.236 171.808 93.164 172 93.164 172.248C93.164 172.56 93.272 172.816 93.488 173.016C93.712 173.216 94.016 173.316 94.4 173.316C94.704 173.316 94.972 173.244 95.204 173.1C95.436 172.948 95.62 172.748 95.756 172.5C95.892 172.244 95.96 171.952 95.96 171.624V170.244C95.96 169.772 95.864 169.432 95.672 169.224C95.48 169.008 95.156 168.9 94.7 168.9C94.436 168.9 94.164 168.936 93.884 169.008C93.604 169.08 93.312 169.192 93.008 169.344C92.888 169.4 92.784 169.42 92.696 169.404C92.608 169.38 92.536 169.332 92.48 169.26C92.432 169.18 92.404 169.096 92.396 169.008C92.396 168.912 92.416 168.82 92.456 168.732C92.504 168.644 92.584 168.58 92.696 168.54C93.048 168.364 93.396 168.24 93.74 168.168C94.092 168.088 94.42 168.048 94.724 168.048C95.244 168.048 95.672 168.132 96.008 168.3C96.344 168.46 96.596 168.712 96.764 169.056C96.932 169.392 97.016 169.824 97.016 170.352V173.52C97.016 173.704 96.972 173.844 96.884 173.94C96.796 174.036 96.668 174.084 96.5 174.084C96.34 174.084 96.212 174.036 96.116 173.94C96.028 173.844 95.984 173.704 95.984 173.52V172.668H96.092C96.028 172.964 95.908 173.22 95.732 173.436C95.556 173.652 95.336 173.82 95.072 173.94C94.816 174.052 94.524 174.108 94.196 174.108ZM99.4184 174.084C99.2344 174.084 99.0944 174.036 98.9984 173.94C98.9024 173.844 98.8544 173.704 98.8544 173.52V168.624C98.8544 168.44 98.9024 168.304 98.9984 168.216C99.0944 168.12 99.2264 168.072 99.3944 168.072C99.5624 168.072 99.6904 168.12 99.7784 168.216C99.8744 168.304 99.9224 168.44 99.9224 168.624V169.548H99.8024C99.9304 169.068 100.17 168.704 100.522 168.456C100.874 168.208 101.318 168.068 101.854 168.036C101.982 168.028 102.086 168.06 102.166 168.132C102.246 168.196 102.29 168.308 102.298 168.468C102.306 168.62 102.27 168.744 102.19 168.84C102.11 168.928 101.986 168.98 101.818 168.996L101.602 169.008C101.074 169.064 100.666 169.236 100.378 169.524C100.098 169.812 99.9584 170.208 99.9584 170.712V173.52C99.9584 173.704 99.9104 173.844 99.8144 173.94C99.7264 174.036 99.5944 174.084 99.4184 174.084ZM105.507 174.108C104.995 174.108 104.543 173.988 104.151 173.748C103.767 173.5 103.467 173.148 103.251 172.692C103.035 172.228 102.927 171.688 102.927 171.072C102.927 170.448 103.031 169.912 103.239 169.464C103.455 169.008 103.755 168.66 104.139 168.42C104.531 168.172 104.987 168.048 105.507 168.048C106.027 168.048 106.475 168.18 106.851 168.444C107.227 168.7 107.479 169.044 107.607 169.476H107.475V166.008C107.475 165.824 107.519 165.688 107.607 165.6C107.703 165.504 107.839 165.456 108.015 165.456C108.191 165.456 108.327 165.504 108.423 165.6C108.519 165.688 108.567 165.824 108.567 166.008V173.52C108.567 173.704 108.519 173.844 108.423 173.94C108.327 174.036 108.191 174.084 108.015 174.084C107.847 174.084 107.715 174.036 107.619 173.94C107.523 173.844 107.475 173.704 107.475 173.52V172.428L107.607 172.644C107.487 173.092 107.235 173.448 106.851 173.712C106.475 173.976 106.027 174.108 105.507 174.108ZM105.759 173.244C106.111 173.244 106.415 173.16 106.671 172.992C106.935 172.824 107.135 172.58 107.271 172.26C107.415 171.94 107.487 171.544 107.487 171.072C107.487 170.368 107.331 169.832 107.019 169.464C106.707 169.096 106.287 168.912 105.759 168.912C105.415 168.912 105.111 168.996 104.847 169.164C104.591 169.324 104.391 169.564 104.247 169.884C104.103 170.204 104.031 170.6 104.031 171.072C104.031 171.776 104.187 172.316 104.499 172.692C104.819 173.06 105.239 173.244 105.759 173.244Z" fill="white" fill-opacity="0.7"/>
</svg>
