<svg width="85" height="85" viewBox="0 0 85 85" fill="none" xmlns="http://www.w3.org/2000/svg">
<rect width="85" height="85" rx="10" fill="#1A1A1A"/>
<rect width="85" height="85" rx="10" stroke="#939393"/>
<path d="M58.9251 52.926H26.0752C25.2039 52.926 24.3684 52.5799 23.7523 51.9639C23.1363 51.3478 22.7902 50.5123 22.7902 49.641V26.6461C22.7902 25.7748 23.1363 24.9393 23.7523 24.3232C24.3684 23.7072 25.2039 23.3611 26.0752 23.3611H32.6439L35.9289 18.4336H49.0689L52.3539 23.3611H58.9251C59.7963 23.3611 60.6319 23.7072 61.2479 24.3232C61.864 24.9393 62.2101 25.7748 62.2101 26.6461V49.641C62.2101 50.5123 61.864 51.3478 61.2479 51.9639C60.6319 52.5799 59.7963 52.926 58.9251 52.926Z" stroke="#757575" stroke-width="2.34234" stroke-linecap="round" stroke-linejoin="round"/>
<path d="M42.4999 44.7141C46.5819 44.7141 49.8911 41.4049 49.8911 37.3229C49.8911 33.2408 46.5819 29.9316 42.4999 29.9316C38.4178 29.9316 35.1086 33.2408 35.1086 37.3229C35.1086 41.4049 38.4178 44.7141 42.4999 44.7141Z" stroke="#757575" stroke-width="2.34234" stroke-linecap="round" stroke-linejoin="round"/>
<path d="M20.8119 71.9124C20.473 71.9124 20.2107 71.8195 20.0249 71.6337C19.85 71.4369 19.7625 71.1691 19.7625 70.8303V61.2876C19.7625 60.9378 19.8554 60.6754 20.0413 60.5005C20.2271 60.3147 20.4894 60.2218 20.8283 60.2218H24.7798C26.0478 60.2218 27.0261 60.5388 27.7148 61.1728C28.4034 61.8068 28.7477 62.6922 28.7477 63.829C28.7477 64.9658 28.4034 65.8567 27.7148 66.5016C27.0261 67.1356 26.0478 67.4526 24.7798 67.4526H21.8613V70.8303C21.8613 71.1691 21.7738 71.4369 21.5989 71.6337C21.424 71.8195 21.1617 71.9124 20.8119 71.9124ZM21.8613 65.7966H24.4519C25.1952 65.7966 25.7581 65.6326 26.1407 65.3047C26.5233 64.9658 26.7146 64.4739 26.7146 63.829C26.7146 63.1841 26.5233 62.6976 26.1407 62.3697C25.7581 62.0418 25.1952 61.8778 24.4519 61.8778H21.8613V65.7966ZM31.4424 71.9124C31.1145 71.9124 30.8631 71.825 30.6882 71.6501C30.5133 71.4643 30.4258 71.2019 30.4258 70.8631V61.1236C30.4258 60.7847 30.5133 60.5279 30.6882 60.353C30.8631 60.1781 31.1145 60.0906 31.4424 60.0906C31.7703 60.0906 32.0217 60.1781 32.1966 60.353C32.3825 60.5279 32.4754 60.7847 32.4754 61.1236V65.3703H32.2458C32.4863 64.7909 32.8579 64.3537 33.3608 64.0585C33.8745 63.7525 34.4539 63.5994 35.0988 63.5994C35.7437 63.5994 36.2739 63.7197 36.6892 63.9602C37.1046 64.2006 37.4161 64.5668 37.6238 65.0587C37.8315 65.5397 37.9354 66.1518 37.9354 66.8951V70.8631C37.9354 71.2019 37.8479 71.4643 37.673 71.6501C37.4981 71.825 37.2467 71.9124 36.9188 71.9124C36.5909 71.9124 36.334 71.825 36.1482 71.6501C35.9733 71.4643 35.8858 71.2019 35.8858 70.8631V66.9935C35.8858 66.3704 35.7656 65.9168 35.5251 65.6326C35.2955 65.3484 34.9348 65.2063 34.4429 65.2063C33.8417 65.2063 33.3608 65.3976 33.0001 65.7802C32.6503 66.1518 32.4754 66.6492 32.4754 67.2722V70.8631C32.4754 71.5626 32.131 71.9124 31.4424 71.9124ZM43.8374 71.9452C43.0067 71.9452 42.2852 71.7758 41.6731 71.4369C41.061 71.0981 40.5855 70.6171 40.2466 69.994C39.9078 69.36 39.7383 68.6167 39.7383 67.7641C39.7383 67.1192 39.8312 66.5453 40.0171 66.0425C40.2138 65.5288 40.4926 65.0915 40.8533 64.7308C41.214 64.3591 41.6458 64.0804 42.1486 63.8946C42.6514 63.6978 43.2144 63.5994 43.8374 63.5994C44.6682 63.5994 45.3896 63.7689 46.0018 64.1077C46.6139 64.4466 47.0894 64.9276 47.4282 65.5506C47.7671 66.1737 47.9365 66.9115 47.9365 67.7641C47.9365 68.4091 47.8382 68.9884 47.6414 69.5022C47.4556 70.0159 47.1823 70.4586 46.8216 70.8303C46.4609 71.191 46.0291 71.4697 45.5263 71.6665C45.0234 71.8523 44.4605 71.9452 43.8374 71.9452ZM43.8374 70.3876C44.2419 70.3876 44.5971 70.2892 44.9032 70.0924C45.2093 69.8957 45.4443 69.606 45.6082 69.2234C45.7831 68.8299 45.8706 68.3435 45.8706 67.7641C45.8706 66.8897 45.6848 66.2393 45.3131 65.813C44.9415 65.3757 44.4496 65.1571 43.8374 65.1571C43.433 65.1571 43.0777 65.2555 42.7717 65.4522C42.4656 65.6381 42.2251 65.9277 42.0502 66.3212C41.8863 66.7038 41.8043 67.1848 41.8043 67.7641C41.8043 68.6277 41.9901 69.2835 42.3618 69.7317C42.7334 70.1689 43.2253 70.3876 43.8374 70.3876ZM53.3849 71.9452C52.6744 71.9452 52.0786 71.825 51.5977 71.5845C51.1276 71.344 50.7778 70.9942 50.5483 70.5351C50.3187 70.0651 50.204 69.4858 50.204 68.7971V65.3047H49.3514C49.089 65.3047 48.8868 65.2391 48.7447 65.1079C48.6026 64.9658 48.5315 64.7745 48.5315 64.534C48.5315 64.2826 48.6026 64.0913 48.7447 63.9602C48.8868 63.829 49.089 63.7634 49.3514 63.7634H50.204V62.2713C50.204 61.9325 50.2914 61.6756 50.4663 61.5007C50.6521 61.3258 50.909 61.2384 51.2369 61.2384C51.5649 61.2384 51.8163 61.3258 51.9912 61.5007C52.1661 61.6756 52.2535 61.9325 52.2535 62.2713V63.7634H53.9915C54.2539 63.7634 54.4561 63.829 54.5982 63.9602C54.7403 64.0913 54.8114 64.2826 54.8114 64.534C54.8114 64.7745 54.7403 64.9658 54.5982 65.1079C54.4561 65.2391 54.2539 65.3047 53.9915 65.3047H52.2535V68.6823C52.2535 69.207 52.3683 69.6005 52.5978 69.8629C52.8274 70.1252 53.199 70.2564 53.7128 70.2564C53.8986 70.2564 54.0626 70.24 54.2047 70.2072C54.3468 70.1744 54.4725 70.1525 54.5818 70.1416C54.713 70.1307 54.8223 70.1744 54.9097 70.2728C54.9972 70.3602 55.0409 70.5461 55.0409 70.8303C55.0409 71.0489 55.0026 71.2456 54.9261 71.4205C54.8605 71.5845 54.7348 71.6993 54.549 71.7649C54.4069 71.8086 54.2211 71.8468 53.9915 71.8796C53.762 71.9234 53.5598 71.9452 53.3849 71.9452ZM59.7451 71.9452C58.9144 71.9452 58.1929 71.7758 57.5808 71.4369C56.9687 71.0981 56.4932 70.6171 56.1543 69.994C55.8155 69.36 55.646 68.6167 55.646 67.7641C55.646 67.1192 55.7389 66.5453 55.9248 66.0425C56.1215 65.5288 56.4003 65.0915 56.761 64.7308C57.1217 64.3591 57.5535 64.0804 58.0563 63.8946C58.5591 63.6978 59.1221 63.5994 59.7451 63.5994C60.5759 63.5994 61.2973 63.7689 61.9095 64.1077C62.5216 64.4466 62.9971 64.9276 63.3359 65.5506C63.6748 66.1737 63.8442 66.9115 63.8442 67.7641C63.8442 68.4091 63.7459 68.9884 63.5491 69.5022C63.3633 70.0159 63.09 70.4586 62.7293 70.8303C62.3686 71.191 61.9368 71.4697 61.434 71.6665C60.9311 71.8523 60.3682 71.9452 59.7451 71.9452ZM59.7451 70.3876C60.1496 70.3876 60.5048 70.2892 60.8109 70.0924C61.117 69.8957 61.352 69.606 61.5159 69.2234C61.6908 68.8299 61.7783 68.3435 61.7783 67.7641C61.7783 66.8897 61.5925 66.2393 61.2208 65.813C60.8492 65.3757 60.3573 65.1571 59.7451 65.1571C59.3407 65.1571 58.9854 65.2555 58.6794 65.4522C58.3733 65.6381 58.1328 65.9277 57.9579 66.3212C57.794 66.7038 57.712 67.1848 57.712 67.7641C57.712 68.6277 57.8978 69.2835 58.2695 69.7317C58.6411 70.1689 59.133 70.3876 59.7451 70.3876Z" fill="#757575"/>
</svg>
