<svg width="85" height="85" viewBox="0 0 85 85" fill="none" xmlns="http://www.w3.org/2000/svg">
<rect width="85" height="85" rx="10" fill="#1A1A1A"/>
<rect width="85" height="85" rx="10" stroke="#232527"/>
<path d="M60.5676 19.5742H24.4327C23.5255 19.5742 22.7902 20.3096 22.7902 21.2167V50.7816C22.7902 51.6888 23.5255 52.4241 24.4327 52.4241H60.5676C61.4747 52.4241 62.2101 51.6888 62.2101 50.7816V21.2167C62.2101 20.3096 61.4747 19.5742 60.5676 19.5742Z" stroke="#757575" stroke-width="2.34234" stroke-linecap="round" stroke-linejoin="round"/>
<path d="M22.7902 44.2136L33.1262 33.8776C33.2787 33.725 33.4598 33.6041 33.659 33.5215C33.8583 33.439 34.0719 33.3965 34.2876 33.3965C34.5033 33.3965 34.7169 33.439 34.9162 33.5215C35.1154 33.6041 35.2965 33.725 35.449 33.8776L44.6237 43.0522C44.7762 43.2047 44.9572 43.3257 45.1565 43.4082C45.3558 43.4908 45.5694 43.5333 45.7851 43.5333C46.0008 43.5333 46.2144 43.4908 46.4136 43.4082C46.6129 43.3257 46.794 43.2047 46.9465 43.0522L51.1936 38.805C51.3462 38.6525 51.5272 38.5315 51.7265 38.449C51.9258 38.3665 52.1394 38.324 52.3551 38.324C52.5708 38.324 52.7843 38.3665 52.9836 38.449C53.1829 38.5315 53.364 38.6525 53.5165 38.805L62.21 47.4986" stroke="#757575" stroke-width="2.34234" stroke-linecap="round" stroke-linejoin="round"/>
<path d="M50.6396 30.2528C50.6396 31.5731 49.5693 32.6434 48.249 32.6434C46.9288 32.6434 45.8585 31.5731 45.8585 30.2528C45.8585 28.9325 46.9288 27.8623 48.249 27.8623C49.5693 27.8623 50.6396 28.9325 50.6396 30.2528Z" fill="#757575" stroke="#757575" stroke-width="0.146396"/>
<path d="M21.1063 72.4124C20.7674 72.4124 20.5051 72.3195 20.3193 72.1337C20.1444 71.9369 20.0569 71.6691 20.0569 71.3303V61.6728C20.0569 61.323 20.1444 61.0552 20.3193 60.8694C20.5051 60.6835 20.7674 60.5906 21.1063 60.5906C21.4451 60.5906 21.702 60.6835 21.8769 60.8694C22.0627 61.0552 22.1557 61.323 22.1557 61.6728V71.3303C22.1557 71.6691 22.0682 71.9369 21.8933 72.1337C21.7184 72.3195 21.4561 72.4124 21.1063 72.4124ZM25.701 72.4124C25.3731 72.4124 25.1217 72.325 24.9468 72.1501C24.7719 71.9643 24.6844 71.7019 24.6844 71.3631V65.1652C24.6844 64.8264 24.7719 64.5695 24.9468 64.3946C25.1217 64.2197 25.3676 64.1322 25.6846 64.1322C26.0016 64.1322 26.2475 64.2197 26.4224 64.3946C26.5973 64.5695 26.6848 64.8264 26.6848 65.1652V66.3622L26.5044 65.8703C26.723 65.3237 27.0619 64.8919 27.521 64.5749C27.9801 64.2579 28.5266 64.0994 29.1606 64.0994C29.8056 64.0994 30.3357 64.2525 30.7511 64.5585C31.1665 64.8646 31.4561 65.3346 31.6201 65.9686H31.3905C31.6092 65.3893 31.9699 64.9357 32.4727 64.6077C32.9755 64.2689 33.5549 64.0994 34.2107 64.0994C34.8229 64.0994 35.3257 64.2197 35.7192 64.4602C36.1236 64.7006 36.4242 65.0668 36.621 65.5587C36.8178 66.0397 36.9161 66.6518 36.9161 67.3951V71.3631C36.9161 71.7019 36.8232 71.9643 36.6374 72.1501C36.4625 72.325 36.2111 72.4124 35.8832 72.4124C35.5552 72.4124 35.3038 72.325 35.1289 72.1501C34.954 71.9643 34.8666 71.7019 34.8666 71.3631V67.4771C34.8666 66.865 34.7627 66.4168 34.555 66.1326C34.3583 65.8484 34.0194 65.7063 33.5385 65.7063C33.0029 65.7063 32.582 65.8976 32.276 66.2802C31.9699 66.6518 31.8169 67.171 31.8169 67.8378V71.3631C31.8169 71.7019 31.7294 71.9643 31.5545 72.1501C31.3796 72.325 31.1282 72.4124 30.8003 72.4124C30.4723 72.4124 30.2155 72.325 30.0296 72.1501C29.8547 71.9643 29.7673 71.7019 29.7673 71.3631V67.4771C29.7673 66.865 29.6635 66.4168 29.4558 66.1326C29.259 65.8484 28.9256 65.7063 28.4556 65.7063C27.92 65.7063 27.4991 65.8976 27.1931 66.2802C26.887 66.6518 26.734 67.171 26.734 67.8378V71.3631C26.734 72.0626 26.3896 72.4124 25.701 72.4124ZM41.8343 72.4452C41.2549 72.4452 40.7357 72.3359 40.2766 72.1173C39.8285 71.8877 39.4732 71.5817 39.2109 71.1991C38.9594 70.8165 38.8337 70.3847 38.8337 69.9038C38.8337 69.3135 38.9868 68.8489 39.2928 68.5101C39.5989 68.1603 40.0963 67.9089 40.7849 67.7558C41.4736 67.6028 42.3972 67.5263 43.5559 67.5263H44.3757V68.7068H43.5723C42.8946 68.7068 42.3535 68.7396 41.9491 68.8052C41.5446 68.8708 41.2549 68.9856 41.08 69.1495C40.9161 69.3026 40.8341 69.5212 40.8341 69.8054C40.8341 70.1661 40.9598 70.4612 41.2112 70.6908C41.4626 70.9203 41.8124 71.0351 42.2606 71.0351C42.6213 71.0351 42.9383 70.9531 43.2116 70.7892C43.4958 70.6143 43.7199 70.3793 43.8838 70.0841C44.0478 69.789 44.1298 69.4501 44.1298 69.0676V67.182C44.1298 66.6354 44.0095 66.2419 43.7691 66.0014C43.5286 65.7609 43.1241 65.6407 42.5557 65.6407C42.2387 65.6407 41.8944 65.679 41.5227 65.7555C41.162 65.832 40.7794 65.9632 40.375 66.149C40.1673 66.2474 39.9815 66.2747 39.8175 66.231C39.6645 66.1873 39.5443 66.0998 39.4568 65.9686C39.3694 65.8265 39.3256 65.6735 39.3256 65.5095C39.3256 65.3456 39.3694 65.1871 39.4568 65.034C39.5443 64.8701 39.6918 64.7498 39.8995 64.6733C40.4023 64.4656 40.8833 64.3181 41.3424 64.2306C41.8124 64.1432 42.2387 64.0994 42.6213 64.0994C43.4083 64.0994 44.0533 64.2197 44.5561 64.4602C45.0698 64.7006 45.4524 65.0668 45.7038 65.5587C45.9552 66.0397 46.0809 66.6628 46.0809 67.4279V71.3631C46.0809 71.7019 45.999 71.9643 45.835 72.1501C45.671 72.325 45.436 72.4124 45.13 72.4124C44.8239 72.4124 44.5834 72.325 44.4085 72.1501C44.2446 71.9643 44.1626 71.7019 44.1626 71.3631V70.576H44.2937C44.2172 70.9586 44.0642 71.292 43.8346 71.5762C43.616 71.8495 43.3373 72.0626 42.9984 72.2157C42.6596 72.3687 42.2715 72.4452 41.8343 72.4452ZM52.0636 75.3966C51.4733 75.3966 50.8994 75.3419 50.342 75.2326C49.7954 75.1233 49.2981 74.9539 48.8499 74.7243C48.6422 74.615 48.5001 74.4838 48.4236 74.3308C48.358 74.1778 48.3361 74.0193 48.358 73.8553C48.3908 73.7023 48.4564 73.5656 48.5548 73.4454C48.6641 73.3252 48.7952 73.2432 48.9483 73.1994C49.1013 73.1557 49.2598 73.1776 49.4238 73.265C49.9047 73.5055 50.3584 73.6585 50.7847 73.7241C51.2219 73.8006 51.5936 73.8389 51.8996 73.8389C52.632 73.8389 53.1785 73.6585 53.5393 73.2978C53.9109 72.948 54.0967 72.4234 54.0967 71.7238V70.2481H54.2443C54.0803 70.8056 53.736 71.2537 53.2113 71.5926C52.6976 71.9205 52.1128 72.0845 51.4569 72.0845C50.7355 72.0845 50.1069 71.9205 49.5713 71.5926C49.0357 71.2537 48.6203 70.7837 48.3252 70.1825C48.0301 69.5813 47.8825 68.8817 47.8825 68.0838C47.8825 67.4826 47.9645 66.9415 48.1284 66.4605C48.3033 65.9686 48.5438 65.5478 48.8499 65.198C49.1669 64.8482 49.544 64.5804 49.9812 64.3946C50.4294 64.1978 50.9213 64.0994 51.4569 64.0994C52.1346 64.0994 52.7249 64.2689 53.2277 64.6077C53.7415 64.9357 54.0749 65.3729 54.2279 65.9194L54.0639 66.3294V65.1652C54.0639 64.8264 54.1514 64.5695 54.3263 64.3946C54.5121 64.2197 54.7635 64.1322 55.0805 64.1322C55.4084 64.1322 55.6599 64.2197 55.8348 64.3946C56.0097 64.5695 56.0971 64.8264 56.0971 65.1652V71.4778C56.0971 72.7786 55.7528 73.7569 55.0641 74.4128C54.3755 75.0686 53.3753 75.3966 52.0636 75.3966ZM52.0144 70.5268C52.4407 70.5268 52.8069 70.4285 53.113 70.2317C53.419 70.0349 53.654 69.7562 53.818 69.3955C53.9929 69.0238 54.0803 68.5866 54.0803 68.0838C54.0803 67.3295 53.8945 66.7393 53.5229 66.313C53.1512 65.8757 52.6484 65.6571 52.0144 65.6571C51.5881 65.6571 51.2219 65.7555 50.9158 65.9522C50.6098 66.149 50.3693 66.4277 50.1944 66.7885C50.0304 67.1492 49.9484 67.5809 49.9484 68.0838C49.9484 68.838 50.1343 69.4337 50.5059 69.871C50.8776 70.3082 51.3804 70.5268 52.0144 70.5268ZM62.3362 72.4452C61.4289 72.4452 60.6474 72.2758 59.9915 71.9369C59.3356 71.5981 58.8274 71.1171 58.4666 70.494C58.1168 69.871 57.9419 69.1331 57.9419 68.2805C57.9419 67.4498 58.1114 66.7229 58.4502 66.0998C58.8 65.4767 59.2755 64.9903 59.8767 64.6405C60.4889 64.2798 61.183 64.0994 61.9591 64.0994C62.5275 64.0994 63.0358 64.1924 63.4839 64.3782C63.943 64.564 64.3311 64.8318 64.6481 65.1816C64.976 65.5314 65.2219 65.9577 65.3859 66.4605C65.5608 66.9524 65.6483 67.5099 65.6483 68.133C65.6483 68.3297 65.5772 68.4828 65.4351 68.5921C65.3039 68.6904 65.1126 68.7396 64.8612 68.7396H59.598V67.5591H64.2054L63.943 67.805C63.943 67.3022 63.8665 66.8814 63.7135 66.5425C63.5714 66.2037 63.3582 65.9468 63.074 65.7719C62.8007 65.5861 62.4564 65.4931 62.041 65.4931C61.5819 65.4931 61.1884 65.6025 60.8605 65.8211C60.5435 66.0288 60.2976 66.3294 60.1227 66.7229C59.9587 67.1055 59.8767 67.5646 59.8767 68.1002V68.2149C59.8767 69.1113 60.0844 69.7835 60.4998 70.2317C60.9261 70.6689 61.5492 70.8876 62.369 70.8876C62.6532 70.8876 62.9702 70.8548 63.32 70.7892C63.6807 70.7127 64.0195 70.587 64.3365 70.4121C64.5661 70.2809 64.7683 70.2262 64.9432 70.2481C65.1181 70.259 65.2547 70.3191 65.3531 70.4285C65.4624 70.5378 65.528 70.6744 65.5499 70.8384C65.5717 70.9914 65.5389 71.1499 65.4515 71.3139C65.375 71.4778 65.2383 71.6199 65.0416 71.7402C64.659 71.9806 64.2163 72.161 63.7135 72.2812C63.2216 72.3906 62.7625 72.4452 62.3362 72.4452Z" fill="#757575"/>
</svg>
