<svg width="91" height="85" viewBox="0 0 91 85" fill="none" xmlns="http://www.w3.org/2000/svg">
<rect width="91" height="85" rx="10" fill="#1A1A1A"/>
<rect width="91" height="85" rx="10" stroke="#939393"/>
<rect x="31.4126" y="12.5794" width="28.1747" height="39.843" rx="3.51351" stroke="#757575" stroke-width="2.34234"/>
<path d="M25.3775 70.5918C25.0168 70.5918 24.738 70.4989 24.5413 70.3131C24.3554 70.1163 24.2625 69.8376 24.2625 69.4768V60.1473C24.2625 59.7866 24.3554 59.5133 24.5413 59.3275C24.738 59.1307 25.0168 59.0323 25.3775 59.0323H29.3126C30.1215 59.0323 30.8102 59.1526 31.3786 59.3931C31.947 59.6335 32.3787 59.9779 32.6739 60.426C32.9799 60.8742 33.133 61.4098 33.133 62.0329C33.133 62.7325 32.9308 63.3227 32.5263 63.8037C32.1219 64.2846 31.5699 64.6071 30.8703 64.7711V64.5251C31.6792 64.6454 32.3077 64.9514 32.7559 65.4433C33.204 65.9352 33.4281 66.5747 33.4281 67.3617C33.4281 68.3892 33.0783 69.1872 32.3787 69.7556C31.6901 70.3131 30.7282 70.5918 29.493 70.5918H25.3775ZM26.2793 69.0013H29.2306C29.9739 69.0013 30.5205 68.8592 30.8703 68.575C31.2201 68.2799 31.395 67.8427 31.395 67.2633C31.395 66.6731 31.2201 66.2358 30.8703 65.9516C30.5205 65.6674 29.9739 65.5253 29.2306 65.5253H26.2793V69.0013ZM26.2793 63.9349H28.9519C29.6733 63.9349 30.2089 63.7982 30.5587 63.5249C30.9195 63.2407 31.0998 62.8254 31.0998 62.2788C31.0998 61.7323 30.9195 61.3224 30.5587 61.0491C30.2089 60.7649 29.6733 60.6228 28.9519 60.6228H26.2793V63.9349ZM38.2565 70.7558C37.3492 70.7558 36.666 70.4989 36.2069 69.9851C35.7478 69.4604 35.5183 68.6953 35.5183 67.6896V59.9341C35.5183 59.5953 35.6057 59.3384 35.7806 59.1635C35.9555 58.9886 36.2069 58.9012 36.5348 58.9012C36.8628 58.9012 37.1142 58.9886 37.2891 59.1635C37.4749 59.3384 37.5678 59.5953 37.5678 59.9341V67.5913C37.5678 68.0941 37.6717 68.4657 37.8793 68.7062C38.098 68.9467 38.404 69.0669 38.7975 69.0669C38.885 69.0669 38.967 69.0669 39.0435 69.0669C39.12 69.056 39.1965 69.0451 39.273 69.0341C39.4261 69.0123 39.5299 69.056 39.5846 69.1653C39.6392 69.2637 39.6666 69.4714 39.6666 69.7884C39.6666 70.0616 39.6119 70.2748 39.5026 70.4278C39.3933 70.5809 39.2129 70.6738 38.9615 70.7066C38.8522 70.7175 38.7374 70.7284 38.6172 70.7394C38.4969 70.7503 38.3767 70.7558 38.2565 70.7558ZM43.558 70.7558C42.9787 70.7558 42.4594 70.6465 42.0003 70.4278C41.5522 70.1983 41.1969 69.8922 40.9346 69.5096C40.6832 69.1271 40.5575 68.6953 40.5575 68.2143C40.5575 67.624 40.7105 67.1595 41.0166 66.8206C41.3226 66.4708 41.82 66.2194 42.5086 66.0664C43.1973 65.9134 44.1209 65.8368 45.2796 65.8368H46.0994V67.0174H45.296C44.6183 67.0174 44.0772 67.0502 43.6728 67.1158C43.2683 67.1813 42.9787 67.2961 42.8038 67.4601C42.6398 67.6131 42.5578 67.8317 42.5578 68.1159C42.5578 68.4767 42.6835 68.7718 42.9349 69.0013C43.1864 69.2309 43.5361 69.3457 43.9843 69.3457C44.345 69.3457 44.662 69.2637 44.9353 69.0997C45.2195 68.9248 45.4436 68.6898 45.6076 68.3947C45.7715 68.0995 45.8535 67.7607 45.8535 67.3781V65.4925C45.8535 64.946 45.7333 64.5525 45.4928 64.312C45.2523 64.0715 44.8479 63.9513 44.2794 63.9513C43.9625 63.9513 43.6181 63.9895 43.2465 64.066C42.8858 64.1425 42.5032 64.2737 42.0987 64.4595C41.891 64.5579 41.7052 64.5853 41.5412 64.5415C41.3882 64.4978 41.268 64.4104 41.1805 64.2792C41.0931 64.1371 41.0494 63.984 41.0494 63.8201C41.0494 63.6561 41.0931 63.4976 41.1805 63.3446C41.268 63.1806 41.4155 63.0604 41.6232 62.9839C42.1261 62.7762 42.607 62.6286 43.0661 62.5412C43.5361 62.4537 43.9625 62.41 44.345 62.41C45.1321 62.41 45.777 62.5302 46.2798 62.7707C46.7936 63.0112 47.1761 63.3774 47.4276 63.8693C47.679 64.3502 47.8047 64.9733 47.8047 65.7385V69.6736C47.8047 70.0125 47.7227 70.2748 47.5587 70.4606C47.3948 70.6355 47.1597 70.723 46.8537 70.723C46.5476 70.723 46.3071 70.6355 46.1322 70.4606C45.9683 70.2748 45.8863 70.0125 45.8863 69.6736V68.8866H46.0175C45.9409 69.2692 45.7879 69.6025 45.5584 69.8868C45.3397 70.16 45.061 70.3732 44.7222 70.5262C44.3833 70.6792 43.9952 70.7558 43.558 70.7558ZM51.0655 70.723C50.7376 70.723 50.4862 70.6355 50.3113 70.4606C50.1364 70.2748 50.0489 70.0125 50.0489 69.6736V63.4758C50.0489 63.1369 50.1364 62.88 50.3113 62.7051C50.4862 62.5302 50.7321 62.4428 51.0491 62.4428C51.3661 62.4428 51.6121 62.5302 51.7869 62.7051C51.9618 62.88 52.0493 63.1369 52.0493 63.4758V64.5907L51.8689 64.1808C52.1094 63.6015 52.4811 63.1642 52.9839 62.8691C53.4976 62.563 54.077 62.41 54.7219 62.41C55.3668 62.41 55.897 62.5302 56.3124 62.7707C56.7277 63.0112 57.0393 63.3774 57.2469 63.8693C57.4546 64.3502 57.5585 64.9624 57.5585 65.7057V69.6736C57.5585 70.0125 57.471 70.2748 57.2961 70.4606C57.1212 70.6355 56.8698 70.723 56.5419 70.723C56.214 70.723 55.9571 70.6355 55.7713 70.4606C55.5964 70.2748 55.5089 70.0125 55.5089 69.6736V65.804C55.5089 65.181 55.3887 64.7274 55.1482 64.4431C54.9187 64.1589 54.5579 64.0168 54.066 64.0168C53.4648 64.0168 52.9839 64.2081 52.6232 64.5907C52.2734 64.9624 52.0985 65.4597 52.0985 66.0828V69.6736C52.0985 70.3732 51.7542 70.723 51.0655 70.723ZM60.8207 70.723C60.4928 70.723 60.2414 70.6355 60.0665 70.4606C59.8916 70.2748 59.8041 70.0125 59.8041 69.6736V59.9341C59.8041 59.5953 59.8916 59.3384 60.0665 59.1635C60.2414 58.9886 60.4928 58.9012 60.8207 58.9012C61.1487 58.9012 61.4001 58.9886 61.575 59.1635C61.7608 59.3384 61.8537 59.5953 61.8537 59.9341V65.9844H61.8865L64.5919 63.1314C64.8105 62.9128 65.0018 62.7434 65.1658 62.6231C65.3297 62.5029 65.5538 62.4428 65.838 62.4428C66.1222 62.4428 66.3354 62.5193 66.4775 62.6723C66.6305 62.8144 66.707 62.9893 66.707 63.197C66.707 63.4047 66.6087 63.6124 66.4119 63.8201L63.5589 66.837V65.9844L66.6906 69.3621C66.8874 69.5698 66.9748 69.7829 66.953 70.0015C66.942 70.2092 66.8546 70.3841 66.6906 70.5262C66.5267 70.6574 66.319 70.723 66.0676 70.723C65.7615 70.723 65.5156 70.6628 65.3297 70.5426C65.1548 70.4224 64.9581 70.242 64.7395 70.0015L61.8865 67.0174H61.8537V69.6736C61.8537 70.3732 61.5094 70.723 60.8207 70.723Z" fill="#757575"/>
</svg>
