<svg width="45" height="45" viewBox="0 0 45 45" fill="none" xmlns="http://www.w3.org/2000/svg">
<path d="M18 14.25H16.5C15.2574 14.25 14.25 15.2574 14.25 16.5V18M27 14.25H28.5C29.7426 14.25 30.75 15.2574 30.75 16.5V18M30.75 27V28.5C30.75 29.7426 29.7426 30.75 28.5 30.75H27M18 30.75H16.5C15.2574 30.75 14.25 29.7426 14.25 28.5V27M25.5 22.5C25.5 24.1569 24.1569 25.5 22.5 25.5C20.8431 25.5 19.5 24.1569 19.5 22.5C19.5 20.8431 20.8431 19.5 22.5 19.5C24.1569 19.5 25.5 20.8431 25.5 22.5Z" stroke="#AFAFAF" stroke-width="1.5" stroke-linecap="round" stroke-linejoin="round"/>
</svg>
