<svg width="262" height="133" viewBox="0 0 262 133" fill="none" xmlns="http://www.w3.org/2000/svg">
<rect width="262" height="133" rx="21" fill="#1E1E1E"/>
<rect x="22.5" y="23" width="85" height="85" rx="10" fill="#353535"/>
<rect x="22.5" y="23" width="85" height="85" rx="10" stroke="#232527"/>
<path d="M83.0684 41.355H46.9335C46.0264 41.355 45.291 42.0904 45.291 42.9975V72.5624C45.291 73.4695 46.0264 74.2049 46.9335 74.2049H83.0684C83.9756 74.2049 84.7109 73.4695 84.7109 72.5624V42.9975C84.7109 42.0904 83.9756 41.355 83.0684 41.355Z" stroke="white" stroke-width="2.34234" stroke-linecap="round" stroke-linejoin="round"/>
<path d="M45.291 65.9924L55.627 55.6564C55.7796 55.5038 55.9606 55.3829 56.1599 55.3003C56.3592 55.2178 56.5728 55.1753 56.7885 55.1753C57.0042 55.1753 57.2177 55.2178 57.417 55.3003C57.6163 55.3829 57.7974 55.5038 57.9499 55.6564L67.1245 64.831C67.277 64.9835 67.4581 65.1045 67.6574 65.1871C67.8567 65.2696 68.0702 65.3121 68.2859 65.3121C68.5016 65.3121 68.7152 65.2696 68.9145 65.1871C69.1138 65.1045 69.2948 64.9835 69.4474 64.831L73.6945 60.5839C73.847 60.4313 74.0281 60.3104 74.2274 60.2278C74.4266 60.1453 74.6402 60.1028 74.8559 60.1028C75.0716 60.1028 75.2852 60.1453 75.4845 60.2278C75.6838 60.3104 75.8648 60.4313 76.0173 60.5839L84.7109 69.2774" stroke="white" stroke-width="2.34234" stroke-linecap="round" stroke-linejoin="round"/>
<path d="M73.1394 52.0312C73.1394 53.3515 72.0692 54.4217 70.7489 54.4217C69.4286 54.4217 68.3584 53.3515 68.3584 52.0312C68.3584 50.7109 69.4286 49.6406 70.7489 49.6406C72.0692 49.6406 73.1394 50.7109 73.1394 52.0312Z" fill="white" stroke="white" stroke-width="0.146396"/>
<path d="M43.6063 98.191C43.2674 98.191 43.0051 98.0981 42.8193 97.9123C42.6444 97.7156 42.5569 97.4477 42.5569 97.1089V87.4514C42.5569 87.1016 42.6444 86.8338 42.8193 86.648C43.0051 86.4622 43.2674 86.3692 43.6063 86.3692C43.9451 86.3692 44.202 86.4622 44.3769 86.648C44.5627 86.8338 44.6557 87.1016 44.6557 87.4514V97.1089C44.6557 97.4477 44.5682 97.7156 44.3933 97.9123C44.2184 98.0981 43.9561 98.191 43.6063 98.191ZM48.201 98.191C47.8731 98.191 47.6217 98.1036 47.4468 97.9287C47.2719 97.7429 47.1844 97.4805 47.1844 97.1417V90.9438C47.1844 90.605 47.2719 90.3481 47.4468 90.1732C47.6217 89.9983 47.8676 89.9109 48.1846 89.9109C48.5016 89.9109 48.7475 89.9983 48.9224 90.1732C49.0973 90.3481 49.1848 90.605 49.1848 90.9438V92.1408L49.0044 91.6489C49.223 91.1023 49.5619 90.6706 50.021 90.3536C50.4801 90.0366 51.0266 89.8781 51.6606 89.8781C52.3056 89.8781 52.8357 90.0311 53.2511 90.3372C53.6665 90.6432 53.9561 91.1133 54.1201 91.7473H53.8905C54.1092 91.1679 54.4699 90.7143 54.9727 90.3864C55.4755 90.0475 56.0549 89.8781 56.7107 89.8781C57.3229 89.8781 57.8257 89.9983 58.2192 90.2388C58.6236 90.4793 58.9242 90.8455 59.121 91.3374C59.3178 91.8183 59.4161 92.4304 59.4161 93.1737V97.1417C59.4161 97.4805 59.3232 97.7429 59.1374 97.9287C58.9625 98.1036 58.7111 98.191 58.3832 98.191C58.0552 98.191 57.8038 98.1036 57.6289 97.9287C57.454 97.7429 57.3666 97.4805 57.3666 97.1417V93.2557C57.3666 92.6436 57.2627 92.1954 57.055 91.9112C56.8583 91.627 56.5194 91.4849 56.0385 91.4849C55.5029 91.4849 55.082 91.6762 54.776 92.0588C54.4699 92.4304 54.3169 92.9497 54.3169 93.6165V97.1417C54.3169 97.4805 54.2294 97.7429 54.0545 97.9287C53.8796 98.1036 53.6282 98.191 53.3003 98.191C52.9723 98.191 52.7155 98.1036 52.5296 97.9287C52.3547 97.7429 52.2673 97.4805 52.2673 97.1417V93.2557C52.2673 92.6436 52.1635 92.1954 51.9558 91.9112C51.759 91.627 51.4256 91.4849 50.9556 91.4849C50.42 91.4849 49.9991 91.6762 49.6931 92.0588C49.387 92.4304 49.234 92.9497 49.234 93.6165V97.1417C49.234 97.8413 48.8896 98.191 48.201 98.191ZM64.3343 98.2238C63.7549 98.2238 63.2357 98.1145 62.7766 97.8959C62.3285 97.6664 61.9732 97.3603 61.7109 96.9777C61.4594 96.5951 61.3337 96.1634 61.3337 95.6824C61.3337 95.0921 61.4868 94.6276 61.7928 94.2887C62.0989 93.9389 62.5963 93.6875 63.2849 93.5345C63.9736 93.3814 64.8972 93.3049 66.0559 93.3049H66.8757V94.4855H66.0723C65.3946 94.4855 64.8535 94.5183 64.4491 94.5838C64.0446 94.6494 63.7549 94.7642 63.58 94.9282C63.4161 95.0812 63.3341 95.2998 63.3341 95.584C63.3341 95.9447 63.4598 96.2399 63.7112 96.4694C63.9626 96.699 64.3124 96.8137 64.7606 96.8137C65.1213 96.8137 65.4383 96.7318 65.7116 96.5678C65.9958 96.3929 66.2199 96.1579 66.3838 95.8628C66.5478 95.5676 66.6298 95.2288 66.6298 94.8462V92.9606C66.6298 92.414 66.5095 92.0205 66.2691 91.7801C66.0286 91.5396 65.6241 91.4193 65.0557 91.4193C64.7387 91.4193 64.3944 91.4576 64.0227 91.5341C63.662 91.6106 63.2794 91.7418 62.875 91.9276C62.6673 92.026 62.4815 92.0533 62.3175 92.0096C62.1645 91.9659 62.0443 91.8784 61.9568 91.7473C61.8694 91.6052 61.8256 91.4521 61.8256 91.2882C61.8256 91.1242 61.8694 90.9657 61.9568 90.8127C62.0443 90.6487 62.1918 90.5285 62.3995 90.4519C62.9023 90.2443 63.3833 90.0967 63.8424 90.0092C64.3124 89.9218 64.7387 89.8781 65.1213 89.8781C65.9083 89.8781 66.5533 89.9983 67.0561 90.2388C67.5698 90.4793 67.9524 90.8455 68.2038 91.3374C68.4552 91.8183 68.5809 92.4414 68.5809 93.2065V97.1417C68.5809 97.4805 68.499 97.7429 68.335 97.9287C68.171 98.1036 67.936 98.191 67.63 98.191C67.3239 98.191 67.0834 98.1036 66.9085 97.9287C66.7446 97.7429 66.6626 97.4805 66.6626 97.1417V96.3547H66.7937C66.7172 96.7372 66.5642 97.0706 66.3346 97.3548C66.116 97.6281 65.8373 97.8413 65.4984 97.9943C65.1596 98.1473 64.7715 98.2238 64.3343 98.2238ZM74.5636 101.175C73.9733 101.175 73.3994 101.121 72.842 101.011C72.2954 100.902 71.7981 100.732 71.3499 100.503C71.1422 100.394 71.0001 100.262 70.9236 100.109C70.858 99.9564 70.8361 99.7979 70.858 99.6339C70.8908 99.4809 70.9564 99.3443 71.0548 99.224C71.1641 99.1038 71.2952 99.0218 71.4483 98.9781C71.6013 98.9343 71.7598 98.9562 71.9238 99.0437C72.4047 99.2841 72.8584 99.4372 73.2847 99.5028C73.7219 99.5793 74.0936 99.6175 74.3996 99.6175C75.132 99.6175 75.6785 99.4372 76.0393 99.0765C76.4109 98.7267 76.5967 98.202 76.5967 97.5024V96.0267H76.7443C76.5803 96.5842 76.236 97.0324 75.7113 97.3712C75.1976 97.6992 74.6128 97.8631 73.9569 97.8631C73.2355 97.8631 72.6069 97.6992 72.0713 97.3712C71.5357 97.0324 71.1203 96.5623 70.8252 95.9611C70.5301 95.3599 70.3825 94.6604 70.3825 93.8624C70.3825 93.2612 70.4645 92.7201 70.6284 92.2392C70.8033 91.7473 71.0438 91.3264 71.3499 90.9766C71.6669 90.6268 72.044 90.359 72.4812 90.1732C72.9294 89.9765 73.4213 89.8781 73.9569 89.8781C74.6346 89.8781 75.2249 90.0475 75.7277 90.3864C76.2415 90.7143 76.5749 91.1515 76.7279 91.6981L76.5639 92.108V90.9438C76.5639 90.605 76.6514 90.3481 76.8263 90.1732C77.0121 89.9983 77.2635 89.9109 77.5805 89.9109C77.9084 89.9109 78.1599 89.9983 78.3348 90.1732C78.5097 90.3481 78.5971 90.605 78.5971 90.9438V97.2565C78.5971 98.5572 78.2528 99.5356 77.5641 100.191C76.8755 100.847 75.8753 101.175 74.5636 101.175ZM74.5144 96.3055C74.9407 96.3055 75.3069 96.2071 75.613 96.0103C75.919 95.8136 76.154 95.5348 76.318 95.1741C76.4929 94.8025 76.5803 94.3652 76.5803 93.8624C76.5803 93.1082 76.3945 92.5179 76.0229 92.0916C75.6512 91.6543 75.1484 91.4357 74.5144 91.4357C74.0881 91.4357 73.7219 91.5341 73.4158 91.7309C73.1098 91.9276 72.8693 92.2064 72.6944 92.5671C72.5304 92.9278 72.4484 93.3596 72.4484 93.8624C72.4484 94.6166 72.6343 95.2124 73.0059 95.6496C73.3776 96.0868 73.8804 96.3055 74.5144 96.3055ZM84.8362 98.2238C83.9289 98.2238 83.1474 98.0544 82.4915 97.7156C81.8356 97.3767 81.3274 96.8957 80.9666 96.2727C80.6168 95.6496 80.4419 94.9118 80.4419 94.0592C80.4419 93.2284 80.6114 92.5015 80.9502 91.8784C81.3 91.2554 81.7755 90.7689 82.3767 90.4192C82.9889 90.0584 83.683 89.8781 84.4591 89.8781C85.0275 89.8781 85.5358 89.971 85.9839 90.1568C86.443 90.3426 86.8311 90.6104 87.1481 90.9602C87.476 91.31 87.7219 91.7363 87.8859 92.2392C88.0608 92.731 88.1483 93.2885 88.1483 93.9116C88.1483 94.1083 88.0772 94.2614 87.9351 94.3707C87.8039 94.4691 87.6126 94.5183 87.3612 94.5183H82.098V93.3377H86.7054L86.443 93.5837C86.443 93.0808 86.3665 92.66 86.2135 92.3211C86.0714 91.9823 85.8582 91.7254 85.574 91.5505C85.3007 91.3647 84.9564 91.2718 84.541 91.2718C84.0819 91.2718 83.6884 91.3811 83.3605 91.5997C83.0435 91.8074 82.7976 92.108 82.6227 92.5015C82.4587 92.8841 82.3767 93.3432 82.3767 93.8788V93.9936C82.3767 94.8899 82.5844 95.5622 82.9998 96.0103C83.4261 96.4476 84.0492 96.6662 84.869 96.6662C85.1532 96.6662 85.4702 96.6334 85.82 96.5678C86.1807 96.4913 86.5195 96.3656 86.8365 96.1907C87.0661 96.0595 87.2683 96.0049 87.4432 96.0267C87.6181 96.0377 87.7547 96.0978 87.8531 96.2071C87.9624 96.3164 88.028 96.453 88.0499 96.617C88.0717 96.77 88.0389 96.9285 87.9515 97.0925C87.875 97.2565 87.7383 97.3986 87.5416 97.5188C87.159 97.7593 86.7163 97.9396 86.2135 98.0599C85.7216 98.1692 85.2625 98.2238 84.8362 98.2238Z" fill="white"/>
<path d="M128.424 58.126C127.985 58.126 127.561 58.0887 127.15 58.014C126.739 57.9487 126.352 57.846 125.988 57.706C125.624 57.566 125.297 57.3933 125.008 57.188C124.887 57.104 124.798 57.0013 124.742 56.88C124.695 56.7587 124.681 56.642 124.7 56.53C124.728 56.4087 124.779 56.306 124.854 56.222C124.938 56.138 125.036 56.0867 125.148 56.068C125.26 56.0493 125.381 56.0867 125.512 56.18C125.941 56.4693 126.389 56.6793 126.856 56.81C127.332 56.9407 127.855 57.006 128.424 57.006C129.245 57.006 129.847 56.8567 130.23 56.558C130.622 56.2593 130.818 55.8673 130.818 55.382C130.818 54.9807 130.678 54.668 130.398 54.444C130.118 54.2107 129.647 54.0287 128.984 53.898L127.5 53.59C126.623 53.4033 125.965 53.0953 125.526 52.666C125.097 52.2367 124.882 51.6627 124.882 50.944C124.882 50.5053 124.971 50.1087 125.148 49.754C125.325 49.39 125.577 49.0773 125.904 48.816C126.231 48.5547 126.613 48.354 127.052 48.214C127.5 48.074 127.995 48.004 128.536 48.004C129.115 48.004 129.656 48.0833 130.16 48.242C130.673 48.4007 131.135 48.634 131.546 48.942C131.658 49.026 131.733 49.1287 131.77 49.25C131.807 49.362 131.812 49.474 131.784 49.586C131.765 49.698 131.714 49.7913 131.63 49.866C131.555 49.9407 131.457 49.9827 131.336 49.992C131.224 50.0013 131.098 49.9593 130.958 49.866C130.585 49.6047 130.202 49.418 129.81 49.306C129.418 49.1847 128.989 49.124 128.522 49.124C128.046 49.124 127.631 49.1987 127.276 49.348C126.931 49.4973 126.66 49.7073 126.464 49.978C126.277 50.2393 126.184 50.5473 126.184 50.902C126.184 51.3313 126.315 51.6673 126.576 51.91C126.837 52.1527 127.276 52.3393 127.892 52.47L129.362 52.764C130.295 52.96 130.986 53.2633 131.434 53.674C131.891 54.0753 132.12 54.6167 132.12 55.298C132.12 55.7273 132.031 56.1147 131.854 56.46C131.686 56.8053 131.443 57.104 131.126 57.356C130.809 57.5987 130.421 57.79 129.964 57.93C129.507 58.0607 128.993 58.126 128.424 58.126ZM136.966 58.126C136.229 58.126 135.594 57.986 135.062 57.706C134.54 57.4167 134.134 57.0107 133.844 56.488C133.555 55.956 133.41 55.3307 133.41 54.612C133.41 53.9027 133.55 53.282 133.83 52.75C134.12 52.218 134.512 51.8027 135.006 51.504C135.51 51.2053 136.084 51.056 136.728 51.056C137.186 51.056 137.596 51.1353 137.96 51.294C138.334 51.4433 138.651 51.6627 138.912 51.952C139.174 52.2413 139.37 52.596 139.5 53.016C139.64 53.4267 139.71 53.8933 139.71 54.416C139.71 54.5653 139.664 54.682 139.57 54.766C139.486 54.8407 139.36 54.878 139.192 54.878H134.404V54.066H138.87L138.632 54.262C138.632 53.7767 138.558 53.366 138.408 53.03C138.268 52.6847 138.058 52.4233 137.778 52.246C137.508 52.0687 137.167 51.98 136.756 51.98C136.308 51.98 135.926 52.0873 135.608 52.302C135.291 52.5073 135.048 52.8013 134.88 53.184C134.712 53.5573 134.628 53.9913 134.628 54.486V54.57C134.628 55.41 134.829 56.0447 135.23 56.474C135.632 56.9033 136.21 57.118 136.966 57.118C137.265 57.118 137.568 57.0807 137.876 57.006C138.194 56.9313 138.497 56.796 138.786 56.6C138.926 56.516 139.052 56.4787 139.164 56.488C139.286 56.488 139.384 56.5253 139.458 56.6C139.533 56.6653 139.58 56.7493 139.598 56.852C139.617 56.9453 139.603 57.048 139.556 57.16C139.51 57.272 139.421 57.37 139.29 57.454C138.982 57.6687 138.614 57.8367 138.184 57.958C137.764 58.07 137.358 58.126 136.966 58.126ZM143.577 58.126C142.877 58.126 142.345 57.9207 141.981 57.51C141.617 57.09 141.435 56.488 141.435 55.704V48.676C141.435 48.4613 141.491 48.3027 141.603 48.2C141.715 48.088 141.869 48.032 142.065 48.032C142.27 48.032 142.429 48.088 142.541 48.2C142.653 48.3027 142.709 48.4613 142.709 48.676V55.606C142.709 56.0913 142.807 56.4553 143.003 56.698C143.208 56.9313 143.497 57.048 143.871 57.048C143.955 57.048 144.029 57.048 144.095 57.048C144.16 57.0387 144.225 57.0293 144.291 57.02C144.393 57.0107 144.468 57.0387 144.515 57.104C144.561 57.1693 144.585 57.3 144.585 57.496C144.585 57.6733 144.543 57.8133 144.459 57.916C144.384 58.0093 144.258 58.07 144.081 58.098C143.997 58.1073 143.913 58.112 143.829 58.112C143.745 58.1213 143.661 58.126 143.577 58.126ZM148.867 58.126C148.13 58.126 147.495 57.986 146.963 57.706C146.441 57.4167 146.035 57.0107 145.745 56.488C145.456 55.956 145.311 55.3307 145.311 54.612C145.311 53.9027 145.451 53.282 145.731 52.75C146.021 52.218 146.413 51.8027 146.907 51.504C147.411 51.2053 147.985 51.056 148.629 51.056C149.087 51.056 149.497 51.1353 149.861 51.294C150.235 51.4433 150.552 51.6627 150.813 51.952C151.075 52.2413 151.271 52.596 151.401 53.016C151.541 53.4267 151.611 53.8933 151.611 54.416C151.611 54.5653 151.565 54.682 151.471 54.766C151.387 54.8407 151.261 54.878 151.093 54.878H146.305V54.066H150.771L150.533 54.262C150.533 53.7767 150.459 53.366 150.309 53.03C150.169 52.6847 149.959 52.4233 149.679 52.246C149.409 52.0687 149.068 51.98 148.657 51.98C148.209 51.98 147.827 52.0873 147.509 52.302C147.192 52.5073 146.949 52.8013 146.781 53.184C146.613 53.5573 146.529 53.9913 146.529 54.486V54.57C146.529 55.41 146.73 56.0447 147.131 56.474C147.533 56.9033 148.111 57.118 148.867 57.118C149.166 57.118 149.469 57.0807 149.777 57.006C150.095 56.9313 150.398 56.796 150.687 56.6C150.827 56.516 150.953 56.4787 151.065 56.488C151.187 56.488 151.285 56.5253 151.359 56.6C151.434 56.6653 151.481 56.7493 151.499 56.852C151.518 56.9453 151.504 57.048 151.457 57.16C151.411 57.272 151.322 57.37 151.191 57.454C150.883 57.6687 150.515 57.8367 150.085 57.958C149.665 58.07 149.259 58.126 148.867 58.126ZM156.29 58.126C155.599 58.126 155.002 57.9813 154.498 57.692C153.994 57.3933 153.607 56.978 153.336 56.446C153.065 55.9047 152.93 55.27 152.93 54.542C152.93 54.0007 153.005 53.5153 153.154 53.086C153.313 52.6567 153.537 52.2927 153.826 51.994C154.115 51.686 154.465 51.4527 154.876 51.294C155.296 51.1353 155.767 51.056 156.29 51.056C156.617 51.056 156.962 51.1073 157.326 51.21C157.69 51.3127 158.026 51.4807 158.334 51.714C158.437 51.7887 158.502 51.8773 158.53 51.98C158.558 52.0733 158.558 52.1713 158.53 52.274C158.511 52.3767 158.465 52.4653 158.39 52.54C158.325 52.6053 158.236 52.6427 158.124 52.652C158.021 52.6613 157.909 52.6287 157.788 52.554C157.564 52.386 157.326 52.2647 157.074 52.19C156.831 52.1153 156.598 52.078 156.374 52.078C156.029 52.078 155.721 52.134 155.45 52.246C155.189 52.358 154.965 52.5213 154.778 52.736C154.601 52.9413 154.465 53.198 154.372 53.506C154.279 53.8047 154.232 54.1547 154.232 54.556C154.232 55.3493 154.419 55.9747 154.792 56.432C155.165 56.88 155.693 57.104 156.374 57.104C156.598 57.104 156.831 57.0713 157.074 57.006C157.317 56.9313 157.555 56.81 157.788 56.642C157.909 56.5673 158.021 56.5393 158.124 56.558C158.227 56.5673 158.311 56.6093 158.376 56.684C158.451 56.7493 158.497 56.8333 158.516 56.936C158.535 57.0293 158.525 57.1273 158.488 57.23C158.46 57.3327 158.395 57.4167 158.292 57.482C157.993 57.706 157.667 57.8693 157.312 57.972C156.957 58.0747 156.617 58.126 156.29 58.126ZM162.825 58.126C162.275 58.126 161.813 58.028 161.439 57.832C161.075 57.636 160.8 57.3513 160.613 56.978C160.436 56.6047 160.347 56.1473 160.347 55.606V52.162H159.451C159.283 52.162 159.153 52.12 159.059 52.036C158.966 51.9427 158.919 51.8213 158.919 51.672C158.919 51.5133 158.966 51.392 159.059 51.308C159.153 51.224 159.283 51.182 159.451 51.182H160.347V49.656C160.347 49.4413 160.403 49.2827 160.515 49.18C160.627 49.068 160.786 49.012 160.991 49.012C161.197 49.012 161.351 49.068 161.453 49.18C161.565 49.2827 161.621 49.4413 161.621 49.656V51.182H163.315C163.493 51.182 163.628 51.224 163.721 51.308C163.815 51.392 163.861 51.5133 163.861 51.672C163.861 51.8213 163.815 51.9427 163.721 52.036C163.628 52.12 163.493 52.162 163.315 52.162H161.621V55.494C161.621 56.0073 161.729 56.3947 161.943 56.656C162.158 56.9173 162.513 57.048 163.007 57.048C163.185 57.048 163.334 57.034 163.455 57.006C163.577 56.9687 163.684 56.95 163.777 56.95C163.861 56.9407 163.931 56.9687 163.987 57.034C164.053 57.0993 164.085 57.2207 164.085 57.398C164.085 57.5287 164.062 57.65 164.015 57.762C163.978 57.8647 163.899 57.9347 163.777 57.972C163.665 58.0093 163.516 58.042 163.329 58.07C163.143 58.1073 162.975 58.126 162.825 58.126ZM171.115 58.126C170.649 58.126 170.224 58.0327 169.841 57.846C169.468 57.6593 169.174 57.4073 168.959 57.09C168.754 56.7727 168.651 56.418 168.651 56.026C168.651 55.522 168.777 55.1253 169.029 54.836C169.281 54.5467 169.706 54.3413 170.303 54.22C170.901 54.0893 171.703 54.024 172.711 54.024H173.369V54.836H172.739C172.021 54.836 171.451 54.8687 171.031 54.934C170.621 54.9993 170.331 55.116 170.163 55.284C169.995 55.4427 169.911 55.6667 169.911 55.956C169.911 56.32 170.037 56.6187 170.289 56.852C170.551 57.0853 170.905 57.202 171.353 57.202C171.708 57.202 172.021 57.118 172.291 56.95C172.562 56.7727 172.777 56.5393 172.935 56.25C173.094 55.9513 173.173 55.6107 173.173 55.228V53.618C173.173 53.0673 173.061 52.6707 172.837 52.428C172.613 52.176 172.235 52.05 171.703 52.05C171.395 52.05 171.078 52.092 170.751 52.176C170.425 52.26 170.084 52.3907 169.729 52.568C169.589 52.6333 169.468 52.6567 169.365 52.638C169.263 52.61 169.179 52.554 169.113 52.47C169.057 52.3767 169.025 52.2787 169.015 52.176C169.015 52.064 169.039 51.9567 169.085 51.854C169.141 51.7513 169.235 51.6767 169.365 51.63C169.776 51.4247 170.182 51.28 170.583 51.196C170.994 51.1027 171.377 51.056 171.731 51.056C172.338 51.056 172.837 51.154 173.229 51.35C173.621 51.5367 173.915 51.8307 174.111 52.232C174.307 52.624 174.405 53.128 174.405 53.744V57.44C174.405 57.6547 174.354 57.818 174.251 57.93C174.149 58.042 173.999 58.098 173.803 58.098C173.617 58.098 173.467 58.042 173.355 57.93C173.253 57.818 173.201 57.6547 173.201 57.44V56.446H173.327C173.253 56.7913 173.113 57.09 172.907 57.342C172.702 57.594 172.445 57.79 172.137 57.93C171.839 58.0607 171.498 58.126 171.115 58.126ZM177.18 58.098C176.984 58.098 176.83 58.042 176.718 57.93C176.606 57.818 176.55 57.6547 176.55 57.44V51.728C176.55 51.5133 176.606 51.3547 176.718 51.252C176.83 51.14 176.984 51.084 177.18 51.084C177.376 51.084 177.526 51.14 177.628 51.252C177.74 51.3547 177.796 51.5133 177.796 51.728V52.876L177.642 52.666C177.838 52.134 178.156 51.7327 178.594 51.462C179.042 51.1913 179.551 51.056 180.12 51.056C180.671 51.056 181.124 51.154 181.478 51.35C181.833 51.546 182.099 51.8447 182.276 52.246C182.454 52.6473 182.542 53.156 182.542 53.772V57.44C182.542 57.6547 182.486 57.818 182.374 57.93C182.272 58.042 182.118 58.098 181.912 58.098C181.707 58.098 181.548 58.042 181.436 57.93C181.324 57.818 181.268 57.6547 181.268 57.44V53.842C181.268 53.2353 181.152 52.792 180.918 52.512C180.685 52.232 180.312 52.092 179.798 52.092C179.201 52.092 178.72 52.2787 178.356 52.652C178.002 53.016 177.824 53.5107 177.824 54.136V57.44C177.824 57.8787 177.61 58.098 177.18 58.098ZM189.122 58.07C188.926 58.07 188.772 58.0093 188.66 57.888C188.548 57.7667 188.492 57.5987 188.492 57.384V51.798C188.492 51.574 188.548 51.406 188.66 51.294C188.772 51.1727 188.926 51.112 189.122 51.112C189.328 51.112 189.486 51.1727 189.598 51.294C189.71 51.406 189.766 51.574 189.766 51.798V57.384C189.766 57.5987 189.71 57.7667 189.598 57.888C189.496 58.0093 189.337 58.07 189.122 58.07ZM189.122 49.6C188.87 49.6 188.67 49.5347 188.52 49.404C188.38 49.264 188.31 49.082 188.31 48.858C188.31 48.6153 188.38 48.4333 188.52 48.312C188.67 48.1813 188.87 48.116 189.122 48.116C189.393 48.116 189.594 48.1813 189.724 48.312C189.864 48.4333 189.934 48.6153 189.934 48.858C189.934 49.082 189.864 49.264 189.724 49.404C189.594 49.5347 189.393 49.6 189.122 49.6ZM192.613 58.098C192.417 58.098 192.263 58.042 192.151 57.93C192.039 57.818 191.983 57.6547 191.983 57.44V51.728C191.983 51.5133 192.039 51.3547 192.151 51.252C192.263 51.14 192.417 51.084 192.613 51.084C192.809 51.084 192.958 51.14 193.061 51.252C193.173 51.3547 193.229 51.5133 193.229 51.728V52.918L193.075 52.666C193.252 52.1527 193.537 51.756 193.929 51.476C194.33 51.196 194.806 51.056 195.357 51.056C195.935 51.056 196.402 51.196 196.757 51.476C197.111 51.7467 197.349 52.162 197.471 52.722H197.275C197.443 52.2087 197.741 51.8027 198.171 51.504C198.609 51.2053 199.118 51.056 199.697 51.056C200.21 51.056 200.63 51.1587 200.957 51.364C201.293 51.56 201.545 51.8587 201.713 52.26C201.881 52.652 201.965 53.156 201.965 53.772V57.44C201.965 57.6547 201.909 57.818 201.797 57.93C201.685 58.042 201.531 58.098 201.335 58.098C201.129 58.098 200.971 58.042 200.859 57.93C200.747 57.818 200.691 57.6547 200.691 57.44V53.828C200.691 53.2307 200.588 52.792 200.383 52.512C200.177 52.232 199.832 52.092 199.347 52.092C198.815 52.092 198.39 52.2787 198.073 52.652C197.765 53.016 197.611 53.52 197.611 54.164V57.44C197.611 57.6547 197.555 57.818 197.443 57.93C197.34 58.042 197.186 58.098 196.981 58.098C196.775 58.098 196.617 58.042 196.505 57.93C196.393 57.818 196.337 57.6547 196.337 57.44V53.828C196.337 53.2307 196.234 52.792 196.029 52.512C195.823 52.232 195.478 52.092 194.993 52.092C194.461 52.092 194.036 52.2787 193.719 52.652C193.411 53.016 193.257 53.52 193.257 54.164V57.44C193.257 57.8787 193.042 58.098 192.613 58.098ZM206.323 58.126C205.857 58.126 205.432 58.0327 205.049 57.846C204.676 57.6593 204.382 57.4073 204.167 57.09C203.962 56.7727 203.859 56.418 203.859 56.026C203.859 55.522 203.985 55.1253 204.237 54.836C204.489 54.5467 204.914 54.3413 205.511 54.22C206.109 54.0893 206.911 54.024 207.919 54.024H208.577V54.836H207.947C207.229 54.836 206.659 54.8687 206.239 54.934C205.829 54.9993 205.539 55.116 205.371 55.284C205.203 55.4427 205.119 55.6667 205.119 55.956C205.119 56.32 205.245 56.6187 205.497 56.852C205.759 57.0853 206.113 57.202 206.561 57.202C206.916 57.202 207.229 57.118 207.499 56.95C207.77 56.7727 207.985 56.5393 208.143 56.25C208.302 55.9513 208.381 55.6107 208.381 55.228V53.618C208.381 53.0673 208.269 52.6707 208.045 52.428C207.821 52.176 207.443 52.05 206.911 52.05C206.603 52.05 206.286 52.092 205.959 52.176C205.633 52.26 205.292 52.3907 204.937 52.568C204.797 52.6333 204.676 52.6567 204.573 52.638C204.471 52.61 204.387 52.554 204.321 52.47C204.265 52.3767 204.233 52.2787 204.223 52.176C204.223 52.064 204.247 51.9567 204.293 51.854C204.349 51.7513 204.443 51.6767 204.573 51.63C204.984 51.4247 205.39 51.28 205.791 51.196C206.202 51.1027 206.585 51.056 206.939 51.056C207.546 51.056 208.045 51.154 208.437 51.35C208.829 51.5367 209.123 51.8307 209.319 52.232C209.515 52.624 209.613 53.128 209.613 53.744V57.44C209.613 57.6547 209.562 57.818 209.459 57.93C209.357 58.042 209.207 58.098 209.011 58.098C208.825 58.098 208.675 58.042 208.563 57.93C208.461 57.818 208.409 57.6547 208.409 57.44V56.446H208.535C208.461 56.7913 208.321 57.09 208.115 57.342C207.91 57.594 207.653 57.79 207.345 57.93C207.047 58.0607 206.706 58.126 206.323 58.126ZM214.824 60.646C214.32 60.646 213.83 60.59 213.354 60.478C212.887 60.366 212.463 60.1933 212.08 59.96C211.959 59.8853 211.875 59.7967 211.828 59.694C211.791 59.6007 211.781 59.5027 211.8 59.4C211.828 59.2973 211.875 59.204 211.94 59.12C212.015 59.0453 212.099 58.994 212.192 58.966C212.295 58.9473 212.397 58.9707 212.5 59.036C212.911 59.2693 213.303 59.428 213.676 59.512C214.049 59.596 214.404 59.638 214.74 59.638C215.403 59.638 215.897 59.4653 216.224 59.12C216.56 58.784 216.728 58.2893 216.728 57.636V56.124H216.854C216.723 56.6467 216.429 57.062 215.972 57.37C215.524 57.678 215.001 57.832 214.404 57.832C213.788 57.832 213.251 57.692 212.794 57.412C212.337 57.1227 211.982 56.726 211.73 56.222C211.478 55.7087 211.352 55.116 211.352 54.444C211.352 53.9307 211.422 53.4687 211.562 53.058C211.711 52.638 211.917 52.2833 212.178 51.994C212.449 51.6953 212.771 51.4667 213.144 51.308C213.517 51.14 213.937 51.056 214.404 51.056C215.011 51.056 215.538 51.21 215.986 51.518C216.434 51.826 216.723 52.2413 216.854 52.764L216.7 52.96V51.728C216.7 51.5133 216.756 51.3547 216.868 51.252C216.98 51.14 217.139 51.084 217.344 51.084C217.54 51.084 217.694 51.14 217.806 51.252C217.918 51.3547 217.974 51.5133 217.974 51.728V57.468C217.974 58.5227 217.703 59.316 217.162 59.848C216.63 60.38 215.851 60.646 214.824 60.646ZM214.684 56.824C215.104 56.824 215.463 56.7307 215.762 56.544C216.07 56.348 216.303 56.0727 216.462 55.718C216.63 55.354 216.714 54.9293 216.714 54.444C216.714 53.7067 216.532 53.128 216.168 52.708C215.804 52.2787 215.309 52.064 214.684 52.064C214.264 52.064 213.9 52.162 213.592 52.358C213.293 52.5447 213.06 52.8153 212.892 53.17C212.724 53.5247 212.64 53.9493 212.64 54.444C212.64 55.172 212.822 55.7507 213.186 56.18C213.559 56.6093 214.059 56.824 214.684 56.824ZM223.306 58.126C222.568 58.126 221.934 57.986 221.402 57.706C220.879 57.4167 220.473 57.0107 220.184 56.488C219.894 55.956 219.75 55.3307 219.75 54.612C219.75 53.9027 219.89 53.282 220.17 52.75C220.459 52.218 220.851 51.8027 221.346 51.504C221.85 51.2053 222.424 51.056 223.068 51.056C223.525 51.056 223.936 51.1353 224.3 51.294C224.673 51.4433 224.99 51.6627 225.252 51.952C225.513 52.2413 225.709 52.596 225.84 53.016C225.98 53.4267 226.05 53.8933 226.05 54.416C226.05 54.5653 226.003 54.682 225.91 54.766C225.826 54.8407 225.7 54.878 225.532 54.878H220.744V54.066H225.21L224.972 54.262C224.972 53.7767 224.897 53.366 224.748 53.03C224.608 52.6847 224.398 52.4233 224.118 52.246C223.847 52.0687 223.506 51.98 223.096 51.98C222.648 51.98 222.265 52.0873 221.948 52.302C221.63 52.5073 221.388 52.8013 221.22 53.184C221.052 53.5573 220.968 53.9913 220.968 54.486V54.57C220.968 55.41 221.168 56.0447 221.57 56.474C221.971 56.9033 222.55 57.118 223.306 57.118C223.604 57.118 223.908 57.0807 224.216 57.006C224.533 56.9313 224.836 56.796 225.126 56.6C225.266 56.516 225.392 56.4787 225.504 56.488C225.625 56.488 225.723 56.5253 225.798 56.6C225.872 56.6653 225.919 56.7493 225.938 56.852C225.956 56.9453 225.942 57.048 225.896 57.16C225.849 57.272 225.76 57.37 225.63 57.454C225.322 57.6687 224.953 57.8367 224.524 57.958C224.104 58.07 223.698 58.126 223.306 58.126ZM126.058 77.098C125.853 77.098 125.694 77.042 125.582 76.93C125.47 76.818 125.414 76.6547 125.414 76.44V71.162H124.574C124.406 71.162 124.275 71.12 124.182 71.036C124.089 70.9427 124.042 70.8213 124.042 70.672C124.042 70.5133 124.089 70.392 124.182 70.308C124.275 70.224 124.406 70.182 124.574 70.182H125.764L125.414 70.518V70C125.414 69.0947 125.633 68.4087 126.072 67.942C126.52 67.466 127.173 67.1907 128.032 67.116L128.466 67.088C128.606 67.0693 128.718 67.0927 128.802 67.158C128.886 67.214 128.942 67.2887 128.97 67.382C128.998 67.4753 128.998 67.5733 128.97 67.676C128.951 67.7693 128.909 67.8533 128.844 67.928C128.779 68.0027 128.695 68.0447 128.592 68.054L128.284 68.068C127.724 68.1147 127.318 68.2827 127.066 68.572C126.814 68.852 126.688 69.272 126.688 69.832V70.392L126.506 70.182H128.116C128.293 70.182 128.429 70.224 128.522 70.308C128.615 70.392 128.662 70.5133 128.662 70.672C128.662 70.8213 128.615 70.9427 128.522 71.036C128.429 71.12 128.293 71.162 128.116 71.162H126.688V76.44C126.688 76.8787 126.478 77.098 126.058 77.098ZM130.578 77.098C130.363 77.098 130.2 77.042 130.088 76.93C129.976 76.818 129.92 76.6547 129.92 76.44V70.728C129.92 70.5133 129.976 70.3547 130.088 70.252C130.2 70.14 130.354 70.084 130.55 70.084C130.746 70.084 130.895 70.14 130.998 70.252C131.11 70.3547 131.166 70.5133 131.166 70.728V71.806H131.026C131.175 71.246 131.455 70.8213 131.866 70.532C132.276 70.2427 132.794 70.0793 133.42 70.042C133.569 70.0327 133.69 70.07 133.784 70.154C133.877 70.2287 133.928 70.3593 133.938 70.546C133.947 70.7233 133.905 70.868 133.812 70.98C133.718 71.0827 133.574 71.1433 133.378 71.162L133.126 71.176C132.51 71.2413 132.034 71.442 131.698 71.778C131.371 72.114 131.208 72.576 131.208 73.164V76.44C131.208 76.6547 131.152 76.818 131.04 76.93C130.937 77.042 130.783 77.098 130.578 77.098ZM137.975 77.126C137.303 77.126 136.72 76.9813 136.225 76.692C135.731 76.4027 135.348 75.992 135.077 75.46C134.807 74.928 134.671 74.3027 134.671 73.584C134.671 73.0427 134.746 72.5573 134.895 72.128C135.054 71.6893 135.278 71.316 135.567 71.008C135.857 70.7 136.202 70.4667 136.603 70.308C137.014 70.14 137.471 70.056 137.975 70.056C138.647 70.056 139.231 70.2007 139.725 70.49C140.22 70.7793 140.603 71.19 140.873 71.722C141.144 72.2447 141.279 72.8653 141.279 73.584C141.279 74.1253 141.2 74.6153 141.041 75.054C140.892 75.4927 140.673 75.866 140.383 76.174C140.094 76.482 139.744 76.72 139.333 76.888C138.932 77.0467 138.479 77.126 137.975 77.126ZM137.975 76.118C138.386 76.118 138.741 76.02 139.039 75.824C139.347 75.628 139.581 75.3433 139.739 74.97C139.907 74.5967 139.991 74.1347 139.991 73.584C139.991 72.7627 139.809 72.1373 139.445 71.708C139.081 71.2787 138.591 71.064 137.975 71.064C137.574 71.064 137.219 71.162 136.911 71.358C136.613 71.5447 136.379 71.8247 136.211 72.198C136.043 72.5713 135.959 73.0333 135.959 73.584C135.959 74.4053 136.141 75.0353 136.505 75.474C136.879 75.9033 137.369 76.118 137.975 76.118ZM143.709 77.098C143.513 77.098 143.359 77.042 143.247 76.93C143.135 76.818 143.079 76.6547 143.079 76.44V70.728C143.079 70.5133 143.135 70.3547 143.247 70.252C143.359 70.14 143.513 70.084 143.709 70.084C143.905 70.084 144.055 70.14 144.157 70.252C144.269 70.3547 144.325 70.5133 144.325 70.728V71.918L144.171 71.666C144.349 71.1527 144.633 70.756 145.025 70.476C145.427 70.196 145.903 70.056 146.453 70.056C147.032 70.056 147.499 70.196 147.853 70.476C148.208 70.7467 148.446 71.162 148.567 71.722H148.371C148.539 71.2087 148.838 70.8027 149.267 70.504C149.706 70.2053 150.215 70.056 150.793 70.056C151.307 70.056 151.727 70.1587 152.053 70.364C152.389 70.56 152.641 70.8587 152.809 71.26C152.977 71.652 153.061 72.156 153.061 72.772V76.44C153.061 76.6547 153.005 76.818 152.893 76.93C152.781 77.042 152.627 77.098 152.431 77.098C152.226 77.098 152.067 77.042 151.955 76.93C151.843 76.818 151.787 76.6547 151.787 76.44V72.828C151.787 72.2307 151.685 71.792 151.479 71.512C151.274 71.232 150.929 71.092 150.443 71.092C149.911 71.092 149.487 71.2787 149.169 71.652C148.861 72.016 148.707 72.52 148.707 73.164V76.44C148.707 76.6547 148.651 76.818 148.539 76.93C148.437 77.042 148.283 77.098 148.077 77.098C147.872 77.098 147.713 77.042 147.601 76.93C147.489 76.818 147.433 76.6547 147.433 76.44V72.828C147.433 72.2307 147.331 71.792 147.125 71.512C146.92 71.232 146.575 71.092 146.089 71.092C145.557 71.092 145.133 71.2787 144.815 71.652C144.507 72.016 144.353 72.52 144.353 73.164V76.44C144.353 76.8787 144.139 77.098 143.709 77.098ZM160.608 79.618C160.459 79.618 160.333 79.576 160.23 79.492C160.137 79.4173 160.081 79.31 160.062 79.17C160.053 79.0393 160.081 78.8993 160.146 78.75L161.098 76.594V77.126L158.452 70.966C158.387 70.8073 158.364 70.6627 158.382 70.532C158.401 70.4013 158.462 70.294 158.564 70.21C158.676 70.126 158.826 70.084 159.012 70.084C159.171 70.084 159.297 70.1213 159.39 70.196C159.484 70.2707 159.572 70.4013 159.656 70.588L161.854 76.006H161.462L163.702 70.588C163.777 70.4013 163.866 70.2707 163.968 70.196C164.071 70.1213 164.211 70.084 164.388 70.084C164.547 70.084 164.668 70.126 164.752 70.21C164.846 70.294 164.902 70.4013 164.92 70.532C164.939 70.6627 164.911 70.8027 164.836 70.952L161.308 79.114C161.215 79.31 161.117 79.4407 161.014 79.506C160.921 79.5807 160.786 79.618 160.608 79.618ZM169.201 77.126C168.529 77.126 167.946 76.9813 167.451 76.692C166.957 76.4027 166.574 75.992 166.303 75.46C166.033 74.928 165.897 74.3027 165.897 73.584C165.897 73.0427 165.972 72.5573 166.121 72.128C166.28 71.6893 166.504 71.316 166.793 71.008C167.083 70.7 167.428 70.4667 167.829 70.308C168.24 70.14 168.697 70.056 169.201 70.056C169.873 70.056 170.457 70.2007 170.951 70.49C171.446 70.7793 171.829 71.19 172.099 71.722C172.37 72.2447 172.505 72.8653 172.505 73.584C172.505 74.1253 172.426 74.6153 172.267 75.054C172.118 75.4927 171.899 75.866 171.609 76.174C171.32 76.482 170.97 76.72 170.559 76.888C170.158 77.0467 169.705 77.126 169.201 77.126ZM169.201 76.118C169.612 76.118 169.967 76.02 170.265 75.824C170.573 75.628 170.807 75.3433 170.965 74.97C171.133 74.5967 171.217 74.1347 171.217 73.584C171.217 72.7627 171.035 72.1373 170.671 71.708C170.307 71.2787 169.817 71.064 169.201 71.064C168.8 71.064 168.445 71.162 168.137 71.358C167.839 71.5447 167.605 71.8247 167.437 72.198C167.269 72.5713 167.185 73.0333 167.185 73.584C167.185 74.4053 167.367 75.0353 167.731 75.474C168.105 75.9033 168.595 76.118 169.201 76.118ZM176.713 77.126C176.163 77.126 175.701 77.0233 175.327 76.818C174.963 76.6127 174.693 76.3093 174.515 75.908C174.338 75.5067 174.249 75.0027 174.249 74.396V70.728C174.249 70.5133 174.301 70.3547 174.403 70.252C174.515 70.14 174.674 70.084 174.879 70.084C175.085 70.084 175.243 70.14 175.355 70.252C175.467 70.3547 175.523 70.5133 175.523 70.728V74.396C175.523 74.9747 175.64 75.404 175.873 75.684C176.107 75.9547 176.475 76.09 176.979 76.09C177.539 76.09 177.992 75.9033 178.337 75.53C178.692 75.1567 178.869 74.662 178.869 74.046V70.728C178.869 70.5133 178.921 70.3547 179.023 70.252C179.135 70.14 179.294 70.084 179.499 70.084C179.705 70.084 179.863 70.14 179.975 70.252C180.087 70.3547 180.143 70.5133 180.143 70.728V76.44C180.143 76.8787 179.938 77.098 179.527 77.098C179.322 77.098 179.163 77.042 179.051 76.93C178.949 76.818 178.897 76.6547 178.897 76.44V75.222L179.079 75.46C178.893 76.0013 178.589 76.4167 178.169 76.706C177.759 76.986 177.273 77.126 176.713 77.126ZM182.991 77.098C182.777 77.098 182.613 77.042 182.501 76.93C182.389 76.818 182.333 76.6547 182.333 76.44V70.728C182.333 70.5133 182.389 70.3547 182.501 70.252C182.613 70.14 182.767 70.084 182.963 70.084C183.159 70.084 183.309 70.14 183.411 70.252C183.523 70.3547 183.579 70.5133 183.579 70.728V71.806H183.439C183.589 71.246 183.869 70.8213 184.279 70.532C184.69 70.2427 185.208 70.0793 185.833 70.042C185.983 70.0327 186.104 70.07 186.197 70.154C186.291 70.2287 186.342 70.3593 186.351 70.546C186.361 70.7233 186.319 70.868 186.225 70.98C186.132 71.0827 185.987 71.1433 185.791 71.162L185.539 71.176C184.923 71.2413 184.447 71.442 184.111 71.778C183.785 72.114 183.621 72.576 183.621 73.164V76.44C183.621 76.6547 183.565 76.818 183.453 76.93C183.351 77.042 183.197 77.098 182.991 77.098ZM193.519 77.126C192.819 77.126 192.287 76.9207 191.923 76.51C191.559 76.09 191.377 75.488 191.377 74.704V67.676C191.377 67.4613 191.433 67.3027 191.545 67.2C191.657 67.088 191.811 67.032 192.007 67.032C192.212 67.032 192.371 67.088 192.483 67.2C192.595 67.3027 192.651 67.4613 192.651 67.676V74.606C192.651 75.0913 192.749 75.4553 192.945 75.698C193.15 75.9313 193.44 76.048 193.813 76.048C193.897 76.048 193.972 76.048 194.037 76.048C194.102 76.0387 194.168 76.0293 194.233 76.02C194.336 76.0107 194.41 76.0387 194.457 76.104C194.504 76.1693 194.527 76.3 194.527 76.496C194.527 76.6733 194.485 76.8133 194.401 76.916C194.326 77.0093 194.2 77.07 194.023 77.098C193.939 77.1073 193.855 77.112 193.771 77.112C193.687 77.1213 193.603 77.126 193.519 77.126ZM196.358 77.07C196.162 77.07 196.008 77.0093 195.896 76.888C195.784 76.7667 195.728 76.5987 195.728 76.384V70.798C195.728 70.574 195.784 70.406 195.896 70.294C196.008 70.1727 196.162 70.112 196.358 70.112C196.563 70.112 196.722 70.1727 196.834 70.294C196.946 70.406 197.002 70.574 197.002 70.798V76.384C197.002 76.5987 196.946 76.7667 196.834 76.888C196.731 77.0093 196.573 77.07 196.358 77.07ZM196.358 68.6C196.106 68.6 195.905 68.5347 195.756 68.404C195.616 68.264 195.546 68.082 195.546 67.858C195.546 67.6153 195.616 67.4333 195.756 67.312C195.905 67.1813 196.106 67.116 196.358 67.116C196.629 67.116 196.829 67.1813 196.96 67.312C197.1 67.4333 197.17 67.6153 197.17 67.858C197.17 68.082 197.1 68.264 196.96 68.404C196.829 68.5347 196.629 68.6 196.358 68.6ZM202.76 77.126C202.144 77.126 201.617 76.972 201.178 76.664C200.74 76.356 200.446 75.9407 200.296 75.418L200.45 75.208V76.44C200.45 76.6547 200.394 76.818 200.282 76.93C200.18 77.042 200.026 77.098 199.82 77.098C199.624 77.098 199.47 77.042 199.358 76.93C199.246 76.818 199.19 76.6547 199.19 76.44V67.676C199.19 67.4613 199.246 67.3027 199.358 67.2C199.47 67.088 199.624 67.032 199.82 67.032C200.026 67.032 200.184 67.088 200.296 67.2C200.408 67.3027 200.464 67.4613 200.464 67.676V71.722H200.31C200.46 71.218 200.754 70.8167 201.192 70.518C201.631 70.21 202.154 70.056 202.76 70.056C203.367 70.056 203.894 70.2007 204.342 70.49C204.8 70.77 205.15 71.176 205.392 71.708C205.644 72.2307 205.77 72.856 205.77 73.584C205.77 74.3027 205.644 74.9327 205.392 75.474C205.14 76.006 204.79 76.4167 204.342 76.706C203.894 76.986 203.367 77.126 202.76 77.126ZM202.466 76.118C202.868 76.118 203.218 76.02 203.516 75.824C203.824 75.628 204.062 75.3433 204.23 74.97C204.398 74.5967 204.482 74.1347 204.482 73.584C204.482 72.7627 204.3 72.1373 203.936 71.708C203.572 71.2787 203.082 71.064 202.466 71.064C202.056 71.064 201.696 71.162 201.388 71.358C201.09 71.5447 200.856 71.8247 200.688 72.198C200.53 72.5713 200.45 73.0333 200.45 73.584C200.45 74.4053 200.632 75.0353 200.996 75.474C201.36 75.9033 201.85 76.118 202.466 76.118ZM208.205 77.098C207.99 77.098 207.827 77.042 207.715 76.93C207.603 76.818 207.547 76.6547 207.547 76.44V70.728C207.547 70.5133 207.603 70.3547 207.715 70.252C207.827 70.14 207.981 70.084 208.177 70.084C208.373 70.084 208.522 70.14 208.625 70.252C208.737 70.3547 208.793 70.5133 208.793 70.728V71.806H208.653C208.802 71.246 209.082 70.8213 209.493 70.532C209.904 70.2427 210.422 70.0793 211.047 70.042C211.196 70.0327 211.318 70.07 211.411 70.154C211.504 70.2287 211.556 70.3593 211.565 70.546C211.574 70.7233 211.532 70.868 211.439 70.98C211.346 71.0827 211.201 71.1433 211.005 71.162L210.753 71.176C210.137 71.2413 209.661 71.442 209.325 71.778C208.998 72.114 208.835 72.576 208.835 73.164V76.44C208.835 76.6547 208.779 76.818 208.667 76.93C208.564 77.042 208.41 77.098 208.205 77.098ZM214.902 77.126C214.435 77.126 214.011 77.0327 213.628 76.846C213.255 76.6593 212.961 76.4073 212.746 76.09C212.541 75.7727 212.438 75.418 212.438 75.026C212.438 74.522 212.564 74.1253 212.816 73.836C213.068 73.5467 213.493 73.3413 214.09 73.22C214.687 73.0893 215.49 73.024 216.498 73.024H217.156V73.836H216.526C215.807 73.836 215.238 73.8687 214.818 73.934C214.407 73.9993 214.118 74.116 213.95 74.284C213.782 74.4427 213.698 74.6667 213.698 74.956C213.698 75.32 213.824 75.6187 214.076 75.852C214.337 76.0853 214.692 76.202 215.14 76.202C215.495 76.202 215.807 76.118 216.078 75.95C216.349 75.7727 216.563 75.5393 216.722 75.25C216.881 74.9513 216.96 74.6107 216.96 74.228V72.618C216.96 72.0673 216.848 71.6707 216.624 71.428C216.4 71.176 216.022 71.05 215.49 71.05C215.182 71.05 214.865 71.092 214.538 71.176C214.211 71.26 213.871 71.3907 213.516 71.568C213.376 71.6333 213.255 71.6567 213.152 71.638C213.049 71.61 212.965 71.554 212.9 71.47C212.844 71.3767 212.811 71.2787 212.802 71.176C212.802 71.064 212.825 70.9567 212.872 70.854C212.928 70.7513 213.021 70.6767 213.152 70.63C213.563 70.4247 213.969 70.28 214.37 70.196C214.781 70.1027 215.163 70.056 215.518 70.056C216.125 70.056 216.624 70.154 217.016 70.35C217.408 70.5367 217.702 70.8307 217.898 71.232C218.094 71.624 218.192 72.128 218.192 72.744V76.44C218.192 76.6547 218.141 76.818 218.038 76.93C217.935 77.042 217.786 77.098 217.59 77.098C217.403 77.098 217.254 77.042 217.142 76.93C217.039 76.818 216.988 76.6547 216.988 76.44V75.446H217.114C217.039 75.7913 216.899 76.09 216.694 76.342C216.489 76.594 216.232 76.79 215.924 76.93C215.625 77.0607 215.285 77.126 214.902 77.126ZM220.995 77.098C220.78 77.098 220.617 77.042 220.505 76.93C220.393 76.818 220.337 76.6547 220.337 76.44V70.728C220.337 70.5133 220.393 70.3547 220.505 70.252C220.617 70.14 220.771 70.084 220.967 70.084C221.163 70.084 221.312 70.14 221.415 70.252C221.527 70.3547 221.583 70.5133 221.583 70.728V71.806H221.443C221.592 71.246 221.872 70.8213 222.283 70.532C222.694 70.2427 223.212 70.0793 223.837 70.042C223.986 70.0327 224.108 70.07 224.201 70.154C224.294 70.2287 224.346 70.3593 224.355 70.546C224.364 70.7233 224.322 70.868 224.229 70.98C224.136 71.0827 223.991 71.1433 223.795 71.162L223.543 71.176C222.927 71.2413 222.451 71.442 222.115 71.778C221.788 72.114 221.625 72.576 221.625 73.164V76.44C221.625 76.6547 221.569 76.818 221.457 76.93C221.354 77.042 221.2 77.098 220.995 77.098ZM227.582 79.618C227.433 79.618 227.307 79.576 227.204 79.492C227.111 79.4173 227.055 79.31 227.036 79.17C227.027 79.0393 227.055 78.8993 227.12 78.75L228.072 76.594V77.126L225.426 70.966C225.361 70.8073 225.337 70.6627 225.356 70.532C225.375 70.4013 225.435 70.294 225.538 70.21C225.65 70.126 225.799 70.084 225.986 70.084C226.145 70.084 226.271 70.1213 226.364 70.196C226.457 70.2707 226.546 70.4013 226.63 70.588L228.828 76.006H228.436L230.676 70.588C230.751 70.4013 230.839 70.2707 230.942 70.196C231.045 70.1213 231.185 70.084 231.362 70.084C231.521 70.084 231.642 70.126 231.726 70.21C231.819 70.294 231.875 70.4013 231.894 70.532C231.913 70.6627 231.885 70.8027 231.81 70.952L228.282 79.114C228.189 79.31 228.091 79.4407 227.988 79.506C227.895 79.5807 227.759 79.618 227.582 79.618ZM233.319 77.056C233.076 77.056 232.875 76.9767 232.717 76.818C232.558 76.6593 232.479 76.4587 232.479 76.216C232.479 75.9733 232.558 75.7773 232.717 75.628C232.875 75.4787 233.076 75.404 233.319 75.404C233.58 75.404 233.781 75.4787 233.921 75.628C234.07 75.7773 234.145 75.9733 234.145 76.216C234.145 76.4587 234.07 76.6593 233.921 76.818C233.781 76.9767 233.58 77.056 233.319 77.056Z" fill="white" fill-opacity="0.7"/>
</svg>
