<svg width="35" height="35" viewBox="0 0 35 35" fill="none" xmlns="http://www.w3.org/2000/svg">
<g id="heroicons-outline/gif">
<path id="Vector" d="M18.9307 11.7856V22.4999M27.5021 11.7856H23.2164V17.1428M23.2164 17.1428V22.4999M23.2164 17.1428H26.4307M14.6449 13.3547C13.1743 11.2626 10.79 11.2626 9.31935 13.3547C7.84872 15.4468 7.84872 18.8387 9.31935 20.9308C10.79 23.0229 13.1743 23.0229 14.6449 20.9308V17.1428H12.5021M7.14495 27.857H28.5735C30.3487 27.857 31.7878 26.418 31.7878 24.6428V9.64275C31.7878 7.86755 30.3487 6.42847 28.5735 6.42847H7.14495C5.36975 6.42847 3.93066 7.86755 3.93066 9.64275V24.6428C3.93066 26.418 5.36975 27.857 7.14495 27.857Z" stroke="black" stroke-width="1.71429" stroke-linecap="round" stroke-linejoin="round"/>
</g>
</svg>
