<svg width="62" height="49" viewBox="0 0 62 49" fill="none" xmlns="http://www.w3.org/2000/svg">
<path d="M37.3035 17.9951H11.9414C11.3047 17.9951 10.7886 18.5113 10.7886 19.1479V23.7592C10.7886 24.3959 11.3047 24.9121 11.9414 24.9121H37.3035C37.9402 24.9121 38.4563 24.3959 38.4563 23.7592V19.1479C38.4563 18.5113 37.9402 17.9951 37.3035 17.9951Z" stroke="white" stroke-width="2.30565" stroke-linecap="round" stroke-linejoin="round"/>
<path d="M36.1507 24.912V35.2875C36.1507 35.5932 36.0292 35.8864 35.813 36.1026C35.5969 36.3188 35.3036 36.4403 34.9979 36.4403H14.2471C13.9413 36.4403 13.6481 36.3188 13.4319 36.1026C13.2157 35.8864 13.0942 35.5932 13.0942 35.2875V24.912" stroke="white" stroke-width="2.30565" stroke-linecap="round" stroke-linejoin="round"/>
<path d="M24.6223 17.9951V36.4403" stroke="white" stroke-width="2.30565" stroke-linecap="round" stroke-linejoin="round"/>
<path d="M31.1437 16.3648C29.5133 17.9951 24.6223 17.9951 24.6223 17.9951C24.6223 17.9951 24.6223 13.1041 26.2527 11.4738C26.9014 10.8258 27.7809 10.462 28.6978 10.4622C29.6147 10.4625 30.4939 10.8268 31.1423 11.4752C31.7906 12.1235 32.155 13.0028 32.1552 13.9197C32.1555 14.8366 31.7916 15.7161 31.1437 16.3648V16.3648Z" stroke="white" stroke-width="2.30565" stroke-linecap="round" stroke-linejoin="round"/>
<path d="M18.1009 16.3648C19.7313 17.9951 24.6223 17.9951 24.6223 17.9951C24.6223 17.9951 24.6223 13.1041 22.9919 11.4738C22.3432 10.8258 21.4637 10.462 20.5468 10.4622C19.6299 10.4625 18.7507 10.8268 18.1023 11.4752C17.454 12.1235 17.0896 13.0028 17.0894 13.9197C17.0891 14.8366 17.4529 15.7161 18.1009 16.3648V16.3648Z" stroke="white" stroke-width="2.30565" stroke-linecap="round" stroke-linejoin="round"/>
</svg>
