<svg width="26" height="26" viewBox="0 0 26 26" fill="none" xmlns="http://www.w3.org/2000/svg">
<g id="Gift">
<path id="Vector" d="M24.2373 8.08789H2.04394C1.48681 8.08789 1.03516 8.53954 1.03516 9.09668V13.1318C1.03516 13.689 1.48681 14.1406 2.04394 14.1406H24.2373C24.7944 14.1406 25.2461 13.689 25.2461 13.1318V9.09668C25.2461 8.53954 24.7944 8.08789 24.2373 8.08789Z" stroke="#2F2F2F" stroke-width="1.42417" stroke-linecap="round" stroke-linejoin="round"/>
<path id="Vector_2" d="M23.2285 14.1406V23.2197C23.2285 23.4873 23.1222 23.7439 22.933 23.933C22.7439 24.1222 22.4873 24.2285 22.2197 24.2285H4.06152C3.79398 24.2285 3.53739 24.1222 3.3482 23.933C3.15902 23.7439 3.05273 23.4873 3.05273 23.2197V14.1406" stroke="#2F2F2F" stroke-width="1.42417" stroke-linecap="round" stroke-linejoin="round"/>
<path id="Vector_3" d="M13.1406 8.08789V24.2285" stroke="#2F2F2F" stroke-width="1.70901" stroke-linecap="round" stroke-linejoin="round"/>
<path id="Vector_4" d="M18.8472 6.66121C17.4206 8.08785 13.1406 8.08785 13.1406 8.08785C13.1406 8.08785 13.1406 3.80792 14.5673 2.38128C15.1349 1.81426 15.9045 1.49587 16.7069 1.49609C17.5092 1.49632 18.2786 1.81515 18.846 2.3825C19.4133 2.94984 19.7322 3.71926 19.7324 4.5216C19.7326 5.32394 19.4142 6.09354 18.8472 6.66121V6.66121Z" stroke="#2F2F2F" stroke-width="1.42417" stroke-linecap="round" stroke-linejoin="round"/>
<path id="Vector_5" d="M7.43401 6.66121C8.86066 8.08785 13.1406 8.08785 13.1406 8.08785C13.1406 8.08785 13.1406 3.80792 11.7139 2.38128C11.1463 1.81426 10.3767 1.49587 9.57433 1.49609C8.77199 1.49632 8.00257 1.81515 7.43523 2.3825C6.86789 2.94984 6.54906 3.71926 6.54883 4.5216C6.5486 5.32394 6.86699 6.09354 7.43401 6.66121V6.66121Z" stroke="#2F2F2F" stroke-width="1.42417" stroke-linecap="round" stroke-linejoin="round"/>
</g>
</svg>
