<svg width="33" height="32" viewBox="0 0 33 32" fill="none" xmlns="http://www.w3.org/2000/svg">
<g id="ImageSquare">
<path id="Vector" d="M26.7163 5H6.71631C6.16402 5 5.71631 5.44772 5.71631 6V26C5.71631 26.5523 6.16402 27 6.71631 27H26.7163C27.2686 27 27.7163 26.5523 27.7163 26V6C27.7163 5.44772 27.2686 5 26.7163 5Z" stroke="#15141F" stroke-width="2" stroke-linecap="round" stroke-linejoin="round"/>
<path id="Vector_2" d="M27.7163 20.0001L22.4234 14.7072C22.2359 14.5197 21.9815 14.4143 21.7163 14.4143C21.4511 14.4143 21.1967 14.5197 21.0092 14.7072L15.4234 20.293C15.2359 20.4805 14.9815 20.5859 14.7163 20.5859C14.4511 20.5859 14.1967 20.4805 14.0092 20.293L11.4234 17.7072C11.2359 17.5197 10.9815 17.4143 10.7163 17.4143C10.4511 17.4143 10.1967 17.5197 10.0092 17.7072L5.71631 22.0001" stroke="#15141F" stroke-width="2" stroke-linecap="round" stroke-linejoin="round"/>
<path id="Vector_3" d="M13.2163 13C14.0447 13 14.7163 12.3284 14.7163 11.5C14.7163 10.6716 14.0447 10 13.2163 10C12.3879 10 11.7163 10.6716 11.7163 11.5C11.7163 12.3284 12.3879 13 13.2163 13Z" fill="#15141F"/>
</g>
</svg>
