<svg width="25" height="26" viewBox="0 0 25 26" fill="none" xmlns="http://www.w3.org/2000/svg">
<path d="M12.5 18C15.2614 18 17.5 15.7614 17.5 13C17.5 10.2386 15.2614 8 12.5 8C9.73858 8 7.5 10.2386 7.5 13C7.5 15.7614 9.73858 18 12.5 18Z" stroke="white" stroke-width="2" stroke-miterlimit="10"/>
<path d="M18 1.5H7C3.68629 1.5 1 4.18629 1 7.5V18.5C1 21.8137 3.68629 24.5 7 24.5H18C21.3137 24.5 24 21.8137 24 18.5V7.5C24 4.18629 21.3137 1.5 18 1.5Z" stroke="white" stroke-width="2" stroke-linecap="round" stroke-linejoin="round"/>
<path d="M20.4375 6.5C20.4375 7.29391 19.7939 7.9375 19 7.9375C18.2061 7.9375 17.5625 7.29391 17.5625 6.5C17.5625 5.70609 18.2061 5.0625 19 5.0625C19.7939 5.0625 20.4375 5.70609 20.4375 6.5Z" fill="#15141F" stroke="white" stroke-width="0.125"/>
</svg>
