<svg width="40" height="40" viewBox="0 0 40 40" fill="none" xmlns="http://www.w3.org/2000/svg">
<path d="M33.999 27.4559V12.9609C33.999 12.744 33.9414 12.5309 33.8321 12.3436C33.7228 12.1562 33.5657 12.0012 33.3768 11.8945L20.5148 4.62462C20.3309 4.52068 20.1232 4.46606 19.912 4.46606C19.7008 4.46606 19.4931 4.52068 19.3092 4.62462L6.44716 11.8945C6.25831 12.0012 6.1012 12.1562 5.99188 12.3436C5.88256 12.5309 5.82495 12.744 5.82495 12.9609V27.4559C5.82495 27.6729 5.88256 27.8859 5.99188 28.0733C6.1012 28.2606 6.25831 28.4156 6.44716 28.5224L19.3092 35.7922C19.4931 35.8962 19.7008 35.9508 19.912 35.9508C20.1232 35.9508 20.3309 35.8962 20.5148 35.7922L33.3768 28.5224C33.5657 28.4156 33.7228 28.2606 33.8321 28.0733C33.9414 27.8859 33.999 27.6729 33.999 27.4559V27.4559Z" stroke="#909090" stroke-width="2.8" stroke-linecap="round" stroke-linejoin="round"/>
<path d="M19.912 25.7207C22.9564 25.7207 25.4243 23.2527 25.4243 20.2084C25.4243 17.164 22.9564 14.696 19.912 14.696C16.8676 14.696 14.3997 17.164 14.3997 20.2084C14.3997 23.2527 16.8676 25.7207 19.912 25.7207Z" stroke="#909090" stroke-width="2.8" stroke-linecap="round" stroke-linejoin="round"/>
</svg>
