<svg width="32" height="33" viewBox="0 0 32 33" fill="none" xmlns="http://www.w3.org/2000/svg">
<path d="M19.9256 29.7632V22.016C19.9256 21.6735 19.7896 21.3451 19.5474 21.103C19.3053 20.8608 18.9769 20.7248 18.6344 20.7248H13.4697C13.1273 20.7248 12.7989 20.8608 12.5567 21.103C12.3146 21.3451 12.1786 21.6735 12.1786 22.016V29.7632C12.1786 30.1056 12.0425 30.434 11.8004 30.6761C11.5583 30.9182 11.2299 31.0543 10.8875 31.0543L3.14143 31.0554C2.97186 31.0554 2.80394 31.022 2.64727 30.9571C2.4906 30.8922 2.34824 30.7971 2.22833 30.6772C2.10842 30.5573 2.0133 30.415 1.9484 30.2583C1.8835 30.1017 1.8501 29.9338 1.8501 29.7642V14.8414C1.8501 14.6615 1.88769 14.4836 1.96045 14.3191C2.03322 14.1546 2.13956 14.0071 2.27265 13.8861L15.1835 2.14689C15.4212 1.93079 15.7309 1.81105 16.0521 1.81104C16.3733 1.81102 16.683 1.93075 16.9207 2.14684L29.8333 13.8861C29.9664 14.0071 30.0728 14.1546 30.1456 14.3191C30.2183 14.4836 30.2559 14.6615 30.2559 14.8414V29.7642C30.2559 29.9338 30.2225 30.1017 30.1576 30.2583C30.0927 30.415 29.9976 30.5574 29.8777 30.6773C29.7578 30.7972 29.6154 30.8923 29.4588 30.9571C29.3021 31.022 29.1342 31.0554 28.9646 31.0554L21.2166 31.0544C20.8742 31.0543 20.5458 30.9183 20.3037 30.6761C20.0616 30.434 19.9256 30.1056 19.9256 29.7632V29.7632Z" stroke="#909090" stroke-width="3" stroke-linecap="round" stroke-linejoin="round"/>
</svg>
