<svg width="40" height="40" viewBox="0 0 40 40" fill="none" xmlns="http://www.w3.org/2000/svg">
<path d="M8.78092 16.2499C8.77885 14.7674 9.07022 13.2992 9.63824 11.9298C10.2063 10.5605 11.0397 9.31709 12.0905 8.27133C13.1413 7.22558 14.3887 6.39815 15.7607 5.83673C17.1328 5.27531 18.6024 4.99101 20.0849 5.00022C26.2708 5.0462 31.2187 10.1879 31.2187 16.3911V17.4999C31.2187 23.0961 32.3895 26.3435 33.4207 28.1184C33.5318 28.308 33.5909 28.5236 33.5921 28.7434C33.5933 28.9632 33.5365 29.1794 33.4274 29.3702C33.3184 29.561 33.1609 29.7197 32.971 29.8303C32.781 29.9408 32.5653 29.9993 32.3455 29.9999H7.65289C7.43308 29.9993 7.2173 29.9408 7.02733 29.8302C6.83736 29.7196 6.67991 29.5609 6.57087 29.3701C6.46183 29.1792 6.40505 28.963 6.40627 28.7431C6.40748 28.5233 6.46665 28.3077 6.57779 28.1181C7.60955 26.3432 8.78091 23.0958 8.78091 17.4999L8.78092 16.2499Z" stroke="white" stroke-width="2" stroke-linecap="round" stroke-linejoin="round"/>
<path d="M15 30V31.25C15 32.5761 15.5268 33.8479 16.4645 34.7855C17.4021 35.7232 18.6739 36.25 20 36.25C21.3261 36.25 22.5979 35.7232 23.5355 34.7855C24.4732 33.8479 25 32.5761 25 31.25V30" stroke="white" stroke-width="2" stroke-linecap="round" stroke-linejoin="round"/>
</svg>
