<svg width="30" height="30" viewBox="0 0 30 30" fill="none" xmlns="http://www.w3.org/2000/svg">
<g id="PaperPlaneRight">
<path id="Vector" d="M25.3609 14.3639L6.5088 3.8067C6.3502 3.71789 6.16827 3.6796 5.98733 3.69695C5.80638 3.7143 5.63505 3.78646 5.49621 3.90379C5.35738 4.02113 5.25767 4.17804 5.2104 4.35356C5.16314 4.52908 5.17057 4.71484 5.2317 4.88603L8.78763 14.8426C8.85698 15.0368 8.85698 15.249 8.78763 15.4432L5.2317 25.3998C5.17057 25.571 5.16313 25.7567 5.2104 25.9323C5.25767 26.1078 5.35738 26.2647 5.49621 26.382C5.63505 26.4994 5.80638 26.5715 5.98733 26.5889C6.16827 26.6062 6.3502 26.5679 6.5088 26.4791L25.3609 15.9219C25.4994 15.8444 25.6147 15.7313 25.6949 15.5944C25.7752 15.4575 25.8175 15.3016 25.8175 15.1429C25.8175 14.9842 25.7752 14.8284 25.6949 14.6914C25.6147 14.5545 25.4994 14.4414 25.3609 14.3639V14.3639Z" stroke="#777777" stroke-width="1.71429" stroke-linecap="round" stroke-linejoin="round"/>
<path id="Vector_2" d="M8.89502 15.1428H16.0379" stroke="#777777" stroke-width="1.71429" stroke-linecap="round" stroke-linejoin="round"/>
</g>
</svg>
