<svg width="26" height="27" viewBox="0 0 26 27" fill="none" xmlns="http://www.w3.org/2000/svg">
<g id="Play">
<path id="Vector" d="M23.1713 12.8056L8.54869 3.86921C8.42552 3.79394 8.28453 3.75284 8.14021 3.75014C7.99589 3.74744 7.85346 3.78323 7.72756 3.85384C7.60167 3.92444 7.49685 4.02731 7.4239 4.15187C7.35095 4.27642 7.3125 4.41816 7.3125 4.5625V22.4352C7.3125 22.5795 7.35095 22.7213 7.4239 22.8458C7.49685 22.9704 7.60167 23.0732 7.72756 23.1439C7.85346 23.2145 7.99589 23.2502 8.14021 23.2475C8.28453 23.2448 8.42552 23.2037 8.54869 23.1285L23.1713 14.1921C23.2901 14.1195 23.3882 14.0177 23.4563 13.8963C23.5244 13.7749 23.5601 13.638 23.5601 13.4988C23.5601 13.3597 23.5244 13.2228 23.4563 13.1014C23.3882 12.98 23.2901 12.8781 23.1713 12.8056Z" stroke="white" stroke-width="2" stroke-linecap="round" stroke-linejoin="round"/>
</g>
</svg>
