<svg width="53" height="53" viewBox="0 0 53 53" fill="none" xmlns="http://www.w3.org/2000/svg">
<g clip-path="url(#clip0_9147_61629)">
<path d="M14.2106 24.4463C13.2468 24.4463 12.4655 25.2276 12.4655 26.1914C12.4655 27.1552 13.2468 27.9365 14.2106 27.9365L24.4473 27.9365L24.4473 38.1732C24.4473 39.137 25.2286 39.9183 26.1924 39.9183C27.1562 39.9183 27.9375 39.137 27.9375 38.1732L27.9375 27.9365H38.1741C39.1379 27.9365 39.9193 27.1552 39.9193 26.1914C39.9193 25.2276 39.1379 24.4463 38.1741 24.4463H27.9375L27.9375 14.2096C27.9375 13.2458 27.1562 12.4645 26.1924 12.4645C25.2286 12.4645 24.4473 13.2458 24.4473 14.2096L24.4473 24.4463L14.2106 24.4463Z" fill="#6B6B6B" stroke="#6B6B6B" stroke-width="0.5" stroke-linecap="round" stroke-linejoin="round"/>
</g>
<defs>
<clipPath id="clip0_9147_61629">
<rect width="39.8701" height="39.8701" fill="white" transform="translate(-2 26.1914) rotate(-45)"/>
</clipPath>
</defs>
</svg>
