<svg width="21" height="20" viewBox="0 0 21 20" fill="none" xmlns="http://www.w3.org/2000/svg">
<path fill-rule="evenodd" clip-rule="evenodd" d="M10.5 18C14.9183 18 18.5 14.4183 18.5 10C18.5 5.58172 14.9183 2 10.5 2C6.08172 2 2.5 5.58172 2.5 10C2.5 14.4183 6.08172 18 10.5 18ZM11.25 6.75C11.25 6.33579 10.9142 6 10.5 6C10.0858 6 9.75 6.33579 9.75 6.75V9.25H7.25C6.83579 9.25 6.5 9.58579 6.5 10C6.5 10.4142 6.83579 10.75 7.25 10.75H9.75V13.25C9.75 13.6642 10.0858 14 10.5 14C10.9142 14 11.25 13.6642 11.25 13.25V10.75H13.75C14.1642 10.75 14.5 10.4142 14.5 10C14.5 9.58579 14.1642 9.25 13.75 9.25H11.25V6.75Z" fill="#757575"/>
</svg>
