<svg width="22" height="22" viewBox="0 0 22 22" fill="none" xmlns="http://www.w3.org/2000/svg">
<path d="M19.6065 10.4124L7.23351 2.85087C7.12929 2.78718 7.00999 2.75241 6.88787 2.75012C6.76576 2.74783 6.64524 2.77812 6.53871 2.83786C6.43218 2.89761 6.34349 2.98465 6.28176 3.09004C6.22004 3.19543 6.1875 3.31536 6.1875 3.4375V18.5605C6.1875 18.6827 6.22004 18.8026 6.28176 18.908C6.34349 19.0134 6.43218 19.1004 6.53871 19.1602C6.64524 19.2199 6.76576 19.2502 6.88787 19.2479C7.00999 19.2456 7.12929 19.2109 7.23351 19.1472L19.6065 11.5856C19.707 11.5242 19.79 11.438 19.8476 11.3353C19.9052 11.2326 19.9355 11.1168 19.9355 10.999C19.9355 10.8813 19.9052 10.7655 19.8476 10.6627C19.79 10.56 19.707 10.4738 19.6065 10.4124Z" stroke="white" stroke-width="1.5" stroke-linecap="round" stroke-linejoin="round"/>
</svg>
