<svg width="31" height="32" viewBox="0 0 31 32" fill="none" xmlns="http://www.w3.org/2000/svg">
<rect x="0.0546875" y="0.740234" width="30.6849" height="30.6849" rx="15.3425" fill="#0085FF"/>
<path d="M23.114 15.554L12.0199 8.77404C11.9265 8.71693 11.8195 8.68575 11.71 8.6837C11.6005 8.68165 11.4925 8.70881 11.3969 8.76238C11.3014 8.81594 11.2219 8.89399 11.1666 8.98849C11.1112 9.08298 11.082 9.19052 11.082 9.30003V22.8599C11.082 22.9694 11.1112 23.077 11.1666 23.1715C11.2219 23.266 11.3014 23.344 11.3969 23.3976C11.4925 23.4511 11.6005 23.4783 11.71 23.4763C11.8195 23.4742 11.9265 23.443 12.0199 23.3859L23.114 16.606C23.2041 16.5509 23.2786 16.4736 23.3302 16.3815C23.3819 16.2894 23.409 16.1856 23.409 16.08C23.409 15.9744 23.3819 15.8705 23.3302 15.7784C23.2786 15.6863 23.2041 15.6091 23.114 15.554Z" stroke="white" stroke-width="2.19178" stroke-linecap="round" stroke-linejoin="round"/>
</svg>
