<svg width="30" height="30" viewBox="0 0 30 30" fill="none" xmlns="http://www.w3.org/2000/svg">
<path d="M12.3486 9.39856C13.8131 8.11715 16.1875 8.11715 17.6519 9.39856C19.1164 10.68 19.1164 12.7575 17.6519 14.0389C17.397 14.262 17.1146 14.4462 16.8142 14.5916C15.8821 15.0427 15.0003 15.8395 15.0003 16.875V17.8125M26.25 15C26.25 21.2132 21.2132 26.25 15 26.25C8.7868 26.25 3.75 21.2132 3.75 15C3.75 8.7868 8.7868 3.75 15 3.75C21.2132 3.75 26.25 8.7868 26.25 15ZM15 21.5625H15.0094V21.5719H15V21.5625Z" stroke="#B1B1B1" stroke-width="1.5" stroke-linecap="round" stroke-linejoin="round"/>
</svg>
