<svg width="25" height="25" viewBox="0 0 25 25" fill="none" xmlns="http://www.w3.org/2000/svg">
<path fill-rule="evenodd" clip-rule="evenodd" d="M16.7501 4.97819V5.20498C17.7048 5.29237 18.6517 5.40731 19.5898 5.54898C19.9371 5.60143 20.2832 5.65755 20.6281 5.7173C21.0363 5.78799 21.3098 6.17617 21.2391 6.5843C21.1684 6.99244 20.7802 7.26598 20.3721 7.19529C20.3025 7.18323 20.2329 7.17132 20.1631 7.15957L19.1577 20.2301C19.0375 21.7931 17.7342 23 16.1666 23H8.33369C6.76608 23 5.46276 21.7931 5.34253 20.2301L4.3371 7.15957C4.2674 7.17132 4.19774 7.18323 4.12813 7.19529C3.72 7.26598 3.33183 6.99244 3.26113 6.5843C3.19043 6.17617 3.46398 5.78799 3.87211 5.7173C4.21701 5.65755 4.56315 5.60143 4.91048 5.54898C5.84858 5.40731 6.7954 5.29237 7.75012 5.20498V4.97819C7.75012 3.41371 8.96265 2.07818 10.5656 2.02691C11.1249 2.00901 11.6865 2 12.2501 2C12.8138 2 13.3753 2.00901 13.9347 2.02691C15.5376 2.07818 16.7501 3.41371 16.7501 4.97819ZM10.6135 3.52614C11.1569 3.50876 11.7025 3.5 12.2501 3.5C12.7978 3.5 13.3434 3.50876 13.8867 3.52614C14.6413 3.55028 15.2501 4.18393 15.2501 4.97819V5.09082C14.2578 5.03056 13.2575 5 12.2501 5C11.2428 5 10.2425 5.03056 9.25012 5.09082V4.97819C9.25012 4.18393 9.8589 3.55028 10.6135 3.52614ZM10.2587 9.47118C10.2428 9.05727 9.89436 8.73463 9.48045 8.75055C9.06654 8.76647 8.74391 9.11492 8.75983 9.52882L9.10599 18.5288C9.1219 18.9427 9.47035 19.2654 9.88426 19.2494C10.2982 19.2335 10.6208 18.8851 10.6049 18.4712L10.2587 9.47118ZM15.7395 9.52882C15.7554 9.11492 15.4328 8.76647 15.0189 8.75055C14.605 8.73463 14.2565 9.05727 14.2406 9.47118L13.8944 18.4712C13.8785 18.8851 14.2012 19.2335 14.6151 19.2494C15.029 19.2654 15.3774 18.9427 15.3933 18.5288L15.7395 9.52882Z" fill="#FF0000"/>
</svg>
