<svg width="21" height="20" viewBox="0 0 21 20" fill="none" xmlns="http://www.w3.org/2000/svg">
<path d="M2.5 3C1.94772 3 1.5 3.44772 1.5 4V5C1.5 5.55228 1.94772 6 2.5 6H18.5C19.0523 6 19.5 5.55228 19.5 5V4C19.5 3.44772 19.0523 3 18.5 3H2.5Z" fill="#757575"/>
<path fill-rule="evenodd" clip-rule="evenodd" d="M2.5 7.5H18.5L17.6885 15.2094C17.5813 16.2273 16.723 17 15.6995 17H5.30052C4.27701 17 3.41866 16.2273 3.31151 15.2094L2.5 7.5ZM7.5 11C7.5 10.4477 7.94772 10 8.5 10H12.5C13.0523 10 13.5 10.4477 13.5 11C13.5 11.5523 13.0523 12 12.5 12H8.5C7.94772 12 7.5 11.5523 7.5 11Z" fill="#757575"/>
</svg>
