<svg width="39" height="44" viewBox="0 0 39 44" fill="none" xmlns="http://www.w3.org/2000/svg">
<path d="M12.5 25.25C14.2949 25.25 15.75 23.7949 15.75 22C15.75 20.2051 14.2949 18.75 12.5 18.75C10.7051 18.75 9.25 20.2051 9.25 22C9.25 23.7949 10.7051 25.25 12.5 25.25Z" stroke="white" stroke-width="2" stroke-linecap="round" stroke-linejoin="round"/>
<path d="M23.875 32.5625C25.6699 32.5625 27.125 31.1074 27.125 29.3125C27.125 27.5176 25.6699 26.0625 23.875 26.0625C22.0801 26.0625 20.625 27.5176 20.625 29.3125C20.625 31.1074 22.0801 32.5625 23.875 32.5625Z" stroke="white" stroke-width="2" stroke-linecap="round" stroke-linejoin="round"/>
<path d="M23.875 17.9375C25.6699 17.9375 27.125 16.4824 27.125 14.6875C27.125 12.8926 25.6699 11.4375 23.875 11.4375C22.0801 11.4375 20.625 12.8926 20.625 14.6875C20.625 16.4824 22.0801 17.9375 23.875 17.9375Z" stroke="white" stroke-width="2" stroke-linecap="round" stroke-linejoin="round"/>
<path d="M21.1414 16.4448L15.2334 20.2428" stroke="white" stroke-width="2" stroke-linecap="round" stroke-linejoin="round"/>
<path d="M15.2334 23.7572L21.1414 27.5552" stroke="white" stroke-width="2" stroke-linecap="round" stroke-linejoin="round"/>
</svg>
