<svg width="37" height="37" viewBox="0 0 37 37" fill="none" xmlns="http://www.w3.org/2000/svg">
<path d="M29.1782 26.5938H12.6754L8.64346 4.41816C8.59502 4.15175 8.45461 3.91079 8.24672 3.73729C8.03883 3.56379 7.77664 3.46875 7.50586 3.46875H4.89697" stroke="#6B6B6B" stroke-width="2.5" stroke-linecap="round" stroke-linejoin="round"/>
<path d="M14.147 32.375C15.7434 32.375 17.0376 31.0808 17.0376 29.4844C17.0376 27.8879 15.7434 26.5938 14.147 26.5938C12.5505 26.5938 11.2563 27.8879 11.2563 29.4844C11.2563 31.0808 12.5505 32.375 14.147 32.375Z" stroke="#6B6B6B" stroke-width="2.5" stroke-linecap="round" stroke-linejoin="round"/>
<path d="M29.1782 32.375C30.7747 32.375 32.0688 31.0808 32.0688 29.4844C32.0688 27.8879 30.7747 26.5938 29.1782 26.5938C27.5818 26.5938 26.2876 27.8879 26.2876 29.4844C26.2876 31.0808 27.5818 32.375 29.1782 32.375Z" stroke="#6B6B6B" stroke-width="2.5" stroke-linecap="round" stroke-linejoin="round"/>
<path d="M11.6242 20.8125H29.771C30.3126 20.8125 30.8369 20.6224 31.2527 20.2754C31.6685 19.9284 31.9493 19.4465 32.0462 18.9137L33.8032 9.25H9.52197" stroke="#6B6B6B" stroke-width="2.5" stroke-linecap="round" stroke-linejoin="round"/>
</svg>
