<svg width="32" height="31" viewBox="0 0 32 31" fill="none" xmlns="http://www.w3.org/2000/svg">
<g id="Smiley">
<path id="Vector" d="M16.2877 27C22.6785 27 27.8592 21.8193 27.8592 15.4286C27.8592 9.03788 22.6785 3.85718 16.2877 3.85718C9.89701 3.85718 4.71631 9.03788 4.71631 15.4286C4.71631 21.8193 9.89701 27 16.2877 27Z" stroke="#15141F" stroke-width="1.6" stroke-linecap="round" stroke-linejoin="round"/>
<path id="Vector_2" d="M21.2997 18.3208C20.7913 19.2 20.0607 19.93 19.181 20.4376C18.3013 20.9451 17.3036 21.2123 16.288 21.2123C15.2725 21.2123 14.2747 20.9451 13.3951 20.4376C12.5154 19.9301 11.7847 19.2001 11.2764 18.3209" stroke="#15141F" stroke-width="1.6" stroke-linecap="round" stroke-linejoin="round"/>
<path id="Vector_3" d="M11.9489 14.4644C12.7477 14.4644 13.3953 13.8168 13.3953 13.018C13.3953 12.2191 12.7477 11.5715 11.9489 11.5715C11.15 11.5715 10.5024 12.2191 10.5024 13.018C10.5024 13.8168 11.15 14.4644 11.9489 14.4644Z" fill="#15141F"/>
<path id="Vector_4" d="M20.6271 14.4644C21.4259 14.4644 22.0735 13.8168 22.0735 13.018C22.0735 12.2191 21.4259 11.5715 20.6271 11.5715C19.8283 11.5715 19.1807 12.2191 19.1807 13.018C19.1807 13.8168 19.8283 14.4644 20.6271 14.4644Z" fill="#15141F"/>
</g>
</svg>
