<svg width="33" height="33" viewBox="0 0 33 33" fill="none" xmlns="http://www.w3.org/2000/svg">
<g clip-path="url(#clip0_4230_84652)">
<rect width="33" height="33" rx="16.5" fill="black" fill-opacity="0.5"/>
<path d="M16.5 28.875C23.3345 28.875 28.875 23.3345 28.875 16.5C28.875 9.66548 23.3345 4.125 16.5 4.125C9.66548 4.125 4.125 9.66548 4.125 16.5C4.125 23.3345 9.66548 28.875 16.5 28.875Z" stroke="white" stroke-width="2.2" stroke-linecap="round" stroke-linejoin="round"/>
<path d="M21.86 19.5933C21.3164 20.5335 20.5349 21.3142 19.5942 21.857C18.6534 22.3998 17.5864 22.6855 16.5003 22.6855C15.4142 22.6855 14.3472 22.3998 13.4065 21.8571C12.4657 21.3143 11.6843 20.5336 11.1406 19.5934" stroke="white" stroke-width="2.2" stroke-linecap="round" stroke-linejoin="round"/>
<path d="M11.8594 15.4687C12.7137 15.4687 13.4063 14.7762 13.4063 13.9219C13.4063 13.0676 12.7137 12.375 11.8594 12.375C11.0051 12.375 10.3125 13.0676 10.3125 13.9219C10.3125 14.7762 11.0051 15.4687 11.8594 15.4687Z" fill="white"/>
<path d="M21.1406 15.4687C21.9949 15.4687 22.6875 14.7762 22.6875 13.9219C22.6875 13.0676 21.9949 12.375 21.1406 12.375C20.2863 12.375 19.5938 13.0676 19.5938 13.9219C19.5938 14.7762 20.2863 15.4687 21.1406 15.4687Z" fill="white"/>
</g>
<defs>
<clipPath id="clip0_4230_84652">
<rect width="33" height="33" rx="16.5" fill="white"/>
</clipPath>
</defs>
</svg>
