<svg width="50" height="50" viewBox="0 0 50 50" fill="none" xmlns="http://www.w3.org/2000/svg">
<path d="M33.1204 29.687C32.2967 31.1117 31.1127 32.2946 29.6873 33.1169C28.2619 33.9393 26.6453 34.3722 24.9997 34.3723C23.3541 34.3723 21.7374 33.9394 20.312 33.117C18.8866 32.2947 17.7026 31.1118 16.8789 29.6872" stroke="#B1B1B1" stroke-width="2" stroke-linecap="round" stroke-linejoin="round"/>
<path d="M30.5104 42.9272C26.5137 44.1528 22.2218 44.0061 18.3181 42.5105C14.4144 41.0148 11.1232 38.2562 8.96855 34.6738C6.81391 31.0914 5.91966 26.8912 6.42818 22.7418C6.9367 18.5924 8.81875 14.7324 11.7747 11.7763C14.7306 8.82021 18.5906 6.93798 22.7399 6.42926C26.8893 5.92055 31.0896 6.8146 34.6721 8.96907C38.2546 11.1235 41.0134 14.4146 42.5092 18.3182C44.005 22.2219 44.1519 26.5138 42.9265 30.5106L30.5104 42.9272Z" stroke="#B1B1B1" stroke-width="2" stroke-linecap="round" stroke-linejoin="round"/>
<path d="M17.9688 23.4375C19.2632 23.4375 20.3125 22.3882 20.3125 21.0938C20.3125 19.7993 19.2632 18.75 17.9688 18.75C16.6743 18.75 15.625 19.7993 15.625 21.0938C15.625 22.3882 16.6743 23.4375 17.9688 23.4375Z" fill="#B1B1B1"/>
<path d="M32.0312 23.4375C33.3257 23.4375 34.375 22.3882 34.375 21.0938C34.375 19.7993 33.3257 18.75 32.0312 18.75C30.7368 18.75 29.6875 19.7993 29.6875 21.0938C29.6875 22.3882 30.7368 23.4375 32.0312 23.4375Z" fill="#B1B1B1"/>
</svg>
