<svg width="25" height="29" viewBox="0 0 25 29" fill="none" xmlns="http://www.w3.org/2000/svg">
<path id="Subtract" fill-rule="evenodd" clip-rule="evenodd" d="M18.4739 4.07541V4.38576C19.7803 4.50535 21.076 4.66263 22.3597 4.8565C22.835 4.92828 23.3086 5.00507 23.7806 5.08683C24.3391 5.18357 24.7134 5.71475 24.6167 6.27326C24.5199 6.83176 23.9888 7.20608 23.4303 7.10934C23.335 7.09284 23.2397 7.07655 23.1443 7.06047L21.7685 24.9464C21.6039 27.0853 19.8204 28.7368 17.6753 28.7368H6.95663C4.81148 28.7368 3.02799 27.0853 2.86346 24.9464L1.48762 7.06047C1.39223 7.07655 1.29691 7.09284 1.20166 7.10934C0.643155 7.20608 0.111973 6.83176 0.0152278 6.27326C-0.0815175 5.71475 0.29281 5.18357 0.851311 5.08683C1.32328 5.00507 1.79694 4.92828 2.27223 4.8565C3.55595 4.66263 4.85159 4.50535 6.15806 4.38576V4.07541C6.15806 1.93456 7.81732 0.106987 10.0108 0.0368202C10.7762 0.0123348 11.5447 0 12.316 0C13.0873 0 13.8557 0.0123348 14.6212 0.0368202C16.8146 0.106987 18.4739 1.93456 18.4739 4.07541ZM10.0764 2.0884C10.82 2.06462 11.5665 2.05263 12.316 2.05263C13.0654 2.05263 13.812 2.06462 14.5555 2.0884C15.5882 2.12144 16.4212 2.98854 16.4212 4.07541V4.22955C15.0633 4.14709 13.6944 4.10526 12.316 4.10526C10.9375 4.10526 9.56866 4.14709 8.2107 4.22955V4.07541C8.2107 2.98854 9.04376 2.12144 10.0764 2.0884ZM9.59088 10.2237C9.5691 9.65731 9.09228 9.21582 8.52588 9.2376C7.95948 9.25939 7.51799 9.7362 7.53977 10.3026L8.01345 22.6184C8.03524 23.1848 8.51206 23.6263 9.07846 23.6045C9.64486 23.5827 10.0864 23.1059 10.0646 22.5395L9.59088 10.2237ZM17.0909 10.3026C17.1127 9.7362 16.6712 9.25939 16.1048 9.2376C15.5384 9.21582 15.0616 9.65731 15.0398 10.2237L14.5661 22.5395C14.5443 23.1059 14.9858 23.5827 15.5522 23.6045C16.1186 23.6263 16.5954 23.1848 16.6172 22.6184L17.0909 10.3026Z" fill="white"/>
</svg>
