<svg width="35" height="34" viewBox="0 0 35 34" fill="none" xmlns="http://www.w3.org/2000/svg">
<path d="M28.9956 10.625H5.6206C5.0338 10.625 4.55811 11.1007 4.55811 11.6875V15.9375C4.55811 16.5243 5.0338 17 5.6206 17H28.9956C29.5824 17 30.0581 16.5243 30.0581 15.9375V11.6875C30.0581 11.1007 29.5824 10.625 28.9956 10.625Z" stroke="#D0D0D0" stroke-width="1.5" stroke-linecap="round" stroke-linejoin="round"/>
<path d="M27.9331 17V26.5625C27.9331 26.8443 27.8212 27.1145 27.6219 27.3138C27.4226 27.5131 27.1524 27.625 26.8706 27.625H7.74561C7.46381 27.625 7.19356 27.5131 6.9943 27.3138C6.79505 27.1145 6.68311 26.8443 6.68311 26.5625V17" stroke="#D0D0D0" stroke-width="1.5" stroke-linecap="round" stroke-linejoin="round"/>
<path d="M17.3081 10.625V27.625" stroke="#D0D0D0" stroke-width="1.8" stroke-linecap="round" stroke-linejoin="round"/>
<path d="M23.3185 9.12237C21.8159 10.625 17.3081 10.625 17.3081 10.625C17.3081 10.625 17.3081 6.11717 18.8107 4.61457C19.4086 4.01736 20.2192 3.68201 21.0642 3.68225C21.9093 3.68249 22.7197 4.0183 23.3172 4.61585C23.9148 5.2134 24.2506 6.02378 24.2508 6.86884C24.2511 7.71391 23.9157 8.52448 23.3185 9.12237V9.12237Z" stroke="#D0D0D0" stroke-width="1.5" stroke-linecap="round" stroke-linejoin="round"/>
<path d="M11.2975 9.12237C12.8001 10.625 17.308 10.625 17.308 10.625C17.308 10.625 17.308 6.11717 15.8054 4.61457C15.2075 4.01736 14.3969 3.68201 13.5518 3.68225C12.7068 3.68249 11.8964 4.0183 11.2988 4.61585C10.7013 5.2134 10.3655 6.02378 10.3652 6.86884C10.365 7.71391 10.7003 8.52448 11.2975 9.12237V9.12237Z" stroke="#D0D0D0" stroke-width="1.5" stroke-linecap="round" stroke-linejoin="round"/>
</svg>
