<svg width="51" height="52" viewBox="0 0 51 52" fill="none" xmlns="http://www.w3.org/2000/svg">
<path d="M34.75 20.407H44.1687V10.9883" stroke="#B1B1B1" stroke-width="2.00932" stroke-linecap="round" stroke-linejoin="round"/>
<path d="M13.0884 13.7451C14.6918 12.1416 16.5954 10.8697 18.6904 10.0019C20.7854 9.13414 23.0308 8.6875 25.2984 8.6875C27.5661 8.6875 29.8115 9.13414 31.9065 10.0019C34.0015 10.8697 35.905 12.1416 37.5085 13.7451L44.1685 20.4051" stroke="#B1B1B1" stroke-width="2.00932" stroke-linecap="round" stroke-linejoin="round"/>
<path d="M15.8464 31.5039H6.42773V40.9226" stroke="#B1B1B1" stroke-width="2.00932" stroke-linecap="round" stroke-linejoin="round"/>
<path d="M37.5079 38.1639C35.9044 39.7674 34.0009 41.0393 31.9059 41.9071C29.8109 42.7749 27.5654 43.2215 25.2978 43.2215C23.0302 43.2215 20.7848 42.7749 18.6898 41.9071C16.5948 41.0393 14.6912 39.7674 13.0878 38.1639L6.42773 31.5039" stroke="#B1B1B1" stroke-width="2.00932" stroke-linecap="round" stroke-linejoin="round"/>
</svg>
