<svg width="51" height="51" viewBox="0 0 51 51" fill="none" xmlns="http://www.w3.org/2000/svg">
<g id="heroicons-mini/x-mark">
<rect y="25.3369" width="35.684" height="35.684" rx="17.842" transform="rotate(-45 0 25.3369)" fill="#0085FF"/>
<rect y="25.3369" width="35.684" height="35.684" rx="17.842" transform="rotate(-45 0 25.3369)" stroke="white"/>
<g id="Union">
<path d="M14.5077 23.9988C13.7686 23.9988 13.1695 24.5979 13.1695 25.3369C13.1695 26.076 13.7686 26.6751 14.5077 26.6751L23.8933 26.6751L23.8933 36.0607C23.8933 36.7997 24.4924 37.3988 25.2314 37.3988C25.9705 37.3988 26.5696 36.7997 26.5696 36.0607L26.5696 26.6751H35.9552C36.6943 26.6751 37.2934 26.076 37.2934 25.3369C37.2934 24.5979 36.6943 23.9988 35.9552 23.9988H26.5696L26.5696 14.6131C26.5696 13.8741 25.9705 13.275 25.2314 13.275C24.4924 13.275 23.8933 13.8741 23.8933 14.6131L23.8933 23.9988L14.5077 23.9988Z" fill="white"/>
<path d="M14.5077 23.9988C13.7686 23.9988 13.1695 24.5979 13.1695 25.3369C13.1695 26.076 13.7686 26.6751 14.5077 26.6751L23.8933 26.6751L23.8933 36.0607C23.8933 36.7997 24.4924 37.3988 25.2314 37.3988C25.9705 37.3988 26.5696 36.7997 26.5696 36.0607L26.5696 26.6751H35.9552C36.6943 26.6751 37.2934 26.076 37.2934 25.3369C37.2934 24.5979 36.6943 23.9988 35.9552 23.9988H26.5696L26.5696 14.6131C26.5696 13.8741 25.9705 13.275 25.2314 13.275C24.4924 13.275 23.8933 13.8741 23.8933 14.6131L23.8933 23.9988L14.5077 23.9988Z" stroke="white"/>
</g>
</g>
</svg>
