<svg width="18" height="18" viewBox="0 0 18 18" fill="none" xmlns="http://www.w3.org/2000/svg">
<g id="FingerprintSimple">
<path id="Vector" d="M12.3754 9.00049C12.3782 11.1998 11.9498 13.3783 11.1144 15.4128" stroke="white" stroke-width="1.5" stroke-linecap="round" stroke-linejoin="round"/>
<path id="Vector_2" d="M11.5159 6.75028C11.0601 6.24087 10.4605 5.88182 9.79628 5.72066C9.13205 5.55949 8.43455 5.60379 7.79605 5.84771C7.15755 6.09162 6.60816 6.52365 6.22056 7.08662C5.83297 7.6496 5.62544 8.31699 5.62543 9.00049C5.62809 10.7158 5.19295 12.4034 4.36121 13.9035" stroke="white" stroke-width="1.5" stroke-linecap="round" stroke-linejoin="round"/>
<path id="Vector_3" d="M6.75037 2.63459C7.76864 2.2757 8.8581 2.16613 9.92745 2.31506C10.9968 2.46399 12.0149 2.86708 12.8963 3.49055C13.7778 4.11402 14.4969 4.9397 14.9935 5.89839C15.4901 6.85707 15.7497 7.92083 15.7504 9.00049C15.7513 10.5145 15.583 12.0238 15.2486 13.5005" stroke="white" stroke-width="1.5" stroke-linecap="round" stroke-linejoin="round"/>
<path id="Vector_4" d="M1.63831 11.813C2.04291 10.9306 2.2517 9.97115 2.25035 9.00046C2.24928 8.05058 2.4492 7.11122 2.83698 6.24409C3.22476 5.37697 3.79163 4.60171 4.50034 3.96924" stroke="white" stroke-width="1.5" stroke-linecap="round" stroke-linejoin="round"/>
<path id="Vector_5" d="M7.77547 14.6255C7.63286 14.9362 7.47899 15.2404 7.31384 15.538" stroke="white" stroke-width="1.5" stroke-linecap="round" stroke-linejoin="round"/>
<path id="Vector_6" d="M8.99953 9.00049C9.00037 10.1389 8.85747 11.2729 8.57422 12.3755" stroke="white" stroke-width="1.5" stroke-linecap="round" stroke-linejoin="round"/>
</g>
</svg>
