<svg width="37" height="36" viewBox="0 0 37 36" fill="none" xmlns="http://www.w3.org/2000/svg">
<path d="M5.90015 18.0002C5.90015 16.509 7.10898 15.3002 8.60015 15.3002C10.0913 15.3002 11.3001 16.509 11.3001 18.0002C11.3001 19.4914 10.0913 20.7002 8.60015 20.7002C7.10898 20.7002 5.90015 19.4914 5.90015 18.0002Z" fill="white"/>
<path d="M15.8001 18.0002C15.8001 16.509 17.009 15.3002 18.5001 15.3002C19.9913 15.3002 21.2001 16.509 21.2001 18.0002C21.2001 19.4914 19.9913 20.7002 18.5001 20.7002C17.009 20.7002 15.8001 19.4914 15.8001 18.0002Z" fill="white"/>
<path d="M28.4001 15.3002C26.909 15.3002 25.7001 16.509 25.7001 18.0002C25.7001 19.4914 26.909 20.7002 28.4001 20.7002C29.8913 20.7002 31.1001 19.4914 31.1001 18.0002C31.1001 16.509 29.8913 15.3002 28.4001 15.3002Z" fill="white"/>
</svg>
