<svg width="32" height="33" viewBox="0 0 32 33" fill="none" xmlns="http://www.w3.org/2000/svg">
<path d="M20 16.5L14 12.5V20.5L20 16.5Z" stroke="white" stroke-width="2" stroke-linecap="round" stroke-linejoin="round"/>
<path d="M3 16.5C3 20.2194 3.38427 22.4017 3.67638 23.5233C3.75447 23.8296 3.90442 24.1129 4.11382 24.3497C4.32322 24.5866 4.58603 24.7701 4.88049 24.8851C9.0651 26.4932 16 26.449 16 26.449C16 26.449 22.9348 26.4932 27.1195 24.8851C27.4139 24.7701 27.6767 24.5866 27.8861 24.3498C28.0955 24.1129 28.2455 23.8296 28.3236 23.5233C28.6157 22.4017 29 20.2194 29 16.5C29 12.7805 28.6157 10.5982 28.3236 9.47663C28.2455 9.17031 28.0956 8.887 27.8862 8.65018C27.6768 8.41336 27.414 8.22985 27.1195 8.11484C22.9349 6.50674 16 6.5509 16 6.5509C16 6.5509 9.06518 6.50675 4.88053 8.11482C4.58607 8.22983 4.32325 8.41334 4.11385 8.65016C3.90446 8.88698 3.7545 9.17029 3.67641 9.47661C3.38428 10.5982 3 12.7805 3 16.5Z" stroke="white" stroke-width="2" stroke-linecap="round" stroke-linejoin="round"/>
</svg>
