<svg width="21" height="22" viewBox="0 0 21 22" fill="none" xmlns="http://www.w3.org/2000/svg">
<path d="M1.28174 4.09665C1.28174 2.67781 2.43193 1.52762 3.85077 1.52762H6.4198C7.83863 1.52762 8.98883 2.67781 8.98883 4.09665V6.66568C8.98883 8.08451 7.83863 9.23471 6.4198 9.23471H3.85077C2.43193 9.23471 1.28174 8.08451 1.28174 6.66568V4.09665Z" stroke="white" stroke-width="1.71269" stroke-linecap="round" stroke-linejoin="round"/>
<path d="M1.28174 15.2291C1.28174 13.8103 2.43193 12.6601 3.85077 12.6601H6.4198C7.83863 12.6601 8.98883 13.8103 8.98883 15.2291V17.7981C8.98883 19.217 7.83863 20.3672 6.4198 20.3672H3.85077C2.43193 20.3672 1.28174 19.217 1.28174 17.7981V15.2291Z" stroke="white" stroke-width="1.71269" stroke-linecap="round" stroke-linejoin="round"/>
<path d="M12.4142 4.09665C12.4142 2.67781 13.5644 1.52762 14.9832 1.52762H17.5523C18.9711 1.52762 20.1213 2.67781 20.1213 4.09665V6.66568C20.1213 8.08451 18.9711 9.23471 17.5523 9.23471H14.9832C13.5644 9.23471 12.4142 8.08451 12.4142 6.66568V4.09665Z" stroke="white" stroke-width="1.71269" stroke-linecap="round" stroke-linejoin="round"/>
<path d="M12.4142 15.2291C12.4142 13.8103 13.5644 12.6601 14.9832 12.6601H17.5523C18.9711 12.6601 20.1213 13.8103 20.1213 15.2291V17.7981C20.1213 19.217 18.9711 20.3672 17.5523 20.3672H14.9832C13.5644 20.3672 12.4142 19.217 12.4142 17.7981V15.2291Z" stroke="white" stroke-width="1.71269" stroke-linecap="round" stroke-linejoin="round"/>
</svg>
